ISO-10303-21;
HEADER;
/*Generated by software containing ST-Developer
 * from STEP Tools, Inc. (www.steptools.com) 
 */
/*OPTION: using custom renumber hook */
/*description */
/*implementation_level */
FILE_DESCRIPTION(('STEP AP242 Edition 2','STEP AP242 Edition 2''CAx-IF Rec.Pracs.---Representation and Presentation of Product Manufa
cturing Information (PMI)---4.0---2014-10-13','STEP AP242 Edition 2''CAx-IF Rec.Pracs.---Representation and Presentation of Product Manufa
cturing Information (PMI)---4.0---2014-10-13''CAx-IF Rec.Pracs.---3D Tessellated Geometry---0.4---2014-09-14','STEP AP242 Edition 2''CAx-IF Rec.Pracs.---Representation and Presentation of Product Manufa
cturing Information (PMI)---4.0---2014-10-13''CAx-IF Rec.Pracs.---3D Tessellated Geometry---0.4---2014-09-14''2;1','STEP AP242 Edition 2''CAx-IF Rec.Pracs.---Representation and Presentation of Product Manufa
cturing Information (PMI)---4.0---2014-10-13''CAx-IF Rec.Pracs.---3D Tessellated Geometry---0.4---2014-09-14''2;1''CAx-IF Rec.Pracs.---User Defined Attributes---1.5---2016-08-15'),'2;1');
/*name */
/*time_stamp */
/*author */
/*organization */
/*preprocessor_version */
/*originating_system */
/*authorisation */
FILE_NAME('/vol/tmp/translate-13206117172742525499/Main - left-knee.step','2026-02-26T08:45:16',(''),(''),'ST-DEVELOPER v20','ONSHAPE BY PTC INC, 1.211','  ');
FILE_SCHEMA(('AP242_MANAGED_MODEL_BASED_3D_ENGINEERING_MIM_LF { 1 0 10303 442 3 1 4 }'));
ENDSEC;
DATA;
#10=SHAPE_REPRESENTATION_RELATIONSHIP('','',#1032,#11);
#11=ADVANCED_BREP_SHAPE_REPRESENTATION('',(#1030),#1696);
#12=CONICAL_SURFACE('',#1097,0.0042,0.785398163397443);
#13=CONICAL_SURFACE('',#1101,0.0012,0.785398163397448);
#14=CONICAL_SURFACE('',#1103,0.0042,0.785398163397448);
#15=CONICAL_SURFACE('',#1104,0.0012,0.785398163397452);
#16=B_SPLINE_CURVE_WITH_KNOTS('',3,(#1601,#1602,#1603,#1604,#1605,#1606,#1607,#1608,#1609,#1610,#1611),.UNSPECIFIED.,.F.,.F.,(4,1,1,1,1,1,1,1,4),(0.,0.000746914349829475,0.00149382869965895,0.00224074304948842,0.0029876573993179,0.00373457174914738,0.00448148609897685,0.00522840044880632,0.0059753147986358),.UNSPECIFIED.);
#17=B_SPLINE_CURVE_WITH_KNOTS('',3,(#1612,#1613,#1614,#1615,#1616,#1617,#1618,#1619,#1620,#1621,#1622),.UNSPECIFIED.,.F.,.F.,(4,1,1,1,1,1,1,1,4),(0.,0.00074691434982948,0.00149382869965896,0.00224074304948844,0.00298765739931792,0.0037345717491474,0.00448148609897688,0.00522840044880636,0.00597531479863584),.UNSPECIFIED.);
#18=B_SPLINE_CURVE_WITH_KNOTS('',3,(#1676,#1677,#1678,#1679),.UNSPECIFIED.,.F.,.F.,(4,4),(0.00719726180575637,0.00834268970328213),.UNSPECIFIED.);
#19=CYLINDRICAL_SURFACE('',#1074,0.005);
#20=CYLINDRICAL_SURFACE('',#1076,0.005);
#21=CYLINDRICAL_SURFACE('',#1079,0.002);
#22=CYLINDRICAL_SURFACE('',#1082,0.002);
#23=CYLINDRICAL_SURFACE('',#1106,0.00125);
#24=CYLINDRICAL_SURFACE('',#1107,0.00125);
#25=CYLINDRICAL_SURFACE('',#1108,0.00125);
#26=CYLINDRICAL_SURFACE('',#1109,0.00125);
#27=CYLINDRICAL_SURFACE('',#1110,0.00125);
#28=CYLINDRICAL_SURFACE('',#1111,0.00125);
#29=ELLIPSE('',#1047,0.00129409522551261,0.00125);
#30=ELLIPSE('',#1048,0.00129409522551261,0.00125);
#31=ELLIPSE('',#1049,0.00129409522551261,0.00125);
#32=ELLIPSE('',#1050,0.00129409522551261,0.00125);
#33=ELLIPSE('',#1058,0.0025,0.00125);
#34=ELLIPSE('',#1059,0.0025,0.00125);
#35=ELLIPSE('',#1077,0.00707106781186547,0.005);
#36=ELLIPSE('',#1081,0.00282842712474621,0.002);
#37=ELLIPSE('',#1084,0.0028284271247462,0.002);
#38=CIRCLE('',#1036,0.0042);
#39=CIRCLE('',#1037,0.0012);
#40=CIRCLE('',#1038,0.0012);
#41=CIRCLE('',#1040,0.00125);
#42=CIRCLE('',#1041,0.00125);
#43=CIRCLE('',#1042,0.00125);
#44=CIRCLE('',#1043,0.00125);
#45=CIRCLE('',#1044,0.00125);
#46=CIRCLE('',#1045,0.00125);
#47=CIRCLE('',#1067,0.005);
#48=CIRCLE('',#1068,0.005);
#49=CIRCLE('',#1071,0.002);
#50=CIRCLE('',#1072,0.002);
#51=CIRCLE('',#1073,0.0042);
#52=CIRCLE('',#1075,0.005);
#53=CIRCLE('',#1078,0.005);
#54=CIRCLE('',#1080,0.002);
#55=CIRCLE('',#1083,0.002);
#56=ORIENTED_EDGE('',*,*,#334,.T.);
#57=ORIENTED_EDGE('',*,*,#335,.T.);
#58=ORIENTED_EDGE('',*,*,#336,.F.);
#59=ORIENTED_EDGE('',*,*,#337,.T.);
#60=ORIENTED_EDGE('',*,*,#338,.F.);
#61=ORIENTED_EDGE('',*,*,#339,.T.);
#62=ORIENTED_EDGE('',*,*,#340,.T.);
#63=ORIENTED_EDGE('',*,*,#341,.T.);
#64=ORIENTED_EDGE('',*,*,#342,.T.);
#65=ORIENTED_EDGE('',*,*,#343,.T.);
#66=ORIENTED_EDGE('',*,*,#344,.T.);
#67=ORIENTED_EDGE('',*,*,#345,.F.);
#68=ORIENTED_EDGE('',*,*,#346,.T.);
#69=ORIENTED_EDGE('',*,*,#347,.T.);
#70=ORIENTED_EDGE('',*,*,#348,.T.);
#71=ORIENTED_EDGE('',*,*,#349,.T.);
#72=ORIENTED_EDGE('',*,*,#350,.F.);
#73=ORIENTED_EDGE('',*,*,#351,.T.);
#74=ORIENTED_EDGE('',*,*,#352,.T.);
#75=ORIENTED_EDGE('',*,*,#353,.T.);
#76=ORIENTED_EDGE('',*,*,#354,.F.);
#77=ORIENTED_EDGE('',*,*,#355,.T.);
#78=ORIENTED_EDGE('',*,*,#336,.T.);
#79=ORIENTED_EDGE('',*,*,#356,.F.);
#80=ORIENTED_EDGE('',*,*,#357,.F.);
#81=ORIENTED_EDGE('',*,*,#358,.F.);
#82=ORIENTED_EDGE('',*,*,#359,.F.);
#83=ORIENTED_EDGE('',*,*,#360,.F.);
#84=ORIENTED_EDGE('',*,*,#361,.F.);
#85=ORIENTED_EDGE('',*,*,#362,.F.);
#86=ORIENTED_EDGE('',*,*,#363,.F.);
#87=ORIENTED_EDGE('',*,*,#364,.F.);
#88=ORIENTED_EDGE('',*,*,#365,.F.);
#89=ORIENTED_EDGE('',*,*,#366,.F.);
#90=ORIENTED_EDGE('',*,*,#367,.T.);
#91=ORIENTED_EDGE('',*,*,#368,.T.);
#92=ORIENTED_EDGE('',*,*,#369,.T.);
#93=ORIENTED_EDGE('',*,*,#370,.T.);
#94=ORIENTED_EDGE('',*,*,#371,.T.);
#95=ORIENTED_EDGE('',*,*,#372,.T.);
#96=ORIENTED_EDGE('',*,*,#373,.T.);
#97=ORIENTED_EDGE('',*,*,#374,.T.);
#98=ORIENTED_EDGE('',*,*,#375,.F.);
#99=ORIENTED_EDGE('',*,*,#376,.T.);
#100=ORIENTED_EDGE('',*,*,#375,.T.);
#101=ORIENTED_EDGE('',*,*,#377,.T.);
#102=ORIENTED_EDGE('',*,*,#378,.F.);
#103=ORIENTED_EDGE('',*,*,#379,.T.);
#104=ORIENTED_EDGE('',*,*,#378,.T.);
#105=ORIENTED_EDGE('',*,*,#380,.T.);
#106=ORIENTED_EDGE('',*,*,#381,.F.);
#107=ORIENTED_EDGE('',*,*,#382,.T.);
#108=ORIENTED_EDGE('',*,*,#383,.T.);
#109=ORIENTED_EDGE('',*,*,#384,.T.);
#110=ORIENTED_EDGE('',*,*,#385,.F.);
#111=ORIENTED_EDGE('',*,*,#386,.T.);
#112=ORIENTED_EDGE('',*,*,#385,.T.);
#113=ORIENTED_EDGE('',*,*,#387,.T.);
#114=ORIENTED_EDGE('',*,*,#388,.F.);
#115=ORIENTED_EDGE('',*,*,#389,.T.);
#116=ORIENTED_EDGE('',*,*,#390,.F.);
#117=ORIENTED_EDGE('',*,*,#391,.F.);
#118=ORIENTED_EDGE('',*,*,#392,.F.);
#119=ORIENTED_EDGE('',*,*,#393,.T.);
#120=ORIENTED_EDGE('',*,*,#388,.T.);
#121=ORIENTED_EDGE('',*,*,#394,.T.);
#122=ORIENTED_EDGE('',*,*,#395,.F.);
#123=ORIENTED_EDGE('',*,*,#396,.T.);
#124=ORIENTED_EDGE('',*,*,#397,.T.);
#125=ORIENTED_EDGE('',*,*,#354,.T.);
#126=ORIENTED_EDGE('',*,*,#398,.T.);
#127=ORIENTED_EDGE('',*,*,#399,.T.);
#128=ORIENTED_EDGE('',*,*,#400,.F.);
#129=ORIENTED_EDGE('',*,*,#401,.T.);
#130=ORIENTED_EDGE('',*,*,#402,.F.);
#131=ORIENTED_EDGE('',*,*,#403,.F.);
#132=ORIENTED_EDGE('',*,*,#404,.T.);
#133=ORIENTED_EDGE('',*,*,#392,.T.);
#134=ORIENTED_EDGE('',*,*,#405,.T.);
#135=ORIENTED_EDGE('',*,*,#406,.T.);
#136=ORIENTED_EDGE('',*,*,#383,.F.);
#137=ORIENTED_EDGE('',*,*,#407,.T.);
#138=ORIENTED_EDGE('',*,*,#408,.F.);
#139=ORIENTED_EDGE('',*,*,#409,.T.);
#140=ORIENTED_EDGE('',*,*,#405,.F.);
#141=ORIENTED_EDGE('',*,*,#410,.T.);
#142=ORIENTED_EDGE('',*,*,#403,.T.);
#143=ORIENTED_EDGE('',*,*,#411,.F.);
#144=ORIENTED_EDGE('',*,*,#381,.T.);
#145=ORIENTED_EDGE('',*,*,#412,.T.);
#146=ORIENTED_EDGE('',*,*,#413,.F.);
#147=ORIENTED_EDGE('',*,*,#414,.T.);
#148=ORIENTED_EDGE('',*,*,#415,.T.);
#149=ORIENTED_EDGE('',*,*,#416,.T.);
#150=ORIENTED_EDGE('',*,*,#373,.F.);
#151=ORIENTED_EDGE('',*,*,#417,.T.);
#152=ORIENTED_EDGE('',*,*,#413,.T.);
#153=ORIENTED_EDGE('',*,*,#418,.T.);
#154=ORIENTED_EDGE('',*,*,#415,.F.);
#155=ORIENTED_EDGE('',*,*,#419,.T.);
#156=ORIENTED_EDGE('',*,*,#397,.F.);
#157=ORIENTED_EDGE('',*,*,#420,.T.);
#158=ORIENTED_EDGE('',*,*,#372,.F.);
#159=ORIENTED_EDGE('',*,*,#421,.T.);
#160=ORIENTED_EDGE('',*,*,#337,.F.);
#161=ORIENTED_EDGE('',*,*,#355,.F.);
#162=ORIENTED_EDGE('',*,*,#407,.F.);
#163=ORIENTED_EDGE('',*,*,#386,.F.);
#164=ORIENTED_EDGE('',*,*,#389,.F.);
#165=ORIENTED_EDGE('',*,*,#393,.F.);
#166=ORIENTED_EDGE('',*,*,#404,.F.);
#167=ORIENTED_EDGE('',*,*,#410,.F.);
#168=ORIENTED_EDGE('',*,*,#417,.F.);
#169=ORIENTED_EDGE('',*,*,#376,.F.);
#170=ORIENTED_EDGE('',*,*,#379,.F.);
#171=ORIENTED_EDGE('',*,*,#382,.F.);
#172=ORIENTED_EDGE('',*,*,#414,.F.);
#173=ORIENTED_EDGE('',*,*,#419,.F.);
#174=ORIENTED_EDGE('',*,*,#422,.T.);
#175=ORIENTED_EDGE('',*,*,#423,.T.);
#176=ORIENTED_EDGE('',*,*,#424,.T.);
#177=ORIENTED_EDGE('',*,*,#425,.F.);
#178=ORIENTED_EDGE('',*,*,#426,.T.);
#179=ORIENTED_EDGE('',*,*,#427,.T.);
#180=ORIENTED_EDGE('',*,*,#428,.T.);
#181=ORIENTED_EDGE('',*,*,#429,.T.);
#182=ORIENTED_EDGE('',*,*,#430,.T.);
#183=ORIENTED_EDGE('',*,*,#431,.T.);
#184=ORIENTED_EDGE('',*,*,#432,.T.);
#185=ORIENTED_EDGE('',*,*,#433,.T.);
#186=ORIENTED_EDGE('',*,*,#434,.T.);
#187=ORIENTED_EDGE('',*,*,#425,.T.);
#188=ORIENTED_EDGE('',*,*,#435,.T.);
#189=ORIENTED_EDGE('',*,*,#436,.T.);
#190=ORIENTED_EDGE('',*,*,#437,.T.);
#191=ORIENTED_EDGE('',*,*,#438,.F.);
#192=ORIENTED_EDGE('',*,*,#401,.F.);
#193=ORIENTED_EDGE('',*,*,#439,.F.);
#194=ORIENTED_EDGE('',*,*,#399,.F.);
#195=ORIENTED_EDGE('',*,*,#440,.T.);
#196=ORIENTED_EDGE('',*,*,#367,.F.);
#197=ORIENTED_EDGE('',*,*,#420,.F.);
#198=ORIENTED_EDGE('',*,*,#396,.F.);
#199=ORIENTED_EDGE('',*,*,#441,.F.);
#200=ORIENTED_EDGE('',*,*,#442,.F.);
#201=ORIENTED_EDGE('',*,*,#334,.F.);
#202=ORIENTED_EDGE('',*,*,#421,.F.);
#203=ORIENTED_EDGE('',*,*,#371,.F.);
#204=ORIENTED_EDGE('',*,*,#443,.T.);
#205=ORIENTED_EDGE('',*,*,#352,.F.);
#206=ORIENTED_EDGE('',*,*,#444,.T.);
#207=ORIENTED_EDGE('',*,*,#422,.F.);
#208=ORIENTED_EDGE('',*,*,#434,.F.);
#209=ORIENTED_EDGE('',*,*,#445,.T.);
#210=ORIENTED_EDGE('',*,*,#424,.F.);
#211=ORIENTED_EDGE('',*,*,#446,.T.);
#212=ORIENTED_EDGE('',*,*,#369,.F.);
#213=ORIENTED_EDGE('',*,*,#447,.T.);
#214=ORIENTED_EDGE('',*,*,#435,.F.);
#215=ORIENTED_EDGE('',*,*,#448,.F.);
#216=ORIENTED_EDGE('',*,*,#412,.F.);
#217=ORIENTED_EDGE('',*,*,#449,.F.);
#218=ORIENTED_EDGE('',*,*,#430,.F.);
#219=ORIENTED_EDGE('',*,*,#449,.T.);
#220=ORIENTED_EDGE('',*,*,#380,.F.);
#221=ORIENTED_EDGE('',*,*,#450,.F.);
#222=ORIENTED_EDGE('',*,*,#431,.F.);
#223=ORIENTED_EDGE('',*,*,#448,.T.);
#224=ORIENTED_EDGE('',*,*,#429,.F.);
#225=ORIENTED_EDGE('',*,*,#451,.F.);
#226=ORIENTED_EDGE('',*,*,#418,.F.);
#227=ORIENTED_EDGE('',*,*,#450,.T.);
#228=ORIENTED_EDGE('',*,*,#377,.F.);
#229=ORIENTED_EDGE('',*,*,#452,.F.);
#230=ORIENTED_EDGE('',*,*,#426,.F.);
#231=ORIENTED_EDGE('',*,*,#451,.T.);
#232=ORIENTED_EDGE('',*,*,#428,.F.);
#233=ORIENTED_EDGE('',*,*,#453,.F.);
#234=ORIENTED_EDGE('',*,*,#416,.F.);
#235=ORIENTED_EDGE('',*,*,#452,.T.);
#236=ORIENTED_EDGE('',*,*,#374,.F.);
#237=ORIENTED_EDGE('',*,*,#453,.T.);
#238=ORIENTED_EDGE('',*,*,#427,.F.);
#239=ORIENTED_EDGE('',*,*,#454,.F.);
#240=ORIENTED_EDGE('',*,*,#394,.F.);
#241=ORIENTED_EDGE('',*,*,#455,.F.);
#242=ORIENTED_EDGE('',*,*,#346,.F.);
#243=ORIENTED_EDGE('',*,*,#456,.F.);
#244=ORIENTED_EDGE('',*,*,#457,.F.);
#245=ORIENTED_EDGE('',*,*,#409,.F.);
#246=ORIENTED_EDGE('',*,*,#455,.T.);
#247=ORIENTED_EDGE('',*,*,#387,.F.);
#248=ORIENTED_EDGE('',*,*,#458,.F.);
#249=ORIENTED_EDGE('',*,*,#347,.F.);
#250=ORIENTED_EDGE('',*,*,#459,.F.);
#251=ORIENTED_EDGE('',*,*,#349,.F.);
#252=ORIENTED_EDGE('',*,*,#460,.F.);
#253=ORIENTED_EDGE('',*,*,#406,.F.);
#254=ORIENTED_EDGE('',*,*,#457,.T.);
#255=ORIENTED_EDGE('',*,*,#458,.T.);
#256=ORIENTED_EDGE('',*,*,#384,.F.);
#257=ORIENTED_EDGE('',*,*,#460,.T.);
#258=ORIENTED_EDGE('',*,*,#348,.F.);
#259=ORIENTED_EDGE('',*,*,#447,.F.);
#260=ORIENTED_EDGE('',*,*,#368,.F.);
#261=ORIENTED_EDGE('',*,*,#461,.F.);
#262=ORIENTED_EDGE('',*,*,#436,.F.);
#263=ORIENTED_EDGE('',*,*,#461,.T.);
#264=ORIENTED_EDGE('',*,*,#440,.F.);
#265=ORIENTED_EDGE('',*,*,#462,.F.);
#266=ORIENTED_EDGE('',*,*,#437,.F.);
#267=ORIENTED_EDGE('',*,*,#462,.T.);
#268=ORIENTED_EDGE('',*,*,#398,.F.);
#269=ORIENTED_EDGE('',*,*,#463,.F.);
#270=ORIENTED_EDGE('',*,*,#432,.F.);
#271=ORIENTED_EDGE('',*,*,#445,.F.);
#272=ORIENTED_EDGE('',*,*,#433,.F.);
#273=ORIENTED_EDGE('',*,*,#463,.T.);
#274=ORIENTED_EDGE('',*,*,#353,.F.);
#275=ORIENTED_EDGE('',*,*,#464,.F.);
#276=ORIENTED_EDGE('',*,*,#344,.F.);
#277=ORIENTED_EDGE('',*,*,#465,.F.);
#278=ORIENTED_EDGE('',*,*,#351,.F.);
#279=ORIENTED_EDGE('',*,*,#465,.T.);
#280=ORIENTED_EDGE('',*,*,#343,.F.);
#281=ORIENTED_EDGE('',*,*,#466,.F.);
#282=ORIENTED_EDGE('',*,*,#444,.F.);
#283=ORIENTED_EDGE('',*,*,#466,.T.);
#284=ORIENTED_EDGE('',*,*,#342,.F.);
#285=ORIENTED_EDGE('',*,*,#467,.F.);
#286=ORIENTED_EDGE('',*,*,#423,.F.);
#287=ORIENTED_EDGE('',*,*,#468,.F.);
#288=ORIENTED_EDGE('',*,*,#443,.F.);
#289=ORIENTED_EDGE('',*,*,#469,.F.);
#290=ORIENTED_EDGE('',*,*,#339,.F.);
#291=ORIENTED_EDGE('',*,*,#467,.T.);
#292=ORIENTED_EDGE('',*,*,#341,.F.);
#293=ORIENTED_EDGE('',*,*,#470,.F.);
#294=ORIENTED_EDGE('',*,*,#446,.F.);
#295=ORIENTED_EDGE('',*,*,#469,.T.);
#296=ORIENTED_EDGE('',*,*,#370,.F.);
#297=ORIENTED_EDGE('',*,*,#470,.T.);
#298=ORIENTED_EDGE('',*,*,#340,.F.);
#299=ORIENTED_EDGE('',*,*,#366,.T.);
#300=ORIENTED_EDGE('',*,*,#362,.T.);
#301=ORIENTED_EDGE('',*,*,#365,.T.);
#302=ORIENTED_EDGE('',*,*,#361,.T.);
#303=ORIENTED_EDGE('',*,*,#364,.T.);
#304=ORIENTED_EDGE('',*,*,#360,.T.);
#305=ORIENTED_EDGE('',*,*,#363,.T.);
#306=ORIENTED_EDGE('',*,*,#359,.T.);
#307=ORIENTED_EDGE('',*,*,#400,.T.);
#308=ORIENTED_EDGE('',*,*,#439,.T.);
#309=ORIENTED_EDGE('',*,*,#358,.T.);
#310=ORIENTED_EDGE('',*,*,#395,.T.);
#311=ORIENTED_EDGE('',*,*,#438,.T.);
#312=ORIENTED_EDGE('',*,*,#357,.T.);
#313=ORIENTED_EDGE('',*,*,#390,.T.);
#314=ORIENTED_EDGE('',*,*,#454,.T.);
#315=ORIENTED_EDGE('',*,*,#345,.T.);
#316=ORIENTED_EDGE('',*,*,#464,.T.);
#317=ORIENTED_EDGE('',*,*,#350,.T.);
#318=ORIENTED_EDGE('',*,*,#471,.F.);
#319=ORIENTED_EDGE('',*,*,#408,.T.);
#320=ORIENTED_EDGE('',*,*,#472,.F.);
#321=ORIENTED_EDGE('',*,*,#441,.T.);
#322=ORIENTED_EDGE('',*,*,#468,.T.);
#323=ORIENTED_EDGE('',*,*,#338,.T.);
#324=ORIENTED_EDGE('',*,*,#459,.T.);
#325=ORIENTED_EDGE('',*,*,#456,.T.);
#326=ORIENTED_EDGE('',*,*,#356,.T.);
#327=ORIENTED_EDGE('',*,*,#335,.F.);
#328=ORIENTED_EDGE('',*,*,#442,.T.);
#329=ORIENTED_EDGE('',*,*,#472,.T.);
#330=ORIENTED_EDGE('',*,*,#411,.T.);
#331=ORIENTED_EDGE('',*,*,#402,.T.);
#332=ORIENTED_EDGE('',*,*,#391,.T.);
#333=ORIENTED_EDGE('',*,*,#471,.T.);
#334=EDGE_CURVE('',#473,#474,#563,.T.);
#335=EDGE_CURVE('',#474,#475,#564,.T.);
#336=EDGE_CURVE('',#476,#475,#565,.T.);
#337=EDGE_CURVE('',#476,#473,#566,.T.);
#338=EDGE_CURVE('',#477,#478,#567,.T.);
#339=EDGE_CURVE('',#477,#479,#38,.F.);
#340=EDGE_CURVE('',#479,#480,#568,.T.);
#341=EDGE_CURVE('',#480,#481,#39,.F.);
#342=EDGE_CURVE('',#481,#482,#569,.T.);
#343=EDGE_CURVE('',#482,#483,#40,.F.);
#344=EDGE_CURVE('',#483,#484,#570,.T.);
#345=EDGE_CURVE('',#485,#484,#571,.T.);
#346=EDGE_CURVE('',#485,#486,#572,.T.);
#347=EDGE_CURVE('',#486,#487,#573,.T.);
#348=EDGE_CURVE('',#487,#488,#574,.T.);
#349=EDGE_CURVE('',#488,#478,#575,.T.);
#350=EDGE_CURVE('',#489,#490,#576,.T.);
#351=EDGE_CURVE('',#489,#491,#577,.T.);
#352=EDGE_CURVE('',#491,#492,#578,.F.);
#353=EDGE_CURVE('',#492,#493,#579,.T.);
#354=EDGE_CURVE('',#494,#493,#580,.T.);
#355=EDGE_CURVE('',#494,#476,#581,.T.);
#356=EDGE_CURVE('',#490,#475,#582,.T.);
#357=EDGE_CURVE('',#495,#495,#41,.T.);
#358=EDGE_CURVE('',#496,#496,#42,.T.);
#359=EDGE_CURVE('',#497,#497,#43,.T.);
#360=EDGE_CURVE('',#498,#498,#44,.T.);
#361=EDGE_CURVE('',#499,#499,#45,.T.);
#362=EDGE_CURVE('',#500,#500,#46,.T.);
#363=EDGE_CURVE('',#501,#501,#29,.T.);
#364=EDGE_CURVE('',#502,#502,#30,.T.);
#365=EDGE_CURVE('',#503,#503,#31,.T.);
#366=EDGE_CURVE('',#504,#504,#32,.T.);
#367=EDGE_CURVE('',#505,#506,#583,.T.);
#368=EDGE_CURVE('',#506,#507,#584,.T.);
#369=EDGE_CURVE('',#507,#508,#585,.T.);
#370=EDGE_CURVE('',#508,#509,#586,.T.);
#371=EDGE_CURVE('',#509,#510,#587,.F.);
#372=EDGE_CURVE('',#510,#505,#588,.T.);
#373=EDGE_CURVE('',#511,#512,#589,.T.);
#374=EDGE_CURVE('',#512,#513,#590,.T.);
#375=EDGE_CURVE('',#514,#513,#591,.T.);
#376=EDGE_CURVE('',#514,#511,#592,.T.);
#377=EDGE_CURVE('',#513,#515,#593,.T.);
#378=EDGE_CURVE('',#516,#515,#594,.T.);
#379=EDGE_CURVE('',#516,#514,#595,.T.);
#380=EDGE_CURVE('',#515,#517,#596,.T.);
#381=EDGE_CURVE('',#518,#517,#597,.T.);
#382=EDGE_CURVE('',#518,#516,#598,.T.);
#383=EDGE_CURVE('',#519,#520,#599,.T.);
#384=EDGE_CURVE('',#520,#521,#600,.T.);
#385=EDGE_CURVE('',#522,#521,#601,.T.);
#386=EDGE_CURVE('',#522,#519,#602,.T.);
#387=EDGE_CURVE('',#521,#523,#603,.T.);
#388=EDGE_CURVE('',#524,#523,#604,.T.);
#389=EDGE_CURVE('',#524,#522,#605,.T.);
#390=EDGE_CURVE('',#525,#526,#606,.T.);
#391=EDGE_CURVE('',#527,#525,#607,.T.);
#392=EDGE_CURVE('',#528,#527,#608,.T.);
#393=EDGE_CURVE('',#528,#524,#609,.T.);
#394=EDGE_CURVE('',#523,#526,#610,.T.);
#395=EDGE_CURVE('',#529,#530,#33,.T.);
#396=EDGE_CURVE('',#529,#531,#611,.F.);
#397=EDGE_CURVE('',#531,#494,#612,.T.);
#398=EDGE_CURVE('',#493,#532,#613,.T.);
#399=EDGE_CURVE('',#532,#533,#614,.F.);
#400=EDGE_CURVE('',#534,#533,#34,.T.);
#401=EDGE_CURVE('',#534,#530,#615,.F.);
#402=EDGE_CURVE('',#535,#527,#616,.T.);
#403=EDGE_CURVE('',#536,#535,#617,.T.);
#404=EDGE_CURVE('',#536,#528,#618,.T.);
#405=EDGE_CURVE('',#537,#538,#619,.T.);
#406=EDGE_CURVE('',#538,#520,#620,.T.);
#407=EDGE_CURVE('',#519,#537,#621,.T.);
#408=EDGE_CURVE('',#539,#540,#622,.T.);
#409=EDGE_CURVE('',#539,#538,#623,.T.);
#410=EDGE_CURVE('',#537,#536,#624,.T.);
#411=EDGE_CURVE('',#540,#535,#625,.T.);
#412=EDGE_CURVE('',#517,#541,#626,.T.);
#413=EDGE_CURVE('',#542,#541,#627,.T.);
#414=EDGE_CURVE('',#542,#518,#628,.T.);
#415=EDGE_CURVE('',#543,#544,#629,.T.);
#416=EDGE_CURVE('',#544,#512,#630,.T.);
#417=EDGE_CURVE('',#511,#543,#631,.T.);
#418=EDGE_CURVE('',#541,#544,#632,.T.);
#419=EDGE_CURVE('',#543,#542,#633,.T.);
#420=EDGE_CURVE('',#531,#505,#47,.T.);
#421=EDGE_CURVE('',#510,#473,#48,.T.);
#422=EDGE_CURVE('',#545,#546,#634,.T.);
#423=EDGE_CURVE('',#546,#547,#635,.T.);
#424=EDGE_CURVE('',#547,#548,#636,.F.);
#425=EDGE_CURVE('',#545,#548,#637,.T.);
#426=EDGE_CURVE('',#549,#550,#638,.T.);
#427=EDGE_CURVE('',#550,#551,#639,.T.);
#428=EDGE_CURVE('',#551,#552,#640,.T.);
#429=EDGE_CURVE('',#552,#553,#641,.T.);
#430=EDGE_CURVE('',#553,#554,#642,.T.);
#431=EDGE_CURVE('',#554,#549,#643,.T.);
#432=EDGE_CURVE('',#555,#556,#644,.T.);
#433=EDGE_CURVE('',#556,#557,#645,.T.);
#434=EDGE_CURVE('',#557,#545,#49,.T.);
#435=EDGE_CURVE('',#548,#558,#50,.T.);
#436=EDGE_CURVE('',#558,#559,#646,.T.);
#437=EDGE_CURVE('',#559,#555,#51,.F.);
#438=EDGE_CURVE('',#530,#529,#16,.T.);
#439=EDGE_CURVE('',#533,#534,#17,.T.);
#440=EDGE_CURVE('',#532,#506,#52,.T.);
#441=EDGE_CURVE('',#560,#561,#647,.T.);
#442=EDGE_CURVE('',#474,#560,#35,.F.);
#443=EDGE_CURVE('',#509,#561,#53,.T.);
#444=EDGE_CURVE('',#491,#546,#54,.T.);
#445=EDGE_CURVE('',#557,#492,#36,.T.);
#446=EDGE_CURVE('',#547,#508,#55,.T.);
#447=EDGE_CURVE('',#507,#558,#37,.T.);
#448=EDGE_CURVE('',#541,#553,#648,.T.);
#449=EDGE_CURVE('',#554,#517,#649,.F.);
#450=EDGE_CURVE('',#549,#515,#650,.F.);
#451=EDGE_CURVE('',#544,#552,#651,.T.);
#452=EDGE_CURVE('',#550,#513,#652,.F.);
#453=EDGE_CURVE('',#512,#551,#653,.F.);
#454=EDGE_CURVE('',#526,#485,#654,.T.);
#455=EDGE_CURVE('',#486,#523,#655,.F.);
#456=EDGE_CURVE('',#562,#539,#656,.T.);
#457=EDGE_CURVE('',#538,#562,#657,.T.);
#458=EDGE_CURVE('',#487,#521,#658,.F.);
#459=EDGE_CURVE('',#478,#562,#659,.T.);
#460=EDGE_CURVE('',#520,#488,#660,.F.);
#461=EDGE_CURVE('',#559,#506,#661,.T.);
#462=EDGE_CURVE('',#555,#532,#662,.T.);
#463=EDGE_CURVE('',#556,#493,#663,.F.);
#464=EDGE_CURVE('',#484,#489,#664,.T.);
#465=EDGE_CURVE('',#491,#483,#665,.T.);
#466=EDGE_CURVE('',#546,#482,#666,.T.);
#467=EDGE_CURVE('',#547,#481,#667,.T.);
#468=EDGE_CURVE('',#561,#477,#18,.T.);
#469=EDGE_CURVE('',#479,#509,#668,.T.);
#470=EDGE_CURVE('',#508,#480,#669,.T.);
#471=EDGE_CURVE('',#525,#490,#670,.T.);
#472=EDGE_CURVE('',#560,#540,#671,.T.);
#473=VERTEX_POINT('',#1391);
#474=VERTEX_POINT('',#1392);
#475=VERTEX_POINT('',#1394);
#476=VERTEX_POINT('',#1396);
#477=VERTEX_POINT('',#1400);
#478=VERTEX_POINT('',#1401);
#479=VERTEX_POINT('',#1403);
#480=VERTEX_POINT('',#1405);
#481=VERTEX_POINT('',#1407);
#482=VERTEX_POINT('',#1409);
#483=VERTEX_POINT('',#1411);
#484=VERTEX_POINT('',#1413);
#485=VERTEX_POINT('',#1415);
#486=VERTEX_POINT('',#1417);
#487=VERTEX_POINT('',#1419);
#488=VERTEX_POINT('',#1421);
#489=VERTEX_POINT('',#1425);
#490=VERTEX_POINT('',#1426);
#491=VERTEX_POINT('',#1428);
#492=VERTEX_POINT('',#1430);
#493=VERTEX_POINT('',#1432);
#494=VERTEX_POINT('',#1434);
#495=VERTEX_POINT('',#1438);
#496=VERTEX_POINT('',#1440);
#497=VERTEX_POINT('',#1442);
#498=VERTEX_POINT('',#1444);
#499=VERTEX_POINT('',#1446);
#500=VERTEX_POINT('',#1448);
#501=VERTEX_POINT('',#1451);
#502=VERTEX_POINT('',#1453);
#503=VERTEX_POINT('',#1455);
#504=VERTEX_POINT('',#1457);
#505=VERTEX_POINT('',#1459);
#506=VERTEX_POINT('',#1460);
#507=VERTEX_POINT('',#1462);
#508=VERTEX_POINT('',#1464);
#509=VERTEX_POINT('',#1466);
#510=VERTEX_POINT('',#1468);
#511=VERTEX_POINT('',#1472);
#512=VERTEX_POINT('',#1473);
#513=VERTEX_POINT('',#1475);
#514=VERTEX_POINT('',#1477);
#515=VERTEX_POINT('',#1481);
#516=VERTEX_POINT('',#1483);
#517=VERTEX_POINT('',#1487);
#518=VERTEX_POINT('',#1489);
#519=VERTEX_POINT('',#1493);
#520=VERTEX_POINT('',#1494);
#521=VERTEX_POINT('',#1496);
#522=VERTEX_POINT('',#1498);
#523=VERTEX_POINT('',#1502);
#524=VERTEX_POINT('',#1504);
#525=VERTEX_POINT('',#1508);
#526=VERTEX_POINT('',#1509);
#527=VERTEX_POINT('',#1511);
#528=VERTEX_POINT('',#1513);
#529=VERTEX_POINT('',#1518);
#530=VERTEX_POINT('',#1519);
#531=VERTEX_POINT('',#1521);
#532=VERTEX_POINT('',#1524);
#533=VERTEX_POINT('',#1526);
#534=VERTEX_POINT('',#1528);
#535=VERTEX_POINT('',#1532);
#536=VERTEX_POINT('',#1534);
#537=VERTEX_POINT('',#1538);
#538=VERTEX_POINT('',#1539);
#539=VERTEX_POINT('',#1544);
#540=VERTEX_POINT('',#1545);
#541=VERTEX_POINT('',#1551);
#542=VERTEX_POINT('',#1553);
#543=VERTEX_POINT('',#1557);
#544=VERTEX_POINT('',#1558);
#545=VERTEX_POINT('',#1569);
#546=VERTEX_POINT('',#1570);
#547=VERTEX_POINT('',#1572);
#548=VERTEX_POINT('',#1574);
#549=VERTEX_POINT('',#1578);
#550=VERTEX_POINT('',#1579);
#551=VERTEX_POINT('',#1581);
#552=VERTEX_POINT('',#1583);
#553=VERTEX_POINT('',#1585);
#554=VERTEX_POINT('',#1587);
#555=VERTEX_POINT('',#1590);
#556=VERTEX_POINT('',#1591);
#557=VERTEX_POINT('',#1593);
#558=VERTEX_POINT('',#1596);
#559=VERTEX_POINT('',#1598);
#560=VERTEX_POINT('',#1626);
#561=VERTEX_POINT('',#1627);
#562=VERTEX_POINT('',#1653);
#563=LINE('',#1390,#672);
#564=LINE('',#1393,#673);
#565=LINE('',#1395,#674);
#566=LINE('',#1397,#675);
#567=LINE('',#1399,#676);
#568=LINE('',#1404,#677);
#569=LINE('',#1408,#678);
#570=LINE('',#1412,#679);
#571=LINE('',#1414,#680);
#572=LINE('',#1416,#681);
#573=LINE('',#1418,#682);
#574=LINE('',#1420,#683);
#575=LINE('',#1422,#684);
#576=LINE('',#1424,#685);
#577=LINE('',#1427,#686);
#578=LINE('',#1429,#687);
#579=LINE('',#1431,#688);
#580=LINE('',#1433,#689);
#581=LINE('',#1435,#690);
#582=LINE('',#1436,#691);
#583=LINE('',#1458,#692);
#584=LINE('',#1461,#693);
#585=LINE('',#1463,#694);
#586=LINE('',#1465,#695);
#587=LINE('',#1467,#696);
#588=LINE('',#1469,#697);
#589=LINE('',#1471,#698);
#590=LINE('',#1474,#699);
#591=LINE('',#1476,#700);
#592=LINE('',#1478,#701);
#593=LINE('',#1480,#702);
#594=LINE('',#1482,#703);
#595=LINE('',#1484,#704);
#596=LINE('',#1486,#705);
#597=LINE('',#1488,#706);
#598=LINE('',#1490,#707);
#599=LINE('',#1492,#708);
#600=LINE('',#1495,#709);
#601=LINE('',#1497,#710);
#602=LINE('',#1499,#711);
#603=LINE('',#1501,#712);
#604=LINE('',#1503,#713);
#605=LINE('',#1505,#714);
#606=LINE('',#1507,#715);
#607=LINE('',#1510,#716);
#608=LINE('',#1512,#717);
#609=LINE('',#1514,#718);
#610=LINE('',#1515,#719);
#611=LINE('',#1520,#720);
#612=LINE('',#1522,#721);
#613=LINE('',#1523,#722);
#614=LINE('',#1525,#723);
#615=LINE('',#1529,#724);
#616=LINE('',#1531,#725);
#617=LINE('',#1533,#726);
#618=LINE('',#1535,#727);
#619=LINE('',#1537,#728);
#620=LINE('',#1540,#729);
#621=LINE('',#1541,#730);
#622=LINE('',#1543,#731);
#623=LINE('',#1546,#732);
#624=LINE('',#1547,#733);
#625=LINE('',#1548,#734);
#626=LINE('',#1550,#735);
#627=LINE('',#1552,#736);
#628=LINE('',#1554,#737);
#629=LINE('',#1556,#738);
#630=LINE('',#1559,#739);
#631=LINE('',#1560,#740);
#632=LINE('',#1562,#741);
#633=LINE('',#1563,#742);
#634=LINE('',#1568,#743);
#635=LINE('',#1571,#744);
#636=LINE('',#1573,#745);
#637=LINE('',#1575,#746);
#638=LINE('',#1577,#747);
#639=LINE('',#1580,#748);
#640=LINE('',#1582,#749);
#641=LINE('',#1584,#750);
#642=LINE('',#1586,#751);
#643=LINE('',#1588,#752);
#644=LINE('',#1589,#753);
#645=LINE('',#1592,#754);
#646=LINE('',#1597,#755);
#647=LINE('',#1625,#756);
#648=LINE('',#1637,#757);
#649=LINE('',#1638,#758);
#650=LINE('',#1640,#759);
#651=LINE('',#1642,#760);
#652=LINE('',#1644,#761);
#653=LINE('',#1646,#762);
#654=LINE('',#1649,#763);
#655=LINE('',#1650,#764);
#656=LINE('',#1652,#765);
#657=LINE('',#1654,#766);
#658=LINE('',#1656,#767);
#659=LINE('',#1658,#768);
#660=LINE('',#1659,#769);
#661=LINE('',#1662,#770);
#662=LINE('',#1664,#771);
#663=LINE('',#1666,#772);
#664=LINE('',#1669,#773);
#665=LINE('',#1670,#774);
#666=LINE('',#1672,#775);
#667=LINE('',#1674,#776);
#668=LINE('',#1680,#777);
#669=LINE('',#1682,#778);
#670=LINE('',#1691,#779);
#671=LINE('',#1693,#780);
#672=VECTOR('',#1119,1.);
#673=VECTOR('',#1120,1.);
#674=VECTOR('',#1121,1.);
#675=VECTOR('',#1122,1.);
#676=VECTOR('',#1125,1.);
#677=VECTOR('',#1128,1.);
#678=VECTOR('',#1131,1.);
#679=VECTOR('',#1134,1.);
#680=VECTOR('',#1135,1.);
#681=VECTOR('',#1136,1.);
#682=VECTOR('',#1137,1.);
#683=VECTOR('',#1138,1.);
#684=VECTOR('',#1139,1.);
#685=VECTOR('',#1142,1.);
#686=VECTOR('',#1143,1.);
#687=VECTOR('',#1144,1.);
#688=VECTOR('',#1145,1.);
#689=VECTOR('',#1146,1.);
#690=VECTOR('',#1147,1.);
#691=VECTOR('',#1148,1.);
#692=VECTOR('',#1171,1.);
#693=VECTOR('',#1172,1.);
#694=VECTOR('',#1173,1.);
#695=VECTOR('',#1174,1.);
#696=VECTOR('',#1175,1.);
#697=VECTOR('',#1176,1.);
#698=VECTOR('',#1179,1.);
#699=VECTOR('',#1180,1.);
#700=VECTOR('',#1181,1.);
#701=VECTOR('',#1182,1.);
#702=VECTOR('',#1185,1.);
#703=VECTOR('',#1186,1.);
#704=VECTOR('',#1187,1.);
#705=VECTOR('',#1190,1.);
#706=VECTOR('',#1191,1.);
#707=VECTOR('',#1192,1.);
#708=VECTOR('',#1195,1.);
#709=VECTOR('',#1196,1.);
#710=VECTOR('',#1197,1.);
#711=VECTOR('',#1198,1.);
#712=VECTOR('',#1201,1.);
#713=VECTOR('',#1202,1.);
#714=VECTOR('',#1203,1.);
#715=VECTOR('',#1206,1.);
#716=VECTOR('',#1207,1.);
#717=VECTOR('',#1208,1.);
#718=VECTOR('',#1209,1.);
#719=VECTOR('',#1210,1.);
#720=VECTOR('',#1215,1.);
#721=VECTOR('',#1216,1.);
#722=VECTOR('',#1217,1.);
#723=VECTOR('',#1218,1.);
#724=VECTOR('',#1221,1.);
#725=VECTOR('',#1224,1.);
#726=VECTOR('',#1225,1.);
#727=VECTOR('',#1226,1.);
#728=VECTOR('',#1229,1.);
#729=VECTOR('',#1230,1.);
#730=VECTOR('',#1231,1.);
#731=VECTOR('',#1234,1.);
#732=VECTOR('',#1235,1.);
#733=VECTOR('',#1236,1.);
#734=VECTOR('',#1237,1.);
#735=VECTOR('',#1240,1.);
#736=VECTOR('',#1241,1.);
#737=VECTOR('',#1242,1.);
#738=VECTOR('',#1245,1.);
#739=VECTOR('',#1246,1.);
#740=VECTOR('',#1247,1.);
#741=VECTOR('',#1250,1.);
#742=VECTOR('',#1251,1.);
#743=VECTOR('',#1260,1.);
#744=VECTOR('',#1261,1.);
#745=VECTOR('',#1262,1.);
#746=VECTOR('',#1263,1.);
#747=VECTOR('',#1266,1.);
#748=VECTOR('',#1267,1.);
#749=VECTOR('',#1268,1.);
#750=VECTOR('',#1269,1.);
#751=VECTOR('',#1270,1.);
#752=VECTOR('',#1271,1.);
#753=VECTOR('',#1272,1.);
#754=VECTOR('',#1273,1.);
#755=VECTOR('',#1278,1.);
#756=VECTOR('',#1287,1.);
#757=VECTOR('',#1306,1.);
#758=VECTOR('',#1307,1.);
#759=VECTOR('',#1310,1.);
#760=VECTOR('',#1313,1.);
#761=VECTOR('',#1316,1.);
#762=VECTOR('',#1319,1.);
#763=VECTOR('',#1324,1.);
#764=VECTOR('',#1325,1.);
#765=VECTOR('',#1328,1.);
#766=VECTOR('',#1329,1.);
#767=VECTOR('',#1332,1.);
#768=VECTOR('',#1335,1.);
#769=VECTOR('',#1336,1.);
#770=VECTOR('',#1341,1.);
#771=VECTOR('',#1344,1.);
#772=VECTOR('',#1347,1.);
#773=VECTOR('',#1352,1.);
#774=VECTOR('',#1353,1.);
#775=VECTOR('',#1356,1.);
#776=VECTOR('',#1359,1.);
#777=VECTOR('',#1362,1.);
#778=VECTOR('',#1365,1.);
#779=VECTOR('',#1382,1.);
#780=VECTOR('',#1385,1.);
#781=EDGE_LOOP('',(#56,#57,#58,#59));
#782=EDGE_LOOP('',(#60,#61,#62,#63,#64,#65,#66,#67,#68,#69,#70,#71));
#783=EDGE_LOOP('',(#72,#73,#74,#75,#76,#77,#78,#79));
#784=EDGE_LOOP('',(#80));
#785=EDGE_LOOP('',(#81));
#786=EDGE_LOOP('',(#82));
#787=EDGE_LOOP('',(#83));
#788=EDGE_LOOP('',(#84));
#789=EDGE_LOOP('',(#85));
#790=EDGE_LOOP('',(#86));
#791=EDGE_LOOP('',(#87));
#792=EDGE_LOOP('',(#88));
#793=EDGE_LOOP('',(#89));
#794=EDGE_LOOP('',(#90,#91,#92,#93,#94,#95));
#795=EDGE_LOOP('',(#96,#97,#98,#99));
#796=EDGE_LOOP('',(#100,#101,#102,#103));
#797=EDGE_LOOP('',(#104,#105,#106,#107));
#798=EDGE_LOOP('',(#108,#109,#110,#111));
#799=EDGE_LOOP('',(#112,#113,#114,#115));
#800=EDGE_LOOP('',(#116,#117,#118,#119,#120,#121));
#801=EDGE_LOOP('',(#122,#123,#124,#125,#126,#127,#128,#129));
#802=EDGE_LOOP('',(#130,#131,#132,#133));
#803=EDGE_LOOP('',(#134,#135,#136,#137));
#804=EDGE_LOOP('',(#138,#139,#140,#141,#142,#143));
#805=EDGE_LOOP('',(#144,#145,#146,#147));
#806=EDGE_LOOP('',(#148,#149,#150,#151));
#807=EDGE_LOOP('',(#152,#153,#154,#155));
#808=EDGE_LOOP('',(#156,#157,#158,#159,#160,#161));
#809=EDGE_LOOP('',(#162,#163,#164,#165,#166,#167));
#810=EDGE_LOOP('',(#168,#169,#170,#171,#172,#173));
#811=EDGE_LOOP('',(#174,#175,#176,#177));
#812=EDGE_LOOP('',(#178,#179,#180,#181,#182,#183));
#813=EDGE_LOOP('',(#184,#185,#186,#187,#188,#189,#190));
#814=EDGE_LOOP('',(#191,#192,#193,#194,#195,#196,#197,#198));
#815=EDGE_LOOP('',(#199,#200,#201,#202,#203,#204));
#816=EDGE_LOOP('',(#205,#206,#207,#208,#209));
#817=EDGE_LOOP('',(#210,#211,#212,#213,#214));
#818=EDGE_LOOP('',(#215,#216,#217,#218));
#819=EDGE_LOOP('',(#219,#220,#221,#222));
#820=EDGE_LOOP('',(#223,#224,#225,#226));
#821=EDGE_LOOP('',(#227,#228,#229,#230));
#822=EDGE_LOOP('',(#231,#232,#233,#234));
#823=EDGE_LOOP('',(#235,#236,#237,#238));
#824=EDGE_LOOP('',(#239,#240,#241,#242));
#825=EDGE_LOOP('',(#243,#244,#245));
#826=EDGE_LOOP('',(#246,#247,#248,#249));
#827=EDGE_LOOP('',(#250,#251,#252,#253,#254));
#828=EDGE_LOOP('',(#255,#256,#257,#258));
#829=EDGE_LOOP('',(#259,#260,#261,#262));
#830=EDGE_LOOP('',(#263,#264,#265,#266));
#831=EDGE_LOOP('',(#267,#268,#269,#270));
#832=EDGE_LOOP('',(#271,#272,#273,#274));
#833=EDGE_LOOP('',(#275,#276,#277,#278));
#834=EDGE_LOOP('',(#279,#280,#281,#282));
#835=EDGE_LOOP('',(#283,#284,#285,#286));
#836=EDGE_LOOP('',(#287,#288,#289,#290));
#837=EDGE_LOOP('',(#291,#292,#293,#294));
#838=EDGE_LOOP('',(#295,#296,#297,#298));
#839=EDGE_LOOP('',(#299));
#840=EDGE_LOOP('',(#300));
#841=EDGE_LOOP('',(#301));
#842=EDGE_LOOP('',(#302));
#843=EDGE_LOOP('',(#303));
#844=EDGE_LOOP('',(#304));
#845=EDGE_LOOP('',(#305));
#846=EDGE_LOOP('',(#306));
#847=EDGE_LOOP('',(#307,#308));
#848=EDGE_LOOP('',(#309));
#849=EDGE_LOOP('',(#310,#311));
#850=EDGE_LOOP('',(#312));
#851=EDGE_LOOP('',(#313,#314,#315,#316,#317,#318));
#852=EDGE_LOOP('',(#319,#320,#321,#322,#323,#324,#325));
#853=EDGE_LOOP('',(#326,#327,#328,#329,#330,#331,#332,#333));
#854=FACE_BOUND('',#781,.T.);
#855=FACE_BOUND('',#782,.T.);
#856=FACE_BOUND('',#783,.T.);
#857=FACE_BOUND('',#784,.T.);
#858=FACE_BOUND('',#785,.T.);
#859=FACE_BOUND('',#786,.T.);
#860=FACE_BOUND('',#787,.T.);
#861=FACE_BOUND('',#788,.T.);
#862=FACE_BOUND('',#789,.T.);
#863=FACE_BOUND('',#790,.T.);
#864=FACE_BOUND('',#791,.T.);
#865=FACE_BOUND('',#792,.T.);
#866=FACE_BOUND('',#793,.T.);
#867=FACE_BOUND('',#794,.T.);
#868=FACE_BOUND('',#795,.T.);
#869=FACE_BOUND('',#796,.T.);
#870=FACE_BOUND('',#797,.T.);
#871=FACE_BOUND('',#798,.T.);
#872=FACE_BOUND('',#799,.T.);
#873=FACE_BOUND('',#800,.T.);
#874=FACE_BOUND('',#801,.T.);
#875=FACE_BOUND('',#802,.T.);
#876=FACE_BOUND('',#803,.T.);
#877=FACE_BOUND('',#804,.T.);
#878=FACE_BOUND('',#805,.T.);
#879=FACE_BOUND('',#806,.T.);
#880=FACE_BOUND('',#807,.T.);
#881=FACE_BOUND('',#808,.T.);
#882=FACE_BOUND('',#809,.T.);
#883=FACE_BOUND('',#810,.T.);
#884=FACE_BOUND('',#811,.T.);
#885=FACE_BOUND('',#812,.T.);
#886=FACE_BOUND('',#813,.T.);
#887=FACE_BOUND('',#814,.T.);
#888=FACE_BOUND('',#815,.T.);
#889=FACE_BOUND('',#816,.T.);
#890=FACE_BOUND('',#817,.T.);
#891=FACE_BOUND('',#818,.T.);
#892=FACE_BOUND('',#819,.T.);
#893=FACE_BOUND('',#820,.T.);
#894=FACE_BOUND('',#821,.T.);
#895=FACE_BOUND('',#822,.T.);
#896=FACE_BOUND('',#823,.T.);
#897=FACE_BOUND('',#824,.T.);
#898=FACE_BOUND('',#825,.T.);
#899=FACE_BOUND('',#826,.T.);
#900=FACE_BOUND('',#827,.T.);
#901=FACE_BOUND('',#828,.T.);
#902=FACE_BOUND('',#829,.T.);
#903=FACE_BOUND('',#830,.T.);
#904=FACE_BOUND('',#831,.T.);
#905=FACE_BOUND('',#832,.T.);
#906=FACE_BOUND('',#833,.T.);
#907=FACE_BOUND('',#834,.T.);
#908=FACE_BOUND('',#835,.T.);
#909=FACE_BOUND('',#836,.T.);
#910=FACE_BOUND('',#837,.T.);
#911=FACE_BOUND('',#838,.T.);
#912=FACE_BOUND('',#839,.T.);
#913=FACE_BOUND('',#840,.T.);
#914=FACE_BOUND('',#841,.T.);
#915=FACE_BOUND('',#842,.T.);
#916=FACE_BOUND('',#843,.T.);
#917=FACE_BOUND('',#844,.T.);
#918=FACE_BOUND('',#845,.T.);
#919=FACE_BOUND('',#846,.T.);
#920=FACE_BOUND('',#847,.T.);
#921=FACE_BOUND('',#848,.T.);
#922=FACE_BOUND('',#849,.T.);
#923=FACE_BOUND('',#850,.T.);
#924=FACE_BOUND('',#851,.T.);
#925=FACE_BOUND('',#852,.T.);
#926=FACE_BOUND('',#853,.T.);
#927=PLANE('',#1034);
#928=PLANE('',#1035);
#929=PLANE('',#1039);
#930=PLANE('',#1046);
#931=PLANE('',#1051);
#932=PLANE('',#1052);
#933=PLANE('',#1053);
#934=PLANE('',#1054);
#935=PLANE('',#1055);
#936=PLANE('',#1056);
#937=PLANE('',#1057);
#938=PLANE('',#1060);
#939=PLANE('',#1061);
#940=PLANE('',#1062);
#941=PLANE('',#1063);
#942=PLANE('',#1064);
#943=PLANE('',#1065);
#944=PLANE('',#1066);
#945=PLANE('',#1069);
#946=PLANE('',#1070);
#947=PLANE('',#1085);
#948=PLANE('',#1086);
#949=PLANE('',#1087);
#950=PLANE('',#1088);
#951=PLANE('',#1089);
#952=PLANE('',#1090);
#953=PLANE('',#1091);
#954=PLANE('',#1092);
#955=PLANE('',#1093);
#956=PLANE('',#1094);
#957=PLANE('',#1095);
#958=PLANE('',#1096);
#959=PLANE('',#1098);
#960=PLANE('',#1099);
#961=PLANE('',#1100);
#962=PLANE('',#1102);
#963=PLANE('',#1105);
#964=PLANE('',#1112);
#965=PLANE('',#1113);
#966=PLANE('',#1114);
#967=ADVANCED_FACE('',(#854),#927,.T.);
#968=ADVANCED_FACE('',(#855),#928,.F.);
#969=ADVANCED_FACE('',(#856,#857,#858,#859,#860,#861,#862),#929,.T.);
#970=ADVANCED_FACE('',(#863,#864,#865,#866,#867),#930,.T.);
#971=ADVANCED_FACE('',(#868),#931,.T.);
#972=ADVANCED_FACE('',(#869),#932,.T.);
#973=ADVANCED_FACE('',(#870),#933,.T.);
#974=ADVANCED_FACE('',(#871),#934,.T.);
#975=ADVANCED_FACE('',(#872),#935,.T.);
#976=ADVANCED_FACE('',(#873),#936,.T.);
#977=ADVANCED_FACE('',(#874),#937,.T.);
#978=ADVANCED_FACE('',(#875),#938,.T.);
#979=ADVANCED_FACE('',(#876),#939,.T.);
#980=ADVANCED_FACE('',(#877),#940,.T.);
#981=ADVANCED_FACE('',(#878),#941,.T.);
#982=ADVANCED_FACE('',(#879),#942,.T.);
#983=ADVANCED_FACE('',(#880),#943,.T.);
#984=ADVANCED_FACE('',(#881,#882,#883),#944,.T.);
#985=ADVANCED_FACE('',(#884),#945,.F.);
#986=ADVANCED_FACE('',(#885,#886),#946,.F.);
#987=ADVANCED_FACE('',(#887),#19,.T.);
#988=ADVANCED_FACE('',(#888),#20,.T.);
#989=ADVANCED_FACE('',(#889),#21,.T.);
#990=ADVANCED_FACE('',(#890),#22,.T.);
#991=ADVANCED_FACE('',(#891),#947,.T.);
#992=ADVANCED_FACE('',(#892),#948,.T.);
#993=ADVANCED_FACE('',(#893),#949,.T.);
#994=ADVANCED_FACE('',(#894),#950,.T.);
#995=ADVANCED_FACE('',(#895),#951,.T.);
#996=ADVANCED_FACE('',(#896),#952,.T.);
#997=ADVANCED_FACE('',(#897),#953,.T.);
#998=ADVANCED_FACE('',(#898),#954,.T.);
#999=ADVANCED_FACE('',(#899),#955,.T.);
#1000=ADVANCED_FACE('',(#900),#956,.T.);
#1001=ADVANCED_FACE('',(#901),#957,.T.);
#1002=ADVANCED_FACE('',(#902),#958,.T.);
#1003=ADVANCED_FACE('',(#903),#12,.T.);
#1004=ADVANCED_FACE('',(#904),#959,.T.);
#1005=ADVANCED_FACE('',(#905),#960,.T.);
#1006=ADVANCED_FACE('',(#906),#961,.T.);
#1007=ADVANCED_FACE('',(#907),#13,.T.);
#1008=ADVANCED_FACE('',(#908),#962,.F.);
#1009=ADVANCED_FACE('',(#909),#14,.T.);
#1010=ADVANCED_FACE('',(#910),#15,.T.);
#1011=ADVANCED_FACE('',(#911),#963,.T.);
#1012=ADVANCED_FACE('',(#912,#913),#23,.F.);
#1013=ADVANCED_FACE('',(#914,#915),#24,.F.);
#1014=ADVANCED_FACE('',(#916,#917),#25,.F.);
#1015=ADVANCED_FACE('',(#918,#919),#26,.F.);
#1016=ADVANCED_FACE('',(#920,#921),#27,.F.);
#1017=ADVANCED_FACE('',(#922,#923),#28,.F.);
#1018=ADVANCED_FACE('',(#924),#964,.F.);
#1019=ADVANCED_FACE('',(#925),#965,.F.);
#1020=ADVANCED_FACE('',(#926),#966,.F.);
#1021=CLOSED_SHELL('',(#967,#968,#969,#970,#971,#972,#973,#974,#975,#976,#977,#978,#979,#980,#981,#982,#983,#984,#985,#986,#987,#988,#989,#990,#991,#992,#993,#994,#995,#996,#997,#998,#999,#1000,#1001,#1002,#1003,#1004,#1005,#1006,#1007,#1008,#1009,#1010,#1011,#1012,#1013,#1014,#1015,#1016,#1017,#1018,#1019,#1020));
#1022=STYLED_ITEM('',(#1023),#1030);
#1023=PRESENTATION_STYLE_ASSIGNMENT((#1024));
#1024=SURFACE_STYLE_USAGE(.BOTH.,#1025);
#1025=SURFACE_SIDE_STYLE('',(#1026));
#1026=SURFACE_STYLE_FILL_AREA(#1027);
#1027=FILL_AREA_STYLE('',(#1028));
#1028=FILL_AREA_STYLE_COLOUR('',#1029);
#1029=COLOUR_RGB('',0.341176470588236,0.776470588235294,0.741176470588235);
#1030=MANIFOLD_SOLID_BREP('left-knee',#1021);
#1031=SHAPE_DEFINITION_REPRESENTATION(#1701,#1032);
#1032=SHAPE_REPRESENTATION('left-knee',(#1033),#1696);
#1033=AXIS2_PLACEMENT_3D('',#1388,#1115,#1116);
#1034=AXIS2_PLACEMENT_3D('',#1389,#1117,#1118);
#1035=AXIS2_PLACEMENT_3D('',#1398,#1123,#1124);
#1036=AXIS2_PLACEMENT_3D('',#1402,#1126,#1127);
#1037=AXIS2_PLACEMENT_3D('',#1406,#1129,#1130);
#1038=AXIS2_PLACEMENT_3D('',#1410,#1132,#1133);
#1039=AXIS2_PLACEMENT_3D('',#1423,#1140,#1141);
#1040=AXIS2_PLACEMENT_3D('',#1437,#1149,#1150);
#1041=AXIS2_PLACEMENT_3D('',#1439,#1151,#1152);
#1042=AXIS2_PLACEMENT_3D('',#1441,#1153,#1154);
#1043=AXIS2_PLACEMENT_3D('',#1443,#1155,#1156);
#1044=AXIS2_PLACEMENT_3D('',#1445,#1157,#1158);
#1045=AXIS2_PLACEMENT_3D('',#1447,#1159,#1160);
#1046=AXIS2_PLACEMENT_3D('',#1449,#1161,#1162);
#1047=AXIS2_PLACEMENT_3D('',#1450,#1163,#1164);
#1048=AXIS2_PLACEMENT_3D('',#1452,#1165,#1166);
#1049=AXIS2_PLACEMENT_3D('',#1454,#1167,#1168);
#1050=AXIS2_PLACEMENT_3D('',#1456,#1169,#1170);
#1051=AXIS2_PLACEMENT_3D('',#1470,#1177,#1178);
#1052=AXIS2_PLACEMENT_3D('',#1479,#1183,#1184);
#1053=AXIS2_PLACEMENT_3D('',#1485,#1188,#1189);
#1054=AXIS2_PLACEMENT_3D('',#1491,#1193,#1194);
#1055=AXIS2_PLACEMENT_3D('',#1500,#1199,#1200);
#1056=AXIS2_PLACEMENT_3D('',#1506,#1204,#1205);
#1057=AXIS2_PLACEMENT_3D('',#1516,#1211,#1212);
#1058=AXIS2_PLACEMENT_3D('',#1517,#1213,#1214);
#1059=AXIS2_PLACEMENT_3D('',#1527,#1219,#1220);
#1060=AXIS2_PLACEMENT_3D('',#1530,#1222,#1223);
#1061=AXIS2_PLACEMENT_3D('',#1536,#1227,#1228);
#1062=AXIS2_PLACEMENT_3D('',#1542,#1232,#1233);
#1063=AXIS2_PLACEMENT_3D('',#1549,#1238,#1239);
#1064=AXIS2_PLACEMENT_3D('',#1555,#1243,#1244);
#1065=AXIS2_PLACEMENT_3D('',#1561,#1248,#1249);
#1066=AXIS2_PLACEMENT_3D('',#1564,#1252,#1253);
#1067=AXIS2_PLACEMENT_3D('',#1565,#1254,#1255);
#1068=AXIS2_PLACEMENT_3D('',#1566,#1256,#1257);
#1069=AXIS2_PLACEMENT_3D('',#1567,#1258,#1259);
#1070=AXIS2_PLACEMENT_3D('',#1576,#1264,#1265);
#1071=AXIS2_PLACEMENT_3D('',#1594,#1274,#1275);
#1072=AXIS2_PLACEMENT_3D('',#1595,#1276,#1277);
#1073=AXIS2_PLACEMENT_3D('',#1599,#1279,#1280);
#1074=AXIS2_PLACEMENT_3D('',#1600,#1281,#1282);
#1075=AXIS2_PLACEMENT_3D('',#1623,#1283,#1284);
#1076=AXIS2_PLACEMENT_3D('',#1624,#1285,#1286);
#1077=AXIS2_PLACEMENT_3D('',#1628,#1288,#1289);
#1078=AXIS2_PLACEMENT_3D('',#1629,#1290,#1291);
#1079=AXIS2_PLACEMENT_3D('',#1630,#1292,#1293);
#1080=AXIS2_PLACEMENT_3D('',#1631,#1294,#1295);
#1081=AXIS2_PLACEMENT_3D('',#1632,#1296,#1297);
#1082=AXIS2_PLACEMENT_3D('',#1633,#1298,#1299);
#1083=AXIS2_PLACEMENT_3D('',#1634,#1300,#1301);
#1084=AXIS2_PLACEMENT_3D('',#1635,#1302,#1303);
#1085=AXIS2_PLACEMENT_3D('',#1636,#1304,#1305);
#1086=AXIS2_PLACEMENT_3D('',#1639,#1308,#1309);
#1087=AXIS2_PLACEMENT_3D('',#1641,#1311,#1312);
#1088=AXIS2_PLACEMENT_3D('',#1643,#1314,#1315);
#1089=AXIS2_PLACEMENT_3D('',#1645,#1317,#1318);
#1090=AXIS2_PLACEMENT_3D('',#1647,#1320,#1321);
#1091=AXIS2_PLACEMENT_3D('',#1648,#1322,#1323);
#1092=AXIS2_PLACEMENT_3D('',#1651,#1326,#1327);
#1093=AXIS2_PLACEMENT_3D('',#1655,#1330,#1331);
#1094=AXIS2_PLACEMENT_3D('',#1657,#1333,#1334);
#1095=AXIS2_PLACEMENT_3D('',#1660,#1337,#1338);
#1096=AXIS2_PLACEMENT_3D('',#1661,#1339,#1340);
#1097=AXIS2_PLACEMENT_3D('',#1663,#1342,#1343);
#1098=AXIS2_PLACEMENT_3D('',#1665,#1345,#1346);
#1099=AXIS2_PLACEMENT_3D('',#1667,#1348,#1349);
#1100=AXIS2_PLACEMENT_3D('',#1668,#1350,#1351);
#1101=AXIS2_PLACEMENT_3D('',#1671,#1354,#1355);
#1102=AXIS2_PLACEMENT_3D('',#1673,#1357,#1358);
#1103=AXIS2_PLACEMENT_3D('',#1675,#1360,#1361);
#1104=AXIS2_PLACEMENT_3D('',#1681,#1363,#1364);
#1105=AXIS2_PLACEMENT_3D('',#1683,#1366,#1367);
#1106=AXIS2_PLACEMENT_3D('',#1684,#1368,#1369);
#1107=AXIS2_PLACEMENT_3D('',#1685,#1370,#1371);
#1108=AXIS2_PLACEMENT_3D('',#1686,#1372,#1373);
#1109=AXIS2_PLACEMENT_3D('',#1687,#1374,#1375);
#1110=AXIS2_PLACEMENT_3D('',#1688,#1376,#1377);
#1111=AXIS2_PLACEMENT_3D('',#1689,#1378,#1379);
#1112=AXIS2_PLACEMENT_3D('',#1690,#1380,#1381);
#1113=AXIS2_PLACEMENT_3D('',#1692,#1383,#1384);
#1114=AXIS2_PLACEMENT_3D('',#1694,#1386,#1387);
#1115=DIRECTION('',(0.,0.,1.));
#1116=DIRECTION('',(1.,0.,0.));
#1117=DIRECTION('',(0.,0.,1.));
#1118=DIRECTION('',(1.,0.,0.));
#1119=DIRECTION('',(-1.,0.,0.));
#1120=DIRECTION('',(0.,-1.,0.));
#1121=DIRECTION('',(-1.,0.,0.));
#1122=DIRECTION('',(0.,1.,0.));
#1123=DIRECTION('',(1.,0.,0.));
#1124=DIRECTION('',(0.,1.,0.));
#1125=DIRECTION('',(0.,-1.,0.));
#1126=DIRECTION('',(1.,0.,0.));
#1127=DIRECTION('',(0.,0.,-1.));
#1128=DIRECTION('',(0.,-0.258819045102521,-0.965925826289068));
#1129=DIRECTION('',(1.,0.,0.));
#1130=DIRECTION('',(0.,0.,-1.));
#1131=DIRECTION('',(0.,-1.,0.));
#1132=DIRECTION('',(1.,0.,0.));
#1133=DIRECTION('',(0.,0.,-1.));
#1134=DIRECTION('',(0.,0.5,0.866025403784439));
#1135=DIRECTION('',(0.,-1.,0.));
#1136=DIRECTION('',(0.,-0.258819045102521,-0.965925826289068));
#1137=DIRECTION('',(0.,0.707106781186548,-0.707106781186548));
#1138=DIRECTION('',(0.,0.965925826289068,0.258819045102521));
#1139=DIRECTION('',(0.,0.258819045102521,0.965925826289068));
#1140=DIRECTION('',(0.,-0.866025403784439,0.5));
#1141=DIRECTION('',(0.,-0.5,-0.866025403784439));
#1142=DIRECTION('',(1.,0.,0.));
#1143=DIRECTION('',(0.,-0.5,-0.866025403784439));
#1144=DIRECTION('',(-1.,0.,0.));
#1145=DIRECTION('',(0.,-0.5,-0.866025403784439));
#1146=DIRECTION('',(-1.,0.,0.));
#1147=DIRECTION('',(0.,0.5,0.866025403784439));
#1148=DIRECTION('',(0.654653670707977,0.377964473009228,0.654653670707977));
#1149=DIRECTION('',(0.,-0.866025403784439,0.5));
#1150=DIRECTION('',(0.,-0.5,-0.866025403784439));
#1151=DIRECTION('',(0.,-0.866025403784439,0.5));
#1152=DIRECTION('',(0.,-0.5,-0.866025403784439));
#1153=DIRECTION('',(0.,-0.866025403784439,0.5));
#1154=DIRECTION('',(0.,-0.5,-0.866025403784439));
#1155=DIRECTION('',(0.,-0.866025403784439,0.5));
#1156=DIRECTION('',(0.,-0.5,-0.866025403784439));
#1157=DIRECTION('',(0.,-0.866025403784439,0.5));
#1158=DIRECTION('',(0.,-0.5,-0.866025403784439));
#1159=DIRECTION('',(0.,-0.866025403784439,0.5));
#1160=DIRECTION('',(0.,-0.5,-0.866025403784439));
#1161=DIRECTION('',(0.,0.965925826289068,-0.258819045102521));
#1162=DIRECTION('',(0.,0.258819045102521,0.965925826289069));
#1163=DIRECTION('',(0.,0.965925826289068,-0.258819045102521));
#1164=DIRECTION('',(0.,0.258819045102521,0.965925826289069));
#1165=DIRECTION('',(0.,0.965925826289068,-0.258819045102521));
#1166=DIRECTION('',(0.,0.258819045102521,0.965925826289069));
#1167=DIRECTION('',(0.,0.965925826289068,-0.258819045102521));
#1168=DIRECTION('',(0.,0.258819045102521,0.965925826289069));
#1169=DIRECTION('',(0.,0.965925826289068,-0.258819045102521));
#1170=DIRECTION('',(0.,0.258819045102521,0.965925826289069));
#1171=DIRECTION('',(-1.,0.,0.));
#1172=DIRECTION('',(0.,0.258819045102521,0.965925826289069));
#1173=DIRECTION('',(-1.,0.,0.));
#1174=DIRECTION('',(0.,0.258819045102521,0.965925826289069));
#1175=DIRECTION('',(-1.,0.,0.));
#1176=DIRECTION('',(0.,-0.258819045102521,-0.965925826289069));
#1177=DIRECTION('',(0.,-0.258819045102521,0.965925826289068));
#1178=DIRECTION('',(0.,-0.965925826289068,-0.258819045102521));
#1179=DIRECTION('',(-1.,0.,0.));
#1180=DIRECTION('',(0.,-0.965925826289068,-0.258819045102521));
#1181=DIRECTION('',(-1.,0.,0.));
#1182=DIRECTION('',(0.,0.965925826289068,0.258819045102521));
#1183=DIRECTION('',(0.,0.707106781186548,0.707106781186547));
#1184=DIRECTION('',(0.,-0.707106781186547,0.707106781186548));
#1185=DIRECTION('',(0.,-0.707106781186547,0.707106781186548));
#1186=DIRECTION('',(-1.,0.,0.));
#1187=DIRECTION('',(0.,0.707106781186547,-0.707106781186548));
#1188=DIRECTION('',(0.,0.965925826289068,-0.258819045102521));
#1189=DIRECTION('',(0.,0.258819045102521,0.965925826289068));
#1190=DIRECTION('',(0.,0.258819045102521,0.965925826289068));
#1191=DIRECTION('',(-1.,0.,0.));
#1192=DIRECTION('',(0.,-0.258819045102521,-0.965925826289068));
#1193=DIRECTION('',(0.,-0.258819045102521,0.965925826289068));
#1194=DIRECTION('',(0.,-0.965925826289068,-0.258819045102521));
#1195=DIRECTION('',(-1.,0.,0.));
#1196=DIRECTION('',(0.,-0.965925826289068,-0.258819045102521));
#1197=DIRECTION('',(-1.,0.,0.));
#1198=DIRECTION('',(0.,0.965925826289068,0.258819045102521));
#1199=DIRECTION('',(0.,0.707106781186548,0.707106781186548));
#1200=DIRECTION('',(0.,-0.707106781186548,0.707106781186548));
#1201=DIRECTION('',(0.,-0.707106781186548,0.707106781186548));
#1202=DIRECTION('',(-1.,0.,0.));
#1203=DIRECTION('',(0.,0.707106781186548,-0.707106781186548));
#1204=DIRECTION('',(0.,0.965925826289068,-0.258819045102521));
#1205=DIRECTION('',(0.,0.258819045102521,0.965925826289068));
#1206=DIRECTION('',(-1.,0.,0.));
#1207=DIRECTION('',(-0.694746590606865,-0.186156787897385,-0.694746590606866));
#1208=DIRECTION('',(-1.,0.,0.));
#1209=DIRECTION('',(0.,-0.258819045102521,-0.965925826289068));
#1210=DIRECTION('',(0.,0.258819045102521,0.965925826289068));
#1211=DIRECTION('',(0.,1.15406002941977E-16,-1.));
#1212=DIRECTION('',(0.,1.,1.15406002941977E-16));
#1213=DIRECTION('',(0.,1.15406002941977E-16,-1.));
#1214=DIRECTION('',(0.,-1.,-1.15406002941977E-16));
#1215=DIRECTION('',(-1.,0.,0.));
#1216=DIRECTION('',(0.,-1.,-1.15406002941977E-16));
#1217=DIRECTION('',(0.,1.,1.15406002941977E-16));
#1218=DIRECTION('',(-1.,0.,0.));
#1219=DIRECTION('',(0.,1.15406002941977E-16,-1.));
#1220=DIRECTION('',(0.,-1.,-1.15406002941977E-16));
#1221=DIRECTION('',(-1.,0.,0.));
#1222=DIRECTION('',(0.,0.258819045102521,-0.965925826289068));
#1223=DIRECTION('',(0.,0.965925826289068,0.258819045102521));
#1224=DIRECTION('',(-0.250562807085731,-0.93511312653103,-0.250562807085731));
#1225=DIRECTION('',(-1.,0.,0.));
#1226=DIRECTION('',(0.,-0.965925826289068,-0.258819045102521));
#1227=DIRECTION('',(0.,-0.965925826289068,0.258819045102521));
#1228=DIRECTION('',(0.,-0.258819045102521,-0.965925826289068));
#1229=DIRECTION('',(-1.,0.,0.));
#1230=DIRECTION('',(0.,-0.258819045102521,-0.965925826289068));
#1231=DIRECTION('',(0.,0.258819045102521,0.965925826289068));
#1232=DIRECTION('',(0.,-0.707106781186548,-0.707106781186548));
#1233=DIRECTION('',(0.,0.707106781186548,-0.707106781186548));
#1234=DIRECTION('',(1.,0.,0.));
#1235=DIRECTION('',(0.,0.707106781186548,-0.707106781186548));
#1236=DIRECTION('',(0.,-0.707106781186548,0.707106781186548));
#1237=DIRECTION('',(0.577350269189625,-0.577350269189626,0.577350269189626));
#1238=DIRECTION('',(0.,0.258819045102521,-0.965925826289068));
#1239=DIRECTION('',(0.,0.965925826289068,0.258819045102521));
#1240=DIRECTION('',(0.,0.965925826289068,0.258819045102521));
#1241=DIRECTION('',(-1.,0.,0.));
#1242=DIRECTION('',(0.,-0.965925826289068,-0.258819045102521));
#1243=DIRECTION('',(0.,-0.965925826289068,0.258819045102521));
#1244=DIRECTION('',(0.,-0.258819045102521,-0.965925826289068));
#1245=DIRECTION('',(-1.,0.,0.));
#1246=DIRECTION('',(0.,-0.258819045102521,-0.965925826289068));
#1247=DIRECTION('',(0.,0.258819045102521,0.965925826289068));
#1248=DIRECTION('',(0.,-0.707106781186547,-0.707106781186548));
#1249=DIRECTION('',(0.,0.707106781186548,-0.707106781186547));
#1250=DIRECTION('',(0.,0.707106781186548,-0.707106781186547));
#1251=DIRECTION('',(0.,-0.707106781186548,0.707106781186547));
#1252=DIRECTION('',(1.,0.,0.));
#1253=DIRECTION('',(0.,1.,0.));
#1254=DIRECTION('',(1.,0.,0.));
#1255=DIRECTION('',(0.,0.,-1.));
#1256=DIRECTION('',(1.,0.,0.));
#1257=DIRECTION('',(0.,0.,-1.));
#1258=DIRECTION('',(0.,0.,1.));
#1259=DIRECTION('',(1.,0.,0.));
#1260=DIRECTION('',(-1.,0.,0.));
#1261=DIRECTION('',(0.,1.,0.));
#1262=DIRECTION('',(-1.,0.,0.));
#1263=DIRECTION('',(0.,1.,0.));
#1264=DIRECTION('',(1.,0.,0.));
#1265=DIRECTION('',(0.,1.,0.));
#1266=DIRECTION('',(0.,0.707106781186547,-0.707106781186548));
#1267=DIRECTION('',(0.,0.965925826289068,0.258819045102521));
#1268=DIRECTION('',(0.,0.258819045102521,0.965925826289068));
#1269=DIRECTION('',(0.,-0.707106781186548,0.707106781186547));
#1270=DIRECTION('',(0.,-0.965925826289068,-0.258819045102521));
#1271=DIRECTION('',(0.,-0.258819045102521,-0.965925826289068));
#1272=DIRECTION('',(0.,-1.,-1.15406002941977E-16));
#1273=DIRECTION('',(0.,0.5,0.866025403784439));
#1274=DIRECTION('',(1.,0.,0.));
#1275=DIRECTION('',(0.,0.,-1.));
#1276=DIRECTION('',(1.,0.,0.));
#1277=DIRECTION('',(0.,0.,-1.));
#1278=DIRECTION('',(0.,-0.258819045102521,-0.965925826289068));
#1279=DIRECTION('',(1.,0.,0.));
#1280=DIRECTION('',(0.,0.,-1.));
#1281=DIRECTION('',(-1.,0.,0.));
#1282=DIRECTION('',(0.,0.,1.));
#1283=DIRECTION('',(1.,0.,0.));
#1284=DIRECTION('',(0.,0.,-1.));
#1285=DIRECTION('',(-1.,0.,0.));
#1286=DIRECTION('',(0.,0.,1.));
#1287=DIRECTION('',(-1.,0.,0.));
#1288=DIRECTION('',(0.707106781186548,0.,-0.707106781186547));
#1289=DIRECTION('',(-0.707106781186547,0.,-0.707106781186548));
#1290=DIRECTION('',(1.,0.,0.));
#1291=DIRECTION('',(0.,0.,-1.));
#1292=DIRECTION('',(1.,0.,0.));
#1293=DIRECTION('',(0.,0.,-1.));
#1294=DIRECTION('',(1.,0.,0.));
#1295=DIRECTION('',(0.,0.,-1.));
#1296=DIRECTION('',(-0.707106781186544,-0.612372435695797,0.353553390593276));
#1297=DIRECTION('',(0.707106781186551,-0.612372435695792,0.353553390593272));
#1298=DIRECTION('',(1.,0.,0.));
#1299=DIRECTION('',(0.,0.,-1.));
#1300=DIRECTION('',(1.,0.,0.));
#1301=DIRECTION('',(0.,0.,-1.));
#1302=DIRECTION('',(-0.707106781186545,0.683012701892222,-0.18301270189222));
#1303=DIRECTION('',(0.70710678118655,0.683012701892217,-0.183012701892219));
#1304=DIRECTION('',(-0.707106781186547,0.18301270189222,-0.68301270189222));
#1305=DIRECTION('',(0.,0.965925826289068,0.258819045102521));
#1306=DIRECTION('',(-0.654653670707977,0.195648807973853,0.7301712917987));
#1307=DIRECTION('',(-0.654653670707977,-0.534522483824849,0.534522483824848));
#1308=DIRECTION('',(-0.707106781186547,0.68301270189222,-0.18301270189222));
#1309=DIRECTION('',(0.,0.258819045102521,0.965925826289068));
#1310=DIRECTION('',(-0.654653670707977,-0.7301712917987,-0.195648807973851));
#1311=DIRECTION('',(-0.707106781186548,-0.5,-0.5));
#1312=DIRECTION('',(0.,0.707106781186548,-0.707106781186547));
#1313=DIRECTION('',(-0.654653670707978,0.730171291798699,0.195648807973854));
#1314=DIRECTION('',(-0.707106781186547,0.5,0.5));
#1315=DIRECTION('',(0.,-0.707106781186547,0.707106781186548));
#1316=DIRECTION('',(-0.654653670707977,-0.195648807973851,-0.7301712917987));
#1317=DIRECTION('',(-0.707106781186547,-0.68301270189222,0.18301270189222));
#1318=DIRECTION('',(0.,-0.258819045102521,-0.965925826289068));
#1319=DIRECTION('',(0.654653670707978,-0.534522483824847,0.53452248382485));
#1320=DIRECTION('',(-0.707106781186548,-0.18301270189222,0.683012701892219));
#1321=DIRECTION('',(0.,-0.965925826289068,-0.258819045102521));
#1322=DIRECTION('',(-0.707106781186548,0.683012701892219,-0.183012701892219));
#1323=DIRECTION('',(0.,0.258819045102521,0.965925826289068));
#1324=DIRECTION('',(-0.694746590606865,-0.719254596676404,0.));
#1325=DIRECTION('',(-0.654653670707976,-0.7301712917987,-0.195648807973853));
#1326=DIRECTION('',(-0.707106781186549,-0.5,-0.5));
#1327=DIRECTION('',(0.,0.707106781186548,-0.707106781186548));
#1328=DIRECTION('',(0.577350269189624,-0.816496580927727,0.));
#1329=DIRECTION('',(-0.654653670707976,0.730171291798701,0.195648807973853));
#1330=DIRECTION('',(-0.707106781186549,0.5,0.5));
#1331=DIRECTION('',(0.,-0.707106781186548,0.707106781186548));
#1332=DIRECTION('',(-0.654653670707976,-0.195648807973853,-0.730171291798701));
#1333=DIRECTION('',(-0.707106781186548,-0.683012701892219,0.183012701892219));
#1334=DIRECTION('',(0.,-0.258819045102521,-0.965925826289068));
#1335=DIRECTION('',(0.694746590606865,-0.719254596676404,0.));
#1336=DIRECTION('',(0.654653670707976,-0.534522483824849,0.534522483824849));
#1337=DIRECTION('',(-0.707106781186548,-0.183012701892219,0.683012701892219));
#1338=DIRECTION('',(0.,-0.965925826289068,-0.258819045102521));
#1339=DIRECTION('',(-0.707106781186545,0.683012701892222,-0.18301270189222));
#1340=DIRECTION('',(0.,-0.258819045102521,-0.965925826289069));
#1341=DIRECTION('',(0.70710678118655,0.683012701892217,-0.183012701892218));
#1342=DIRECTION('',(1.,0.,0.));
#1343=DIRECTION('',(0.,0.,-1.));
#1344=DIRECTION('',(0.707106781186551,0.,-0.707106781186544));
#1345=DIRECTION('',(-0.707106781186544,8.16043672699068E-17,-0.707106781186552));
#1346=DIRECTION('',(0.,1.,1.15406002941977E-16));
#1347=DIRECTION('',(-0.447213595499962,0.774596669241482,0.447213595499957));
#1348=DIRECTION('',(-0.707106781186544,-0.612372435695797,0.353553390593276));
#1349=DIRECTION('',(0.,0.5,0.866025403784439));
#1350=DIRECTION('',(-0.707106781186548,-0.612372435695794,0.353553390593274));
#1351=DIRECTION('',(0.,-0.5,-0.866025403784439));
#1352=DIRECTION('',(0.654653670707977,-0.755928946018455,0.));
#1353=DIRECTION('',(-0.707106781186548,0.612372435695795,-0.353553390593274));
#1354=DIRECTION('',(1.,0.,0.));
#1355=DIRECTION('',(0.,0.,-1.));
#1356=DIRECTION('',(-0.707106781186548,0.,0.707106781186548));
#1357=DIRECTION('',(0.707106781186548,0.,0.707106781186548));
#1358=DIRECTION('',(0.,1.,0.));
#1359=DIRECTION('',(-0.707106781186548,0.,0.707106781186548));
#1360=DIRECTION('',(1.,0.,0.));
#1361=DIRECTION('',(0.,0.,-1.));
#1362=DIRECTION('',(0.707106781186548,0.683012701892218,-0.183012701892222));
#1363=DIRECTION('',(1.,0.,0.));
#1364=DIRECTION('',(0.,0.,-1.));
#1365=DIRECTION('',(-0.707106781186545,-0.683012701892222,0.18301270189222));
#1366=DIRECTION('',(-0.707106781186547,0.68301270189222,-0.18301270189222));
#1367=DIRECTION('',(0.,0.258819045102521,0.965925826289069));
#1368=DIRECTION('',(0.,-0.866025403784438,0.5));
#1369=DIRECTION('',(0.,-0.5,-0.866025403784439));
#1370=DIRECTION('',(0.,-0.866025403784438,0.5));
#1371=DIRECTION('',(0.,-0.5,-0.866025403784439));
#1372=DIRECTION('',(0.,-0.866025403784438,0.5));
#1373=DIRECTION('',(0.,-0.5,-0.866025403784439));
#1374=DIRECTION('',(0.,-0.866025403784438,0.5));
#1375=DIRECTION('',(0.,-0.5,-0.866025403784439));
#1376=DIRECTION('',(0.,-0.866025403784438,0.5));
#1377=DIRECTION('',(0.,-0.5,-0.866025403784439));
#1378=DIRECTION('',(0.,-0.866025403784438,0.5));
#1379=DIRECTION('',(0.,-0.5,-0.866025403784439));
#1380=DIRECTION('',(0.,0.,-1.));
#1381=DIRECTION('',(-1.,0.,0.));
#1382=DIRECTION('',(0.,-1.,0.));
#1383=DIRECTION('',(0.,0.,-1.));
#1384=DIRECTION('',(-1.,0.,0.));
#1385=DIRECTION('',(0.,-1.,0.));
#1386=DIRECTION('',(0.707106781186548,0.,-0.707106781186547));
#1387=DIRECTION('',(-0.707106781186547,0.,-0.707106781186548));
#1388=CARTESIAN_POINT('',(0.,0.,0.));
#1389=CARTESIAN_POINT('',(0.085002,0.0100948261214308,0.0375));
#1390=CARTESIAN_POINT('',(0.085002,0.00990189495923028,0.0375));
#1391=CARTESIAN_POINT('',(0.085,0.00990189495923028,0.0375));
#1392=CARTESIAN_POINT('',(0.064,0.00990189495923027,0.0375));
#1393=CARTESIAN_POINT('',(0.064,0.293733561731816,0.0375));
#1394=CARTESIAN_POINT('',(0.064,0.00377163041942563,0.0375));
#1395=CARTESIAN_POINT('',(0.085002,0.00377163041942544,0.0375));
#1396=CARTESIAN_POINT('',(0.085,0.00377163041942544,0.0375));
#1397=CARTESIAN_POINT('',(0.085,0.0100948261214308,0.0375));
#1398=CARTESIAN_POINT('',(0.055,0.000857221814396899,0.0207273403386103));
#1399=CARTESIAN_POINT('',(0.055,0.293733561731816,0.0315));
#1400=CARTESIAN_POINT('',(0.055,0.0139811105701045,0.0315));
#1401=CARTESIAN_POINT('',(0.055,0.0131538847801933,0.0315));
#1402=CARTESIAN_POINT('',(0.055,0.00990189495923028,0.0325));
#1403=CARTESIAN_POINT('',(0.055,0.0139587834296444,0.0314129600105694));
#1404=CARTESIAN_POINT('',(0.055,0.0122911901449896,0.025189417145877));
#1405=CARTESIAN_POINT('',(0.055,0.0122911901449895,0.025189417145877));
#1406=CARTESIAN_POINT('',(0.055,0.0111320791534427,0.0255));
#1407=CARTESIAN_POINT('',(0.055,0.0111320791534427,0.0243));
#1408=CARTESIAN_POINT('',(0.055,0.000857221814396899,0.0243));
#1409=CARTESIAN_POINT('',(0.055,-0.000847171734091396,0.0243));
#1410=CARTESIAN_POINT('',(0.055,-0.000847171734091396,0.0255));
#1411=CARTESIAN_POINT('',(0.055,-0.00188640221863272,0.0261));
#1412=CARTESIAN_POINT('',(0.055,0.004464450742453,0.0371));
#1413=CARTESIAN_POINT('',(0.055,0.00123128923499118,0.0315));
#1414=CARTESIAN_POINT('',(0.055,0.293733561731816,0.0315));
#1415=CARTESIAN_POINT('',(0.055,0.00300817821217464,0.0315));
#1416=CARTESIAN_POINT('',(0.055,0.00258692924524396,0.0299278774527789));
#1417=CARTESIAN_POINT('',(0.055,0.00234784245266582,0.0290355933954585));
#1418=CARTESIAN_POINT('',(0.055,0.00569547843446949,0.0256879574136549));
#1419=CARTESIAN_POINT('',(0.055,0.00634867569921167,0.0250347601489127));
#1420=CARTESIAN_POINT('',(0.055,0.0109216314929784,0.0262600799608757));
#1421=CARTESIAN_POINT('',(0.055,0.0118139155502987,0.0264991667534538));
#1422=CARTESIAN_POINT('',(0.055,0.0130392353622617,0.0310721225472205));
#1423=CARTESIAN_POINT('',(0.085002,-0.00546597388760849,0.0215));
#1424=CARTESIAN_POINT('',(0.085002,0.000307528804287864,0.0315));
#1425=CARTESIAN_POINT('',(0.0558,0.000307528804287855,0.0315));
#1426=CARTESIAN_POINT('',(0.058,0.000307528804287896,0.0315));
#1427=CARTESIAN_POINT('',(0.0558,-0.00257922254166027,0.0265));
#1428=CARTESIAN_POINT('',(0.0558,-0.00257922254166028,0.0265));
#1429=CARTESIAN_POINT('',(0.063,-0.00257922254166028,0.0265));
#1430=CARTESIAN_POINT('',(0.0638,-0.00257922254166028,0.0265));
#1431=CARTESIAN_POINT('',(0.0638,-0.0147035781946424,0.0055));
#1432=CARTESIAN_POINT('',(0.0638,-0.0147035781946424,0.0055));
#1433=CARTESIAN_POINT('',(0.085002,-0.0147035781946424,0.0055));
#1434=CARTESIAN_POINT('',(0.085,-0.0147035781946424,0.0055));
#1435=CARTESIAN_POINT('',(0.085,-0.00546597388760849,0.0215));
#1436=CARTESIAN_POINT('',(0.063858,0.00368964668120064,0.037358));
#1437=CARTESIAN_POINT('',(0.079,-0.00983943139096142,0.0139249493994492));
#1438=CARTESIAN_POINT('',(0.079,-0.0104644313909614,0.0128424176447187));
#1439=CARTESIAN_POINT('',(0.069,-0.00983943139096141,0.0139249493994493));
#1440=CARTESIAN_POINT('',(0.069,-0.0104644313909614,0.0128424176447187));
#1441=CARTESIAN_POINT('',(0.069,-0.000839431390961429,0.0295134066675691));
#1442=CARTESIAN_POINT('',(0.069,-0.00146443139096143,0.0284308749128385));
#1443=CARTESIAN_POINT('',(0.069,-0.00465875965451506,0.0228981360643104));
#1444=CARTESIAN_POINT('',(0.069,-0.00528375965451506,0.0218156043095799));
#1445=CARTESIAN_POINT('',(0.079,-0.00465875965451506,0.0228981360643104));
#1446=CARTESIAN_POINT('',(0.079,-0.00528375965451506,0.0218156043095799));
#1447=CARTESIAN_POINT('',(0.079,-0.000839431390961429,0.0295134066675691));
#1448=CARTESIAN_POINT('',(0.079,-0.00146443139096143,0.0284308749128385));
#1449=CARTESIAN_POINT('',(0.085002,0.0121308347445383,0.0215));
#1450=CARTESIAN_POINT('',(0.069,0.0122526660648136,0.0219546806772206));
#1451=CARTESIAN_POINT('',(0.069,0.0125876025553525,0.0232046806772206));
#1452=CARTESIAN_POINT('',(0.069,0.0102058942171165,0.0143160241501133));
#1453=CARTESIAN_POINT('',(0.069,0.0105408307076554,0.0155660241501133));
#1454=CARTESIAN_POINT('',(0.079,0.0102058942171165,0.0143160241501133));
#1455=CARTESIAN_POINT('',(0.079,0.0105408307076554,0.0155660241501133));
#1456=CARTESIAN_POINT('',(0.079,0.0122526660648136,0.0219546806772206));
#1457=CARTESIAN_POINT('',(0.079,0.0125876025553525,0.0232046806772206));
#1458=CARTESIAN_POINT('',(0.085002,0.00883664185719093,0.00920590477448738));
#1459=CARTESIAN_POINT('',(0.085,0.00883664185719093,0.00920590477448738));
#1460=CARTESIAN_POINT('',(0.0638,0.00883664185719093,0.00920590477448738));
#1461=CARTESIAN_POINT('',(0.0638,0.0130639308060208,0.0249823619097949));
#1462=CARTESIAN_POINT('',(0.0638,0.0130639308060208,0.0249823619097949));
#1463=CARTESIAN_POINT('',(0.055,0.0130639308060208,0.0249823619097949));
#1464=CARTESIAN_POINT('',(0.0558,0.0130639308060208,0.0249823619097949));
#1465=CARTESIAN_POINT('',(0.0558,0.0147315240906756,0.0312059047744874));
#1466=CARTESIAN_POINT('',(0.0558,0.0147315240906756,0.0312059047744874));
#1467=CARTESIAN_POINT('',(0.085002,0.0147315240906756,0.0312059047744874));
#1468=CARTESIAN_POINT('',(0.085,0.0147315240906756,0.0312059047744874));
#1469=CARTESIAN_POINT('',(0.085,0.0121308347445383,0.0215));
#1470=CARTESIAN_POINT('',(0.085002,0.00384409968883095,0.00931244477324584));
#1471=CARTESIAN_POINT('',(0.085002,0.00568443555705413,0.00980556128293827));
#1472=CARTESIAN_POINT('',(0.085,0.00568443555705413,0.00980556128293827));
#1473=CARTESIAN_POINT('',(0.0646,0.00568443555705413,0.00980556128293827));
#1474=CARTESIAN_POINT('',(0.0646,0.00200376382060775,0.0088193282635534));
#1475=CARTESIAN_POINT('',(0.0646,0.00200376382060777,0.00881932826355341));
#1476=CARTESIAN_POINT('',(0.085002,0.00200376382060777,0.00881932826355341));
#1477=CARTESIAN_POINT('',(0.085,0.00200376382060777,0.00881932826355341));
#1478=CARTESIAN_POINT('',(0.085,0.00384409968883095,0.00931244477324584));
#1479=CARTESIAN_POINT('',(0.085002,0.000656544462077026,0.0101665476220841));
#1480=CARTESIAN_POINT('',(0.0646,-0.00069067489645372,0.0115137669806149));
#1481=CARTESIAN_POINT('',(0.0646,-0.000690674896453719,0.0115137669806149));
#1482=CARTESIAN_POINT('',(0.085002,-0.000690674896453719,0.0115137669806149));
#1483=CARTESIAN_POINT('',(0.085,-0.000690674896453719,0.0115137669806149));
#1484=CARTESIAN_POINT('',(0.085,0.000656544462077026,0.0101665476220841));
#1485=CARTESIAN_POINT('',(0.085002,-0.000197558386761289,0.0133541028488381));
#1486=CARTESIAN_POINT('',(0.0646,0.000295558122931138,0.0151944387170613));
#1487=CARTESIAN_POINT('',(0.0646,0.000295558122931138,0.0151944387170613));
#1488=CARTESIAN_POINT('',(0.085002,0.000295558122931138,0.0151944387170613));
#1489=CARTESIAN_POINT('',(0.085,0.000295558122931138,0.0151944387170613));
#1490=CARTESIAN_POINT('',(0.085,-0.000197558386761289,0.0133541028488381));
#1491=CARTESIAN_POINT('',(0.085002,0.00866718515259115,0.0273124447732458));
#1492=CARTESIAN_POINT('',(0.085002,0.0105075210208143,0.0278055612829382));
#1493=CARTESIAN_POINT('',(0.085,0.0105075210208143,0.0278055612829382));
#1494=CARTESIAN_POINT('',(0.0566,0.0105075210208143,0.0278055612829382));
#1495=CARTESIAN_POINT('',(0.0566,0.00682684928436797,0.0268193282635533));
#1496=CARTESIAN_POINT('',(0.0566,0.00682684928436797,0.0268193282635533));
#1497=CARTESIAN_POINT('',(0.085002,0.00682684928436797,0.0268193282635533));
#1498=CARTESIAN_POINT('',(0.085,0.00682684928436797,0.0268193282635533));
#1499=CARTESIAN_POINT('',(0.085,0.00866718515259115,0.0273124447732458));
#1500=CARTESIAN_POINT('',(0.085002,0.00547962992583723,0.0281665476220841));
#1501=CARTESIAN_POINT('',(0.0566,0.00413241056730648,0.0295137669806148));
#1502=CARTESIAN_POINT('',(0.0566,0.00413241056730648,0.0295137669806148));
#1503=CARTESIAN_POINT('',(0.085002,0.00413241056730648,0.0295137669806148));
#1504=CARTESIAN_POINT('',(0.085,0.00413241056730648,0.0295137669806148));
#1505=CARTESIAN_POINT('',(0.085,0.00547962992583723,0.0281665476220841));
#1506=CARTESIAN_POINT('',(0.085002,0.0046255270769989,0.031354102848838));
#1507=CARTESIAN_POINT('',(0.085002,0.00466462010083076,0.0315));
#1508=CARTESIAN_POINT('',(0.058,0.00466462010083075,0.0315));
#1509=CARTESIAN_POINT('',(0.0566,0.00466462010083078,0.0315));
#1510=CARTESIAN_POINT('',(0.0709576550639388,0.00813661331101421,0.0444576550639388));
#1511=CARTESIAN_POINT('',(0.0596944387170612,0.00511864358669133,0.0331944387170612));
#1512=CARTESIAN_POINT('',(0.085002,0.00511864358669133,0.0331944387170612));
#1513=CARTESIAN_POINT('',(0.085,0.00511864358669133,0.0331944387170612));
#1514=CARTESIAN_POINT('',(0.085,0.0046255270769989,0.031354102848838));
#1515=CARTESIAN_POINT('',(0.0566,0.00511864358669134,0.0331944387170612));
#1516=CARTESIAN_POINT('',(0.085002,-0.00342996526450102,0.0055));
#1517=CARTESIAN_POINT('',(0.079,0.00475300902008163,0.0055));
#1518=CARTESIAN_POINT('',(0.0801930517097801,0.00400701272574559,0.0055));
#1519=CARTESIAN_POINT('',(0.0778069482902199,0.00400701272574559,0.0055));
#1520=CARTESIAN_POINT('',(0.085002,0.00400701272574559,0.0055));
#1521=CARTESIAN_POINT('',(0.085,0.00400701272574559,0.0055));
#1522=CARTESIAN_POINT('',(0.085,-0.00342996526450102,0.0055));
#1523=CARTESIAN_POINT('',(0.0638,0.00400701272574559,0.0055));
#1524=CARTESIAN_POINT('',(0.0638,0.00400701272574559,0.0055));
#1525=CARTESIAN_POINT('',(0.085002,0.00400701272574559,0.0055));
#1526=CARTESIAN_POINT('',(0.0678069482902199,0.00400701272574559,0.0055));
#1527=CARTESIAN_POINT('',(0.069,0.00475300902008163,0.0055));
#1528=CARTESIAN_POINT('',(0.0701930517097801,0.00400701272574559,0.0055));
#1529=CARTESIAN_POINT('',(0.085002,0.00400701272574559,0.0055));
#1530=CARTESIAN_POINT('',(0.085002,0.00695897945491452,0.0336875552267536));
#1531=CARTESIAN_POINT('',(0.0617454487577754,0.0127731172654707,0.0352454487577754));
#1532=CARTESIAN_POINT('',(0.060680671736446,0.00879931532313769,0.034180671736446));
#1533=CARTESIAN_POINT('',(0.085002,0.00879931532313769,0.034180671736446));
#1534=CARTESIAN_POINT('',(0.085,0.00879931532313769,0.034180671736446));
#1535=CARTESIAN_POINT('',(0.085,0.00695897945491452,0.0336875552267536));
#1536=CARTESIAN_POINT('',(0.085002,0.0110006375305068,0.0296458971511614));
#1537=CARTESIAN_POINT('',(0.085002,0.0114937540401992,0.0314862330193846));
#1538=CARTESIAN_POINT('',(0.085,0.0114937540401992,0.0314862330193846));
#1539=CARTESIAN_POINT('',(0.0566,0.0114937540401992,0.0314862330193846));
#1540=CARTESIAN_POINT('',(0.0566,0.0105075210208143,0.0278055612829382));
#1541=CARTESIAN_POINT('',(0.085,0.0110006375305068,0.0296458971511614));
#1542=CARTESIAN_POINT('',(0.085002,0.0101465346816684,0.0328334523779153));
#1543=CARTESIAN_POINT('',(0.085002,0.0114799870595837,0.0315));
#1544=CARTESIAN_POINT('',(0.0566,0.0114799870595837,0.0315));
#1545=CARTESIAN_POINT('',(0.058,0.0114799870595837,0.0315));
#1546=CARTESIAN_POINT('',(0.0566,0.0114937540401992,0.0314862330193846));
#1547=CARTESIAN_POINT('',(0.085,0.0101465346816684,0.0328334523779153));
#1548=CARTESIAN_POINT('',(0.0678896349186102,0.00159035214097352,0.0413896349186102));
#1549=CARTESIAN_POINT('',(0.085002,0.00213589399115433,0.0156875552267536));
#1550=CARTESIAN_POINT('',(0.0646,0.0039762298593775,0.0161806717364461));
#1551=CARTESIAN_POINT('',(0.0646,0.0039762298593775,0.0161806717364461));
#1552=CARTESIAN_POINT('',(0.085002,0.0039762298593775,0.0161806717364461));
#1553=CARTESIAN_POINT('',(0.085,0.0039762298593775,0.0161806717364461));
#1554=CARTESIAN_POINT('',(0.085,0.00213589399115433,0.0156875552267536));
#1555=CARTESIAN_POINT('',(0.085002,0.00617755206674657,0.0116458971511614));
#1556=CARTESIAN_POINT('',(0.085002,0.006670668576439,0.0134862330193846));
#1557=CARTESIAN_POINT('',(0.085,0.006670668576439,0.0134862330193846));
#1558=CARTESIAN_POINT('',(0.0646,0.006670668576439,0.0134862330193846));
#1559=CARTESIAN_POINT('',(0.0646,0.00568443555705415,0.00980556128293827));
#1560=CARTESIAN_POINT('',(0.085,0.00617755206674657,0.0116458971511614));
#1561=CARTESIAN_POINT('',(0.085002,0.00532344921790825,0.0148334523779153));
#1562=CARTESIAN_POINT('',(0.0646,0.006670668576439,0.0134862330193846));
#1563=CARTESIAN_POINT('',(0.085,0.00532344921790825,0.0148334523779153));
#1564=CARTESIAN_POINT('',(0.085,-0.0178790046751853,0.));
#1565=CARTESIAN_POINT('',(0.085,0.00400701272574559,0.0105));
#1566=CARTESIAN_POINT('',(0.085,0.00990189495923028,0.0325));
#1567=CARTESIAN_POINT('',(0.063002,0.00417772989008559,0.0235));
#1568=CARTESIAN_POINT('',(0.055,-0.000847171734091396,0.0235));
#1569=CARTESIAN_POINT('',(0.063,-0.000847171734091396,0.0235));
#1570=CARTESIAN_POINT('',(0.0558,-0.000847171734091396,0.0235));
#1571=CARTESIAN_POINT('',(0.0558,0.00417772989008559,0.0235));
#1572=CARTESIAN_POINT('',(0.0558,0.0111320791534427,0.0235));
#1573=CARTESIAN_POINT('',(0.063,0.0111320791534427,0.0235));
#1574=CARTESIAN_POINT('',(0.063,0.0111320791534427,0.0235));
#1575=CARTESIAN_POINT('',(0.063,0.00417772989008559,0.0235));
#1576=CARTESIAN_POINT('',(0.063,-0.0147035781946424,0.0055));
#1577=CARTESIAN_POINT('',(0.063,0.000872392970709262,0.00768795741365494));
#1578=CARTESIAN_POINT('',(0.063,-0.00247524301109438,0.0110355933954586));
#1579=CARTESIAN_POINT('',(0.063,0.00152559023545146,0.00703476014891274));
#1580=CARTESIAN_POINT('',(0.063,0.00609854602921818,0.00826007996087576));
#1581=CARTESIAN_POINT('',(0.063,0.00699083008653851,0.00849916675345391));
#1582=CARTESIAN_POINT('',(0.063,0.00821614989850151,0.0130721225472206));
#1583=CARTESIAN_POINT('',(0.063,0.00845523669107966,0.0139644066045409));
#1584=CARTESIAN_POINT('',(0.063,0.00510760070927598,0.0173120425863445));
#1585=CARTESIAN_POINT('',(0.063,0.0044544034445338,0.0179652398510867));
#1586=CARTESIAN_POINT('',(0.063,-0.000118552349232895,0.0167399200391238));
#1587=CARTESIAN_POINT('',(0.063,-0.00101083640655323,0.0165008332465456));
#1588=CARTESIAN_POINT('',(0.063,-0.00223615621851624,0.0119278774527789));
#1589=CARTESIAN_POINT('',(0.063,-0.0147035781946424,0.0063));
#1590=CARTESIAN_POINT('',(0.063,0.00400701272574559,0.0063));
#1591=CARTESIAN_POINT('',(0.063,-0.0133179375485873,0.0063));
#1592=CARTESIAN_POINT('',(0.063,-0.00188640221863272,0.0261));
#1593=CARTESIAN_POINT('',(0.063,-0.00268640221863272,0.0247143593539449));
#1594=CARTESIAN_POINT('',(0.063,-0.000847171734091396,0.0255));
#1595=CARTESIAN_POINT('',(0.063,0.0111320791534427,0.0255));
#1596=CARTESIAN_POINT('',(0.063,0.0118770796728255,0.0236439358238145));
#1597=CARTESIAN_POINT('',(0.063,0.00806390119615967,0.0094129600105694));
#1598=CARTESIAN_POINT('',(0.063,0.00806390119615967,0.0094129600105694));
#1599=CARTESIAN_POINT('',(0.063,0.00400701272574559,0.0105));
#1600=CARTESIAN_POINT('',(0.085002,0.00400701272574559,0.0105));
#1601=CARTESIAN_POINT('',(0.0778069482902199,0.00400701272574559,0.0055));
#1602=CARTESIAN_POINT('',(0.0777678990913797,0.00425681403867716,0.0055));
#1603=CARTESIAN_POINT('',(0.0777219436530093,0.00475101739386358,0.0055364751787579));
#1604=CARTESIAN_POINT('',(0.0778267526120173,0.00549453627960702,0.00570665495680076));
#1605=CARTESIAN_POINT('',(0.0782406444497958,0.00611870607494985,0.00595837603676301));
#1606=CARTESIAN_POINT('',(0.0789944378582893,0.00638013160645182,0.00610060999406629));
#1607=CARTESIAN_POINT('',(0.0797526680445424,0.00612468637332741,0.00596127106509967));
#1608=CARTESIAN_POINT('',(0.0801710674990215,0.00550098985447925,0.00570875906757858));
#1609=CARTESIAN_POINT('',(0.0802783667230641,0.00475904658316552,0.00553742194047815));
#1610=CARTESIAN_POINT('',(0.0802322346311842,0.00425766947420508,0.0055));
#1611=CARTESIAN_POINT('',(0.0801930517097801,0.00400701272574559,0.0055));
#1612=CARTESIAN_POINT('',(0.0678069482902199,0.00400701272574559,0.0055));
#1613=CARTESIAN_POINT('',(0.0677678990913796,0.00425681403867717,0.0055));
#1614=CARTESIAN_POINT('',(0.0677219436530093,0.00475101739386358,0.0055364751787579));
#1615=CARTESIAN_POINT('',(0.0678267526120173,0.00549453627960703,0.00570665495680076));
#1616=CARTESIAN_POINT('',(0.0682406444497958,0.00611870607494985,0.005958376036763));
#1617=CARTESIAN_POINT('',(0.0689944378582893,0.00638013160645182,0.00610060999406629));
#1618=CARTESIAN_POINT('',(0.0697526680445424,0.00612468637332741,0.00596127106509966));
#1619=CARTESIAN_POINT('',(0.0701710674990214,0.00550098985447926,0.00570875906757858));
#1620=CARTESIAN_POINT('',(0.0702783667230641,0.00475904658316552,0.00553742194047815));
#1621=CARTESIAN_POINT('',(0.0702322346311842,0.00425766947420508,0.0055));
#1622=CARTESIAN_POINT('',(0.0701930517097801,0.00400701272574559,0.0055));
#1623=CARTESIAN_POINT('',(0.0638,0.00400701272574559,0.0105));
#1624=CARTESIAN_POINT('',(0.085002,0.00990189495923028,0.0325));
#1625=CARTESIAN_POINT('',(0.085002,0.0148008744447966,0.0315));
#1626=CARTESIAN_POINT('',(0.058,0.0148008744447966,0.0315));
#1627=CARTESIAN_POINT('',(0.0558,0.0148008744447966,0.0315));
#1628=CARTESIAN_POINT('',(0.059,0.00990189495923028,0.0325));
#1629=CARTESIAN_POINT('',(0.0558,0.00990189495923028,0.0325));
#1630=CARTESIAN_POINT('',(0.063002,-0.000847171734091396,0.0255));
#1631=CARTESIAN_POINT('',(0.0558,-0.000847171734091396,0.0255));
#1632=CARTESIAN_POINT('',(0.0618,-0.000847171734091396,0.0255));
#1633=CARTESIAN_POINT('',(0.085002,0.0111320791534427,0.0255));
#1634=CARTESIAN_POINT('',(0.0558,0.0111320791534427,0.0255));
#1635=CARTESIAN_POINT('',(0.0618,0.0111320791534427,0.0255));
#1636=CARTESIAN_POINT('',(0.063,-0.0165365467302073,0.012340731703403));
#1637=CARTESIAN_POINT('',(0.0683771345897642,0.00284740111662412,0.0119678255154464));
#1638=CARTESIAN_POINT('',(0.066506148706834,0.00185192202480094,0.0136380748151914));
#1639=CARTESIAN_POINT('',(0.063,-0.00467828449426123,0.00281373064909802));
#1640=CARTESIAN_POINT('',(0.0618290141170699,-0.00378130805445151,0.0106856343218285));
#1641=CARTESIAN_POINT('',(0.063,0.00110803255048906,0.0213116107451315));
#1642=CARTESIAN_POINT('',(0.0655709858829301,0.00558767454741197,0.0131960456438991));
#1643=CARTESIAN_POINT('',(0.063,-0.00582161390513911,0.0143819642895033));
#1644=CARTESIAN_POINT('',(0.0590228654102359,0.000336989794553561,0.00259884291358303));
#1645=CARTESIAN_POINT('',(0.063,0.00478778860337166,0.000277304007093312));
#1646=CARTESIAN_POINT('',(0.0683771345897641,0.0026004180788079,0.0128895787611845));
#1647=CARTESIAN_POINT('',(0.063,-0.0140001200882025,0.00287465860577011));
#1648=CARTESIAN_POINT('',(0.055,0.000170926539392431,0.0209112326033171));
#1649=CARTESIAN_POINT('',(0.0535822262503814,0.00154039081998376,0.0315));
#1650=CARTESIAN_POINT('',(0.056192837191384,0.00367827946372919,0.0293920829181535));
#1651=CARTESIAN_POINT('',(0.055,0.0126863051175836,0.0325564236417971));
#1652=CARTESIAN_POINT('',(0.0554980028806136,0.013038446331516,0.0315));
#1653=CARTESIAN_POINT('',(0.0565539347850477,0.0115451331113229,0.0315));
#1654=CARTESIAN_POINT('',(0.055207162808616,0.0130472620655926,0.031902494240224));
#1655=CARTESIAN_POINT('',(0.055,0.00575665866195547,0.0256267771861689));
#1656=CARTESIAN_POINT('',(0.0534116650161618,0.00587398830317973,0.0232632026692089));
#1657=CARTESIAN_POINT('',(0.055,0.00963699963702531,0.0183748059613124));
#1658=CARTESIAN_POINT('',(0.0567573863764853,0.011334504524841,0.0315));
#1659=CARTESIAN_POINT('',(0.0579883349838382,0.00937395025332804,0.0289391320504245));
#1660=CARTESIAN_POINT('',(0.055,0.000148224520248523,0.0233733542628009));
#1661=CARTESIAN_POINT('',(0.0638,0.0121308347445383,0.0215));
#1662=CARTESIAN_POINT('',(0.063,0.00806390119615967,0.0094129600105694));
#1663=CARTESIAN_POINT('',(0.063,0.00400701272574559,0.0105));
#1664=CARTESIAN_POINT('',(0.063,0.00400701272574559,0.0063));
#1665=CARTESIAN_POINT('',(0.063,-0.0147035781946424,0.0063));
#1666=CARTESIAN_POINT('',(0.06348,-0.0141493219362204,0.00582));
#1667=CARTESIAN_POINT('',(0.0638,-0.00546597388760849,0.0215));
#1668=CARTESIAN_POINT('',(0.055,-0.003526926086701,0.0232585293094763));
#1669=CARTESIAN_POINT('',(0.0573547059115782,-0.00148769094883289,0.0315));
#1670=CARTESIAN_POINT('',(0.0558,-0.00257922254166027,0.0265));
#1671=CARTESIAN_POINT('',(0.055,-0.000847171734091396,0.0255));
#1672=CARTESIAN_POINT('',(0.0558,-0.000847171734091396,0.0235));
#1673=CARTESIAN_POINT('',(0.0558,0.00417772989008559,0.0235));
#1674=CARTESIAN_POINT('',(0.0558,0.0111320791534427,0.0235));
#1675=CARTESIAN_POINT('',(0.055,0.00990189495923028,0.0325));
#1676=CARTESIAN_POINT('',(0.0558,0.0148008744447966,0.0315));
#1677=CARTESIAN_POINT('',(0.0555327865370776,0.0145281508462291,0.0315));
#1678=CARTESIAN_POINT('',(0.0552660129359176,0.0142550000717713,0.0315));
#1679=CARTESIAN_POINT('',(0.055,0.0139811105701045,0.0315));
#1680=CARTESIAN_POINT('',(0.055,0.0139587834296444,0.0314129600105694));
#1681=CARTESIAN_POINT('',(0.055,0.0111320791534427,0.0255));
#1682=CARTESIAN_POINT('',(0.0558,0.0130639308060208,0.0249823619097949));
#1683=CARTESIAN_POINT('',(0.055,0.0104097402980566,0.0181677507252304));
#1684=CARTESIAN_POINT('',(0.079,0.253541295012876,-0.117353374198339));
#1685=CARTESIAN_POINT('',(0.079,0.249721966749322,-0.123968644801598));
#1686=CARTESIAN_POINT('',(0.069,0.249721966749322,-0.123968644801598));
#1687=CARTESIAN_POINT('',(0.069,0.253541295012876,-0.117353374198339));
#1688=CARTESIAN_POINT('',(0.069,0.244541295012876,-0.132941831466459));
#1689=CARTESIAN_POINT('',(0.079,0.244541295012876,-0.132941831466459));
#1690=CARTESIAN_POINT('',(0.0565,0.293733561731816,0.0315));
#1691=CARTESIAN_POINT('',(0.058,0.293733561731816,0.0315));
#1692=CARTESIAN_POINT('',(0.0565,0.293733561731816,0.0315));
#1693=CARTESIAN_POINT('',(0.058,0.293733561731816,0.0315));
#1694=CARTESIAN_POINT('',(0.061,0.293733561731816,0.0345));
#1695=MECHANICAL_DESIGN_GEOMETRIC_PRESENTATION_REPRESENTATION('',(#1022),#1696);
#1696=(
GEOMETRIC_REPRESENTATION_CONTEXT(3)
GLOBAL_UNCERTAINTY_ASSIGNED_CONTEXT((#1697))
GLOBAL_UNIT_ASSIGNED_CONTEXT((#1700,#1699,#1698))
REPRESENTATION_CONTEXT('left-knee','TOP_LEVEL_ASSEMBLY_PART')
);
#1697=UNCERTAINTY_MEASURE_WITH_UNIT(LENGTH_MEASURE(2.E-05),#1700,'DISTANCE_ACCURACY_VALUE','Maximum Tolerance applied to model');
#1698=(
NAMED_UNIT(*)
SI_UNIT($,.STERADIAN.)
SOLID_ANGLE_UNIT()
);
#1699=(
NAMED_UNIT(*)
PLANE_ANGLE_UNIT()
SI_UNIT($,.RADIAN.)
);
#1700=(
LENGTH_UNIT()
NAMED_UNIT(*)
SI_UNIT($,.METRE.)
);
#1701=PRODUCT_DEFINITION_SHAPE('','',#1702);
#1702=PRODUCT_DEFINITION('','',#1704,#1703);
#1703=PRODUCT_DEFINITION_CONTEXT('',#1710,'design');
#1704=PRODUCT_DEFINITION_FORMATION_WITH_SPECIFIED_SOURCE('','',#1706,.NOT_KNOWN.);
#1705=PRODUCT_RELATED_PRODUCT_CATEGORY('','',(#1706));
#1706=PRODUCT('left-knee','left-knee','left-knee',(#1708));
#1707=PRODUCT_CATEGORY('','');
#1708=PRODUCT_CONTEXT('',#1710,'mechanical');
#1709=APPLICATION_PROTOCOL_DEFINITION('international standard','ap242_managed_model_based_3d_engineering',2020,#1710);
#1710=APPLICATION_CONTEXT('managed model based 3d engineering');
ENDSEC;
END-ISO-10303-21;
