ISO-10303-21;
HEADER;
/*Generated by software containing ST-Developer
 * from STEP Tools, Inc. (www.steptools.com) 
 */
/*OPTION: using custom renumber hook */
/*description */
/*implementation_level */
FILE_DESCRIPTION(('STEP AP242 Edition 2','STEP AP242 Edition 2''CAx-IF Rec.Pracs.---Representation and Presentation of Product Manufa
cturing Information (PMI)---4.0---2014-10-13','STEP AP242 Edition 2''CAx-IF Rec.Pracs.---Representation and Presentation of Product Manufa
cturing Information (PMI)---4.0---2014-10-13''CAx-IF Rec.Pracs.---3D Tessellated Geometry---0.4---2014-09-14','STEP AP242 Edition 2''CAx-IF Rec.Pracs.---Representation and Presentation of Product Manufa
cturing Information (PMI)---4.0---2014-10-13''CAx-IF Rec.Pracs.---3D Tessellated Geometry---0.4---2014-09-14''2;1','STEP AP242 Edition 2''CAx-IF Rec.Pracs.---Representation and Presentation of Product Manufa
cturing Information (PMI)---4.0---2014-10-13''CAx-IF Rec.Pracs.---3D Tessellated Geometry---0.4---2014-09-14''2;1''CAx-IF Rec.Pracs.---User Defined Attributes---1.5---2016-08-15'),'2;1');
/*name */
/*time_stamp */
/*author */
/*organization */
/*preprocessor_version */
/*originating_system */
/*authorisation */
FILE_NAME('/vol/tmp/translate-18208946890158826719/PBK-wedge - spacer.step','2026-02-26T08:44:16',(''),(''),'ST-DEVELOPER v20','ONSHAPE BY PTC INC, 1.211','  ');
FILE_SCHEMA(('AP242_MANAGED_MODEL_BASED_3D_ENGINEERING_MIM_LF { 1 0 10303 442 3 1 4 }'));
ENDSEC;
DATA;
#10=SHAPE_REPRESENTATION_RELATIONSHIP('','',#371,#11);
#11=ADVANCED_BREP_SHAPE_REPRESENTATION('',(#369),#585);
#12=CIRCLE('',#381,0.0075);
#13=CIRCLE('',#382,0.0075);
#14=CIRCLE('',#384,0.0075);
#15=CIRCLE('',#389,0.0075);
#16=CYLINDRICAL_SURFACE('',#380,0.0075);
#17=CYLINDRICAL_SURFACE('',#388,0.0075);
#18=ORIENTED_EDGE('',*,*,#114,.F.);
#19=ORIENTED_EDGE('',*,*,#115,.T.);
#20=ORIENTED_EDGE('',*,*,#116,.T.);
#21=ORIENTED_EDGE('',*,*,#117,.F.);
#22=ORIENTED_EDGE('',*,*,#118,.F.);
#23=ORIENTED_EDGE('',*,*,#119,.T.);
#24=ORIENTED_EDGE('',*,*,#114,.T.);
#25=ORIENTED_EDGE('',*,*,#120,.F.);
#26=ORIENTED_EDGE('',*,*,#121,.F.);
#27=ORIENTED_EDGE('',*,*,#122,.T.);
#28=ORIENTED_EDGE('',*,*,#118,.T.);
#29=ORIENTED_EDGE('',*,*,#123,.F.);
#30=ORIENTED_EDGE('',*,*,#124,.F.);
#31=ORIENTED_EDGE('',*,*,#125,.T.);
#32=ORIENTED_EDGE('',*,*,#126,.T.);
#33=ORIENTED_EDGE('',*,*,#127,.F.);
#34=ORIENTED_EDGE('',*,*,#128,.F.);
#35=ORIENTED_EDGE('',*,*,#129,.T.);
#36=ORIENTED_EDGE('',*,*,#124,.T.);
#37=ORIENTED_EDGE('',*,*,#130,.F.);
#38=ORIENTED_EDGE('',*,*,#131,.F.);
#39=ORIENTED_EDGE('',*,*,#132,.T.);
#40=ORIENTED_EDGE('',*,*,#128,.T.);
#41=ORIENTED_EDGE('',*,*,#133,.F.);
#42=ORIENTED_EDGE('',*,*,#134,.F.);
#43=ORIENTED_EDGE('',*,*,#135,.T.);
#44=ORIENTED_EDGE('',*,*,#136,.T.);
#45=ORIENTED_EDGE('',*,*,#137,.F.);
#46=ORIENTED_EDGE('',*,*,#136,.F.);
#47=ORIENTED_EDGE('',*,*,#138,.T.);
#48=ORIENTED_EDGE('',*,*,#139,.T.);
#49=ORIENTED_EDGE('',*,*,#140,.F.);
#50=ORIENTED_EDGE('',*,*,#140,.T.);
#51=ORIENTED_EDGE('',*,*,#141,.F.);
#52=ORIENTED_EDGE('',*,*,#142,.T.);
#53=ORIENTED_EDGE('',*,*,#137,.T.);
#54=ORIENTED_EDGE('',*,*,#143,.T.);
#55=ORIENTED_EDGE('',*,*,#144,.T.);
#56=ORIENTED_EDGE('',*,*,#145,.T.);
#57=ORIENTED_EDGE('',*,*,#133,.T.);
#58=ORIENTED_EDGE('',*,*,#130,.T.);
#59=ORIENTED_EDGE('',*,*,#127,.T.);
#60=ORIENTED_EDGE('',*,*,#146,.T.);
#61=ORIENTED_EDGE('',*,*,#147,.T.);
#62=ORIENTED_EDGE('',*,*,#148,.T.);
#63=ORIENTED_EDGE('',*,*,#123,.T.);
#64=ORIENTED_EDGE('',*,*,#120,.T.);
#65=ORIENTED_EDGE('',*,*,#117,.T.);
#66=ORIENTED_EDGE('',*,*,#149,.F.);
#67=ORIENTED_EDGE('',*,*,#150,.T.);
#68=ORIENTED_EDGE('',*,*,#121,.T.);
#69=ORIENTED_EDGE('',*,*,#148,.F.);
#70=ORIENTED_EDGE('',*,*,#116,.F.);
#71=ORIENTED_EDGE('',*,*,#151,.T.);
#72=ORIENTED_EDGE('',*,*,#152,.T.);
#73=ORIENTED_EDGE('',*,*,#146,.F.);
#74=ORIENTED_EDGE('',*,*,#152,.F.);
#75=ORIENTED_EDGE('',*,*,#153,.T.);
#76=ORIENTED_EDGE('',*,*,#149,.T.);
#77=ORIENTED_EDGE('',*,*,#147,.F.);
#78=ORIENTED_EDGE('',*,*,#154,.F.);
#79=ORIENTED_EDGE('',*,*,#155,.T.);
#80=ORIENTED_EDGE('',*,*,#134,.T.);
#81=ORIENTED_EDGE('',*,*,#142,.F.);
#82=ORIENTED_EDGE('',*,*,#156,.F.);
#83=ORIENTED_EDGE('',*,*,#154,.T.);
#84=ORIENTED_EDGE('',*,*,#141,.T.);
#85=ORIENTED_EDGE('',*,*,#139,.F.);
#86=ORIENTED_EDGE('',*,*,#157,.F.);
#87=ORIENTED_EDGE('',*,*,#158,.T.);
#88=ORIENTED_EDGE('',*,*,#131,.T.);
#89=ORIENTED_EDGE('',*,*,#145,.F.);
#90=ORIENTED_EDGE('',*,*,#126,.F.);
#91=ORIENTED_EDGE('',*,*,#159,.T.);
#92=ORIENTED_EDGE('',*,*,#160,.T.);
#93=ORIENTED_EDGE('',*,*,#143,.F.);
#94=ORIENTED_EDGE('',*,*,#160,.F.);
#95=ORIENTED_EDGE('',*,*,#161,.T.);
#96=ORIENTED_EDGE('',*,*,#157,.T.);
#97=ORIENTED_EDGE('',*,*,#144,.F.);
#98=ORIENTED_EDGE('',*,*,#151,.F.);
#99=ORIENTED_EDGE('',*,*,#115,.F.);
#100=ORIENTED_EDGE('',*,*,#119,.F.);
#101=ORIENTED_EDGE('',*,*,#122,.F.);
#102=ORIENTED_EDGE('',*,*,#150,.F.);
#103=ORIENTED_EDGE('',*,*,#153,.F.);
#104=ORIENTED_EDGE('',*,*,#138,.F.);
#105=ORIENTED_EDGE('',*,*,#135,.F.);
#106=ORIENTED_EDGE('',*,*,#155,.F.);
#107=ORIENTED_EDGE('',*,*,#156,.T.);
#108=ORIENTED_EDGE('',*,*,#159,.F.);
#109=ORIENTED_EDGE('',*,*,#125,.F.);
#110=ORIENTED_EDGE('',*,*,#129,.F.);
#111=ORIENTED_EDGE('',*,*,#132,.F.);
#112=ORIENTED_EDGE('',*,*,#158,.F.);
#113=ORIENTED_EDGE('',*,*,#161,.F.);
#114=EDGE_CURVE('',#162,#163,#194,.T.);
#115=EDGE_CURVE('',#162,#164,#195,.T.);
#116=EDGE_CURVE('',#164,#165,#196,.T.);
#117=EDGE_CURVE('',#163,#165,#197,.T.);
#118=EDGE_CURVE('',#166,#167,#198,.T.);
#119=EDGE_CURVE('',#166,#162,#199,.T.);
#120=EDGE_CURVE('',#167,#163,#200,.T.);
#121=EDGE_CURVE('',#168,#169,#201,.T.);
#122=EDGE_CURVE('',#168,#166,#202,.T.);
#123=EDGE_CURVE('',#169,#167,#203,.T.);
#124=EDGE_CURVE('',#170,#171,#204,.T.);
#125=EDGE_CURVE('',#170,#172,#205,.T.);
#126=EDGE_CURVE('',#172,#173,#206,.T.);
#127=EDGE_CURVE('',#171,#173,#207,.T.);
#128=EDGE_CURVE('',#174,#175,#208,.T.);
#129=EDGE_CURVE('',#174,#170,#209,.T.);
#130=EDGE_CURVE('',#175,#171,#210,.T.);
#131=EDGE_CURVE('',#176,#177,#211,.T.);
#132=EDGE_CURVE('',#176,#174,#212,.T.);
#133=EDGE_CURVE('',#177,#175,#213,.T.);
#134=EDGE_CURVE('',#178,#179,#214,.T.);
#135=EDGE_CURVE('',#178,#180,#215,.T.);
#136=EDGE_CURVE('',#180,#181,#216,.T.);
#137=EDGE_CURVE('',#179,#181,#217,.T.);
#138=EDGE_CURVE('',#180,#182,#12,.F.);
#139=EDGE_CURVE('',#182,#183,#218,.T.);
#140=EDGE_CURVE('',#181,#183,#13,.T.);
#141=EDGE_CURVE('',#184,#183,#219,.T.);
#142=EDGE_CURVE('',#184,#179,#14,.T.);
#143=EDGE_CURVE('',#173,#185,#220,.T.);
#144=EDGE_CURVE('',#185,#186,#221,.T.);
#145=EDGE_CURVE('',#186,#177,#222,.T.);
#146=EDGE_CURVE('',#165,#187,#223,.T.);
#147=EDGE_CURVE('',#187,#188,#224,.T.);
#148=EDGE_CURVE('',#188,#169,#225,.T.);
#149=EDGE_CURVE('',#189,#188,#226,.T.);
#150=EDGE_CURVE('',#189,#168,#227,.T.);
#151=EDGE_CURVE('',#164,#190,#228,.T.);
#152=EDGE_CURVE('',#190,#187,#229,.T.);
#153=EDGE_CURVE('',#190,#189,#230,.T.);
#154=EDGE_CURVE('',#191,#184,#231,.T.);
#155=EDGE_CURVE('',#191,#178,#15,.F.);
#156=EDGE_CURVE('',#191,#182,#232,.T.);
#157=EDGE_CURVE('',#192,#186,#233,.T.);
#158=EDGE_CURVE('',#192,#176,#234,.T.);
#159=EDGE_CURVE('',#172,#193,#235,.T.);
#160=EDGE_CURVE('',#193,#185,#236,.T.);
#161=EDGE_CURVE('',#193,#192,#237,.T.);
#162=VERTEX_POINT('',#488);
#163=VERTEX_POINT('',#489);
#164=VERTEX_POINT('',#491);
#165=VERTEX_POINT('',#493);
#166=VERTEX_POINT('',#497);
#167=VERTEX_POINT('',#498);
#168=VERTEX_POINT('',#503);
#169=VERTEX_POINT('',#504);
#170=VERTEX_POINT('',#509);
#171=VERTEX_POINT('',#510);
#172=VERTEX_POINT('',#512);
#173=VERTEX_POINT('',#514);
#174=VERTEX_POINT('',#518);
#175=VERTEX_POINT('',#519);
#176=VERTEX_POINT('',#524);
#177=VERTEX_POINT('',#525);
#178=VERTEX_POINT('',#530);
#179=VERTEX_POINT('',#531);
#180=VERTEX_POINT('',#533);
#181=VERTEX_POINT('',#535);
#182=VERTEX_POINT('',#539);
#183=VERTEX_POINT('',#541);
#184=VERTEX_POINT('',#545);
#185=VERTEX_POINT('',#548);
#186=VERTEX_POINT('',#550);
#187=VERTEX_POINT('',#553);
#188=VERTEX_POINT('',#555);
#189=VERTEX_POINT('',#559);
#190=VERTEX_POINT('',#563);
#191=VERTEX_POINT('',#569);
#192=VERTEX_POINT('',#575);
#193=VERTEX_POINT('',#579);
#194=LINE('',#487,#238);
#195=LINE('',#490,#239);
#196=LINE('',#492,#240);
#197=LINE('',#494,#241);
#198=LINE('',#496,#242);
#199=LINE('',#499,#243);
#200=LINE('',#500,#244);
#201=LINE('',#502,#245);
#202=LINE('',#505,#246);
#203=LINE('',#506,#247);
#204=LINE('',#508,#248);
#205=LINE('',#511,#249);
#206=LINE('',#513,#250);
#207=LINE('',#515,#251);
#208=LINE('',#517,#252);
#209=LINE('',#520,#253);
#210=LINE('',#521,#254);
#211=LINE('',#523,#255);
#212=LINE('',#526,#256);
#213=LINE('',#527,#257);
#214=LINE('',#529,#258);
#215=LINE('',#532,#259);
#216=LINE('',#534,#260);
#217=LINE('',#536,#261);
#218=LINE('',#540,#262);
#219=LINE('',#544,#263);
#220=LINE('',#547,#264);
#221=LINE('',#549,#265);
#222=LINE('',#551,#266);
#223=LINE('',#552,#267);
#224=LINE('',#554,#268);
#225=LINE('',#556,#269);
#226=LINE('',#558,#270);
#227=LINE('',#560,#271);
#228=LINE('',#562,#272);
#229=LINE('',#564,#273);
#230=LINE('',#566,#274);
#231=LINE('',#568,#275);
#232=LINE('',#572,#276);
#233=LINE('',#574,#277);
#234=LINE('',#576,#278);
#235=LINE('',#578,#279);
#236=LINE('',#580,#280);
#237=LINE('',#582,#281);
#238=VECTOR('',#399,1.);
#239=VECTOR('',#400,1.);
#240=VECTOR('',#401,1.);
#241=VECTOR('',#402,1.);
#242=VECTOR('',#405,1.);
#243=VECTOR('',#406,1.);
#244=VECTOR('',#407,1.);
#245=VECTOR('',#410,1.);
#246=VECTOR('',#411,1.);
#247=VECTOR('',#412,1.);
#248=VECTOR('',#415,1.);
#249=VECTOR('',#416,1.);
#250=VECTOR('',#417,1.);
#251=VECTOR('',#418,1.);
#252=VECTOR('',#421,1.);
#253=VECTOR('',#422,1.);
#254=VECTOR('',#423,1.);
#255=VECTOR('',#426,1.);
#256=VECTOR('',#427,1.);
#257=VECTOR('',#428,1.);
#258=VECTOR('',#431,1.);
#259=VECTOR('',#432,1.);
#260=VECTOR('',#433,1.);
#261=VECTOR('',#434,1.);
#262=VECTOR('',#439,1.);
#263=VECTOR('',#444,1.);
#264=VECTOR('',#447,1.);
#265=VECTOR('',#448,1.);
#266=VECTOR('',#449,1.);
#267=VECTOR('',#450,1.);
#268=VECTOR('',#451,1.);
#269=VECTOR('',#452,1.);
#270=VECTOR('',#455,1.);
#271=VECTOR('',#456,1.);
#272=VECTOR('',#459,1.);
#273=VECTOR('',#460,1.);
#274=VECTOR('',#463,1.);
#275=VECTOR('',#466,1.);
#276=VECTOR('',#471,1.);
#277=VECTOR('',#474,1.);
#278=VECTOR('',#475,1.);
#279=VECTOR('',#478,1.);
#280=VECTOR('',#479,1.);
#281=VECTOR('',#482,1.);
#282=EDGE_LOOP('',(#18,#19,#20,#21));
#283=EDGE_LOOP('',(#22,#23,#24,#25));
#284=EDGE_LOOP('',(#26,#27,#28,#29));
#285=EDGE_LOOP('',(#30,#31,#32,#33));
#286=EDGE_LOOP('',(#34,#35,#36,#37));
#287=EDGE_LOOP('',(#38,#39,#40,#41));
#288=EDGE_LOOP('',(#42,#43,#44,#45));
#289=EDGE_LOOP('',(#46,#47,#48,#49));
#290=EDGE_LOOP('',(#50,#51,#52,#53));
#291=EDGE_LOOP('',(#54,#55,#56,#57,#58,#59));
#292=EDGE_LOOP('',(#60,#61,#62,#63,#64,#65));
#293=EDGE_LOOP('',(#66,#67,#68,#69));
#294=EDGE_LOOP('',(#70,#71,#72,#73));
#295=EDGE_LOOP('',(#74,#75,#76,#77));
#296=EDGE_LOOP('',(#78,#79,#80,#81));
#297=EDGE_LOOP('',(#82,#83,#84,#85));
#298=EDGE_LOOP('',(#86,#87,#88,#89));
#299=EDGE_LOOP('',(#90,#91,#92,#93));
#300=EDGE_LOOP('',(#94,#95,#96,#97));
#301=EDGE_LOOP('',(#98,#99,#100,#101,#102,#103));
#302=EDGE_LOOP('',(#104,#105,#106,#107));
#303=EDGE_LOOP('',(#108,#109,#110,#111,#112,#113));
#304=FACE_BOUND('',#282,.T.);
#305=FACE_BOUND('',#283,.T.);
#306=FACE_BOUND('',#284,.T.);
#307=FACE_BOUND('',#285,.T.);
#308=FACE_BOUND('',#286,.T.);
#309=FACE_BOUND('',#287,.T.);
#310=FACE_BOUND('',#288,.T.);
#311=FACE_BOUND('',#289,.T.);
#312=FACE_BOUND('',#290,.T.);
#313=FACE_BOUND('',#291,.T.);
#314=FACE_BOUND('',#292,.T.);
#315=FACE_BOUND('',#293,.T.);
#316=FACE_BOUND('',#294,.T.);
#317=FACE_BOUND('',#295,.T.);
#318=FACE_BOUND('',#296,.T.);
#319=FACE_BOUND('',#297,.T.);
#320=FACE_BOUND('',#298,.T.);
#321=FACE_BOUND('',#299,.T.);
#322=FACE_BOUND('',#300,.T.);
#323=FACE_BOUND('',#301,.T.);
#324=FACE_BOUND('',#302,.T.);
#325=FACE_BOUND('',#303,.T.);
#326=PLANE('',#373);
#327=PLANE('',#374);
#328=PLANE('',#375);
#329=PLANE('',#376);
#330=PLANE('',#377);
#331=PLANE('',#378);
#332=PLANE('',#379);
#333=PLANE('',#383);
#334=PLANE('',#385);
#335=PLANE('',#386);
#336=PLANE('',#387);
#337=PLANE('',#390);
#338=PLANE('',#391);
#339=PLANE('',#392);
#340=PLANE('',#393);
#341=PLANE('',#394);
#342=ADVANCED_FACE('',(#304),#326,.T.);
#343=ADVANCED_FACE('',(#305),#327,.T.);
#344=ADVANCED_FACE('',(#306),#328,.T.);
#345=ADVANCED_FACE('',(#307),#329,.T.);
#346=ADVANCED_FACE('',(#308),#330,.T.);
#347=ADVANCED_FACE('',(#309),#331,.T.);
#348=ADVANCED_FACE('',(#310),#332,.T.);
#349=ADVANCED_FACE('',(#311),#16,.T.);
#350=ADVANCED_FACE('',(#312,#313,#314),#333,.F.);
#351=ADVANCED_FACE('',(#315),#334,.T.);
#352=ADVANCED_FACE('',(#316),#335,.T.);
#353=ADVANCED_FACE('',(#317),#336,.T.);
#354=ADVANCED_FACE('',(#318),#17,.T.);
#355=ADVANCED_FACE('',(#319),#337,.F.);
#356=ADVANCED_FACE('',(#320),#338,.T.);
#357=ADVANCED_FACE('',(#321),#339,.T.);
#358=ADVANCED_FACE('',(#322),#340,.T.);
#359=ADVANCED_FACE('',(#323,#324,#325),#341,.T.);
#360=CLOSED_SHELL('',(#342,#343,#344,#345,#346,#347,#348,#349,#350,#351,#352,#353,#354,#355,#356,#357,#358,#359));
#361=STYLED_ITEM('',(#362),#369);
#362=PRESENTATION_STYLE_ASSIGNMENT((#363));
#363=SURFACE_STYLE_USAGE(.BOTH.,#364);
#364=SURFACE_SIDE_STYLE('',(#365));
#365=SURFACE_STYLE_FILL_AREA(#366);
#366=FILL_AREA_STYLE('',(#367));
#367=FILL_AREA_STYLE_COLOUR('',#368);
#368=COLOUR_RGB('',0.498039215686275,0.498039215686275,0.498039215686275);
#369=MANIFOLD_SOLID_BREP('spacer',#360);
#370=SHAPE_DEFINITION_REPRESENTATION(#590,#371);
#371=SHAPE_REPRESENTATION('spacer',(#372),#585);
#372=AXIS2_PLACEMENT_3D('',#485,#395,#396);
#373=AXIS2_PLACEMENT_3D('',#486,#397,#398);
#374=AXIS2_PLACEMENT_3D('',#495,#403,#404);
#375=AXIS2_PLACEMENT_3D('',#501,#408,#409);
#376=AXIS2_PLACEMENT_3D('',#507,#413,#414);
#377=AXIS2_PLACEMENT_3D('',#516,#419,#420);
#378=AXIS2_PLACEMENT_3D('',#522,#424,#425);
#379=AXIS2_PLACEMENT_3D('',#528,#429,#430);
#380=AXIS2_PLACEMENT_3D('',#537,#435,#436);
#381=AXIS2_PLACEMENT_3D('',#538,#437,#438);
#382=AXIS2_PLACEMENT_3D('',#542,#440,#441);
#383=AXIS2_PLACEMENT_3D('',#543,#442,#443);
#384=AXIS2_PLACEMENT_3D('',#546,#445,#446);
#385=AXIS2_PLACEMENT_3D('',#557,#453,#454);
#386=AXIS2_PLACEMENT_3D('',#561,#457,#458);
#387=AXIS2_PLACEMENT_3D('',#565,#461,#462);
#388=AXIS2_PLACEMENT_3D('',#567,#464,#465);
#389=AXIS2_PLACEMENT_3D('',#570,#467,#468);
#390=AXIS2_PLACEMENT_3D('',#571,#469,#470);
#391=AXIS2_PLACEMENT_3D('',#573,#472,#473);
#392=AXIS2_PLACEMENT_3D('',#577,#476,#477);
#393=AXIS2_PLACEMENT_3D('',#581,#480,#481);
#394=AXIS2_PLACEMENT_3D('',#583,#483,#484);
#395=DIRECTION('',(0.,0.,1.));
#396=DIRECTION('',(1.,0.,0.));
#397=DIRECTION('',(0.,0.965925826289068,-0.258819045102521));
#398=DIRECTION('',(0.,0.258819045102521,0.965925826289068));
#399=DIRECTION('',(-1.,0.,0.));
#400=DIRECTION('',(0.,-0.258819045102521,-0.965925826289068));
#401=DIRECTION('',(-1.,0.,0.));
#402=DIRECTION('',(0.,-0.258819045102521,-0.965925826289068));
#403=DIRECTION('',(0.,0.258819045102521,-0.965925826289068));
#404=DIRECTION('',(0.,0.965925826289068,0.258819045102521));
#405=DIRECTION('',(-1.,0.,0.));
#406=DIRECTION('',(0.,-0.965925826289068,-0.258819045102521));
#407=DIRECTION('',(0.,-0.965925826289068,-0.258819045102521));
#408=DIRECTION('',(0.,-0.707106781186547,-0.707106781186548));
#409=DIRECTION('',(0.,0.707106781186548,-0.707106781186548));
#410=DIRECTION('',(-1.,0.,0.));
#411=DIRECTION('',(0.,-0.707106781186548,0.707106781186548));
#412=DIRECTION('',(0.,-0.707106781186548,0.707106781186548));
#413=DIRECTION('',(0.,-0.965925826289068,0.258819045102521));
#414=DIRECTION('',(0.,-0.258819045102521,-0.965925826289068));
#415=DIRECTION('',(-1.,0.,0.));
#416=DIRECTION('',(0.,0.258819045102521,0.965925826289068));
#417=DIRECTION('',(-1.,0.,0.));
#418=DIRECTION('',(0.,0.258819045102521,0.965925826289068));
#419=DIRECTION('',(0.,-0.258819045102521,0.965925826289068));
#420=DIRECTION('',(0.,-0.965925826289069,-0.258819045102521));
#421=DIRECTION('',(-1.,0.,0.));
#422=DIRECTION('',(0.,0.965925826289069,0.258819045102521));
#423=DIRECTION('',(0.,0.965925826289069,0.258819045102521));
#424=DIRECTION('',(0.,0.707106781186548,0.707106781186548));
#425=DIRECTION('',(0.,-0.707106781186548,0.707106781186548));
#426=DIRECTION('',(-1.,0.,0.));
#427=DIRECTION('',(0.,0.707106781186548,-0.707106781186548));
#428=DIRECTION('',(0.,0.707106781186548,-0.707106781186548));
#429=DIRECTION('',(0.,0.965925826289068,-0.258819045102521));
#430=DIRECTION('',(0.,0.258819045102521,0.965925826289068));
#431=DIRECTION('',(-1.,0.,0.));
#432=DIRECTION('',(0.,-0.258819045102521,-0.965925826289068));
#433=DIRECTION('',(-1.,0.,0.));
#434=DIRECTION('',(0.,-0.258819045102521,-0.965925826289068));
#435=DIRECTION('',(-1.,0.,0.));
#436=DIRECTION('',(0.,0.,1.));
#437=DIRECTION('',(1.,0.,0.));
#438=DIRECTION('',(0.,0.,-1.));
#439=DIRECTION('',(-1.,0.,0.));
#440=DIRECTION('',(-1.,0.,0.));
#441=DIRECTION('',(0.,0.,-1.));
#442=DIRECTION('',(1.,0.,0.));
#443=DIRECTION('',(0.,1.,0.));
#444=DIRECTION('',(0.,-0.258819045102521,-0.965925826289068));
#445=DIRECTION('',(-1.,0.,0.));
#446=DIRECTION('',(0.,0.,-1.));
#447=DIRECTION('',(0.,-0.707106781186548,0.707106781186548));
#448=DIRECTION('',(0.,-0.965925826289068,-0.258819045102521));
#449=DIRECTION('',(0.,-0.258819045102522,-0.965925826289068));
#450=DIRECTION('',(0.,0.707106781186547,-0.707106781186548));
#451=DIRECTION('',(0.,0.965925826289068,0.258819045102521));
#452=DIRECTION('',(0.,0.258819045102521,0.965925826289068));
#453=DIRECTION('',(0.,-0.965925826289068,0.258819045102521));
#454=DIRECTION('',(0.,-0.258819045102521,-0.965925826289068));
#455=DIRECTION('',(-1.,0.,0.));
#456=DIRECTION('',(0.,0.258819045102521,0.965925826289068));
#457=DIRECTION('',(0.,0.707106781186548,0.707106781186547));
#458=DIRECTION('',(0.,-0.707106781186547,0.707106781186548));
#459=DIRECTION('',(0.,0.707106781186547,-0.707106781186548));
#460=DIRECTION('',(-1.,0.,0.));
#461=DIRECTION('',(0.,-0.258819045102521,0.965925826289068));
#462=DIRECTION('',(0.,-0.965925826289068,-0.258819045102521));
#463=DIRECTION('',(0.,0.965925826289068,0.258819045102521));
#464=DIRECTION('',(-1.,0.,0.));
#465=DIRECTION('',(0.,0.,1.));
#466=DIRECTION('',(-1.,0.,0.));
#467=DIRECTION('',(1.,0.,0.));
#468=DIRECTION('',(0.,0.,-1.));
#469=DIRECTION('',(0.,0.965925826289068,-0.258819045102521));
#470=DIRECTION('',(0.,0.258819045102521,0.965925826289068));
#471=DIRECTION('',(0.,-0.258819045102521,-0.965925826289068));
#472=DIRECTION('',(0.,0.965925826289068,-0.258819045102522));
#473=DIRECTION('',(0.,0.258819045102522,0.965925826289068));
#474=DIRECTION('',(-1.,0.,0.));
#475=DIRECTION('',(0.,-0.258819045102522,-0.965925826289068));
#476=DIRECTION('',(0.,-0.707106781186548,-0.707106781186548));
#477=DIRECTION('',(0.,0.707106781186548,-0.707106781186548));
#478=DIRECTION('',(0.,-0.707106781186548,0.707106781186548));
#479=DIRECTION('',(-1.,0.,0.));
#480=DIRECTION('',(0.,0.258819045102521,-0.965925826289068));
#481=DIRECTION('',(0.,0.965925826289068,0.258819045102521));
#482=DIRECTION('',(0.,-0.965925826289068,-0.258819045102521));
#483=DIRECTION('',(1.,0.,0.));
#484=DIRECTION('',(0.,1.,0.));
#485=CARTESIAN_POINT('',(0.,0.,0.));
#486=CARTESIAN_POINT('',(0.591515228089538,-0.000197558386761289,0.0133541028488381));
#487=CARTESIAN_POINT('',(0.591515228089538,0.000295558122931149,0.0151944387170613));
#488=CARTESIAN_POINT('',(0.0846,0.000295558122931149,0.0151944387170613));
#489=CARTESIAN_POINT('',(0.0782,0.000295558122931149,0.0151944387170613));
#490=CARTESIAN_POINT('',(0.0846,-0.000197558386761289,0.0133541028488381));
#491=CARTESIAN_POINT('',(0.0846,-0.000690674896453718,0.0115137669806149));
#492=CARTESIAN_POINT('',(0.591515228089538,-0.000690674896453718,0.0115137669806149));
#493=CARTESIAN_POINT('',(0.0782,-0.000690674896453718,0.0115137669806149));
#494=CARTESIAN_POINT('',(0.0782,-0.000197558386761289,0.0133541028488381));
#495=CARTESIAN_POINT('',(0.591515228089538,0.00213589399115433,0.0156875552267536));
#496=CARTESIAN_POINT('',(0.591515228089538,0.0039762298593775,0.0161806717364461));
#497=CARTESIAN_POINT('',(0.0846,0.0039762298593775,0.0161806717364461));
#498=CARTESIAN_POINT('',(0.0782,0.0039762298593775,0.0161806717364461));
#499=CARTESIAN_POINT('',(0.0846,0.00213589399115433,0.0156875552267536));
#500=CARTESIAN_POINT('',(0.0782,0.00213589399115433,0.0156875552267536));
#501=CARTESIAN_POINT('',(0.591515228089538,0.00532344921790825,0.0148334523779153));
#502=CARTESIAN_POINT('',(0.591515228089538,0.006670668576439,0.0134862330193846));
#503=CARTESIAN_POINT('',(0.0846,0.006670668576439,0.0134862330193846));
#504=CARTESIAN_POINT('',(0.0782,0.006670668576439,0.0134862330193846));
#505=CARTESIAN_POINT('',(0.0846,0.00532344921790825,0.0148334523779153));
#506=CARTESIAN_POINT('',(0.0782,0.00532344921790825,0.0148334523779153));
#507=CARTESIAN_POINT('',(0.591515228089538,0.0110006375305068,0.0296458971511614));
#508=CARTESIAN_POINT('',(0.591515228089538,0.0105075210208143,0.0278055612829382));
#509=CARTESIAN_POINT('',(0.0846,0.0105075210208143,0.0278055612829382));
#510=CARTESIAN_POINT('',(0.0782,0.0105075210208143,0.0278055612829382));
#511=CARTESIAN_POINT('',(0.0846,0.0110006375305068,0.0296458971511614));
#512=CARTESIAN_POINT('',(0.0846,0.0114937540401992,0.0314862330193846));
#513=CARTESIAN_POINT('',(0.591515228089538,0.0114937540401992,0.0314862330193846));
#514=CARTESIAN_POINT('',(0.0782,0.0114937540401992,0.0314862330193846));
#515=CARTESIAN_POINT('',(0.0782,0.0110006375305068,0.0296458971511614));
#516=CARTESIAN_POINT('',(0.591515228089538,0.00866718515259115,0.0273124447732458));
#517=CARTESIAN_POINT('',(0.591515228089538,0.00682684928436799,0.0268193282635533));
#518=CARTESIAN_POINT('',(0.0846,0.00682684928436799,0.0268193282635533));
#519=CARTESIAN_POINT('',(0.0782,0.00682684928436799,0.0268193282635533));
#520=CARTESIAN_POINT('',(0.0846,0.00866718515259115,0.0273124447732458));
#521=CARTESIAN_POINT('',(0.0782,0.00866718515259115,0.0273124447732458));
#522=CARTESIAN_POINT('',(0.591515228089538,0.00547962992583724,0.0281665476220841));
#523=CARTESIAN_POINT('',(0.591515228089538,0.00413241056730647,0.0295137669806148));
#524=CARTESIAN_POINT('',(0.0846,0.00413241056730647,0.0295137669806148));
#525=CARTESIAN_POINT('',(0.0782,0.00413241056730647,0.0295137669806148));
#526=CARTESIAN_POINT('',(0.0846,0.00547962992583724,0.0281665476220841));
#527=CARTESIAN_POINT('',(0.0782,0.00547962992583724,0.0281665476220841));
#528=CARTESIAN_POINT('',(0.591515228089538,0.0126459832690407,0.0195588571617308));
#529=CARTESIAN_POINT('',(0.591515228089538,0.0150575260009209,0.0285588571617308));
#530=CARTESIAN_POINT('',(0.0846,0.0150575260009209,0.0285588571617308));
#531=CARTESIAN_POINT('',(0.0782,0.0150575260009209,0.0285588571617308));
#532=CARTESIAN_POINT('',(0.0846,0.0126459832690407,0.0195588571617308));
#533=CARTESIAN_POINT('',(0.0846,0.0102344405371606,0.0105588571617308));
#534=CARTESIAN_POINT('',(0.591515228089538,0.0102344405371606,0.0105588571617308));
#535=CARTESIAN_POINT('',(0.0782,0.0102344405371606,0.0105588571617308));
#536=CARTESIAN_POINT('',(0.0782,0.0126459832690407,0.0195588571617308));
#537=CARTESIAN_POINT('',(0.591515228089538,0.00298999683999264,0.0124999999999997));
#538=CARTESIAN_POINT('',(0.0846,0.00298999683999264,0.0124999999999997));
#539=CARTESIAN_POINT('',(0.0846,-0.00425444685717538,0.0144411428382687));
#540=CARTESIAN_POINT('',(0.591515228089538,-0.00425444685717538,0.0144411428382687));
#541=CARTESIAN_POINT('',(0.0782,-0.00425444685717538,0.0144411428382687));
#542=CARTESIAN_POINT('',(0.0782,0.00298999683999264,0.0124999999999997));
#543=CARTESIAN_POINT('',(0.0782,-0.00992346952618655,0.0214999999999997));
#544=CARTESIAN_POINT('',(0.0782,-0.00184290412529528,0.0234411428382686));
#545=CARTESIAN_POINT('',(0.0782,0.000568638606584823,0.0324411428382686));
#546=CARTESIAN_POINT('',(0.0782,0.00781308230375283,0.0305));
#547=CARTESIAN_POINT('',(0.0782,0.0101465346816684,0.0328334523779153));
#548=CARTESIAN_POINT('',(0.0782,0.00879931532313769,0.034180671736446));
#549=CARTESIAN_POINT('',(0.0782,0.00695897945491452,0.0336875552267536));
#550=CARTESIAN_POINT('',(0.0782,0.00511864358669134,0.0331944387170612));
#551=CARTESIAN_POINT('',(0.0782,0.00462552707699892,0.031354102848838));
#552=CARTESIAN_POINT('',(0.0782,0.000656544462077026,0.0101665476220841));
#553=CARTESIAN_POINT('',(0.0782,0.00200376382060777,0.00881932826355338));
#554=CARTESIAN_POINT('',(0.0782,0.00384409968883095,0.00931244477324584));
#555=CARTESIAN_POINT('',(0.0782,0.00568443555705415,0.00980556128293827));
#556=CARTESIAN_POINT('',(0.0782,0.00617755206674657,0.0116458971511614));
#557=CARTESIAN_POINT('',(0.591515228089538,0.00617755206674657,0.0116458971511614));
#558=CARTESIAN_POINT('',(0.591515228089538,0.00568443555705415,0.00980556128293827));
#559=CARTESIAN_POINT('',(0.0846,0.00568443555705415,0.00980556128293827));
#560=CARTESIAN_POINT('',(0.0846,0.00617755206674657,0.0116458971511614));
#561=CARTESIAN_POINT('',(0.591515228089538,0.000656544462077026,0.0101665476220841));
#562=CARTESIAN_POINT('',(0.0846,0.000656544462077026,0.0101665476220841));
#563=CARTESIAN_POINT('',(0.0846,0.00200376382060777,0.00881932826355338));
#564=CARTESIAN_POINT('',(0.591515228089538,0.00200376382060777,0.00881932826355338));
#565=CARTESIAN_POINT('',(0.591515228089538,0.00384409968883095,0.00931244477324584));
#566=CARTESIAN_POINT('',(0.0846,0.00384409968883095,0.00931244477324584));
#567=CARTESIAN_POINT('',(0.591515228089538,0.00781308230375283,0.0305));
#568=CARTESIAN_POINT('',(0.591515228089538,0.000568638606584823,0.0324411428382686));
#569=CARTESIAN_POINT('',(0.0846,0.000568638606584823,0.0324411428382686));
#570=CARTESIAN_POINT('',(0.0846,0.00781308230375283,0.0305));
#571=CARTESIAN_POINT('',(0.591515228089538,-0.00184290412529528,0.0234411428382686));
#572=CARTESIAN_POINT('',(0.0846,-0.00184290412529528,0.0234411428382686));
#573=CARTESIAN_POINT('',(0.591515228089538,0.00462552707699892,0.031354102848838));
#574=CARTESIAN_POINT('',(0.591515228089538,0.00511864358669134,0.0331944387170612));
#575=CARTESIAN_POINT('',(0.0846,0.00511864358669134,0.0331944387170612));
#576=CARTESIAN_POINT('',(0.0846,0.00462552707699892,0.031354102848838));
#577=CARTESIAN_POINT('',(0.591515228089538,0.0101465346816684,0.0328334523779153));
#578=CARTESIAN_POINT('',(0.0846,0.0101465346816684,0.0328334523779153));
#579=CARTESIAN_POINT('',(0.0846,0.00879931532313769,0.034180671736446));
#580=CARTESIAN_POINT('',(0.591515228089538,0.00879931532313769,0.034180671736446));
#581=CARTESIAN_POINT('',(0.591515228089538,0.00695897945491452,0.0336875552267536));
#582=CARTESIAN_POINT('',(0.0846,0.00695897945491452,0.0336875552267536));
#583=CARTESIAN_POINT('',(0.0846,-0.0178790046751853,0.));
#584=MECHANICAL_DESIGN_GEOMETRIC_PRESENTATION_REPRESENTATION('',(#361),#585);
#585=(
GEOMETRIC_REPRESENTATION_CONTEXT(3)
GLOBAL_UNCERTAINTY_ASSIGNED_CONTEXT((#586))
GLOBAL_UNIT_ASSIGNED_CONTEXT((#589,#588,#587))
REPRESENTATION_CONTEXT('spacer','TOP_LEVEL_ASSEMBLY_PART')
);
#586=UNCERTAINTY_MEASURE_WITH_UNIT(LENGTH_MEASURE(1.E-08),#589,'DISTANCE_ACCURACY_VALUE','Maximum Tolerance applied to model');
#587=(
NAMED_UNIT(*)
SI_UNIT($,.STERADIAN.)
SOLID_ANGLE_UNIT()
);
#588=(
NAMED_UNIT(*)
PLANE_ANGLE_UNIT()
SI_UNIT($,.RADIAN.)
);
#589=(
LENGTH_UNIT()
NAMED_UNIT(*)
SI_UNIT($,.METRE.)
);
#590=PRODUCT_DEFINITION_SHAPE('','',#591);
#591=PRODUCT_DEFINITION('','',#593,#592);
#592=PRODUCT_DEFINITION_CONTEXT('',#599,'design');
#593=PRODUCT_DEFINITION_FORMATION_WITH_SPECIFIED_SOURCE('','',#595,.NOT_KNOWN.);
#594=PRODUCT_RELATED_PRODUCT_CATEGORY('','',(#595));
#595=PRODUCT('spacer','spacer','spacer',(#597));
#596=PRODUCT_CATEGORY('','');
#597=PRODUCT_CONTEXT('',#599,'mechanical');
#598=APPLICATION_PROTOCOL_DEFINITION('international standard','ap242_managed_model_based_3d_engineering',2020,#599);
#599=APPLICATION_CONTEXT('managed model based 3d engineering');
ENDSEC;
END-ISO-10303-21;
