ISO-10303-21;
HEADER;
/*Generated by software containing ST-Developer
 * from STEP Tools, Inc. (www.steptools.com) 
 */
/*OPTION: using custom renumber hook */
/*description */
/*implementation_level */
FILE_DESCRIPTION(('STEP AP242 Edition 2','STEP AP242 Edition 2''CAx-IF Rec.Pracs.---Representation and Presentation of Product Manufa
cturing Information (PMI)---4.0---2014-10-13','STEP AP242 Edition 2''CAx-IF Rec.Pracs.---Representation and Presentation of Product Manufa
cturing Information (PMI)---4.0---2014-10-13''CAx-IF Rec.Pracs.---3D Tessellated Geometry---0.4---2014-09-14','STEP AP242 Edition 2''CAx-IF Rec.Pracs.---Representation and Presentation of Product Manufa
cturing Information (PMI)---4.0---2014-10-13''CAx-IF Rec.Pracs.---3D Tessellated Geometry---0.4---2014-09-14''2;1','STEP AP242 Edition 2''CAx-IF Rec.Pracs.---Representation and Presentation of Product Manufa
cturing Information (PMI)---4.0---2014-10-13''CAx-IF Rec.Pracs.---3D Tessellated Geometry---0.4---2014-09-14''2;1''CAx-IF Rec.Pracs.---User Defined Attributes---1.5---2016-08-15'),'2;1');
/*name */
/*time_stamp */
/*author */
/*organization */
/*preprocessor_version */
/*originating_system */
/*authorisation */
FILE_NAME('/vol/tmp/translate-527649459188580346/PBK-wedge - knee-for-pbk-L.step','2026-02-26T08:44:22',(''),(''),'ST-DEVELOPER v20','ONSHAPE BY PTC INC, 1.211','  ');
FILE_SCHEMA(('AP242_MANAGED_MODEL_BASED_3D_ENGINEERING_MIM_LF { 1 0 10303 442 3 1 4 }'));
ENDSEC;
DATA;
#10=SHAPE_REPRESENTATION_RELATIONSHIP('','',#828,#11);
#11=ADVANCED_BREP_SHAPE_REPRESENTATION('',(#826),#1372);
#12=DEGENERATE_TOROIDAL_SURFACE('',#893,0.001,0.002,.T.);
#13=DEGENERATE_TOROIDAL_SURFACE('',#900,0.001,0.002,.T.);
#14=TOROIDAL_SURFACE('',#889,0.003,0.002);
#15=TOROIDAL_SURFACE('',#896,0.003,0.002);
#16=B_SPLINE_CURVE_WITH_KNOTS('',3,(#1326,#1327,#1328,#1329),.UNSPECIFIED.,.F.,.F.,(4,4),(1.73472347597681E-18,0.00116353445796999),.UNSPECIFIED.);
#17=B_SPLINE_CURVE_WITH_KNOTS('',3,(#1335,#1336,#1337,#1338),.UNSPECIFIED.,.F.,.F.,(4,4),(0.,0.00143824747716497),.UNSPECIFIED.);
#18=B_SPLINE_CURVE_WITH_KNOTS('',3,(#1344,#1345,#1346,#1347),.UNSPECIFIED.,.F.,.F.,(4,4),(0.,0.00116353445797),.UNSPECIFIED.);
#19=B_SPLINE_CURVE_WITH_KNOTS('',3,(#1353,#1354,#1355,#1356),.UNSPECIFIED.,.F.,.F.,(4,4),(0.,0.00143824747716505),.UNSPECIFIED.);
#20=CIRCLE('',#834,0.005);
#21=CIRCLE('',#835,0.005);
#22=CIRCLE('',#838,0.001);
#23=CIRCLE('',#843,0.0012);
#24=CIRCLE('',#844,0.0012);
#25=CIRCLE('',#845,0.0012);
#26=CIRCLE('',#846,0.0012);
#27=CIRCLE('',#847,0.0012);
#28=CIRCLE('',#848,0.0012);
#29=CIRCLE('',#858,0.003);
#30=CIRCLE('',#859,0.003);
#31=CIRCLE('',#865,0.0012);
#32=CIRCLE('',#868,0.0012);
#33=CIRCLE('',#871,0.001);
#34=CIRCLE('',#890,0.002);
#35=CIRCLE('',#892,0.002);
#36=CIRCLE('',#894,0.002);
#37=CIRCLE('',#897,0.002);
#38=CIRCLE('',#899,0.002);
#39=CIRCLE('',#901,0.002);
#40=ELLIPSE('',#833,0.00707106781186547,0.005);
#41=ELLIPSE('',#836,0.00707106781186547,0.005);
#42=ELLIPSE('',#849,0.00278032718203335,0.002);
#43=ELLIPSE('',#850,0.00278032718203335,0.002);
#44=ELLIPSE('',#852,0.00172746784755089,0.0012);
#45=ELLIPSE('',#853,0.00172746784755089,0.0012);
#46=ELLIPSE('',#854,0.00172746784755088,0.0012);
#47=ELLIPSE('',#855,0.00172746784755088,0.0012);
#48=ELLIPSE('',#884,0.00207055236082017,0.002);
#49=ELLIPSE('',#888,0.00207055236082017,0.002);
#50=CYLINDRICAL_SURFACE('',#832,0.005);
#51=CYLINDRICAL_SURFACE('',#857,0.003);
#52=CYLINDRICAL_SURFACE('',#860,0.0012);
#53=CYLINDRICAL_SURFACE('',#861,0.0012);
#54=CYLINDRICAL_SURFACE('',#862,0.0012);
#55=CYLINDRICAL_SURFACE('',#863,0.0012);
#56=CYLINDRICAL_SURFACE('',#864,0.0012);
#57=CYLINDRICAL_SURFACE('',#867,0.0012);
#58=CYLINDRICAL_SURFACE('',#891,0.002);
#59=CYLINDRICAL_SURFACE('',#895,0.002);
#60=CYLINDRICAL_SURFACE('',#898,0.002);
#61=CYLINDRICAL_SURFACE('',#902,0.002);
#62=ORIENTED_EDGE('',*,*,#284,.F.);
#63=ORIENTED_EDGE('',*,*,#285,.F.);
#64=ORIENTED_EDGE('',*,*,#286,.T.);
#65=ORIENTED_EDGE('',*,*,#287,.T.);
#66=ORIENTED_EDGE('',*,*,#288,.F.);
#67=ORIENTED_EDGE('',*,*,#284,.T.);
#68=ORIENTED_EDGE('',*,*,#289,.T.);
#69=ORIENTED_EDGE('',*,*,#290,.T.);
#70=ORIENTED_EDGE('',*,*,#291,.T.);
#71=ORIENTED_EDGE('',*,*,#292,.F.);
#72=ORIENTED_EDGE('',*,*,#293,.F.);
#73=ORIENTED_EDGE('',*,*,#294,.F.);
#74=ORIENTED_EDGE('',*,*,#295,.T.);
#75=ORIENTED_EDGE('',*,*,#296,.T.);
#76=ORIENTED_EDGE('',*,*,#297,.F.);
#77=ORIENTED_EDGE('',*,*,#298,.T.);
#78=ORIENTED_EDGE('',*,*,#299,.F.);
#79=ORIENTED_EDGE('',*,*,#286,.F.);
#80=ORIENTED_EDGE('',*,*,#300,.F.);
#81=ORIENTED_EDGE('',*,*,#301,.F.);
#82=ORIENTED_EDGE('',*,*,#302,.F.);
#83=ORIENTED_EDGE('',*,*,#303,.F.);
#84=ORIENTED_EDGE('',*,*,#304,.F.);
#85=ORIENTED_EDGE('',*,*,#305,.F.);
#86=ORIENTED_EDGE('',*,*,#306,.T.);
#87=ORIENTED_EDGE('',*,*,#307,.T.);
#88=ORIENTED_EDGE('',*,*,#308,.T.);
#89=ORIENTED_EDGE('',*,*,#309,.T.);
#90=ORIENTED_EDGE('',*,*,#310,.T.);
#91=ORIENTED_EDGE('',*,*,#311,.F.);
#92=ORIENTED_EDGE('',*,*,#312,.F.);
#93=ORIENTED_EDGE('',*,*,#313,.F.);
#94=ORIENTED_EDGE('',*,*,#314,.F.);
#95=ORIENTED_EDGE('',*,*,#315,.F.);
#96=ORIENTED_EDGE('',*,*,#316,.T.);
#97=ORIENTED_EDGE('',*,*,#293,.T.);
#98=ORIENTED_EDGE('',*,*,#317,.T.);
#99=ORIENTED_EDGE('',*,*,#318,.T.);
#100=ORIENTED_EDGE('',*,*,#319,.T.);
#101=ORIENTED_EDGE('',*,*,#320,.F.);
#102=ORIENTED_EDGE('',*,*,#321,.F.);
#103=ORIENTED_EDGE('',*,*,#322,.F.);
#104=ORIENTED_EDGE('',*,*,#323,.F.);
#105=ORIENTED_EDGE('',*,*,#311,.T.);
#106=ORIENTED_EDGE('',*,*,#319,.F.);
#107=ORIENTED_EDGE('',*,*,#324,.T.);
#108=ORIENTED_EDGE('',*,*,#325,.T.);
#109=ORIENTED_EDGE('',*,*,#326,.F.);
#110=ORIENTED_EDGE('',*,*,#325,.F.);
#111=ORIENTED_EDGE('',*,*,#327,.T.);
#112=ORIENTED_EDGE('',*,*,#328,.T.);
#113=ORIENTED_EDGE('',*,*,#315,.T.);
#114=ORIENTED_EDGE('',*,*,#329,.T.);
#115=ORIENTED_EDGE('',*,*,#330,.F.);
#116=ORIENTED_EDGE('',*,*,#331,.F.);
#117=ORIENTED_EDGE('',*,*,#332,.F.);
#118=ORIENTED_EDGE('',*,*,#333,.F.);
#119=ORIENTED_EDGE('',*,*,#334,.F.);
#120=ORIENTED_EDGE('',*,*,#335,.F.);
#121=ORIENTED_EDGE('',*,*,#336,.F.);
#122=ORIENTED_EDGE('',*,*,#337,.F.);
#123=ORIENTED_EDGE('',*,*,#338,.F.);
#124=ORIENTED_EDGE('',*,*,#339,.F.);
#125=ORIENTED_EDGE('',*,*,#340,.T.);
#126=ORIENTED_EDGE('',*,*,#306,.F.);
#127=ORIENTED_EDGE('',*,*,#292,.T.);
#128=ORIENTED_EDGE('',*,*,#341,.T.);
#129=ORIENTED_EDGE('',*,*,#342,.T.);
#130=ORIENTED_EDGE('',*,*,#343,.T.);
#131=ORIENTED_EDGE('',*,*,#344,.T.);
#132=ORIENTED_EDGE('',*,*,#345,.T.);
#133=ORIENTED_EDGE('',*,*,#346,.T.);
#134=ORIENTED_EDGE('',*,*,#347,.T.);
#135=ORIENTED_EDGE('',*,*,#348,.T.);
#136=ORIENTED_EDGE('',*,*,#339,.T.);
#137=ORIENTED_EDGE('',*,*,#349,.T.);
#138=ORIENTED_EDGE('',*,*,#297,.T.);
#139=ORIENTED_EDGE('',*,*,#350,.T.);
#140=ORIENTED_EDGE('',*,*,#351,.T.);
#141=ORIENTED_EDGE('',*,*,#352,.T.);
#142=ORIENTED_EDGE('',*,*,#351,.F.);
#143=ORIENTED_EDGE('',*,*,#353,.T.);
#144=ORIENTED_EDGE('',*,*,#347,.F.);
#145=ORIENTED_EDGE('',*,*,#354,.T.);
#146=ORIENTED_EDGE('',*,*,#333,.T.);
#147=ORIENTED_EDGE('',*,*,#343,.F.);
#148=ORIENTED_EDGE('',*,*,#334,.T.);
#149=ORIENTED_EDGE('',*,*,#344,.F.);
#150=ORIENTED_EDGE('',*,*,#335,.T.);
#151=ORIENTED_EDGE('',*,*,#345,.F.);
#152=ORIENTED_EDGE('',*,*,#336,.T.);
#153=ORIENTED_EDGE('',*,*,#346,.F.);
#154=ORIENTED_EDGE('',*,*,#337,.T.);
#155=ORIENTED_EDGE('',*,*,#355,.F.);
#156=ORIENTED_EDGE('',*,*,#355,.T.);
#157=ORIENTED_EDGE('',*,*,#338,.T.);
#158=ORIENTED_EDGE('',*,*,#356,.F.);
#159=ORIENTED_EDGE('',*,*,#356,.T.);
#160=ORIENTED_EDGE('',*,*,#357,.T.);
#161=ORIENTED_EDGE('',*,*,#358,.T.);
#162=ORIENTED_EDGE('',*,*,#359,.T.);
#163=ORIENTED_EDGE('',*,*,#360,.T.);
#164=ORIENTED_EDGE('',*,*,#361,.T.);
#165=ORIENTED_EDGE('',*,*,#362,.T.);
#166=ORIENTED_EDGE('',*,*,#363,.T.);
#167=ORIENTED_EDGE('',*,*,#364,.T.);
#168=ORIENTED_EDGE('',*,*,#341,.F.);
#169=ORIENTED_EDGE('',*,*,#291,.F.);
#170=ORIENTED_EDGE('',*,*,#365,.T.);
#171=ORIENTED_EDGE('',*,*,#330,.T.);
#172=ORIENTED_EDGE('',*,*,#366,.T.);
#173=ORIENTED_EDGE('',*,*,#367,.T.);
#174=ORIENTED_EDGE('',*,*,#368,.T.);
#175=ORIENTED_EDGE('',*,*,#322,.T.);
#176=ORIENTED_EDGE('',*,*,#369,.T.);
#177=ORIENTED_EDGE('',*,*,#370,.T.);
#178=ORIENTED_EDGE('',*,*,#371,.F.);
#179=ORIENTED_EDGE('',*,*,#312,.T.);
#180=ORIENTED_EDGE('',*,*,#323,.T.);
#181=ORIENTED_EDGE('',*,*,#368,.F.);
#182=ORIENTED_EDGE('',*,*,#372,.F.);
#183=ORIENTED_EDGE('',*,*,#313,.T.);
#184=ORIENTED_EDGE('',*,*,#371,.T.);
#185=ORIENTED_EDGE('',*,*,#367,.F.);
#186=ORIENTED_EDGE('',*,*,#329,.F.);
#187=ORIENTED_EDGE('',*,*,#314,.T.);
#188=ORIENTED_EDGE('',*,*,#372,.T.);
#189=ORIENTED_EDGE('',*,*,#366,.F.);
#190=ORIENTED_EDGE('',*,*,#373,.F.);
#191=ORIENTED_EDGE('',*,*,#303,.T.);
#192=ORIENTED_EDGE('',*,*,#374,.T.);
#193=ORIENTED_EDGE('',*,*,#359,.F.);
#194=ORIENTED_EDGE('',*,*,#375,.F.);
#195=ORIENTED_EDGE('',*,*,#304,.T.);
#196=ORIENTED_EDGE('',*,*,#373,.T.);
#197=ORIENTED_EDGE('',*,*,#358,.F.);
#198=ORIENTED_EDGE('',*,*,#374,.F.);
#199=ORIENTED_EDGE('',*,*,#302,.T.);
#200=ORIENTED_EDGE('',*,*,#376,.T.);
#201=ORIENTED_EDGE('',*,*,#360,.F.);
#202=ORIENTED_EDGE('',*,*,#376,.F.);
#203=ORIENTED_EDGE('',*,*,#301,.T.);
#204=ORIENTED_EDGE('',*,*,#377,.T.);
#205=ORIENTED_EDGE('',*,*,#361,.F.);
#206=ORIENTED_EDGE('',*,*,#377,.F.);
#207=ORIENTED_EDGE('',*,*,#300,.T.);
#208=ORIENTED_EDGE('',*,*,#378,.T.);
#209=ORIENTED_EDGE('',*,*,#362,.F.);
#210=ORIENTED_EDGE('',*,*,#378,.F.);
#211=ORIENTED_EDGE('',*,*,#305,.T.);
#212=ORIENTED_EDGE('',*,*,#375,.T.);
#213=ORIENTED_EDGE('',*,*,#357,.F.);
#214=ORIENTED_EDGE('',*,*,#299,.T.);
#215=ORIENTED_EDGE('',*,*,#379,.T.);
#216=ORIENTED_EDGE('',*,*,#380,.T.);
#217=ORIENTED_EDGE('',*,*,#320,.T.);
#218=ORIENTED_EDGE('',*,*,#326,.T.);
#219=ORIENTED_EDGE('',*,*,#332,.T.);
#220=ORIENTED_EDGE('',*,*,#381,.T.);
#221=ORIENTED_EDGE('',*,*,#289,.F.);
#222=ORIENTED_EDGE('',*,*,#287,.F.);
#223=ORIENTED_EDGE('',*,*,#381,.F.);
#224=ORIENTED_EDGE('',*,*,#331,.T.);
#225=ORIENTED_EDGE('',*,*,#365,.F.);
#226=ORIENTED_EDGE('',*,*,#290,.F.);
#227=ORIENTED_EDGE('',*,*,#382,.T.);
#228=ORIENTED_EDGE('',*,*,#383,.T.);
#229=ORIENTED_EDGE('',*,*,#369,.F.);
#230=ORIENTED_EDGE('',*,*,#321,.T.);
#231=ORIENTED_EDGE('',*,*,#380,.F.);
#232=ORIENTED_EDGE('',*,*,#384,.F.);
#233=ORIENTED_EDGE('',*,*,#385,.T.);
#234=ORIENTED_EDGE('',*,*,#295,.F.);
#235=ORIENTED_EDGE('',*,*,#285,.T.);
#236=ORIENTED_EDGE('',*,*,#288,.T.);
#237=ORIENTED_EDGE('',*,*,#386,.F.);
#238=ORIENTED_EDGE('',*,*,#327,.F.);
#239=ORIENTED_EDGE('',*,*,#324,.F.);
#240=ORIENTED_EDGE('',*,*,#318,.F.);
#241=ORIENTED_EDGE('',*,*,#294,.T.);
#242=ORIENTED_EDGE('',*,*,#316,.F.);
#243=ORIENTED_EDGE('',*,*,#328,.F.);
#244=ORIENTED_EDGE('',*,*,#386,.T.);
#245=ORIENTED_EDGE('',*,*,#310,.F.);
#246=ORIENTED_EDGE('',*,*,#387,.T.);
#247=ORIENTED_EDGE('',*,*,#388,.T.);
#248=ORIENTED_EDGE('',*,*,#384,.T.);
#249=ORIENTED_EDGE('',*,*,#317,.F.);
#250=ORIENTED_EDGE('',*,*,#385,.F.);
#251=ORIENTED_EDGE('',*,*,#388,.F.);
#252=ORIENTED_EDGE('',*,*,#389,.F.);
#253=ORIENTED_EDGE('',*,*,#296,.F.);
#254=ORIENTED_EDGE('',*,*,#387,.F.);
#255=ORIENTED_EDGE('',*,*,#309,.F.);
#256=ORIENTED_EDGE('',*,*,#390,.F.);
#257=ORIENTED_EDGE('',*,*,#350,.F.);
#258=ORIENTED_EDGE('',*,*,#389,.T.);
#259=ORIENTED_EDGE('',*,*,#390,.T.);
#260=ORIENTED_EDGE('',*,*,#308,.F.);
#261=ORIENTED_EDGE('',*,*,#391,.F.);
#262=ORIENTED_EDGE('',*,*,#353,.F.);
#263=ORIENTED_EDGE('',*,*,#340,.F.);
#264=ORIENTED_EDGE('',*,*,#348,.F.);
#265=ORIENTED_EDGE('',*,*,#391,.T.);
#266=ORIENTED_EDGE('',*,*,#307,.F.);
#267=ORIENTED_EDGE('',*,*,#379,.F.);
#268=ORIENTED_EDGE('',*,*,#298,.F.);
#269=ORIENTED_EDGE('',*,*,#392,.F.);
#270=ORIENTED_EDGE('',*,*,#382,.F.);
#271=ORIENTED_EDGE('',*,*,#392,.T.);
#272=ORIENTED_EDGE('',*,*,#352,.F.);
#273=ORIENTED_EDGE('',*,*,#393,.F.);
#274=ORIENTED_EDGE('',*,*,#370,.F.);
#275=ORIENTED_EDGE('',*,*,#383,.F.);
#276=ORIENTED_EDGE('',*,*,#393,.T.);
#277=ORIENTED_EDGE('',*,*,#354,.F.);
#278=ORIENTED_EDGE('',*,*,#394,.F.);
#279=ORIENTED_EDGE('',*,*,#363,.F.);
#280=ORIENTED_EDGE('',*,*,#342,.F.);
#281=ORIENTED_EDGE('',*,*,#364,.F.);
#282=ORIENTED_EDGE('',*,*,#394,.T.);
#283=ORIENTED_EDGE('',*,*,#349,.F.);
#284=EDGE_CURVE('',#395,#396,#471,.T.);
#285=EDGE_CURVE('',#397,#395,#472,.T.);
#286=EDGE_CURVE('',#397,#398,#473,.T.);
#287=EDGE_CURVE('',#398,#396,#474,.T.);
#288=EDGE_CURVE('',#395,#399,#475,.T.);
#289=EDGE_CURVE('',#396,#400,#476,.T.);
#290=EDGE_CURVE('',#400,#401,#477,.T.);
#291=EDGE_CURVE('',#401,#402,#478,.T.);
#292=EDGE_CURVE('',#403,#402,#479,.T.);
#293=EDGE_CURVE('',#404,#403,#480,.T.);
#294=EDGE_CURVE('',#399,#404,#481,.T.);
#295=EDGE_CURVE('',#397,#405,#40,.F.);
#296=EDGE_CURVE('',#405,#406,#20,.F.);
#297=EDGE_CURVE('',#407,#406,#482,.F.);
#298=EDGE_CURVE('',#407,#408,#21,.T.);
#299=EDGE_CURVE('',#398,#408,#41,.F.);
#300=EDGE_CURVE('',#409,#410,#483,.T.);
#301=EDGE_CURVE('',#411,#409,#484,.T.);
#302=EDGE_CURVE('',#412,#411,#485,.T.);
#303=EDGE_CURVE('',#413,#412,#486,.T.);
#304=EDGE_CURVE('',#414,#413,#487,.T.);
#305=EDGE_CURVE('',#410,#414,#488,.T.);
#306=EDGE_CURVE('',#403,#415,#489,.T.);
#307=EDGE_CURVE('',#415,#416,#490,.T.);
#308=EDGE_CURVE('',#416,#417,#22,.T.);
#309=EDGE_CURVE('',#417,#418,#491,.F.);
#310=EDGE_CURVE('',#418,#419,#492,.T.);
#311=EDGE_CURVE('',#420,#419,#493,.T.);
#312=EDGE_CURVE('',#421,#420,#494,.T.);
#313=EDGE_CURVE('',#422,#421,#495,.T.);
#314=EDGE_CURVE('',#423,#422,#496,.T.);
#315=EDGE_CURVE('',#424,#423,#497,.T.);
#316=EDGE_CURVE('',#424,#404,#498,.T.);
#317=EDGE_CURVE('',#419,#425,#499,.T.);
#318=EDGE_CURVE('',#425,#426,#500,.T.);
#319=EDGE_CURVE('',#426,#427,#501,.T.);
#320=EDGE_CURVE('',#428,#427,#502,.T.);
#321=EDGE_CURVE('',#429,#428,#503,.T.);
#322=EDGE_CURVE('',#430,#429,#504,.T.);
#323=EDGE_CURVE('',#420,#430,#505,.T.);
#324=EDGE_CURVE('',#426,#431,#506,.T.);
#325=EDGE_CURVE('',#431,#432,#507,.T.);
#326=EDGE_CURVE('',#427,#432,#508,.T.);
#327=EDGE_CURVE('',#431,#433,#509,.T.);
#328=EDGE_CURVE('',#433,#424,#510,.T.);
#329=EDGE_CURVE('',#423,#434,#511,.T.);
#330=EDGE_CURVE('',#435,#434,#512,.T.);
#331=EDGE_CURVE('',#436,#435,#513,.T.);
#332=EDGE_CURVE('',#432,#436,#514,.T.);
#333=EDGE_CURVE('',#437,#437,#23,.T.);
#334=EDGE_CURVE('',#438,#438,#24,.T.);
#335=EDGE_CURVE('',#439,#439,#25,.T.);
#336=EDGE_CURVE('',#440,#440,#26,.T.);
#337=EDGE_CURVE('',#441,#441,#27,.T.);
#338=EDGE_CURVE('',#442,#442,#28,.T.);
#339=EDGE_CURVE('',#443,#444,#515,.T.);
#340=EDGE_CURVE('',#443,#415,#42,.F.);
#341=EDGE_CURVE('',#402,#445,#516,.T.);
#342=EDGE_CURVE('',#445,#444,#43,.F.);
#343=EDGE_CURVE('',#446,#446,#44,.T.);
#344=EDGE_CURVE('',#447,#447,#45,.T.);
#345=EDGE_CURVE('',#448,#448,#46,.T.);
#346=EDGE_CURVE('',#449,#449,#47,.T.);
#347=EDGE_CURVE('',#450,#451,#517,.F.);
#348=EDGE_CURVE('',#451,#443,#518,.F.);
#349=EDGE_CURVE('',#444,#450,#519,.T.);
#350=EDGE_CURVE('',#406,#452,#520,.T.);
#351=EDGE_CURVE('',#452,#453,#521,.T.);
#352=EDGE_CURVE('',#453,#407,#522,.F.);
#353=EDGE_CURVE('',#452,#451,#29,.F.);
#354=EDGE_CURVE('',#450,#453,#30,.T.);
#355=EDGE_CURVE('',#454,#454,#31,.F.);
#356=EDGE_CURVE('',#455,#455,#32,.F.);
#357=EDGE_CURVE('',#456,#457,#523,.T.);
#358=EDGE_CURVE('',#457,#458,#524,.T.);
#359=EDGE_CURVE('',#458,#459,#525,.T.);
#360=EDGE_CURVE('',#459,#460,#526,.T.);
#361=EDGE_CURVE('',#460,#461,#527,.T.);
#362=EDGE_CURVE('',#461,#456,#528,.T.);
#363=EDGE_CURVE('',#462,#463,#33,.F.);
#364=EDGE_CURVE('',#463,#445,#529,.F.);
#365=EDGE_CURVE('',#401,#435,#530,.T.);
#366=EDGE_CURVE('',#434,#464,#531,.T.);
#367=EDGE_CURVE('',#464,#465,#532,.T.);
#368=EDGE_CURVE('',#465,#430,#533,.T.);
#369=EDGE_CURVE('',#429,#466,#534,.T.);
#370=EDGE_CURVE('',#466,#462,#535,.T.);
#371=EDGE_CURVE('',#421,#465,#536,.T.);
#372=EDGE_CURVE('',#422,#464,#537,.T.);
#373=EDGE_CURVE('',#413,#458,#538,.T.);
#374=EDGE_CURVE('',#412,#459,#539,.T.);
#375=EDGE_CURVE('',#414,#457,#540,.T.);
#376=EDGE_CURVE('',#411,#460,#541,.T.);
#377=EDGE_CURVE('',#409,#461,#542,.T.);
#378=EDGE_CURVE('',#410,#456,#543,.T.);
#379=EDGE_CURVE('',#408,#467,#16,.F.);
#380=EDGE_CURVE('',#467,#428,#544,.T.);
#381=EDGE_CURVE('',#436,#400,#545,.T.);
#382=EDGE_CURVE('',#467,#468,#17,.F.);
#383=EDGE_CURVE('',#468,#466,#48,.F.);
#384=EDGE_CURVE('',#469,#425,#546,.T.);
#385=EDGE_CURVE('',#469,#405,#18,.T.);
#386=EDGE_CURVE('',#433,#399,#547,.T.);
#387=EDGE_CURVE('',#418,#470,#49,.T.);
#388=EDGE_CURVE('',#470,#469,#19,.T.);
#389=EDGE_CURVE('',#406,#470,#34,.T.);
#390=EDGE_CURVE('',#452,#417,#35,.T.);
#391=EDGE_CURVE('',#451,#416,#36,.T.);
#392=EDGE_CURVE('',#468,#407,#37,.T.);
#393=EDGE_CURVE('',#462,#453,#38,.T.);
#394=EDGE_CURVE('',#463,#450,#39,.T.);
#395=VERTEX_POINT('',#1131);
#396=VERTEX_POINT('',#1132);
#397=VERTEX_POINT('',#1134);
#398=VERTEX_POINT('',#1136);
#399=VERTEX_POINT('',#1140);
#400=VERTEX_POINT('',#1142);
#401=VERTEX_POINT('',#1144);
#402=VERTEX_POINT('',#1146);
#403=VERTEX_POINT('',#1148);
#404=VERTEX_POINT('',#1150);
#405=VERTEX_POINT('',#1154);
#406=VERTEX_POINT('',#1156);
#407=VERTEX_POINT('',#1158);
#408=VERTEX_POINT('',#1160);
#409=VERTEX_POINT('',#1164);
#410=VERTEX_POINT('',#1165);
#411=VERTEX_POINT('',#1167);
#412=VERTEX_POINT('',#1169);
#413=VERTEX_POINT('',#1171);
#414=VERTEX_POINT('',#1173);
#415=VERTEX_POINT('',#1176);
#416=VERTEX_POINT('',#1178);
#417=VERTEX_POINT('',#1180);
#418=VERTEX_POINT('',#1182);
#419=VERTEX_POINT('',#1184);
#420=VERTEX_POINT('',#1186);
#421=VERTEX_POINT('',#1188);
#422=VERTEX_POINT('',#1190);
#423=VERTEX_POINT('',#1192);
#424=VERTEX_POINT('',#1194);
#425=VERTEX_POINT('',#1198);
#426=VERTEX_POINT('',#1200);
#427=VERTEX_POINT('',#1202);
#428=VERTEX_POINT('',#1204);
#429=VERTEX_POINT('',#1206);
#430=VERTEX_POINT('',#1208);
#431=VERTEX_POINT('',#1212);
#432=VERTEX_POINT('',#1214);
#433=VERTEX_POINT('',#1218);
#434=VERTEX_POINT('',#1221);
#435=VERTEX_POINT('',#1223);
#436=VERTEX_POINT('',#1225);
#437=VERTEX_POINT('',#1229);
#438=VERTEX_POINT('',#1231);
#439=VERTEX_POINT('',#1233);
#440=VERTEX_POINT('',#1235);
#441=VERTEX_POINT('',#1237);
#442=VERTEX_POINT('',#1239);
#443=VERTEX_POINT('',#1241);
#444=VERTEX_POINT('',#1242);
#445=VERTEX_POINT('',#1245);
#446=VERTEX_POINT('',#1249);
#447=VERTEX_POINT('',#1251);
#448=VERTEX_POINT('',#1253);
#449=VERTEX_POINT('',#1255);
#450=VERTEX_POINT('',#1257);
#451=VERTEX_POINT('',#1258);
#452=VERTEX_POINT('',#1263);
#453=VERTEX_POINT('',#1265);
#454=VERTEX_POINT('',#1276);
#455=VERTEX_POINT('',#1280);
#456=VERTEX_POINT('',#1284);
#457=VERTEX_POINT('',#1285);
#458=VERTEX_POINT('',#1287);
#459=VERTEX_POINT('',#1289);
#460=VERTEX_POINT('',#1291);
#461=VERTEX_POINT('',#1293);
#462=VERTEX_POINT('',#1296);
#463=VERTEX_POINT('',#1297);
#464=VERTEX_POINT('',#1301);
#465=VERTEX_POINT('',#1303);
#466=VERTEX_POINT('',#1306);
#467=VERTEX_POINT('',#1330);
#468=VERTEX_POINT('',#1339);
#469=VERTEX_POINT('',#1343);
#470=VERTEX_POINT('',#1352);
#471=LINE('',#1130,#548);
#472=LINE('',#1133,#549);
#473=LINE('',#1135,#550);
#474=LINE('',#1137,#551);
#475=LINE('',#1139,#552);
#476=LINE('',#1141,#553);
#477=LINE('',#1143,#554);
#478=LINE('',#1145,#555);
#479=LINE('',#1147,#556);
#480=LINE('',#1149,#557);
#481=LINE('',#1151,#558);
#482=LINE('',#1157,#559);
#483=LINE('',#1163,#560);
#484=LINE('',#1166,#561);
#485=LINE('',#1168,#562);
#486=LINE('',#1170,#563);
#487=LINE('',#1172,#564);
#488=LINE('',#1174,#565);
#489=LINE('',#1175,#566);
#490=LINE('',#1177,#567);
#491=LINE('',#1181,#568);
#492=LINE('',#1183,#569);
#493=LINE('',#1185,#570);
#494=LINE('',#1187,#571);
#495=LINE('',#1189,#572);
#496=LINE('',#1191,#573);
#497=LINE('',#1193,#574);
#498=LINE('',#1195,#575);
#499=LINE('',#1197,#576);
#500=LINE('',#1199,#577);
#501=LINE('',#1201,#578);
#502=LINE('',#1203,#579);
#503=LINE('',#1205,#580);
#504=LINE('',#1207,#581);
#505=LINE('',#1209,#582);
#506=LINE('',#1211,#583);
#507=LINE('',#1213,#584);
#508=LINE('',#1215,#585);
#509=LINE('',#1217,#586);
#510=LINE('',#1219,#587);
#511=LINE('',#1220,#588);
#512=LINE('',#1222,#589);
#513=LINE('',#1224,#590);
#514=LINE('',#1226,#591);
#515=LINE('',#1240,#592);
#516=LINE('',#1244,#593);
#517=LINE('',#1256,#594);
#518=LINE('',#1259,#595);
#519=LINE('',#1260,#596);
#520=LINE('',#1262,#597);
#521=LINE('',#1264,#598);
#522=LINE('',#1266,#599);
#523=LINE('',#1283,#600);
#524=LINE('',#1286,#601);
#525=LINE('',#1288,#602);
#526=LINE('',#1290,#603);
#527=LINE('',#1292,#604);
#528=LINE('',#1294,#605);
#529=LINE('',#1298,#606);
#530=LINE('',#1299,#607);
#531=LINE('',#1300,#608);
#532=LINE('',#1302,#609);
#533=LINE('',#1304,#610);
#534=LINE('',#1305,#611);
#535=LINE('',#1307,#612);
#536=LINE('',#1309,#613);
#537=LINE('',#1311,#614);
#538=LINE('',#1314,#615);
#539=LINE('',#1315,#616);
#540=LINE('',#1317,#617);
#541=LINE('',#1319,#618);
#542=LINE('',#1321,#619);
#543=LINE('',#1323,#620);
#544=LINE('',#1331,#621);
#545=LINE('',#1332,#622);
#546=LINE('',#1342,#623);
#547=LINE('',#1348,#624);
#548=VECTOR('',#907,1.);
#549=VECTOR('',#908,1.);
#550=VECTOR('',#909,1.);
#551=VECTOR('',#910,1.);
#552=VECTOR('',#913,1.);
#553=VECTOR('',#914,1.);
#554=VECTOR('',#915,1.);
#555=VECTOR('',#916,1.);
#556=VECTOR('',#917,1.);
#557=VECTOR('',#918,1.);
#558=VECTOR('',#919,1.);
#559=VECTOR('',#926,1.);
#560=VECTOR('',#933,1.);
#561=VECTOR('',#934,1.);
#562=VECTOR('',#935,1.);
#563=VECTOR('',#936,1.);
#564=VECTOR('',#937,1.);
#565=VECTOR('',#938,1.);
#566=VECTOR('',#939,1.);
#567=VECTOR('',#940,1.);
#568=VECTOR('',#943,1.);
#569=VECTOR('',#944,1.);
#570=VECTOR('',#945,1.);
#571=VECTOR('',#946,1.);
#572=VECTOR('',#947,1.);
#573=VECTOR('',#948,1.);
#574=VECTOR('',#949,1.);
#575=VECTOR('',#950,1.);
#576=VECTOR('',#953,1.);
#577=VECTOR('',#954,1.);
#578=VECTOR('',#955,1.);
#579=VECTOR('',#956,1.);
#580=VECTOR('',#957,1.);
#581=VECTOR('',#958,1.);
#582=VECTOR('',#959,1.);
#583=VECTOR('',#962,1.);
#584=VECTOR('',#963,1.);
#585=VECTOR('',#964,1.);
#586=VECTOR('',#967,1.);
#587=VECTOR('',#968,1.);
#588=VECTOR('',#969,1.);
#589=VECTOR('',#970,1.);
#590=VECTOR('',#971,1.);
#591=VECTOR('',#972,1.);
#592=VECTOR('',#987,1.);
#593=VECTOR('',#990,1.);
#594=VECTOR('',#1003,1.);
#595=VECTOR('',#1004,1.);
#596=VECTOR('',#1005,1.);
#597=VECTOR('',#1008,1.);
#598=VECTOR('',#1009,1.);
#599=VECTOR('',#1010,1.);
#600=VECTOR('',#1039,1.);
#601=VECTOR('',#1040,1.);
#602=VECTOR('',#1041,1.);
#603=VECTOR('',#1042,1.);
#604=VECTOR('',#1043,1.);
#605=VECTOR('',#1044,1.);
#606=VECTOR('',#1047,1.);
#607=VECTOR('',#1048,1.);
#608=VECTOR('',#1049,1.);
#609=VECTOR('',#1050,1.);
#610=VECTOR('',#1051,1.);
#611=VECTOR('',#1052,1.);
#612=VECTOR('',#1053,1.);
#613=VECTOR('',#1056,1.);
#614=VECTOR('',#1059,1.);
#615=VECTOR('',#1064,1.);
#616=VECTOR('',#1065,1.);
#617=VECTOR('',#1068,1.);
#618=VECTOR('',#1071,1.);
#619=VECTOR('',#1074,1.);
#620=VECTOR('',#1077,1.);
#621=VECTOR('',#1082,1.);
#622=VECTOR('',#1083,1.);
#623=VECTOR('',#1092,1.);
#624=VECTOR('',#1093,1.);
#625=EDGE_LOOP('',(#62,#63,#64,#65));
#626=EDGE_LOOP('',(#66,#67,#68,#69,#70,#71,#72,#73));
#627=EDGE_LOOP('',(#74,#75,#76,#77,#78,#79));
#628=EDGE_LOOP('',(#80,#81,#82,#83,#84,#85));
#629=EDGE_LOOP('',(#86,#87,#88,#89,#90,#91,#92,#93,#94,#95,#96,#97));
#630=EDGE_LOOP('',(#98,#99,#100,#101,#102,#103,#104,#105));
#631=EDGE_LOOP('',(#106,#107,#108,#109));
#632=EDGE_LOOP('',(#110,#111,#112,#113,#114,#115,#116,#117));
#633=EDGE_LOOP('',(#118));
#634=EDGE_LOOP('',(#119));
#635=EDGE_LOOP('',(#120));
#636=EDGE_LOOP('',(#121));
#637=EDGE_LOOP('',(#122));
#638=EDGE_LOOP('',(#123));
#639=EDGE_LOOP('',(#124,#125,#126,#127,#128,#129));
#640=EDGE_LOOP('',(#130));
#641=EDGE_LOOP('',(#131));
#642=EDGE_LOOP('',(#132));
#643=EDGE_LOOP('',(#133));
#644=EDGE_LOOP('',(#134,#135,#136,#137));
#645=EDGE_LOOP('',(#138,#139,#140,#141));
#646=EDGE_LOOP('',(#142,#143,#144,#145));
#647=EDGE_LOOP('',(#146));
#648=EDGE_LOOP('',(#147));
#649=EDGE_LOOP('',(#148));
#650=EDGE_LOOP('',(#149));
#651=EDGE_LOOP('',(#150));
#652=EDGE_LOOP('',(#151));
#653=EDGE_LOOP('',(#152));
#654=EDGE_LOOP('',(#153));
#655=EDGE_LOOP('',(#154));
#656=EDGE_LOOP('',(#155));
#657=EDGE_LOOP('',(#156));
#658=EDGE_LOOP('',(#157));
#659=EDGE_LOOP('',(#158));
#660=EDGE_LOOP('',(#159));
#661=EDGE_LOOP('',(#160,#161,#162,#163,#164,#165));
#662=EDGE_LOOP('',(#166,#167,#168,#169,#170,#171,#172,#173,#174,#175,#176,#177));
#663=EDGE_LOOP('',(#178,#179,#180,#181));
#664=EDGE_LOOP('',(#182,#183,#184,#185));
#665=EDGE_LOOP('',(#186,#187,#188,#189));
#666=EDGE_LOOP('',(#190,#191,#192,#193));
#667=EDGE_LOOP('',(#194,#195,#196,#197));
#668=EDGE_LOOP('',(#198,#199,#200,#201));
#669=EDGE_LOOP('',(#202,#203,#204,#205));
#670=EDGE_LOOP('',(#206,#207,#208,#209));
#671=EDGE_LOOP('',(#210,#211,#212,#213));
#672=EDGE_LOOP('',(#214,#215,#216,#217,#218,#219,#220,#221,#222));
#673=EDGE_LOOP('',(#223,#224,#225,#226));
#674=EDGE_LOOP('',(#227,#228,#229,#230,#231));
#675=EDGE_LOOP('',(#232,#233,#234,#235,#236,#237,#238,#239,#240));
#676=EDGE_LOOP('',(#241,#242,#243,#244));
#677=EDGE_LOOP('',(#245,#246,#247,#248,#249));
#678=EDGE_LOOP('',(#250,#251,#252,#253));
#679=EDGE_LOOP('',(#254,#255,#256,#257,#258));
#680=EDGE_LOOP('',(#259,#260,#261,#262));
#681=EDGE_LOOP('',(#263,#264,#265,#266));
#682=EDGE_LOOP('',(#267,#268,#269,#270));
#683=EDGE_LOOP('',(#271,#272,#273,#274,#275));
#684=EDGE_LOOP('',(#276,#277,#278,#279));
#685=EDGE_LOOP('',(#280,#281,#282,#283));
#686=FACE_BOUND('',#625,.T.);
#687=FACE_BOUND('',#626,.T.);
#688=FACE_BOUND('',#627,.T.);
#689=FACE_BOUND('',#628,.T.);
#690=FACE_BOUND('',#629,.T.);
#691=FACE_BOUND('',#630,.T.);
#692=FACE_BOUND('',#631,.T.);
#693=FACE_BOUND('',#632,.T.);
#694=FACE_BOUND('',#633,.T.);
#695=FACE_BOUND('',#634,.T.);
#696=FACE_BOUND('',#635,.T.);
#697=FACE_BOUND('',#636,.T.);
#698=FACE_BOUND('',#637,.T.);
#699=FACE_BOUND('',#638,.T.);
#700=FACE_BOUND('',#639,.T.);
#701=FACE_BOUND('',#640,.T.);
#702=FACE_BOUND('',#641,.T.);
#703=FACE_BOUND('',#642,.T.);
#704=FACE_BOUND('',#643,.T.);
#705=FACE_BOUND('',#644,.T.);
#706=FACE_BOUND('',#645,.T.);
#707=FACE_BOUND('',#646,.T.);
#708=FACE_BOUND('',#647,.T.);
#709=FACE_BOUND('',#648,.T.);
#710=FACE_BOUND('',#649,.T.);
#711=FACE_BOUND('',#650,.T.);
#712=FACE_BOUND('',#651,.T.);
#713=FACE_BOUND('',#652,.T.);
#714=FACE_BOUND('',#653,.T.);
#715=FACE_BOUND('',#654,.T.);
#716=FACE_BOUND('',#655,.T.);
#717=FACE_BOUND('',#656,.T.);
#718=FACE_BOUND('',#657,.T.);
#719=FACE_BOUND('',#658,.T.);
#720=FACE_BOUND('',#659,.T.);
#721=FACE_BOUND('',#660,.T.);
#722=FACE_BOUND('',#661,.T.);
#723=FACE_BOUND('',#662,.T.);
#724=FACE_BOUND('',#663,.T.);
#725=FACE_BOUND('',#664,.T.);
#726=FACE_BOUND('',#665,.T.);
#727=FACE_BOUND('',#666,.T.);
#728=FACE_BOUND('',#667,.T.);
#729=FACE_BOUND('',#668,.T.);
#730=FACE_BOUND('',#669,.T.);
#731=FACE_BOUND('',#670,.T.);
#732=FACE_BOUND('',#671,.T.);
#733=FACE_BOUND('',#672,.T.);
#734=FACE_BOUND('',#673,.T.);
#735=FACE_BOUND('',#674,.T.);
#736=FACE_BOUND('',#675,.T.);
#737=FACE_BOUND('',#676,.T.);
#738=FACE_BOUND('',#677,.T.);
#739=FACE_BOUND('',#678,.T.);
#740=FACE_BOUND('',#679,.T.);
#741=FACE_BOUND('',#680,.T.);
#742=FACE_BOUND('',#681,.T.);
#743=FACE_BOUND('',#682,.T.);
#744=FACE_BOUND('',#683,.T.);
#745=FACE_BOUND('',#684,.T.);
#746=FACE_BOUND('',#685,.T.);
#747=PLANE('',#830);
#748=PLANE('',#831);
#749=PLANE('',#837);
#750=PLANE('',#839);
#751=PLANE('',#840);
#752=PLANE('',#841);
#753=PLANE('',#842);
#754=PLANE('',#851);
#755=PLANE('',#856);
#756=PLANE('',#866);
#757=PLANE('',#869);
#758=PLANE('',#870);
#759=PLANE('',#872);
#760=PLANE('',#873);
#761=PLANE('',#874);
#762=PLANE('',#875);
#763=PLANE('',#876);
#764=PLANE('',#877);
#765=PLANE('',#878);
#766=PLANE('',#879);
#767=PLANE('',#880);
#768=PLANE('',#881);
#769=PLANE('',#882);
#770=PLANE('',#883);
#771=PLANE('',#885);
#772=PLANE('',#886);
#773=PLANE('',#887);
#774=ADVANCED_FACE('',(#686),#747,.T.);
#775=ADVANCED_FACE('',(#687),#748,.F.);
#776=ADVANCED_FACE('',(#688),#50,.T.);
#777=ADVANCED_FACE('',(#689,#690),#749,.T.);
#778=ADVANCED_FACE('',(#691),#750,.T.);
#779=ADVANCED_FACE('',(#692),#751,.T.);
#780=ADVANCED_FACE('',(#693),#752,.T.);
#781=ADVANCED_FACE('',(#694,#695,#696,#697,#698,#699,#700),#753,.F.);
#782=ADVANCED_FACE('',(#701,#702,#703,#704,#705),#754,.F.);
#783=ADVANCED_FACE('',(#706),#755,.T.);
#784=ADVANCED_FACE('',(#707),#51,.T.);
#785=ADVANCED_FACE('',(#708,#709),#52,.F.);
#786=ADVANCED_FACE('',(#710,#711),#53,.F.);
#787=ADVANCED_FACE('',(#712,#713),#54,.F.);
#788=ADVANCED_FACE('',(#714,#715),#55,.F.);
#789=ADVANCED_FACE('',(#716,#717),#56,.F.);
#790=ADVANCED_FACE('',(#718),#756,.F.);
#791=ADVANCED_FACE('',(#719,#720),#57,.F.);
#792=ADVANCED_FACE('',(#721),#757,.F.);
#793=ADVANCED_FACE('',(#722,#723),#758,.F.);
#794=ADVANCED_FACE('',(#724),#759,.T.);
#795=ADVANCED_FACE('',(#725),#760,.T.);
#796=ADVANCED_FACE('',(#726),#761,.T.);
#797=ADVANCED_FACE('',(#727),#762,.T.);
#798=ADVANCED_FACE('',(#728),#763,.T.);
#799=ADVANCED_FACE('',(#729),#764,.T.);
#800=ADVANCED_FACE('',(#730),#765,.T.);
#801=ADVANCED_FACE('',(#731),#766,.T.);
#802=ADVANCED_FACE('',(#732),#767,.T.);
#803=ADVANCED_FACE('',(#733),#768,.F.);
#804=ADVANCED_FACE('',(#734),#769,.F.);
#805=ADVANCED_FACE('',(#735),#770,.F.);
#806=ADVANCED_FACE('',(#736),#771,.T.);
#807=ADVANCED_FACE('',(#737),#772,.T.);
#808=ADVANCED_FACE('',(#738),#773,.T.);
#809=ADVANCED_FACE('',(#739),#14,.T.);
#810=ADVANCED_FACE('',(#740),#58,.T.);
#811=ADVANCED_FACE('',(#741),#12,.T.);
#812=ADVANCED_FACE('',(#742),#59,.T.);
#813=ADVANCED_FACE('',(#743),#15,.T.);
#814=ADVANCED_FACE('',(#744),#60,.T.);
#815=ADVANCED_FACE('',(#745),#13,.T.);
#816=ADVANCED_FACE('',(#746),#61,.T.);
#817=CLOSED_SHELL('',(#774,#775,#776,#777,#778,#779,#780,#781,#782,#783,#784,#785,#786,#787,#788,#789,#790,#791,#792,#793,#794,#795,#796,#797,#798,#799,#800,#801,#802,#803,#804,#805,#806,#807,#808,#809,#810,#811,#812,#813,#814,#815,#816));
#818=STYLED_ITEM('',(#819),#826);
#819=PRESENTATION_STYLE_ASSIGNMENT((#820));
#820=SURFACE_STYLE_USAGE(.BOTH.,#821);
#821=SURFACE_SIDE_STYLE('',(#822));
#822=SURFACE_STYLE_FILL_AREA(#823);
#823=FILL_AREA_STYLE('',(#824));
#824=FILL_AREA_STYLE_COLOUR('',#825);
#825=COLOUR_RGB('',0.768627450980392,0.886274509803922,0.952941176470588);
#826=MANIFOLD_SOLID_BREP('knee-for-pbk-L',#817);
#827=SHAPE_DEFINITION_REPRESENTATION(#1377,#828);
#828=SHAPE_REPRESENTATION('knee-for-pbk-L',(#829),#1372);
#829=AXIS2_PLACEMENT_3D('',#1128,#903,#904);
#830=AXIS2_PLACEMENT_3D('',#1129,#905,#906);
#831=AXIS2_PLACEMENT_3D('',#1138,#911,#912);
#832=AXIS2_PLACEMENT_3D('',#1152,#920,#921);
#833=AXIS2_PLACEMENT_3D('',#1153,#922,#923);
#834=AXIS2_PLACEMENT_3D('',#1155,#924,#925);
#835=AXIS2_PLACEMENT_3D('',#1159,#927,#928);
#836=AXIS2_PLACEMENT_3D('',#1161,#929,#930);
#837=AXIS2_PLACEMENT_3D('',#1162,#931,#932);
#838=AXIS2_PLACEMENT_3D('',#1179,#941,#942);
#839=AXIS2_PLACEMENT_3D('',#1196,#951,#952);
#840=AXIS2_PLACEMENT_3D('',#1210,#960,#961);
#841=AXIS2_PLACEMENT_3D('',#1216,#965,#966);
#842=AXIS2_PLACEMENT_3D('',#1227,#973,#974);
#843=AXIS2_PLACEMENT_3D('',#1228,#975,#976);
#844=AXIS2_PLACEMENT_3D('',#1230,#977,#978);
#845=AXIS2_PLACEMENT_3D('',#1232,#979,#980);
#846=AXIS2_PLACEMENT_3D('',#1234,#981,#982);
#847=AXIS2_PLACEMENT_3D('',#1236,#983,#984);
#848=AXIS2_PLACEMENT_3D('',#1238,#985,#986);
#849=AXIS2_PLACEMENT_3D('',#1243,#988,#989);
#850=AXIS2_PLACEMENT_3D('',#1246,#991,#992);
#851=AXIS2_PLACEMENT_3D('',#1247,#993,#994);
#852=AXIS2_PLACEMENT_3D('',#1248,#995,#996);
#853=AXIS2_PLACEMENT_3D('',#1250,#997,#998);
#854=AXIS2_PLACEMENT_3D('',#1252,#999,#1000);
#855=AXIS2_PLACEMENT_3D('',#1254,#1001,#1002);
#856=AXIS2_PLACEMENT_3D('',#1261,#1006,#1007);
#857=AXIS2_PLACEMENT_3D('',#1267,#1011,#1012);
#858=AXIS2_PLACEMENT_3D('',#1268,#1013,#1014);
#859=AXIS2_PLACEMENT_3D('',#1269,#1015,#1016);
#860=AXIS2_PLACEMENT_3D('',#1270,#1017,#1018);
#861=AXIS2_PLACEMENT_3D('',#1271,#1019,#1020);
#862=AXIS2_PLACEMENT_3D('',#1272,#1021,#1022);
#863=AXIS2_PLACEMENT_3D('',#1273,#1023,#1024);
#864=AXIS2_PLACEMENT_3D('',#1274,#1025,#1026);
#865=AXIS2_PLACEMENT_3D('',#1275,#1027,#1028);
#866=AXIS2_PLACEMENT_3D('',#1277,#1029,#1030);
#867=AXIS2_PLACEMENT_3D('',#1278,#1031,#1032);
#868=AXIS2_PLACEMENT_3D('',#1279,#1033,#1034);
#869=AXIS2_PLACEMENT_3D('',#1281,#1035,#1036);
#870=AXIS2_PLACEMENT_3D('',#1282,#1037,#1038);
#871=AXIS2_PLACEMENT_3D('',#1295,#1045,#1046);
#872=AXIS2_PLACEMENT_3D('',#1308,#1054,#1055);
#873=AXIS2_PLACEMENT_3D('',#1310,#1057,#1058);
#874=AXIS2_PLACEMENT_3D('',#1312,#1060,#1061);
#875=AXIS2_PLACEMENT_3D('',#1313,#1062,#1063);
#876=AXIS2_PLACEMENT_3D('',#1316,#1066,#1067);
#877=AXIS2_PLACEMENT_3D('',#1318,#1069,#1070);
#878=AXIS2_PLACEMENT_3D('',#1320,#1072,#1073);
#879=AXIS2_PLACEMENT_3D('',#1322,#1075,#1076);
#880=AXIS2_PLACEMENT_3D('',#1324,#1078,#1079);
#881=AXIS2_PLACEMENT_3D('',#1325,#1080,#1081);
#882=AXIS2_PLACEMENT_3D('',#1333,#1084,#1085);
#883=AXIS2_PLACEMENT_3D('',#1334,#1086,#1087);
#884=AXIS2_PLACEMENT_3D('',#1340,#1088,#1089);
#885=AXIS2_PLACEMENT_3D('',#1341,#1090,#1091);
#886=AXIS2_PLACEMENT_3D('',#1349,#1094,#1095);
#887=AXIS2_PLACEMENT_3D('',#1350,#1096,#1097);
#888=AXIS2_PLACEMENT_3D('',#1351,#1098,#1099);
#889=AXIS2_PLACEMENT_3D('',#1357,#1100,#1101);
#890=AXIS2_PLACEMENT_3D('',#1358,#1102,#1103);
#891=AXIS2_PLACEMENT_3D('',#1359,#1104,#1105);
#892=AXIS2_PLACEMENT_3D('',#1360,#1106,#1107);
#893=AXIS2_PLACEMENT_3D('',#1361,#1108,#1109);
#894=AXIS2_PLACEMENT_3D('',#1362,#1110,#1111);
#895=AXIS2_PLACEMENT_3D('',#1363,#1112,#1113);
#896=AXIS2_PLACEMENT_3D('',#1364,#1114,#1115);
#897=AXIS2_PLACEMENT_3D('',#1365,#1116,#1117);
#898=AXIS2_PLACEMENT_3D('',#1366,#1118,#1119);
#899=AXIS2_PLACEMENT_3D('',#1367,#1120,#1121);
#900=AXIS2_PLACEMENT_3D('',#1368,#1122,#1123);
#901=AXIS2_PLACEMENT_3D('',#1369,#1124,#1125);
#902=AXIS2_PLACEMENT_3D('',#1370,#1126,#1127);
#903=DIRECTION('',(0.,0.,1.));
#904=DIRECTION('',(1.,0.,0.));
#905=DIRECTION('',(0.,0.,1.));
#906=DIRECTION('',(1.,0.,0.));
#907=DIRECTION('',(-1.,0.,0.));
#908=DIRECTION('',(0.,-1.,0.));
#909=DIRECTION('',(-1.,0.,0.));
#910=DIRECTION('',(0.,-1.,0.));
#911=DIRECTION('',(0.,0.468437675084034,-0.8834965447368));
#912=DIRECTION('',(0.,0.8834965447368,0.468437675084034));
#913=DIRECTION('',(0.424201981386911,-0.800065846024462,-0.424201981386911));
#914=DIRECTION('',(-0.424201981386911,-0.800065846024462,-0.424201981386911));
#915=DIRECTION('',(-1.,0.,0.));
#916=DIRECTION('',(8.87987502362975E-17,-0.8834965447368,-0.468437675084034));
#917=DIRECTION('',(-1.,0.,0.));
#918=DIRECTION('',(0.,-0.8834965447368,-0.468437675084034));
#919=DIRECTION('',(1.,0.,0.));
#920=DIRECTION('',(-1.,0.,0.));
#921=DIRECTION('',(0.,0.,1.));
#922=DIRECTION('',(0.707106781186548,0.,0.707106781186547));
#923=DIRECTION('',(-0.707106781186547,0.,0.707106781186548));
#924=DIRECTION('',(1.,0.,0.));
#925=DIRECTION('',(0.,0.,-1.));
#926=DIRECTION('',(-1.,0.,0.));
#927=DIRECTION('',(1.,0.,1.8956363879222E-16));
#928=DIRECTION('',(1.8956363879222E-16,0.,-1.));
#929=DIRECTION('',(0.707106781186548,0.,-0.707106781186547));
#930=DIRECTION('',(-0.707106781186547,0.,-0.707106781186548));
#931=DIRECTION('',(1.,0.,0.));
#932=DIRECTION('',(0.,0.,-1.));
#933=DIRECTION('',(0.,0.707106781186547,-0.707106781186548));
#934=DIRECTION('',(0.,-0.258819045102521,-0.965925826289068));
#935=DIRECTION('',(0.,-0.965925826289068,-0.258819045102521));
#936=DIRECTION('',(0.,-0.707106781186548,0.707106781186548));
#937=DIRECTION('',(0.,0.258819045102521,0.965925826289068));
#938=DIRECTION('',(0.,0.965925826289068,0.258819045102521));
#939=DIRECTION('',(0.,-0.694658370458996,-0.719339800338652));
#940=DIRECTION('',(0.,1.,0.));
#941=DIRECTION('',(1.,0.,0.));
#942=DIRECTION('',(0.,0.,-1.));
#943=DIRECTION('',(0.,-0.258819045102521,-0.965925826289068));
#944=DIRECTION('',(0.,-1.,0.));
#945=DIRECTION('',(0.,-0.707106781186548,0.707106781186548));
#946=DIRECTION('',(0.,0.258819045102521,0.965925826289068));
#947=DIRECTION('',(0.,0.965925826289069,0.258819045102521));
#948=DIRECTION('',(0.,0.707106781186548,-0.707106781186548));
#949=DIRECTION('',(0.,-0.258819045102521,-0.965925826289068));
#950=DIRECTION('',(0.,-1.,0.));
#951=DIRECTION('',(0.,-0.707106781186548,-0.707106781186548));
#952=DIRECTION('',(0.,0.707106781186548,-0.707106781186548));
#953=DIRECTION('',(-1.,0.,0.));
#954=DIRECTION('',(-0.577350269189625,-0.577350269189626,0.577350269189626));
#955=DIRECTION('',(-1.,0.,0.));
#956=DIRECTION('',(0.577350269189625,-0.577350269189626,0.577350269189626));
#957=DIRECTION('',(1.,0.,0.));
#958=DIRECTION('',(-1.34041734456376E-16,-0.707106781186548,0.707106781186548));
#959=DIRECTION('',(-1.,0.,0.));
#960=DIRECTION('',(0.,0.258819045102521,-0.965925826289068));
#961=DIRECTION('',(0.,0.965925826289068,0.258819045102521));
#962=DIRECTION('',(0.250562807085731,-0.93511312653103,-0.250562807085731));
#963=DIRECTION('',(-1.,0.,0.));
#964=DIRECTION('',(-0.250562807085731,-0.93511312653103,-0.250562807085731));
#965=DIRECTION('',(0.,0.965925826289068,-0.258819045102521));
#966=DIRECTION('',(0.,0.258819045102521,0.965925826289068));
#967=DIRECTION('',(0.694746590606865,-0.186156787897385,-0.694746590606866));
#968=DIRECTION('',(1.,0.,0.));
#969=DIRECTION('',(-1.,0.,0.));
#970=DIRECTION('',(1.83104414434738E-16,-0.258819045102521,-0.965925826289068));
#971=DIRECTION('',(-1.,0.,0.));
#972=DIRECTION('',(-0.694746590606865,-0.186156787897385,-0.694746590606866));
#973=DIRECTION('',(0.,0.719339800338652,-0.694658370458996));
#974=DIRECTION('',(0.,0.694658370458996,0.719339800338652));
#975=DIRECTION('',(0.,-0.719339800338652,0.694658370458996));
#976=DIRECTION('',(0.,-0.694658370458996,-0.719339800338652));
#977=DIRECTION('',(0.,-0.719339800338652,0.694658370458996));
#978=DIRECTION('',(0.,-0.694658370458996,-0.719339800338652));
#979=DIRECTION('',(0.,-0.719339800338652,0.694658370458996));
#980=DIRECTION('',(0.,-0.694658370458996,-0.719339800338652));
#981=DIRECTION('',(0.,-0.719339800338652,0.694658370458996));
#982=DIRECTION('',(0.,-0.694658370458996,-0.719339800338652));
#983=DIRECTION('',(0.,-0.719339800338652,0.694658370458996));
#984=DIRECTION('',(0.,-0.694658370458996,-0.719339800338652));
#985=DIRECTION('',(0.,-0.719339800338652,0.694658370458996));
#986=DIRECTION('',(0.,-0.694658370458996,-0.719339800338652));
#987=DIRECTION('',(-1.,0.,0.));
#988=DIRECTION('',(0.,0.719339800338652,-0.694658370458996));
#989=DIRECTION('',(0.,-0.694658370458996,-0.719339800338652));
#990=DIRECTION('',(1.36360670080264E-16,-0.694658370458996,-0.719339800338652));
#991=DIRECTION('',(0.,0.719339800338652,-0.694658370458996));
#992=DIRECTION('',(0.,0.694658370458996,0.719339800338652));
#993=DIRECTION('',(0.,0.,1.));
#994=DIRECTION('',(1.,0.,0.));
#995=DIRECTION('',(0.,0.,1.));
#996=DIRECTION('',(0.,-1.,0.));
#997=DIRECTION('',(0.,0.,1.));
#998=DIRECTION('',(0.,-1.,0.));
#999=DIRECTION('',(0.,0.,1.));
#1000=DIRECTION('',(0.,-1.,0.));
#1001=DIRECTION('',(0.,0.,1.));
#1002=DIRECTION('',(0.,-1.,0.));
#1003=DIRECTION('',(-1.,0.,0.));
#1004=DIRECTION('',(0.,1.,0.));
#1005=DIRECTION('',(0.,1.,0.));
#1006=DIRECTION('',(0.,0.965925826289068,-0.258819045102521));
#1007=DIRECTION('',(0.,0.258819045102521,0.965925826289068));
#1008=DIRECTION('',(0.,-0.258819045102521,-0.965925826289068));
#1009=DIRECTION('',(-1.,0.,0.));
#1010=DIRECTION('',(1.83104414434738E-16,-0.258819045102521,-0.965925826289068));
#1011=DIRECTION('',(1.,0.,0.));
#1012=DIRECTION('',(0.,0.,-1.));
#1013=DIRECTION('',(1.,0.,0.));
#1014=DIRECTION('',(0.,0.,-1.));
#1015=DIRECTION('',(1.,0.,1.8956363879222E-16));
#1016=DIRECTION('',(1.8956363879222E-16,0.,-1.));
#1017=DIRECTION('',(0.,-0.719339800338652,0.694658370458996));
#1018=DIRECTION('',(0.,-0.694658370458996,-0.719339800338652));
#1019=DIRECTION('',(0.,-0.719339800338652,0.694658370458996));
#1020=DIRECTION('',(0.,-0.694658370458996,-0.719339800338652));
#1021=DIRECTION('',(0.,-0.719339800338652,0.694658370458996));
#1022=DIRECTION('',(0.,-0.694658370458996,-0.719339800338652));
#1023=DIRECTION('',(0.,-0.719339800338652,0.694658370458996));
#1024=DIRECTION('',(0.,-0.694658370458996,-0.719339800338652));
#1025=DIRECTION('',(0.,-0.719339800338652,0.694658370458996));
#1026=DIRECTION('',(0.,-0.694658370458996,-0.719339800338652));
#1027=DIRECTION('',(0.,0.719339800338652,-0.694658370458996));
#1028=DIRECTION('',(0.,0.694658370458996,0.719339800338652));
#1029=DIRECTION('',(0.,0.719339800338652,-0.694658370458996));
#1030=DIRECTION('',(-1.,0.,0.));
#1031=DIRECTION('',(0.,-0.719339800338652,0.694658370458996));
#1032=DIRECTION('',(0.,-0.694658370458996,-0.719339800338652));
#1033=DIRECTION('',(0.,0.719339800338652,-0.694658370458996));
#1034=DIRECTION('',(0.,0.694658370458996,0.719339800338652));
#1035=DIRECTION('',(0.,0.719339800338652,-0.694658370458996));
#1036=DIRECTION('',(-1.,0.,0.));
#1037=DIRECTION('',(1.,0.,1.8956363879222E-16));
#1038=DIRECTION('',(1.8956363879222E-16,0.,-1.));
#1039=DIRECTION('',(-4.90626799783617E-17,0.965925826289068,0.258819045102521));
#1040=DIRECTION('',(-1.83104414434738E-16,0.258819045102521,0.965925826289068));
#1041=DIRECTION('',(-1.34041734456376E-16,-0.707106781186548,0.707106781186548));
#1042=DIRECTION('',(4.90626799783617E-17,-0.965925826289068,-0.258819045102521));
#1043=DIRECTION('',(1.83104414434738E-16,-0.258819045102521,-0.965925826289068));
#1044=DIRECTION('',(1.34041734456377E-16,0.707106781186547,-0.707106781186548));
#1045=DIRECTION('',(1.,0.,1.8956363879222E-16));
#1046=DIRECTION('',(1.8956363879222E-16,0.,-1.));
#1047=DIRECTION('',(0.,1.,0.));
#1048=DIRECTION('',(0.,1.,0.));
#1049=DIRECTION('',(1.34041734456376E-16,0.707106781186548,-0.707106781186548));
#1050=DIRECTION('',(-4.90626799783617E-17,0.965925826289069,0.258819045102521));
#1051=DIRECTION('',(-1.83104414434738E-16,0.258819045102521,0.965925826289068));
#1052=DIRECTION('',(0.,1.,0.));
#1053=DIRECTION('',(1.83104414434738E-16,-0.258819045102521,-0.965925826289068));
#1054=DIRECTION('',(0.,-0.965925826289068,0.258819045102521));
#1055=DIRECTION('',(0.,-0.258819045102521,-0.965925826289068));
#1056=DIRECTION('',(-1.,0.,0.));
#1057=DIRECTION('',(0.,-0.258819045102521,0.965925826289068));
#1058=DIRECTION('',(0.,-0.965925826289069,-0.258819045102521));
#1059=DIRECTION('',(-1.,0.,0.));
#1060=DIRECTION('',(0.,0.707106781186548,0.707106781186548));
#1061=DIRECTION('',(0.,-0.707106781186548,0.707106781186548));
#1062=DIRECTION('',(0.,-0.707106781186547,-0.707106781186548));
#1063=DIRECTION('',(0.,0.707106781186548,-0.707106781186548));
#1064=DIRECTION('',(-1.,0.,0.));
#1065=DIRECTION('',(-1.,0.,0.));
#1066=DIRECTION('',(0.,-0.965925826289068,0.258819045102521));
#1067=DIRECTION('',(0.,-0.258819045102521,-0.965925826289068));
#1068=DIRECTION('',(-1.,0.,0.));
#1069=DIRECTION('',(0.,0.258819045102521,-0.965925826289068));
#1070=DIRECTION('',(0.,0.965925826289068,0.258819045102521));
#1071=DIRECTION('',(-1.,0.,0.));
#1072=DIRECTION('',(0.,0.965925826289068,-0.258819045102521));
#1073=DIRECTION('',(0.,0.258819045102521,0.965925826289068));
#1074=DIRECTION('',(-1.,0.,0.));
#1075=DIRECTION('',(0.,0.707106781186548,0.707106781186547));
#1076=DIRECTION('',(0.,-0.707106781186547,0.707106781186548));
#1077=DIRECTION('',(-1.,0.,0.));
#1078=DIRECTION('',(0.,-0.258819045102521,0.965925826289068));
#1079=DIRECTION('',(0.,-0.965925826289068,-0.258819045102521));
#1080=DIRECTION('',(0.707106781186548,0.,-0.707106781186547));
#1081=DIRECTION('',(-0.707106781186547,0.,-0.707106781186548));
#1082=DIRECTION('',(0.,-1.,0.));
#1083=DIRECTION('',(0.,-1.,0.));
#1084=DIRECTION('',(0.,0.,-1.));
#1085=DIRECTION('',(-1.,0.,0.));
#1086=DIRECTION('',(0.,0.,-1.));
#1087=DIRECTION('',(-1.,0.,0.));
#1088=DIRECTION('',(0.,0.,-1.));
#1089=DIRECTION('',(-7.07461131240203E-16,1.,0.));
#1090=DIRECTION('',(0.707106781186548,0.,0.707106781186547));
#1091=DIRECTION('',(0.707106781186547,0.,-0.707106781186548));
#1092=DIRECTION('',(0.,-1.,0.));
#1093=DIRECTION('',(0.,-1.,0.));
#1094=DIRECTION('',(0.,0.,1.));
#1095=DIRECTION('',(1.,0.,0.));
#1096=DIRECTION('',(0.,0.,1.));
#1097=DIRECTION('',(1.,0.,0.));
#1098=DIRECTION('',(0.,0.,1.));
#1099=DIRECTION('',(0.,-1.,0.));
#1100=DIRECTION('',(1.,0.,0.));
#1101=DIRECTION('',(0.,0.,-1.));
#1102=DIRECTION('',(0.,-0.25881904510252,-0.965925826289069));
#1103=DIRECTION('',(0.,0.965925826289069,-0.25881904510252));
#1104=DIRECTION('',(0.,-0.258819045102521,-0.965925826289068));
#1105=DIRECTION('',(0.,0.965925826289068,-0.258819045102521));
#1106=DIRECTION('',(1.1224486839231E-16,-0.25881904510252,-0.965925826289069));
#1107=DIRECTION('',(0.,0.965925826289069,-0.25881904510252));
#1108=DIRECTION('',(1.,0.,0.));
#1109=DIRECTION('',(0.,0.,-1.));
#1110=DIRECTION('',(0.,-1.,0.));
#1111=DIRECTION('',(0.,0.,-1.));
#1112=DIRECTION('',(0.,-1.,0.));
#1113=DIRECTION('',(0.,0.,-1.));
#1114=DIRECTION('',(1.,0.,1.8956363879222E-16));
#1115=DIRECTION('',(1.8956363879222E-16,0.,-1.));
#1116=DIRECTION('',(0.,-0.25881904510252,-0.965925826289069));
#1117=DIRECTION('',(0.,0.965925826289069,-0.25881904510252));
#1118=DIRECTION('',(-1.83104414434738E-16,0.258819045102521,0.965925826289068));
#1119=DIRECTION('',(0.,-0.965925826289068,0.258819045102521));
#1120=DIRECTION('',(0.,-0.25881904510252,-0.965925826289069));
#1121=DIRECTION('',(0.,0.965925826289068,-0.25881904510252));
#1122=DIRECTION('',(1.,0.,1.8956363879222E-16));
#1123=DIRECTION('',(1.8956363879222E-16,0.,-1.));
#1124=DIRECTION('',(0.,-1.,0.));
#1125=DIRECTION('',(0.,0.,-1.));
#1126=DIRECTION('',(0.,1.,0.));
#1127=DIRECTION('',(0.,0.,1.));
#1128=CARTESIAN_POINT('',(0.,0.,0.));
#1129=CARTESIAN_POINT('',(0.084202,0.0100948261214308,0.0375));
#1130=CARTESIAN_POINT('',(0.084202,0.00377163041942543,0.0375));
#1131=CARTESIAN_POINT('',(0.071,0.00377163041942541,0.0375));
#1132=CARTESIAN_POINT('',(0.064,0.00377163041942541,0.0375));
#1133=CARTESIAN_POINT('',(0.071,0.48879802030932,0.0375));
#1134=CARTESIAN_POINT('',(0.071,0.00990189495923028,0.0375));
#1135=CARTESIAN_POINT('',(0.084202,0.00990189495923028,0.0375));
#1136=CARTESIAN_POINT('',(0.064,0.00990189495923028,0.0375));
#1137=CARTESIAN_POINT('',(0.064,0.48879802030932,0.0375));
#1138=CARTESIAN_POINT('',(0.084202,-0.00445571193002992,0.033137790384967));
#1139=CARTESIAN_POINT('',(0.0769529062131206,-0.00745584412025744,0.0315470937868794));
#1140=CARTESIAN_POINT('',(0.077,-0.0075446653235885,0.0315));
#1141=CARTESIAN_POINT('',(0.0640580540979837,0.00388112330973834,0.0375580540979837));
#1142=CARTESIAN_POINT('',(0.058,-0.0075446653235885,0.0315));
#1143=CARTESIAN_POINT('',(0.084202,-0.0075446653235885,0.0315));
#1144=CARTESIAN_POINT('',(0.0568,-0.00754466532358839,0.0315));
#1145=CARTESIAN_POINT('',(0.0568,-0.00445571193002992,0.033137790384967));
#1146=CARTESIAN_POINT('',(0.0568,-0.0126830542794853,0.0287755807699341));
#1147=CARTESIAN_POINT('',(0.084202,-0.0126830542794853,0.0287755807699341));
#1148=CARTESIAN_POINT('',(0.0782,-0.0126830542794853,0.0287755807699341));
#1149=CARTESIAN_POINT('',(0.0782,-0.00445571193002992,0.033137790384967));
#1150=CARTESIAN_POINT('',(0.0782,-0.00754466532358839,0.0315));
#1151=CARTESIAN_POINT('',(0.084202,-0.0075446653235885,0.0315));
#1152=CARTESIAN_POINT('',(0.084202,0.00990189495923028,0.0325));
#1153=CARTESIAN_POINT('',(0.076,0.00990189495923028,0.0325));
#1154=CARTESIAN_POINT('',(0.0762,0.014897893357949,0.0323));
#1155=CARTESIAN_POINT('',(0.0762,0.00990189495923028,0.0325));
#1156=CARTESIAN_POINT('',(0.0762,0.0147315240906756,0.0312059047744874));
#1157=CARTESIAN_POINT('',(0.084202,0.0147315240906756,0.0312059047744874));
#1158=CARTESIAN_POINT('',(0.0588,0.0147315240906756,0.0312059047744874));
#1159=CARTESIAN_POINT('',(0.0588,0.00990189495923028,0.0325));
#1160=CARTESIAN_POINT('',(0.0588,0.014897893357949,0.0323));
#1161=CARTESIAN_POINT('',(0.059,0.00990189495923028,0.0325));
#1162=CARTESIAN_POINT('',(0.0782,0.48879802030932,0.0191977191719956));
#1163=CARTESIAN_POINT('',(0.0782,0.000656544462077026,0.0101665476220841));
#1164=CARTESIAN_POINT('',(0.0782,-0.000690674896453718,0.0115137669806149));
#1165=CARTESIAN_POINT('',(0.0782,0.00200376382060777,0.00881932826355338));
#1166=CARTESIAN_POINT('',(0.0782,-0.000197558386761289,0.0133541028488381));
#1167=CARTESIAN_POINT('',(0.0782,0.000295558122931149,0.0151944387170613));
#1168=CARTESIAN_POINT('',(0.0782,0.00213589399115433,0.0156875552267536));
#1169=CARTESIAN_POINT('',(0.0782,0.0039762298593775,0.0161806717364461));
#1170=CARTESIAN_POINT('',(0.0782,0.00532344921790825,0.0148334523779153));
#1171=CARTESIAN_POINT('',(0.0782,0.006670668576439,0.0134862330193846));
#1172=CARTESIAN_POINT('',(0.0782,0.00617755206674657,0.0116458971511614));
#1173=CARTESIAN_POINT('',(0.0782,0.00568443555705415,0.00980556128293827));
#1174=CARTESIAN_POINT('',(0.0782,0.00384409968883095,0.00931244477324584));
#1175=CARTESIAN_POINT('',(0.0782,-0.0239215378178056,0.017137790384967));
#1176=CARTESIAN_POINT('',(0.0782,-0.0332286438065118,0.0075));
#1177=CARTESIAN_POINT('',(0.0782,0.00554166670170353,0.0075));
#1178=CARTESIAN_POINT('',(0.0782,0.00554166670170351,0.0075));
#1179=CARTESIAN_POINT('',(0.0782,0.00554166670170351,0.0085));
#1180=CARTESIAN_POINT('',(0.0782,0.00650759252799258,0.00824118095489746));
#1181=CARTESIAN_POINT('',(0.0782,0.0415540597425839,0.139036377225549));
#1182=CARTESIAN_POINT('',(0.0782,0.0127397743080295,0.0315));
#1183=CARTESIAN_POINT('',(0.0782,0.48879802030932,0.0315));
#1184=CARTESIAN_POINT('',(0.0782,0.0114799870595837,0.0315));
#1185=CARTESIAN_POINT('',(0.0782,0.0101465346816684,0.0328334523779153));
#1186=CARTESIAN_POINT('',(0.0782,0.0114937540401992,0.0314862330193846));
#1187=CARTESIAN_POINT('',(0.0782,0.0110006375305068,0.0296458971511614));
#1188=CARTESIAN_POINT('',(0.0782,0.0105075210208143,0.0278055612829382));
#1189=CARTESIAN_POINT('',(0.0782,0.00866718515259115,0.0273124447732458));
#1190=CARTESIAN_POINT('',(0.0782,0.00682684928436799,0.0268193282635533));
#1191=CARTESIAN_POINT('',(0.0782,0.00547962992583724,0.0281665476220841));
#1192=CARTESIAN_POINT('',(0.0782,0.00413241056730647,0.0295137669806148));
#1193=CARTESIAN_POINT('',(0.0782,0.0046255270769989,0.031354102848838));
#1194=CARTESIAN_POINT('',(0.0782,0.00466462010083076,0.0315));
#1195=CARTESIAN_POINT('',(0.0782,0.48879802030932,0.0315));
#1196=CARTESIAN_POINT('',(0.084202,0.0101465346816684,0.0328334523779153));
#1197=CARTESIAN_POINT('',(0.084202,0.0114799870595837,0.0315));
#1198=CARTESIAN_POINT('',(0.077,0.0114799870595837,0.0315));
#1199=CARTESIAN_POINT('',(0.0785116984147232,0.0129916854743068,0.0299883015852769));
#1200=CARTESIAN_POINT('',(0.074319328263554,0.00879931532313769,0.034180671736446));
#1201=CARTESIAN_POINT('',(0.084202,0.00879931532313769,0.034180671736446));
#1202=CARTESIAN_POINT('',(0.060680671736446,0.00879931532313769,0.034180671736446));
#1203=CARTESIAN_POINT('',(0.0676229682519435,0.00185701880764018,0.0411229682519435));
#1204=CARTESIAN_POINT('',(0.058,0.0114799870595837,0.0315));
#1205=CARTESIAN_POINT('',(0.084202,0.0114799870595837,0.0315));
#1206=CARTESIAN_POINT('',(0.0568,0.0114799870595837,0.0315));
#1207=CARTESIAN_POINT('',(0.0568,0.0101465346816684,0.0328334523779153));
#1208=CARTESIAN_POINT('',(0.0568,0.0114937540401992,0.0314862330193846));
#1209=CARTESIAN_POINT('',(0.084202,0.0114937540401992,0.0314862330193846));
#1210=CARTESIAN_POINT('',(0.084202,0.00695897945491452,0.0336875552267536));
#1211=CARTESIAN_POINT('',(0.075401937203184,0.00475896375571051,0.0330980627968161));
#1212=CARTESIAN_POINT('',(0.0753055612829389,0.00511864358669133,0.0331944387170612));
#1213=CARTESIAN_POINT('',(0.084202,0.00511864358669133,0.0331944387170612));
#1214=CARTESIAN_POINT('',(0.0596944387170611,0.00511864358669133,0.0331944387170612));
#1215=CARTESIAN_POINT('',(0.0616952233815396,0.0125856736095296,0.0351952233815397));
#1216=CARTESIAN_POINT('',(0.084202,0.0046255270769989,0.031354102848838));
#1217=CARTESIAN_POINT('',(0.0805516862478292,0.00371294863895621,0.0279483137521709));
#1218=CARTESIAN_POINT('',(0.077,0.00466462010083074,0.0315));
#1219=CARTESIAN_POINT('',(0.084202,0.00466462010083076,0.0315));
#1220=CARTESIAN_POINT('',(0.084202,0.00413241056730649,0.0295137669806148));
#1221=CARTESIAN_POINT('',(0.0568,0.00413241056730647,0.0295137669806148));
#1222=CARTESIAN_POINT('',(0.0568,0.0046255270769989,0.031354102848838));
#1223=CARTESIAN_POINT('',(0.0568,0.00466462010083076,0.0315));
#1224=CARTESIAN_POINT('',(0.084202,0.00466462010083076,0.0315));
#1225=CARTESIAN_POINT('',(0.058,0.00466462010083076,0.0315));
#1226=CARTESIAN_POINT('',(0.0705715168038109,0.00803314787604618,0.044071516803811));
#1227=CARTESIAN_POINT('',(0.084202,-0.0239215378178056,0.017137790384967));
#1228=CARTESIAN_POINT('',(0.07385,-0.0213585475421946,0.0197918445093127));
#1229=CARTESIAN_POINT('',(0.07385,-0.0221921375867453,0.0189286367489063));
#1230=CARTESIAN_POINT('',(0.07385,-0.0269158145058665,0.0140371261066034));
#1231=CARTESIAN_POINT('',(0.07385,-0.0277494045504173,0.0131739183461971));
#1232=CARTESIAN_POINT('',(0.06115,-0.0213585475421946,0.0197918445093127));
#1233=CARTESIAN_POINT('',(0.06115,-0.0221921375867453,0.0189286367489063));
#1234=CARTESIAN_POINT('',(0.06115,-0.0269158145058665,0.0140371261066034));
#1235=CARTESIAN_POINT('',(0.06115,-0.0277494045504173,0.0131739183461971));
#1236=CARTESIAN_POINT('',(0.07385,-0.0158012805785226,0.0255465629120219));
#1237=CARTESIAN_POINT('',(0.07385,-0.0166348706230734,0.0246833551516156));
#1238=CARTESIAN_POINT('',(0.06115,-0.0158012805785226,0.0255465629120219));
#1239=CARTESIAN_POINT('',(0.06115,-0.0166348706230734,0.0246833551516156));
#1240=CARTESIAN_POINT('',(0.084202,-0.0351600213561259,0.0055));
#1241=CARTESIAN_POINT('',(0.0762,-0.0351600213561259,0.0055));
#1242=CARTESIAN_POINT('',(0.0588,-0.0351600213561259,0.0055));
#1243=CARTESIAN_POINT('',(0.0762,-0.0332286438065118,0.0075));
#1244=CARTESIAN_POINT('',(0.0568,-0.0239215378178056,0.017137790384967));
#1245=CARTESIAN_POINT('',(0.0568,-0.0332286438065118,0.0075));
#1246=CARTESIAN_POINT('',(0.0588,-0.0332286438065118,0.0075));
#1247=CARTESIAN_POINT('',(0.084202,-0.0249317997753842,0.0055));
#1248=CARTESIAN_POINT('',(0.07385,-0.00655890931281994,0.0055));
#1249=CARTESIAN_POINT('',(0.07385,-0.00828637716037083,0.0055));
#1250=CARTESIAN_POINT('',(0.07385,-0.0180753616298258,0.0055));
#1251=CARTESIAN_POINT('',(0.07385,-0.0198028294773767,0.0055));
#1252=CARTESIAN_POINT('',(0.06115,-0.00655890931281994,0.0055));
#1253=CARTESIAN_POINT('',(0.06115,-0.00828637716037081,0.0055));
#1254=CARTESIAN_POINT('',(0.06115,-0.0180753616298258,0.0055));
#1255=CARTESIAN_POINT('',(0.06115,-0.0198028294773767,0.0055));
#1256=CARTESIAN_POINT('',(0.0842,0.00554166670170351,0.0055));
#1257=CARTESIAN_POINT('',(0.0588,0.00554166670170351,0.0055));
#1258=CARTESIAN_POINT('',(0.0762,0.00554166670170351,0.0055));
#1259=CARTESIAN_POINT('',(0.0762,-0.0351600213561259,0.0055));
#1260=CARTESIAN_POINT('',(0.0588,-0.0249317997753842,0.0055));
#1261=CARTESIAN_POINT('',(0.084202,0.0121308347445383,0.0215));
#1262=CARTESIAN_POINT('',(0.0762,0.0121308347445383,0.0215));
#1263=CARTESIAN_POINT('',(0.0762,0.00843944418057071,0.00772354286469242));
#1264=CARTESIAN_POINT('',(0.0558,0.00843944418057071,0.00772354286469242));
#1265=CARTESIAN_POINT('',(0.0588,0.00843944418057071,0.00772354286469242));
#1266=CARTESIAN_POINT('',(0.0588,0.0147315240906756,0.0312059047744874));
#1267=CARTESIAN_POINT('',(0.084202,0.00554166670170351,0.0085));
#1268=CARTESIAN_POINT('',(0.0762,0.00554166670170351,0.0085));
#1269=CARTESIAN_POINT('',(0.0588,0.00554166670170351,0.0085));
#1270=CARTESIAN_POINT('',(0.07385,0.33025332279304,-0.319755791762343));
#1271=CARTESIAN_POINT('',(0.07385,0.324696055829368,-0.325510510165052));
#1272=CARTESIAN_POINT('',(0.06115,0.33025332279304,-0.319755791762343));
#1273=CARTESIAN_POINT('',(0.06115,0.324696055829368,-0.325510510165052));
#1274=CARTESIAN_POINT('',(0.07385,0.352295849425654,-0.32992070357171));
#1275=CARTESIAN_POINT('',(0.07385,-0.00373774606357887,0.0138969430464431));
#1276=CARTESIAN_POINT('',(0.07385,-0.00290415601902807,0.0147601508068495));
#1277=CARTESIAN_POINT('',(0.0558,-0.00114312147774617,0.0165837554579792));
#1278=CARTESIAN_POINT('',(0.06115,0.352295849425654,-0.32992070357171));
#1279=CARTESIAN_POINT('',(0.06115,-0.00373774606357887,0.0138969430464431));
#1280=CARTESIAN_POINT('',(0.06115,-0.00290415601902807,0.0147601508068495));
#1281=CARTESIAN_POINT('',(0.0558,-0.00114312147774617,0.0165837554579792));
#1282=CARTESIAN_POINT('',(0.0568,0.48879802030932,0.0191977191719955));
#1283=CARTESIAN_POINT('',(0.0568,0.00384409968883095,0.00931244477324584));
#1284=CARTESIAN_POINT('',(0.0568,0.00200376382060777,0.00881932826355338));
#1285=CARTESIAN_POINT('',(0.0568,0.00568443555705415,0.00980556128293827));
#1286=CARTESIAN_POINT('',(0.0568,0.00617755206674657,0.0116458971511614));
#1287=CARTESIAN_POINT('',(0.0568,0.006670668576439,0.0134862330193846));
#1288=CARTESIAN_POINT('',(0.0568,0.00532344921790825,0.0148334523779153));
#1289=CARTESIAN_POINT('',(0.0568,0.0039762298593775,0.0161806717364461));
#1290=CARTESIAN_POINT('',(0.0568,0.00213589399115432,0.0156875552267536));
#1291=CARTESIAN_POINT('',(0.0568,0.000295558122931149,0.0151944387170613));
#1292=CARTESIAN_POINT('',(0.0568,-0.000197558386761291,0.013354102848838));
#1293=CARTESIAN_POINT('',(0.0568,-0.000690674896453718,0.0115137669806149));
#1294=CARTESIAN_POINT('',(0.0568,0.000656544462077029,0.0101665476220841));
#1295=CARTESIAN_POINT('',(0.0568,0.00554166670170351,0.0085));
#1296=CARTESIAN_POINT('',(0.0568,0.00650759252799263,0.00824118095489744));
#1297=CARTESIAN_POINT('',(0.0568,0.00554166670170351,0.0075));
#1298=CARTESIAN_POINT('',(0.0568,0.48879802030932,0.0075));
#1299=CARTESIAN_POINT('',(0.0568,0.48879802030932,0.0315));
#1300=CARTESIAN_POINT('',(0.0568,0.00547962992583724,0.0281665476220841));
#1301=CARTESIAN_POINT('',(0.0568,0.00682684928436799,0.0268193282635533));
#1302=CARTESIAN_POINT('',(0.0568,0.00866718515259115,0.0273124447732458));
#1303=CARTESIAN_POINT('',(0.0568,0.0105075210208143,0.0278055612829382));
#1304=CARTESIAN_POINT('',(0.0568,0.0110006375305068,0.0296458971511613));
#1305=CARTESIAN_POINT('',(0.0568,0.48879802030932,0.0315));
#1306=CARTESIAN_POINT('',(0.0568,0.0127397743080295,0.0315));
#1307=CARTESIAN_POINT('',(0.0568,0.00650759252799264,0.00824118095489745));
#1308=CARTESIAN_POINT('',(0.084202,0.0110006375305068,0.0296458971511614));
#1309=CARTESIAN_POINT('',(0.084202,0.0105075210208143,0.0278055612829382));
#1310=CARTESIAN_POINT('',(0.084202,0.00866718515259115,0.0273124447732458));
#1311=CARTESIAN_POINT('',(0.084202,0.00682684928436799,0.0268193282635533));
#1312=CARTESIAN_POINT('',(0.084202,0.00547962992583724,0.0281665476220841));
#1313=CARTESIAN_POINT('',(0.084202,0.00532344921790825,0.0148334523779153));
#1314=CARTESIAN_POINT('',(0.084202,0.006670668576439,0.0134862330193846));
#1315=CARTESIAN_POINT('',(0.084202,0.0039762298593775,0.0161806717364461));
#1316=CARTESIAN_POINT('',(0.084202,0.00617755206674657,0.0116458971511614));
#1317=CARTESIAN_POINT('',(0.084202,0.00568443555705413,0.00980556128293827));
#1318=CARTESIAN_POINT('',(0.084202,0.00213589399115433,0.0156875552267536));
#1319=CARTESIAN_POINT('',(0.084202,0.000295558122931149,0.0151944387170613));
#1320=CARTESIAN_POINT('',(0.084202,-0.000197558386761289,0.0133541028488381));
#1321=CARTESIAN_POINT('',(0.084202,-0.000690674896453717,0.0115137669806149));
#1322=CARTESIAN_POINT('',(0.084202,0.000656544462077026,0.0101665476220841));
#1323=CARTESIAN_POINT('',(0.084202,0.00200376382060777,0.00881932826355338));
#1324=CARTESIAN_POINT('',(0.084202,0.00384409968883095,0.00931244477324584));
#1325=CARTESIAN_POINT('',(0.061,0.48879802030932,0.0345));
#1326=CARTESIAN_POINT('',(0.058,0.0146303388542019,0.0315));
#1327=CARTESIAN_POINT('',(0.0582526266911115,0.0147964598958718,0.0317526266911115));
#1328=CARTESIAN_POINT('',(0.0585235850861477,0.0148868279054892,0.0320235850861477));
#1329=CARTESIAN_POINT('',(0.0588,0.014897893357949,0.0323));
#1330=CARTESIAN_POINT('',(0.058,0.0146303388542018,0.0315));
#1331=CARTESIAN_POINT('',(0.058,0.48879802030932,0.0315));
#1332=CARTESIAN_POINT('',(0.058,0.48879802030932,0.0315));
#1333=CARTESIAN_POINT('',(0.0565,0.48879802030932,0.0315));
#1334=CARTESIAN_POINT('',(0.0565,0.48879802030932,0.0315));
#1335=CARTESIAN_POINT('',(0.056996110701661,0.0136339457667992,0.0315));
#1336=CARTESIAN_POINT('',(0.0572001792144942,0.0140751884552124,0.0315));
#1337=CARTESIAN_POINT('',(0.0575584608826265,0.0144333730611238,0.0315));
#1338=CARTESIAN_POINT('',(0.058,0.0146303388542019,0.0315));
#1339=CARTESIAN_POINT('',(0.056996110701661,0.0136339457667992,0.0315));
#1340=CARTESIAN_POINT('',(0.0588,0.0127397743080295,0.0315));
#1341=CARTESIAN_POINT('',(0.074,0.48879802030932,0.0345));
#1342=CARTESIAN_POINT('',(0.077,0.48879802030932,0.0315));
#1343=CARTESIAN_POINT('',(0.077,0.0146303388542018,0.0315));
#1344=CARTESIAN_POINT('',(0.077,0.0146303388542018,0.0315));
#1345=CARTESIAN_POINT('',(0.0767473733088885,0.0147964598958718,0.0317526266911115));
#1346=CARTESIAN_POINT('',(0.0764764149138523,0.0148868279054892,0.0320235850861477));
#1347=CARTESIAN_POINT('',(0.0762,0.014897893357949,0.0323));
#1348=CARTESIAN_POINT('',(0.077,0.48879802030932,0.0315));
#1349=CARTESIAN_POINT('',(0.0785,0.48879802030932,0.0315));
#1350=CARTESIAN_POINT('',(0.0785,0.48879802030932,0.0315));
#1351=CARTESIAN_POINT('',(0.0762,0.0127397743080294,0.0315));
#1352=CARTESIAN_POINT('',(0.0780038892983391,0.0136339457667991,0.0315));
#1353=CARTESIAN_POINT('',(0.0780038892983391,0.0136339457667991,0.0315));
#1354=CARTESIAN_POINT('',(0.0777998207855059,0.0140751884552124,0.0315));
#1355=CARTESIAN_POINT('',(0.0774415391173736,0.0144333730611238,0.0315));
#1356=CARTESIAN_POINT('',(0.077,0.0146303388542019,0.0315));
#1357=CARTESIAN_POINT('',(0.0762,0.00990189495923028,0.0325));
#1358=CARTESIAN_POINT('',(0.0762,0.0127996724380975,0.0317235428646924));
#1359=CARTESIAN_POINT('',(0.0762,0.0101989830919602,0.0220176380902048));
#1360=CARTESIAN_POINT('',(0.0762,0.00650759252799258,0.00824118095489746));
#1361=CARTESIAN_POINT('',(0.0762,0.00554166670170351,0.0085));
#1362=CARTESIAN_POINT('',(0.0762,0.00554166670170351,0.0075));
#1363=CARTESIAN_POINT('',(0.0762,0.48879802030932,0.0075));
#1364=CARTESIAN_POINT('',(0.0588,0.00990189495923028,0.0325));
#1365=CARTESIAN_POINT('',(0.0588,0.0127996724380975,0.0317235428646924));
#1366=CARTESIAN_POINT('',(0.0588,0.0415540597425839,0.139036377225549));
#1367=CARTESIAN_POINT('',(0.0588,0.00650759252799263,0.00824118095489744));
#1368=CARTESIAN_POINT('',(0.0588,0.00554166670170351,0.0085));
#1369=CARTESIAN_POINT('',(0.0588,0.00554166670170351,0.0075));
#1370=CARTESIAN_POINT('',(0.0588,-0.0249317997753842,0.0075));
#1371=MECHANICAL_DESIGN_GEOMETRIC_PRESENTATION_REPRESENTATION('',(#818),#1372);
#1372=(
GEOMETRIC_REPRESENTATION_CONTEXT(3)
GLOBAL_UNCERTAINTY_ASSIGNED_CONTEXT((#1373))
GLOBAL_UNIT_ASSIGNED_CONTEXT((#1376,#1375,#1374))
REPRESENTATION_CONTEXT('knee-for-pbk-L','TOP_LEVEL_ASSEMBLY_PART')
);
#1373=UNCERTAINTY_MEASURE_WITH_UNIT(LENGTH_MEASURE(2.E-05),#1376,'DISTANCE_ACCURACY_VALUE','Maximum Tolerance applied to model');
#1374=(
NAMED_UNIT(*)
SI_UNIT($,.STERADIAN.)
SOLID_ANGLE_UNIT()
);
#1375=(
NAMED_UNIT(*)
PLANE_ANGLE_UNIT()
SI_UNIT($,.RADIAN.)
);
#1376=(
LENGTH_UNIT()
NAMED_UNIT(*)
SI_UNIT($,.METRE.)
);
#1377=PRODUCT_DEFINITION_SHAPE('','',#1378);
#1378=PRODUCT_DEFINITION('','',#1380,#1379);
#1379=PRODUCT_DEFINITION_CONTEXT('',#1386,'design');
#1380=PRODUCT_DEFINITION_FORMATION_WITH_SPECIFIED_SOURCE('','',#1382,.NOT_KNOWN.);
#1381=PRODUCT_RELATED_PRODUCT_CATEGORY('','',(#1382));
#1382=PRODUCT('knee-for-pbk-L','knee-for-pbk-L','knee-for-pbk-L',(#1384));
#1383=PRODUCT_CATEGORY('','');
#1384=PRODUCT_CONTEXT('',#1386,'mechanical');
#1385=APPLICATION_PROTOCOL_DEFINITION('international standard','ap242_managed_model_based_3d_engineering',2020,#1386);
#1386=APPLICATION_CONTEXT('managed model based 3d engineering');
ENDSEC;
END-ISO-10303-21;
