<?xml version="1.0" encoding="UTF-8" standalone="no"?>
<svg
   sodipodi:docname="laser-wheel-mold-base.svg"
   inkscape:version="1.2.1 (9c6d41e410, 2022-07-14)"
   id="svg8"
   version="1.1"
   viewBox="0 0 300 210"
   height="210mm"
   width="300mm"
   xmlns:inkscape="http://www.inkscape.org/namespaces/inkscape"
   xmlns:sodipodi="http://sodipodi.sourceforge.net/DTD/sodipodi-0.dtd"
   xmlns="http://www.w3.org/2000/svg"
   xmlns:svg="http://www.w3.org/2000/svg"
   xmlns:rdf="http://www.w3.org/1999/02/22-rdf-syntax-ns#"
   xmlns:cc="http://creativecommons.org/ns#"
   xmlns:dc="http://purl.org/dc/elements/1.1/">
  <defs
     id="defs2" />
  <sodipodi:namedview
     inkscape:window-maximized="1"
     inkscape:window-y="-8"
     inkscape:window-x="-8"
     inkscape:window-height="1369"
     inkscape:window-width="3440"
     inkscape:showpageshadow="false"
     borderlayer="true"
     showgrid="false"
     inkscape:document-rotation="0"
     inkscape:current-layer="svg8"
     inkscape:document-units="mm"
     inkscape:cy="403.05087"
     inkscape:cx="456.08388"
     inkscape:zoom="0.98994949"
     inkscape:pageshadow="2"
     inkscape:pageopacity="0.0"
     borderopacity="1.0"
     bordercolor="#666666"
     pagecolor="#ffffff"
     id="base"
     inkscape:pagecheckerboard="0"
     inkscape:deskcolor="#d1d1d1" />
  <metadata
     id="metadata5">
    <rdf:RDF>
      <cc:Work
         rdf:about="">
        <dc:format>image/svg+xml</dc:format>
        <dc:type
           rdf:resource="http://purl.org/dc/dcmitype/StillImage" />
      </cc:Work>
    </rdf:RDF>
  </metadata>
  <g
     sodipodi:insensitive="true"
     id="layer1"
     inkscape:groupmode="layer"
     inkscape:label="background"
     style="display:none">
    <rect
       y="0"
       x="0"
       height="210"
       width="300"
       id="rect833"
       style="fill:#000000;fill-opacity:0.0722891;stroke:none;stroke-width:0;stroke-miterlimit:1.5;stroke-dasharray:none" />
  </g>
  <g
     id="g4434">
    <path
       style="fill:none;stroke:#000000;stroke-width:0.2;stroke-linecap:round;stroke-dasharray:none"
       d="m 34.979409,8.3758997 h 29.99999"
       id="path2398" />
    <path
       d="M 34.979409,8.3757887 A 25,25 0 0 0 9.9794093,33.375789"
       style="fill:none;stroke:#000000;stroke-width:0.2;stroke-linecap:round;stroke-dasharray:none"
       id="path2400" />
    <path
       style="fill:none;stroke:#000000;stroke-width:0.2;stroke-linecap:round;stroke-dasharray:none"
       d="M 9.9794293,63.375101 V 33.376643"
       id="path2402" />
    <path
       d="m 9.9794093,63.375786 a 25,25 0 0 0 24.9999997,25"
       style="fill:none;stroke:#000000;stroke-width:0.2;stroke-linecap:round;stroke-dasharray:none"
       id="path2404" />
    <path
       style="fill:none;stroke:#000000;stroke-width:0.2;stroke-linecap:round;stroke-dasharray:none"
       d="M 64.979399,88.37558 H 34.979409"
       id="path2406" />
    <path
       d="m 64.979409,88.375786 a 25,25 0 0 0 25,-25"
       style="fill:none;stroke:#000000;stroke-width:0.2;stroke-linecap:round;stroke-dasharray:none"
       id="path2408" />
    <path
       style="fill:none;stroke:#000000;stroke-width:0.2;stroke-linecap:round;stroke-dasharray:none"
       d="M 89.979379,33.376643 V 63.375101"
       id="path2410" />
    <path
       d="m 89.979409,33.375789 a 25,25 0 0 0 -25,-25.0000003"
       style="fill:none;stroke:#000000;stroke-width:0.2;stroke-linecap:round;stroke-dasharray:none"
       id="path2412" />
  </g>
  <g
     inkscape:label="cut_outermost"
     id="layer2"
     inkscape:groupmode="layer" />
  <g
     inkscape:label="cut_mid"
     id="layer3"
     inkscape:groupmode="layer"
     style="display:none" />
  <g
     inkscape:label="cut_innermost"
     id="layer4"
     inkscape:groupmode="layer">
    <path
       d="m 37.911909,51.375787 a 1.3000011,1.3000011 0 0 0 -2.6,0 1.3000011,1.3000011 0 0 0 2.6,0 z"
       style="fill:none;stroke:#000000;stroke-width:0.2;stroke-linecap:round;stroke-dasharray:none"
       id="path2368" />
    <path
       d="m 41.997579,38.299195 a 1.3,1.3 0 0 0 -2.6,0 1.3,1.3 0 0 0 2.6,0 z"
       style="fill:none;stroke:#000000;stroke-width:0.2;stroke-linecap:round;stroke-dasharray:none"
       id="path2370" />
    <path
       d="m 55.365079,35.299196 a 1.3000011,1.3000011 0 0 0 -2.6,0 1.3000011,1.3000011 0 0 0 2.6,0 z"
       style="fill:none;stroke:#000000;stroke-width:0.2;stroke-linecap:round;stroke-dasharray:none"
       id="path2372" />
    <path
       d="m 64.646899,45.375788 a 1.3,1.3 0 0 0 -2.6,0 1.3,1.3 0 0 0 2.6,0 z"
       style="fill:none;stroke:#000000;stroke-width:0.2;stroke-linecap:round;stroke-dasharray:none"
       id="path2374" />
    <path
       d="m 60.561229,58.45238 a 1.3,1.3 0 0 0 -2.6,0 1.3,1.3 0 0 0 2.6,0 z"
       style="fill:none;stroke:#000000;stroke-width:0.2;stroke-linecap:round;stroke-dasharray:none"
       id="path2376" />
    <path
       d="m 47.193729,61.452379 a 1.3,1.3 0 0 0 -2.6,0 1.3,1.3 0 0 0 2.6,0 z"
       style="fill:none;stroke:#000000;stroke-width:0.2;stroke-linecap:round;stroke-dasharray:none"
       id="path2378" />
    <path
       d="m 51.479409,15.347475 a 1.5,1.5 0 0 0 -3,0 1.5,1.5 0 0 0 3,0 z"
       style="fill:none;stroke:#000000;stroke-width:0.2;stroke-linecap:round;stroke-dasharray:none"
       id="path2380" />
    <path
       d="m 74.833949,25.021245 a 1.5,1.5 0 0 0 -3,0 1.5,1.5 0 0 0 3,0 z"
       style="fill:none;stroke:#000000;stroke-width:0.2;stroke-linecap:round;stroke-dasharray:none"
       id="path2382" />
    <path
       d="m 84.507719,48.375788 a 1.5000009,1.5000009 0 0 0 -3,0 1.5000009,1.5000009 0 0 0 3,0 z"
       style="fill:none;stroke:#000000;stroke-width:0.2;stroke-linecap:round;stroke-dasharray:none"
       id="path2384" />
    <path
       d="m 74.833949,71.730331 a 1.5,1.5 0 0 0 -3,0 1.5,1.5 0 0 0 3,0 z"
       style="fill:none;stroke:#000000;stroke-width:0.2;stroke-linecap:round;stroke-dasharray:none"
       id="path2386" />
    <path
       d="m 56.079409,72.287345 a 1.5000009,1.5000009 0 0 0 -3,0 1.5000009,1.5000009 0 0 0 3,0 z"
       style="fill:none;stroke:#000000;stroke-width:0.2;stroke-linecap:round;stroke-dasharray:none"
       id="path2388" />
    <path
       d="m 46.879409,72.287345 a 1.5,1.5 0 0 0 -3,0 1.5,1.5 0 0 0 3,0 z"
       style="fill:none;stroke:#000000;stroke-width:0.2;stroke-linecap:round;stroke-dasharray:none"
       id="path2390" />
    <path
       d="m 28.124859,71.730331 a 1.5000009,1.5000009 0 0 0 -3,0 1.5000009,1.5000009 0 0 0 3,0 z"
       style="fill:none;stroke:#000000;stroke-width:0.2;stroke-linecap:round;stroke-dasharray:none"
       id="path2392" />
    <path
       d="m 18.451089,48.375788 a 1.5,1.5 0 0 0 -3,0 1.5,1.5 0 0 0 3,0 z"
       style="fill:none;stroke:#000000;stroke-width:0.2;stroke-linecap:round;stroke-dasharray:none"
       id="path2394" />
    <path
       d="m 28.124859,25.021245 a 1.5000009,1.5000009 0 0 0 -3,0 1.5000009,1.5000009 0 0 0 3,0 z"
       style="fill:none;stroke:#000000;stroke-width:0.2;stroke-linecap:round;stroke-dasharray:none"
       id="path2396" />
  </g>
  <g
     inkscape:label="engrave_2"
     id="layer5"
     inkscape:groupmode="layer"
     style="display:none" />
  <g
     inkscape:label="engrave_1"
     id="layer6"
     inkscape:groupmode="layer"
     style="display:none" />
</svg>
