<?xml version="1.0" encoding="UTF-8" standalone="no"?>
<svg
   sodipodi:docname="wheel-mold-base.svg"
   inkscape:version="1.2.1 (9c6d41e410, 2022-07-14)"
   id="svg8"
   version="1.1"
   viewBox="0 0 300 210"
   height="210mm"
   width="300mm"
   xmlns:inkscape="http://www.inkscape.org/namespaces/inkscape"
   xmlns:sodipodi="http://sodipodi.sourceforge.net/DTD/sodipodi-0.dtd"
   xmlns="http://www.w3.org/2000/svg"
   xmlns:svg="http://www.w3.org/2000/svg"
   xmlns:rdf="http://www.w3.org/1999/02/22-rdf-syntax-ns#"
   xmlns:cc="http://creativecommons.org/ns#"
   xmlns:dc="http://purl.org/dc/elements/1.1/">
  <defs
     id="defs2" />
  <sodipodi:namedview
     inkscape:window-maximized="0"
     inkscape:window-y="0"
     inkscape:window-x="1706"
     inkscape:window-height="1360"
     inkscape:window-width="1718"
     inkscape:showpageshadow="false"
     borderlayer="true"
     showgrid="false"
     inkscape:document-rotation="0"
     inkscape:current-layer="layer2"
     inkscape:document-units="mm"
     inkscape:cy="405.57625"
     inkscape:cx="364.15999"
     inkscape:zoom="0.98994949"
     inkscape:pageshadow="2"
     inkscape:pageopacity="0.0"
     borderopacity="1.0"
     bordercolor="#666666"
     pagecolor="#ffffff"
     id="base"
     inkscape:pagecheckerboard="0"
     inkscape:deskcolor="#d1d1d1" />
  <metadata
     id="metadata5">
    <rdf:RDF>
      <cc:Work
         rdf:about="">
        <dc:format>image/svg+xml</dc:format>
        <dc:type
           rdf:resource="http://purl.org/dc/dcmitype/StillImage" />
      </cc:Work>
    </rdf:RDF>
  </metadata>
  <g
     sodipodi:insensitive="true"
     id="layer1"
     inkscape:groupmode="layer"
     inkscape:label="background"
     style="display:none">
    <rect
       y="0"
       x="0"
       height="210"
       width="300"
       id="rect833"
       style="fill:#000000;fill-opacity:0.0722891;stroke:none;stroke-width:0;stroke-miterlimit:1.5;stroke-dasharray:none" />
  </g>
  <g
     inkscape:label="cut_outermost"
     id="layer2"
     inkscape:groupmode="layer">
    <path
       d="m 73.426776,39.021351 a 31.999999,31.999999 0 0 0 -63.9999977,0 31.999999,31.999999 0 0 0 63.9999977,0 z"
       style="fill:none;stroke:#000000;stroke-width:0.1;stroke-linecap:round;stroke-dasharray:none"
       id="path221" />
  </g>
  <g
     inkscape:label="cut_mid"
     id="layer3"
     inkscape:groupmode="layer" />
  <g
     inkscape:label="cut_innermost"
     id="layer4"
     inkscape:groupmode="layer">
    <path
       d="m 48.229232,23.890811 a 1.3,1.3 0 0 0 -2.6,0 1.3,1.3 0 0 0 2.6,0 z"
       style="fill:none;stroke:#000000;stroke-width:0.1;stroke-linecap:round;stroke-dasharray:none"
       id="path199" />
    <path
       d="m 58.581429,36.221341 a 1.3,1.3 0 0 0 -2.6,0 1.3,1.3 0 0 0 2.6,0 z"
       style="fill:none;stroke:#000000;stroke-width:0.1;stroke-linecap:round;stroke-dasharray:none"
       id="path201" />
    <path
       d="m 53.078974,51.351891 a 1.3,1.3 0 0 0 -2.6,0 1.3,1.3 0 0 0 2.6,0 z"
       style="fill:none;stroke:#000000;stroke-width:0.1;stroke-linecap:round;stroke-dasharray:none"
       id="path203" />
    <path
       d="m 37.224322,54.151871 a 1.3,1.3 0 0 0 -2.6,0 1.3,1.3 0 0 0 2.6,0 z"
       style="fill:none;stroke:#000000;stroke-width:0.1;stroke-linecap:round;stroke-dasharray:none"
       id="path205" />
    <path
       d="m 26.872125,41.821361 a 1.3,1.3 0 0 0 -2.6,0 1.3,1.3 0 0 0 2.6,0 z"
       style="fill:none;stroke:#000000;stroke-width:0.1;stroke-linecap:round;stroke-dasharray:none"
       id="path207" />
    <path
       d="m 44.326777,39.021351 a 2.9,2.9 0 0 0 -5.8,0 2.9,2.9 0 0 0 5.8,0 z"
       style="fill:none;stroke:#000000;stroke-width:0.1;stroke-linecap:round;stroke-dasharray:none"
       id="path209" />
    <path
       d="m 32.37458,26.690811 a 1.3,1.3 0 0 0 -2.6,0 1.3,1.3 0 0 0 2.6,0 z"
       style="fill:none;stroke:#000000;stroke-width:0.1;stroke-linecap:round;stroke-dasharray:none"
       id="path211" />
    <path
       d="m 37.465428,65.483701 a 1.4000001,1.4000001 0 0 0 -2.8,0 1.4000001,1.4000001 0 0 0 2.8,0 z"
       style="fill:none;stroke:#000000;stroke-width:0.1;stroke-linecap:round;stroke-dasharray:none"
       id="path213" />
    <path
       d="m 48.126777,65.496061 a 1.4000001,1.4000001 0 0 0 -2.8,0 1.4000001,1.4000001 0 0 0 2.8,0 z"
       style="fill:none;stroke:#000000;stroke-width:0.1;stroke-linecap:round;stroke-dasharray:none"
       id="path215" />
    <path
       d="m 65.281895,24.029111 a 1.4000001,1.4000001 0 0 0 -2.8,0 1.4000001,1.4000001 0 0 0 2.8,0 z"
       style="fill:none;stroke:#000000;stroke-width:0.1;stroke-linecap:round;stroke-dasharray:none"
       id="path217" />
    <path
       d="m 20.406468,23.977091 a 1.4000001,1.4000001 0 0 0 -2.8,0 1.4000001,1.4000001 0 0 0 2.8,0 z"
       style="fill:none;stroke:#000000;stroke-width:0.1;stroke-linecap:round;stroke-dasharray:none"
       id="path219" />
  </g>
  <g
     inkscape:label="engrave_2"
     id="layer5"
     inkscape:groupmode="layer" />
  <g
     inkscape:label="engrave_1"
     id="layer6"
     inkscape:groupmode="layer" />
</svg>
