G75*
%MOIN*%
%OFA0B0*%
%FSLAX25Y25*%
%IPPOS*%
%LPD*%
%AMOC8*
5,1,8,0,0,1.08239X$1,22.5*
%
%ADD10C,0.00000*%
%ADD11C,0.00366*%
%ADD12R,0.06306X0.06306*%
%ADD13R,0.04534X0.04337*%
%ADD14R,0.09061X0.04534*%
%ADD15R,0.04731X0.04337*%
%ADD16R,0.04337X0.04731*%
%ADD17R,0.07800X0.07800*%
%ADD18OC8,0.07800*%
%ADD19R,0.01778X0.04337*%
%ADD20R,0.04337X0.01778*%
%ADD21R,0.03943X0.03156*%
D10*
X0001400Y0002688D02*
X0001400Y0053869D01*
X0068329Y0053869D01*
X0068329Y0002688D01*
X0001400Y0002688D01*
D11*
X0029533Y0023596D02*
X0032755Y0023596D01*
X0029533Y0023596D02*
X0029533Y0024692D01*
X0032755Y0024692D01*
X0032755Y0023596D01*
X0032755Y0023961D02*
X0029533Y0023961D01*
X0029533Y0024326D02*
X0032755Y0024326D01*
X0032755Y0024691D02*
X0029533Y0024691D01*
X0029533Y0025565D02*
X0032755Y0025565D01*
X0029533Y0025565D02*
X0029533Y0026661D01*
X0032755Y0026661D01*
X0032755Y0025565D01*
X0032755Y0025930D02*
X0029533Y0025930D01*
X0029533Y0026295D02*
X0032755Y0026295D01*
X0032755Y0026660D02*
X0029533Y0026660D01*
X0029533Y0027533D02*
X0032755Y0027533D01*
X0029533Y0027533D02*
X0029533Y0028629D01*
X0032755Y0028629D01*
X0032755Y0027533D01*
X0032755Y0027898D02*
X0029533Y0027898D01*
X0029533Y0028263D02*
X0032755Y0028263D01*
X0032755Y0028628D02*
X0029533Y0028628D01*
X0029533Y0029502D02*
X0032755Y0029502D01*
X0029533Y0029502D02*
X0029533Y0030598D01*
X0032755Y0030598D01*
X0032755Y0029502D01*
X0032755Y0029867D02*
X0029533Y0029867D01*
X0029533Y0030232D02*
X0032755Y0030232D01*
X0032755Y0030597D02*
X0029533Y0030597D01*
X0033332Y0031175D02*
X0033332Y0034397D01*
X0034428Y0034397D01*
X0034428Y0031175D01*
X0033332Y0031175D01*
X0033332Y0031540D02*
X0034428Y0031540D01*
X0034428Y0031905D02*
X0033332Y0031905D01*
X0033332Y0032270D02*
X0034428Y0032270D01*
X0034428Y0032635D02*
X0033332Y0032635D01*
X0033332Y0033000D02*
X0034428Y0033000D01*
X0034428Y0033365D02*
X0033332Y0033365D01*
X0033332Y0033730D02*
X0034428Y0033730D01*
X0034428Y0034095D02*
X0033332Y0034095D01*
X0035301Y0034397D02*
X0035301Y0031175D01*
X0035301Y0034397D02*
X0036397Y0034397D01*
X0036397Y0031175D01*
X0035301Y0031175D01*
X0035301Y0031540D02*
X0036397Y0031540D01*
X0036397Y0031905D02*
X0035301Y0031905D01*
X0035301Y0032270D02*
X0036397Y0032270D01*
X0036397Y0032635D02*
X0035301Y0032635D01*
X0035301Y0033000D02*
X0036397Y0033000D01*
X0036397Y0033365D02*
X0035301Y0033365D01*
X0035301Y0033730D02*
X0036397Y0033730D01*
X0036397Y0034095D02*
X0035301Y0034095D01*
X0037269Y0034397D02*
X0037269Y0031175D01*
X0037269Y0034397D02*
X0038365Y0034397D01*
X0038365Y0031175D01*
X0037269Y0031175D01*
X0037269Y0031540D02*
X0038365Y0031540D01*
X0038365Y0031905D02*
X0037269Y0031905D01*
X0037269Y0032270D02*
X0038365Y0032270D01*
X0038365Y0032635D02*
X0037269Y0032635D01*
X0037269Y0033000D02*
X0038365Y0033000D01*
X0038365Y0033365D02*
X0037269Y0033365D01*
X0037269Y0033730D02*
X0038365Y0033730D01*
X0038365Y0034095D02*
X0037269Y0034095D01*
X0039238Y0034397D02*
X0039238Y0031175D01*
X0039238Y0034397D02*
X0040334Y0034397D01*
X0040334Y0031175D01*
X0039238Y0031175D01*
X0039238Y0031540D02*
X0040334Y0031540D01*
X0040334Y0031905D02*
X0039238Y0031905D01*
X0039238Y0032270D02*
X0040334Y0032270D01*
X0040334Y0032635D02*
X0039238Y0032635D01*
X0039238Y0033000D02*
X0040334Y0033000D01*
X0040334Y0033365D02*
X0039238Y0033365D01*
X0039238Y0033730D02*
X0040334Y0033730D01*
X0040334Y0034095D02*
X0039238Y0034095D01*
X0040911Y0029502D02*
X0044133Y0029502D01*
X0040911Y0029502D02*
X0040911Y0030598D01*
X0044133Y0030598D01*
X0044133Y0029502D01*
X0044133Y0029867D02*
X0040911Y0029867D01*
X0040911Y0030232D02*
X0044133Y0030232D01*
X0044133Y0030597D02*
X0040911Y0030597D01*
X0040911Y0027533D02*
X0044133Y0027533D01*
X0040911Y0027533D02*
X0040911Y0028629D01*
X0044133Y0028629D01*
X0044133Y0027533D01*
X0044133Y0027898D02*
X0040911Y0027898D01*
X0040911Y0028263D02*
X0044133Y0028263D01*
X0044133Y0028628D02*
X0040911Y0028628D01*
X0040911Y0025565D02*
X0044133Y0025565D01*
X0040911Y0025565D02*
X0040911Y0026661D01*
X0044133Y0026661D01*
X0044133Y0025565D01*
X0044133Y0025930D02*
X0040911Y0025930D01*
X0040911Y0026295D02*
X0044133Y0026295D01*
X0044133Y0026660D02*
X0040911Y0026660D01*
X0040911Y0023596D02*
X0044133Y0023596D01*
X0040911Y0023596D02*
X0040911Y0024692D01*
X0044133Y0024692D01*
X0044133Y0023596D01*
X0044133Y0023961D02*
X0040911Y0023961D01*
X0040911Y0024326D02*
X0044133Y0024326D01*
X0044133Y0024691D02*
X0040911Y0024691D01*
X0039238Y0023019D02*
X0039238Y0019797D01*
X0039238Y0023019D02*
X0040334Y0023019D01*
X0040334Y0019797D01*
X0039238Y0019797D01*
X0039238Y0020162D02*
X0040334Y0020162D01*
X0040334Y0020527D02*
X0039238Y0020527D01*
X0039238Y0020892D02*
X0040334Y0020892D01*
X0040334Y0021257D02*
X0039238Y0021257D01*
X0039238Y0021622D02*
X0040334Y0021622D01*
X0040334Y0021987D02*
X0039238Y0021987D01*
X0039238Y0022352D02*
X0040334Y0022352D01*
X0040334Y0022717D02*
X0039238Y0022717D01*
X0037269Y0023019D02*
X0037269Y0019797D01*
X0037269Y0023019D02*
X0038365Y0023019D01*
X0038365Y0019797D01*
X0037269Y0019797D01*
X0037269Y0020162D02*
X0038365Y0020162D01*
X0038365Y0020527D02*
X0037269Y0020527D01*
X0037269Y0020892D02*
X0038365Y0020892D01*
X0038365Y0021257D02*
X0037269Y0021257D01*
X0037269Y0021622D02*
X0038365Y0021622D01*
X0038365Y0021987D02*
X0037269Y0021987D01*
X0037269Y0022352D02*
X0038365Y0022352D01*
X0038365Y0022717D02*
X0037269Y0022717D01*
X0035301Y0023019D02*
X0035301Y0019797D01*
X0035301Y0023019D02*
X0036397Y0023019D01*
X0036397Y0019797D01*
X0035301Y0019797D01*
X0035301Y0020162D02*
X0036397Y0020162D01*
X0036397Y0020527D02*
X0035301Y0020527D01*
X0035301Y0020892D02*
X0036397Y0020892D01*
X0036397Y0021257D02*
X0035301Y0021257D01*
X0035301Y0021622D02*
X0036397Y0021622D01*
X0036397Y0021987D02*
X0035301Y0021987D01*
X0035301Y0022352D02*
X0036397Y0022352D01*
X0036397Y0022717D02*
X0035301Y0022717D01*
X0033332Y0023019D02*
X0033332Y0019797D01*
X0033332Y0023019D02*
X0034428Y0023019D01*
X0034428Y0019797D01*
X0033332Y0019797D01*
X0033332Y0020162D02*
X0034428Y0020162D01*
X0034428Y0020527D02*
X0033332Y0020527D01*
X0033332Y0020892D02*
X0034428Y0020892D01*
X0034428Y0021257D02*
X0033332Y0021257D01*
X0033332Y0021622D02*
X0034428Y0021622D01*
X0034428Y0021987D02*
X0033332Y0021987D01*
X0033332Y0022352D02*
X0034428Y0022352D01*
X0034428Y0022717D02*
X0033332Y0022717D01*
D12*
X0036833Y0027097D03*
D13*
X0054451Y0015286D03*
D14*
X0060455Y0021093D03*
X0060455Y0009479D03*
D15*
X0022463Y0020168D03*
X0015770Y0020168D03*
X0015770Y0029578D03*
X0022463Y0029578D03*
X0022463Y0038121D03*
X0015770Y0038121D03*
D16*
X0049431Y0034381D03*
X0049431Y0027688D03*
X0058290Y0030837D03*
X0058290Y0037530D03*
D17*
X0046282Y0046979D03*
X0036282Y0046979D03*
X0026282Y0046979D03*
X0007306Y0008200D03*
D18*
X0007306Y0018200D03*
X0007306Y0028200D03*
X0007306Y0038200D03*
X0007306Y0048200D03*
D19*
X0039392Y0014696D03*
X0041951Y0014696D03*
X0044510Y0014696D03*
X0044510Y0007609D03*
X0041951Y0007609D03*
X0039392Y0007609D03*
D20*
X0037424Y0011152D03*
X0046479Y0011152D03*
D21*
X0032502Y0012137D03*
X0032502Y0007019D03*
M02*
