%
M48
M72
T01C0.0118
T02C0.0400
%
T01
X3073Y4068
X3073Y3714
X3112Y3438
X3703Y3714
X3703Y4068
X2778Y2198
X4234Y1903
X4490Y1903
X4766Y1411
X4766Y820
X5042Y1745
X5179Y1922
X5376Y741
X5376Y2080
X5376Y2336
X5514Y2552
X6026Y2552
X5770Y2552
X6282Y2552
X5514Y505
X5770Y505
X6026Y505
X6282Y505
X6538Y505
X6538Y2552
X4766Y564
X4727Y1785
X5396Y3753
X5829Y4186
X6242Y3753
X1912Y2513
X1065Y2316
X1085Y3320
X4943Y3891
X4490Y3438
X5396Y3458
X1420Y4816
X1695Y4816
X1321Y820
X1715Y820
X2109Y820
X2502Y820
X1990Y4816
X4569Y4068
X2660Y3261
X2916Y3261
X2975Y2021
X4628Y2296
X4884Y2296
X5140Y2296
X3644Y702
X2837Y702
X2837Y977
X2837Y1253
X2837Y1529
X3093Y1548
X3250Y1745
X2699Y3812
X2699Y3556
X6242Y3418
X6242Y3084
X3053Y4422
X3053Y4777
X3053Y5131
X4195Y4422
X4097Y4127
X4195Y4777
X4195Y5131
X5376Y958
X5081Y761
X4943Y1548
X5416Y3025
T02
X731Y820
X731Y1820
X731Y2820
X731Y3820
X731Y4820
X4628Y4698
X3628Y4698
X2628Y4698
M30
