G75*
%MOIN*%
%OFA0B0*%
%FSLAX25Y25*%
%IPPOS*%
%LPD*%
%AMOC8*
5,1,8,0,0,1.08239X$1,22.5*
%
%ADD10C,0.00000*%
%ADD11R,0.07400X0.07400*%
%ADD12OC8,0.07400*%
%ADD13C,0.00800*%
%ADD14OC8,0.02381*%
%ADD15C,0.02400*%
D10*
X0001400Y0002688D02*
X0001400Y0053869D01*
X0068329Y0053869D01*
X0068329Y0002688D01*
X0001400Y0002688D01*
D11*
X0007306Y0008200D03*
X0026282Y0046979D03*
X0036282Y0046979D03*
X0046282Y0046979D03*
D12*
X0007306Y0048200D03*
X0007306Y0038200D03*
X0007306Y0028200D03*
X0007306Y0018200D03*
D13*
X0011240Y0021054D02*
X0066929Y0021054D01*
X0066929Y0021852D02*
X0010441Y0021852D01*
X0009643Y0022651D02*
X0066929Y0022651D01*
X0066929Y0023449D02*
X0009343Y0023449D01*
X0009294Y0023400D02*
X0012105Y0026211D01*
X0012105Y0030188D01*
X0009294Y0033000D01*
X0005317Y0033000D01*
X0002800Y0030482D01*
X0002800Y0035917D01*
X0005317Y0033400D01*
X0009294Y0033400D01*
X0011794Y0035900D01*
X0012180Y0035900D01*
X0022722Y0025357D01*
X0024069Y0024010D01*
X0051172Y0024010D01*
X0056456Y0029294D01*
X0056456Y0031200D01*
X0055109Y0032547D01*
X0053203Y0032547D01*
X0049266Y0028610D01*
X0025975Y0028610D01*
X0014085Y0040500D01*
X0011794Y0040500D01*
X0009294Y0043000D01*
X0005317Y0043000D01*
X0002800Y0040482D01*
X0002800Y0045493D01*
X0005193Y0043100D01*
X0006906Y0043100D01*
X0006906Y0047800D01*
X0007705Y0047800D01*
X0007705Y0043100D01*
X0009418Y0043100D01*
X0012405Y0046087D01*
X0012405Y0047800D01*
X0007706Y0047800D01*
X0007706Y0048600D01*
X0012405Y0048600D01*
X0012405Y0050312D01*
X0010249Y0052469D01*
X0066929Y0052469D01*
X0066929Y0004088D01*
X0012345Y0004088D01*
X0012405Y0004315D01*
X0012405Y0007800D01*
X0007706Y0007800D01*
X0007706Y0008600D01*
X0012405Y0008600D01*
X0012405Y0012084D01*
X0012310Y0012440D01*
X0012126Y0012759D01*
X0011865Y0013020D01*
X0011546Y0013204D01*
X0011190Y0013300D01*
X0007705Y0013300D01*
X0007705Y0008600D01*
X0006906Y0008600D01*
X0006906Y0013300D01*
X0003421Y0013300D01*
X0003065Y0013204D01*
X0002800Y0013051D01*
X0002800Y0015917D01*
X0005317Y0013400D01*
X0009294Y0013400D01*
X0012105Y0016211D01*
X0012105Y0020188D01*
X0009294Y0023000D01*
X0005317Y0023000D01*
X0002800Y0020482D01*
X0002800Y0025917D01*
X0005317Y0023400D01*
X0009294Y0023400D01*
X0010142Y0024248D02*
X0023832Y0024248D01*
X0023033Y0025046D02*
X0010940Y0025046D01*
X0011739Y0025845D02*
X0022235Y0025845D01*
X0021436Y0026643D02*
X0012105Y0026643D01*
X0012105Y0027442D02*
X0020638Y0027442D01*
X0019839Y0028240D02*
X0012105Y0028240D01*
X0012105Y0029039D02*
X0019041Y0029039D01*
X0018242Y0029837D02*
X0012105Y0029837D01*
X0011658Y0030636D02*
X0017444Y0030636D01*
X0016645Y0031434D02*
X0010859Y0031434D01*
X0010061Y0032233D02*
X0015846Y0032233D01*
X0015048Y0033031D02*
X0002800Y0033031D01*
X0002800Y0032233D02*
X0004550Y0032233D01*
X0003752Y0031434D02*
X0002800Y0031434D01*
X0002800Y0030636D02*
X0002953Y0030636D01*
X0002800Y0033830D02*
X0004887Y0033830D01*
X0004089Y0034628D02*
X0002800Y0034628D01*
X0002800Y0035427D02*
X0003290Y0035427D01*
X0009724Y0033830D02*
X0014249Y0033830D01*
X0013451Y0034628D02*
X0010522Y0034628D01*
X0011321Y0035427D02*
X0012652Y0035427D01*
X0015964Y0038621D02*
X0066929Y0038621D01*
X0066929Y0039419D02*
X0015165Y0039419D01*
X0014367Y0040218D02*
X0066929Y0040218D01*
X0066929Y0041016D02*
X0011277Y0041016D01*
X0010478Y0041815D02*
X0066929Y0041815D01*
X0066929Y0042613D02*
X0040872Y0042613D01*
X0041082Y0042823D02*
X0041082Y0051135D01*
X0040438Y0051779D01*
X0032126Y0051779D01*
X0031482Y0051135D01*
X0031482Y0042823D01*
X0032126Y0042179D01*
X0040438Y0042179D01*
X0041082Y0042823D01*
X0041082Y0043412D02*
X0066929Y0043412D01*
X0066929Y0044210D02*
X0041082Y0044210D01*
X0041082Y0045009D02*
X0066929Y0045009D01*
X0066929Y0045807D02*
X0041082Y0045807D01*
X0041082Y0046606D02*
X0066929Y0046606D01*
X0066929Y0047404D02*
X0041082Y0047404D01*
X0041082Y0048203D02*
X0066929Y0048203D01*
X0066929Y0049001D02*
X0041082Y0049001D01*
X0041082Y0049800D02*
X0066929Y0049800D01*
X0066929Y0050598D02*
X0041082Y0050598D01*
X0040820Y0051397D02*
X0066929Y0051397D01*
X0066929Y0052195D02*
X0010522Y0052195D01*
X0011321Y0051397D02*
X0031744Y0051397D01*
X0031482Y0050598D02*
X0012119Y0050598D01*
X0012405Y0049800D02*
X0031482Y0049800D01*
X0031482Y0049001D02*
X0012405Y0049001D01*
X0012405Y0047404D02*
X0031482Y0047404D01*
X0031482Y0048203D02*
X0007706Y0048203D01*
X0007705Y0047404D02*
X0006906Y0047404D01*
X0006906Y0046606D02*
X0007705Y0046606D01*
X0007705Y0045807D02*
X0006906Y0045807D01*
X0006906Y0045009D02*
X0007705Y0045009D01*
X0007705Y0044210D02*
X0006906Y0044210D01*
X0006906Y0043412D02*
X0007705Y0043412D01*
X0009730Y0043412D02*
X0031482Y0043412D01*
X0031482Y0044210D02*
X0010529Y0044210D01*
X0011327Y0045009D02*
X0031482Y0045009D01*
X0031482Y0045807D02*
X0012126Y0045807D01*
X0012405Y0046606D02*
X0031482Y0046606D01*
X0031692Y0042613D02*
X0009680Y0042613D01*
X0004931Y0042613D02*
X0002800Y0042613D01*
X0002800Y0041815D02*
X0004133Y0041815D01*
X0003334Y0041016D02*
X0002800Y0041016D01*
X0002800Y0043412D02*
X0004881Y0043412D01*
X0004082Y0044210D02*
X0002800Y0044210D01*
X0002800Y0045009D02*
X0003284Y0045009D01*
X0016762Y0037822D02*
X0066929Y0037822D01*
X0066929Y0037024D02*
X0017561Y0037024D01*
X0018359Y0036225D02*
X0066929Y0036225D01*
X0066929Y0035427D02*
X0019158Y0035427D01*
X0019956Y0034628D02*
X0066929Y0034628D01*
X0066929Y0033830D02*
X0020755Y0033830D01*
X0021553Y0033031D02*
X0066929Y0033031D01*
X0066929Y0032233D02*
X0055423Y0032233D01*
X0056221Y0031434D02*
X0066929Y0031434D01*
X0066929Y0030636D02*
X0056456Y0030636D01*
X0056456Y0029837D02*
X0066929Y0029837D01*
X0066929Y0029039D02*
X0056200Y0029039D01*
X0055402Y0028240D02*
X0066929Y0028240D01*
X0066929Y0027442D02*
X0054603Y0027442D01*
X0053805Y0026643D02*
X0066929Y0026643D01*
X0066929Y0025845D02*
X0053006Y0025845D01*
X0052208Y0025046D02*
X0066929Y0025046D01*
X0066929Y0024248D02*
X0051409Y0024248D01*
X0049695Y0029039D02*
X0025546Y0029039D01*
X0024747Y0029837D02*
X0050494Y0029837D01*
X0051292Y0030636D02*
X0023949Y0030636D01*
X0023150Y0031434D02*
X0052091Y0031434D01*
X0052889Y0032233D02*
X0022352Y0032233D01*
X0012038Y0020255D02*
X0066929Y0020255D01*
X0066929Y0019457D02*
X0012105Y0019457D01*
X0012105Y0018658D02*
X0066929Y0018658D01*
X0066929Y0017860D02*
X0012105Y0017860D01*
X0012105Y0017061D02*
X0066929Y0017061D01*
X0066929Y0016262D02*
X0012105Y0016262D01*
X0011358Y0015464D02*
X0066929Y0015464D01*
X0066929Y0014665D02*
X0010560Y0014665D01*
X0009761Y0013867D02*
X0066929Y0013867D01*
X0066929Y0013068D02*
X0011781Y0013068D01*
X0012356Y0012270D02*
X0066929Y0012270D01*
X0066929Y0011471D02*
X0012405Y0011471D01*
X0012405Y0010673D02*
X0066929Y0010673D01*
X0066929Y0009874D02*
X0012405Y0009874D01*
X0012405Y0009076D02*
X0066929Y0009076D01*
X0066929Y0008277D02*
X0007706Y0008277D01*
X0007705Y0009076D02*
X0006906Y0009076D01*
X0006906Y0009874D02*
X0007705Y0009874D01*
X0007705Y0010673D02*
X0006906Y0010673D01*
X0006906Y0011471D02*
X0007705Y0011471D01*
X0007705Y0012270D02*
X0006906Y0012270D01*
X0006906Y0013068D02*
X0007705Y0013068D01*
X0004850Y0013867D02*
X0002800Y0013867D01*
X0002800Y0013068D02*
X0002830Y0013068D01*
X0002800Y0014665D02*
X0004051Y0014665D01*
X0003253Y0015464D02*
X0002800Y0015464D01*
X0002800Y0021054D02*
X0003371Y0021054D01*
X0002800Y0021852D02*
X0004170Y0021852D01*
X0004968Y0022651D02*
X0002800Y0022651D01*
X0002800Y0023449D02*
X0005268Y0023449D01*
X0004469Y0024248D02*
X0002800Y0024248D01*
X0002800Y0025046D02*
X0003671Y0025046D01*
X0002872Y0025845D02*
X0002800Y0025845D01*
X0012405Y0007479D02*
X0066929Y0007479D01*
X0066929Y0006680D02*
X0012405Y0006680D01*
X0012405Y0005882D02*
X0066929Y0005882D01*
X0066929Y0005083D02*
X0012405Y0005083D01*
X0012397Y0004285D02*
X0066929Y0004285D01*
D14*
X0065376Y0005050D03*
X0062817Y0005050D03*
X0060258Y0005050D03*
X0057699Y0005050D03*
X0055140Y0005050D03*
X0053762Y0007412D03*
X0053762Y0009578D03*
X0050809Y0007609D03*
X0047660Y0008200D03*
X0047660Y0005641D03*
X0047660Y0014105D03*
X0049431Y0015483D03*
X0050416Y0017452D03*
X0051794Y0019223D03*
X0053762Y0020798D03*
X0051400Y0022963D03*
X0048841Y0022963D03*
X0046282Y0022963D03*
X0044904Y0019026D03*
X0042345Y0019026D03*
X0047266Y0017845D03*
X0053762Y0023357D03*
X0055140Y0025522D03*
X0057699Y0025522D03*
X0060258Y0025522D03*
X0062817Y0025522D03*
X0065376Y0025522D03*
X0062424Y0030837D03*
X0062424Y0034184D03*
X0062424Y0037530D03*
X0058290Y0041861D03*
X0053959Y0037530D03*
X0053959Y0034578D03*
X0054156Y0030247D03*
X0044904Y0034381D03*
X0049431Y0038908D03*
X0045691Y0040680D03*
X0040967Y0041270D03*
X0041951Y0044223D03*
X0041951Y0047767D03*
X0041951Y0051310D03*
X0030534Y0051310D03*
X0030534Y0047767D03*
X0030534Y0044223D03*
X0030731Y0040680D03*
X0026991Y0038121D03*
X0026991Y0035562D03*
X0030731Y0037137D03*
X0031124Y0034381D03*
X0029156Y0032609D03*
X0026597Y0032609D03*
X0019117Y0025129D03*
X0010652Y0023160D03*
X0010849Y0033200D03*
X0027778Y0021979D03*
X0029746Y0020207D03*
X0032502Y0017452D03*
X0030928Y0015483D03*
X0028369Y0015286D03*
X0028369Y0012530D03*
X0028369Y0009774D03*
X0028369Y0007019D03*
X0025022Y0008200D03*
X0021085Y0008200D03*
X0017148Y0008200D03*
X0013211Y0008200D03*
X0036439Y0007019D03*
X0037030Y0037137D03*
X0037030Y0040680D03*
X0019904Y0048160D03*
X0016951Y0048160D03*
X0014195Y0048160D03*
D15*
X0013132Y0038200D02*
X0007306Y0038200D01*
X0013132Y0038200D02*
X0025022Y0026310D01*
X0050219Y0026310D01*
X0054156Y0030247D01*
M02*
