G75*
%MOIN*%
%OFA0B0*%
%FSLAX25Y25*%
%IPPOS*%
%LPD*%
%AMOC8*
5,1,8,0,0,1.08239X$1,22.5*
%
%ADD10C,0.00500*%
%ADD11C,0.00778*%
%ADD12R,0.40827X0.31654*%
%ADD13R,0.05512X0.11811*%
%ADD14C,0.13000*%
%ADD15C,0.07400*%
%ADD16R,0.07400X0.07400*%
%ADD17R,0.01575X0.02953*%
%ADD18R,0.03937X0.04331*%
%ADD19R,0.04331X0.03937*%
%ADD20C,0.00800*%
%ADD21OC8,0.02381*%
%ADD22C,0.01600*%
%ADD23C,0.02400*%
%ADD24C,0.03200*%
%ADD25C,0.05000*%
%ADD26C,0.10000*%
D10*
X0005000Y0005000D02*
X0005000Y0099488D01*
X0154606Y0099488D01*
X0154606Y0005000D01*
X0005000Y0005000D01*
D11*
X0021087Y0035685D02*
X0021087Y0049355D01*
X0021087Y0035685D02*
X0018755Y0035685D01*
X0018755Y0049355D01*
X0021087Y0049355D01*
X0021087Y0036462D02*
X0018755Y0036462D01*
X0018755Y0037239D02*
X0021087Y0037239D01*
X0021087Y0038016D02*
X0018755Y0038016D01*
X0018755Y0038793D02*
X0021087Y0038793D01*
X0021087Y0039570D02*
X0018755Y0039570D01*
X0018755Y0040347D02*
X0021087Y0040347D01*
X0021087Y0041124D02*
X0018755Y0041124D01*
X0018755Y0041901D02*
X0021087Y0041901D01*
X0021087Y0042678D02*
X0018755Y0042678D01*
X0018755Y0043455D02*
X0021087Y0043455D01*
X0021087Y0044232D02*
X0018755Y0044232D01*
X0018755Y0045009D02*
X0021087Y0045009D01*
X0021087Y0045786D02*
X0018755Y0045786D01*
X0018755Y0046563D02*
X0021087Y0046563D01*
X0021087Y0047340D02*
X0018755Y0047340D01*
X0018755Y0048117D02*
X0021087Y0048117D01*
X0021087Y0048894D02*
X0018755Y0048894D01*
X0026087Y0049355D02*
X0026087Y0035685D01*
X0023755Y0035685D01*
X0023755Y0049355D01*
X0026087Y0049355D01*
X0026087Y0036462D02*
X0023755Y0036462D01*
X0023755Y0037239D02*
X0026087Y0037239D01*
X0026087Y0038016D02*
X0023755Y0038016D01*
X0023755Y0038793D02*
X0026087Y0038793D01*
X0026087Y0039570D02*
X0023755Y0039570D01*
X0023755Y0040347D02*
X0026087Y0040347D01*
X0026087Y0041124D02*
X0023755Y0041124D01*
X0023755Y0041901D02*
X0026087Y0041901D01*
X0026087Y0042678D02*
X0023755Y0042678D01*
X0023755Y0043455D02*
X0026087Y0043455D01*
X0026087Y0044232D02*
X0023755Y0044232D01*
X0023755Y0045009D02*
X0026087Y0045009D01*
X0026087Y0045786D02*
X0023755Y0045786D01*
X0023755Y0046563D02*
X0026087Y0046563D01*
X0026087Y0047340D02*
X0023755Y0047340D01*
X0023755Y0048117D02*
X0026087Y0048117D01*
X0026087Y0048894D02*
X0023755Y0048894D01*
X0031087Y0049355D02*
X0031087Y0035685D01*
X0028755Y0035685D01*
X0028755Y0049355D01*
X0031087Y0049355D01*
X0031087Y0036462D02*
X0028755Y0036462D01*
X0028755Y0037239D02*
X0031087Y0037239D01*
X0031087Y0038016D02*
X0028755Y0038016D01*
X0028755Y0038793D02*
X0031087Y0038793D01*
X0031087Y0039570D02*
X0028755Y0039570D01*
X0028755Y0040347D02*
X0031087Y0040347D01*
X0031087Y0041124D02*
X0028755Y0041124D01*
X0028755Y0041901D02*
X0031087Y0041901D01*
X0031087Y0042678D02*
X0028755Y0042678D01*
X0028755Y0043455D02*
X0031087Y0043455D01*
X0031087Y0044232D02*
X0028755Y0044232D01*
X0028755Y0045009D02*
X0031087Y0045009D01*
X0031087Y0045786D02*
X0028755Y0045786D01*
X0028755Y0046563D02*
X0031087Y0046563D01*
X0031087Y0047340D02*
X0028755Y0047340D01*
X0028755Y0048117D02*
X0031087Y0048117D01*
X0031087Y0048894D02*
X0028755Y0048894D01*
X0036087Y0049355D02*
X0036087Y0035685D01*
X0033755Y0035685D01*
X0033755Y0049355D01*
X0036087Y0049355D01*
X0036087Y0036462D02*
X0033755Y0036462D01*
X0033755Y0037239D02*
X0036087Y0037239D01*
X0036087Y0038016D02*
X0033755Y0038016D01*
X0033755Y0038793D02*
X0036087Y0038793D01*
X0036087Y0039570D02*
X0033755Y0039570D01*
X0033755Y0040347D02*
X0036087Y0040347D01*
X0036087Y0041124D02*
X0033755Y0041124D01*
X0033755Y0041901D02*
X0036087Y0041901D01*
X0036087Y0042678D02*
X0033755Y0042678D01*
X0033755Y0043455D02*
X0036087Y0043455D01*
X0036087Y0044232D02*
X0033755Y0044232D01*
X0033755Y0045009D02*
X0036087Y0045009D01*
X0036087Y0045786D02*
X0033755Y0045786D01*
X0033755Y0046563D02*
X0036087Y0046563D01*
X0036087Y0047340D02*
X0033755Y0047340D01*
X0033755Y0048117D02*
X0036087Y0048117D01*
X0036087Y0048894D02*
X0033755Y0048894D01*
X0041087Y0049355D02*
X0041087Y0035685D01*
X0038755Y0035685D01*
X0038755Y0049355D01*
X0041087Y0049355D01*
X0041087Y0036462D02*
X0038755Y0036462D01*
X0038755Y0037239D02*
X0041087Y0037239D01*
X0041087Y0038016D02*
X0038755Y0038016D01*
X0038755Y0038793D02*
X0041087Y0038793D01*
X0041087Y0039570D02*
X0038755Y0039570D01*
X0038755Y0040347D02*
X0041087Y0040347D01*
X0041087Y0041124D02*
X0038755Y0041124D01*
X0038755Y0041901D02*
X0041087Y0041901D01*
X0041087Y0042678D02*
X0038755Y0042678D01*
X0038755Y0043455D02*
X0041087Y0043455D01*
X0041087Y0044232D02*
X0038755Y0044232D01*
X0038755Y0045009D02*
X0041087Y0045009D01*
X0041087Y0045786D02*
X0038755Y0045786D01*
X0038755Y0046563D02*
X0041087Y0046563D01*
X0041087Y0047340D02*
X0038755Y0047340D01*
X0038755Y0048117D02*
X0041087Y0048117D01*
X0041087Y0048894D02*
X0038755Y0048894D01*
X0046087Y0049355D02*
X0046087Y0035685D01*
X0043755Y0035685D01*
X0043755Y0049355D01*
X0046087Y0049355D01*
X0046087Y0036462D02*
X0043755Y0036462D01*
X0043755Y0037239D02*
X0046087Y0037239D01*
X0046087Y0038016D02*
X0043755Y0038016D01*
X0043755Y0038793D02*
X0046087Y0038793D01*
X0046087Y0039570D02*
X0043755Y0039570D01*
X0043755Y0040347D02*
X0046087Y0040347D01*
X0046087Y0041124D02*
X0043755Y0041124D01*
X0043755Y0041901D02*
X0046087Y0041901D01*
X0046087Y0042678D02*
X0043755Y0042678D01*
X0043755Y0043455D02*
X0046087Y0043455D01*
X0046087Y0044232D02*
X0043755Y0044232D01*
X0043755Y0045009D02*
X0046087Y0045009D01*
X0046087Y0045786D02*
X0043755Y0045786D01*
X0043755Y0046563D02*
X0046087Y0046563D01*
X0046087Y0047340D02*
X0043755Y0047340D01*
X0043755Y0048117D02*
X0046087Y0048117D01*
X0046087Y0048894D02*
X0043755Y0048894D01*
X0051087Y0049355D02*
X0051087Y0035685D01*
X0048755Y0035685D01*
X0048755Y0049355D01*
X0051087Y0049355D01*
X0051087Y0036462D02*
X0048755Y0036462D01*
X0048755Y0037239D02*
X0051087Y0037239D01*
X0051087Y0038016D02*
X0048755Y0038016D01*
X0048755Y0038793D02*
X0051087Y0038793D01*
X0051087Y0039570D02*
X0048755Y0039570D01*
X0048755Y0040347D02*
X0051087Y0040347D01*
X0051087Y0041124D02*
X0048755Y0041124D01*
X0048755Y0041901D02*
X0051087Y0041901D01*
X0051087Y0042678D02*
X0048755Y0042678D01*
X0048755Y0043455D02*
X0051087Y0043455D01*
X0051087Y0044232D02*
X0048755Y0044232D01*
X0048755Y0045009D02*
X0051087Y0045009D01*
X0051087Y0045786D02*
X0048755Y0045786D01*
X0048755Y0046563D02*
X0051087Y0046563D01*
X0051087Y0047340D02*
X0048755Y0047340D01*
X0048755Y0048117D02*
X0051087Y0048117D01*
X0051087Y0048894D02*
X0048755Y0048894D01*
X0110851Y0049355D02*
X0110851Y0035685D01*
X0108519Y0035685D01*
X0108519Y0049355D01*
X0110851Y0049355D01*
X0110851Y0036462D02*
X0108519Y0036462D01*
X0108519Y0037239D02*
X0110851Y0037239D01*
X0110851Y0038016D02*
X0108519Y0038016D01*
X0108519Y0038793D02*
X0110851Y0038793D01*
X0110851Y0039570D02*
X0108519Y0039570D01*
X0108519Y0040347D02*
X0110851Y0040347D01*
X0110851Y0041124D02*
X0108519Y0041124D01*
X0108519Y0041901D02*
X0110851Y0041901D01*
X0110851Y0042678D02*
X0108519Y0042678D01*
X0108519Y0043455D02*
X0110851Y0043455D01*
X0110851Y0044232D02*
X0108519Y0044232D01*
X0108519Y0045009D02*
X0110851Y0045009D01*
X0110851Y0045786D02*
X0108519Y0045786D01*
X0108519Y0046563D02*
X0110851Y0046563D01*
X0110851Y0047340D02*
X0108519Y0047340D01*
X0108519Y0048117D02*
X0110851Y0048117D01*
X0110851Y0048894D02*
X0108519Y0048894D01*
X0115851Y0049355D02*
X0115851Y0035685D01*
X0113519Y0035685D01*
X0113519Y0049355D01*
X0115851Y0049355D01*
X0115851Y0036462D02*
X0113519Y0036462D01*
X0113519Y0037239D02*
X0115851Y0037239D01*
X0115851Y0038016D02*
X0113519Y0038016D01*
X0113519Y0038793D02*
X0115851Y0038793D01*
X0115851Y0039570D02*
X0113519Y0039570D01*
X0113519Y0040347D02*
X0115851Y0040347D01*
X0115851Y0041124D02*
X0113519Y0041124D01*
X0113519Y0041901D02*
X0115851Y0041901D01*
X0115851Y0042678D02*
X0113519Y0042678D01*
X0113519Y0043455D02*
X0115851Y0043455D01*
X0115851Y0044232D02*
X0113519Y0044232D01*
X0113519Y0045009D02*
X0115851Y0045009D01*
X0115851Y0045786D02*
X0113519Y0045786D01*
X0113519Y0046563D02*
X0115851Y0046563D01*
X0115851Y0047340D02*
X0113519Y0047340D01*
X0113519Y0048117D02*
X0115851Y0048117D01*
X0115851Y0048894D02*
X0113519Y0048894D01*
X0120851Y0049355D02*
X0120851Y0035685D01*
X0118519Y0035685D01*
X0118519Y0049355D01*
X0120851Y0049355D01*
X0120851Y0036462D02*
X0118519Y0036462D01*
X0118519Y0037239D02*
X0120851Y0037239D01*
X0120851Y0038016D02*
X0118519Y0038016D01*
X0118519Y0038793D02*
X0120851Y0038793D01*
X0120851Y0039570D02*
X0118519Y0039570D01*
X0118519Y0040347D02*
X0120851Y0040347D01*
X0120851Y0041124D02*
X0118519Y0041124D01*
X0118519Y0041901D02*
X0120851Y0041901D01*
X0120851Y0042678D02*
X0118519Y0042678D01*
X0118519Y0043455D02*
X0120851Y0043455D01*
X0120851Y0044232D02*
X0118519Y0044232D01*
X0118519Y0045009D02*
X0120851Y0045009D01*
X0120851Y0045786D02*
X0118519Y0045786D01*
X0118519Y0046563D02*
X0120851Y0046563D01*
X0120851Y0047340D02*
X0118519Y0047340D01*
X0118519Y0048117D02*
X0120851Y0048117D01*
X0120851Y0048894D02*
X0118519Y0048894D01*
X0125851Y0049355D02*
X0125851Y0035685D01*
X0123519Y0035685D01*
X0123519Y0049355D01*
X0125851Y0049355D01*
X0125851Y0036462D02*
X0123519Y0036462D01*
X0123519Y0037239D02*
X0125851Y0037239D01*
X0125851Y0038016D02*
X0123519Y0038016D01*
X0123519Y0038793D02*
X0125851Y0038793D01*
X0125851Y0039570D02*
X0123519Y0039570D01*
X0123519Y0040347D02*
X0125851Y0040347D01*
X0125851Y0041124D02*
X0123519Y0041124D01*
X0123519Y0041901D02*
X0125851Y0041901D01*
X0125851Y0042678D02*
X0123519Y0042678D01*
X0123519Y0043455D02*
X0125851Y0043455D01*
X0125851Y0044232D02*
X0123519Y0044232D01*
X0123519Y0045009D02*
X0125851Y0045009D01*
X0125851Y0045786D02*
X0123519Y0045786D01*
X0123519Y0046563D02*
X0125851Y0046563D01*
X0125851Y0047340D02*
X0123519Y0047340D01*
X0123519Y0048117D02*
X0125851Y0048117D01*
X0125851Y0048894D02*
X0123519Y0048894D01*
X0130851Y0049355D02*
X0130851Y0035685D01*
X0128519Y0035685D01*
X0128519Y0049355D01*
X0130851Y0049355D01*
X0130851Y0036462D02*
X0128519Y0036462D01*
X0128519Y0037239D02*
X0130851Y0037239D01*
X0130851Y0038016D02*
X0128519Y0038016D01*
X0128519Y0038793D02*
X0130851Y0038793D01*
X0130851Y0039570D02*
X0128519Y0039570D01*
X0128519Y0040347D02*
X0130851Y0040347D01*
X0130851Y0041124D02*
X0128519Y0041124D01*
X0128519Y0041901D02*
X0130851Y0041901D01*
X0130851Y0042678D02*
X0128519Y0042678D01*
X0128519Y0043455D02*
X0130851Y0043455D01*
X0130851Y0044232D02*
X0128519Y0044232D01*
X0128519Y0045009D02*
X0130851Y0045009D01*
X0130851Y0045786D02*
X0128519Y0045786D01*
X0128519Y0046563D02*
X0130851Y0046563D01*
X0130851Y0047340D02*
X0128519Y0047340D01*
X0128519Y0048117D02*
X0130851Y0048117D01*
X0130851Y0048894D02*
X0128519Y0048894D01*
X0135851Y0049355D02*
X0135851Y0035685D01*
X0133519Y0035685D01*
X0133519Y0049355D01*
X0135851Y0049355D01*
X0135851Y0036462D02*
X0133519Y0036462D01*
X0133519Y0037239D02*
X0135851Y0037239D01*
X0135851Y0038016D02*
X0133519Y0038016D01*
X0133519Y0038793D02*
X0135851Y0038793D01*
X0135851Y0039570D02*
X0133519Y0039570D01*
X0133519Y0040347D02*
X0135851Y0040347D01*
X0135851Y0041124D02*
X0133519Y0041124D01*
X0133519Y0041901D02*
X0135851Y0041901D01*
X0135851Y0042678D02*
X0133519Y0042678D01*
X0133519Y0043455D02*
X0135851Y0043455D01*
X0135851Y0044232D02*
X0133519Y0044232D01*
X0133519Y0045009D02*
X0135851Y0045009D01*
X0135851Y0045786D02*
X0133519Y0045786D01*
X0133519Y0046563D02*
X0135851Y0046563D01*
X0135851Y0047340D02*
X0133519Y0047340D01*
X0133519Y0048117D02*
X0135851Y0048117D01*
X0135851Y0048894D02*
X0133519Y0048894D01*
X0140851Y0049355D02*
X0140851Y0035685D01*
X0138519Y0035685D01*
X0138519Y0049355D01*
X0140851Y0049355D01*
X0140851Y0036462D02*
X0138519Y0036462D01*
X0138519Y0037239D02*
X0140851Y0037239D01*
X0140851Y0038016D02*
X0138519Y0038016D01*
X0138519Y0038793D02*
X0140851Y0038793D01*
X0140851Y0039570D02*
X0138519Y0039570D01*
X0138519Y0040347D02*
X0140851Y0040347D01*
X0140851Y0041124D02*
X0138519Y0041124D01*
X0138519Y0041901D02*
X0140851Y0041901D01*
X0140851Y0042678D02*
X0138519Y0042678D01*
X0138519Y0043455D02*
X0140851Y0043455D01*
X0140851Y0044232D02*
X0138519Y0044232D01*
X0138519Y0045009D02*
X0140851Y0045009D01*
X0140851Y0045786D02*
X0138519Y0045786D01*
X0138519Y0046563D02*
X0140851Y0046563D01*
X0140851Y0047340D02*
X0138519Y0047340D01*
X0138519Y0048117D02*
X0140851Y0048117D01*
X0140851Y0048894D02*
X0138519Y0048894D01*
D12*
X0124685Y0081732D03*
X0034921Y0081732D03*
D13*
X0067205Y0049882D03*
X0093189Y0049882D03*
X0093189Y0030984D03*
X0067205Y0030984D03*
D14*
X0032559Y0012874D03*
X0019961Y0024685D03*
X0063268Y0076654D03*
X0063268Y0091614D03*
X0096339Y0091614D03*
X0096339Y0076654D03*
D15*
X0079803Y0075866D03*
X0079803Y0085866D03*
X0078307Y0012087D03*
X0088307Y0012087D03*
X0098307Y0012087D03*
X0108307Y0012087D03*
X0118307Y0012087D03*
X0128307Y0012087D03*
X0138307Y0012087D03*
X0068307Y0012087D03*
X0058307Y0012087D03*
X0048307Y0012087D03*
D16*
X0079803Y0065866D03*
D17*
X0131575Y0029311D03*
X0134134Y0029311D03*
X0136693Y0029311D03*
X0136693Y0022815D03*
X0131575Y0022815D03*
D18*
X0126260Y0023110D03*
X0126260Y0029803D03*
X0144370Y0025669D03*
X0144370Y0018976D03*
D19*
X0083150Y0096142D03*
X0076457Y0096142D03*
D20*
X0076260Y0096339D01*
X0071535Y0096339D01*
X0070130Y0094647D02*
X0070628Y0094148D01*
X0072443Y0094148D01*
X0073233Y0094939D01*
X0073291Y0094939D01*
X0073291Y0093759D01*
X0073877Y0093173D01*
X0079036Y0093173D01*
X0079622Y0093759D01*
X0079622Y0093848D01*
X0079680Y0093633D01*
X0079864Y0093314D01*
X0080125Y0093053D01*
X0080444Y0092869D01*
X0080800Y0092773D01*
X0082750Y0092773D01*
X0082750Y0095742D01*
X0083550Y0095742D01*
X0083550Y0096542D01*
X0086715Y0096542D01*
X0086715Y0097838D01*
X0091956Y0097838D01*
X0089980Y0095863D01*
X0088839Y0093106D01*
X0088839Y0090122D01*
X0089980Y0087366D01*
X0092090Y0085256D01*
X0094799Y0084134D01*
X0092090Y0083012D01*
X0089980Y0080902D01*
X0088839Y0078145D01*
X0088839Y0075162D01*
X0089980Y0072405D01*
X0092090Y0070295D01*
X0094847Y0069154D01*
X0097830Y0069154D01*
X0100587Y0070295D01*
X0100945Y0070654D01*
X0103272Y0070654D01*
X0103272Y0065491D01*
X0103857Y0064906D01*
X0145513Y0064906D01*
X0146098Y0065491D01*
X0146098Y0097838D01*
X0152956Y0097838D01*
X0152956Y0006650D01*
X0037425Y0006650D01*
X0037779Y0006922D01*
X0038511Y0007654D01*
X0039142Y0008476D01*
X0039660Y0009372D01*
X0040056Y0010329D01*
X0040324Y0011329D01*
X0040459Y0012356D01*
X0040459Y0012474D01*
X0032959Y0012474D01*
X0032959Y0013274D01*
X0032159Y0013274D01*
X0032159Y0012474D01*
X0024659Y0012474D01*
X0024659Y0012356D01*
X0024794Y0011329D01*
X0025062Y0010329D01*
X0025459Y0009372D01*
X0025976Y0008476D01*
X0026607Y0007654D01*
X0027339Y0006922D01*
X0027693Y0006650D01*
X0006650Y0006650D01*
X0006650Y0097838D01*
X0013508Y0097838D01*
X0013508Y0065491D01*
X0014094Y0064906D01*
X0055749Y0064906D01*
X0056335Y0065491D01*
X0056335Y0070654D01*
X0058661Y0070654D01*
X0059019Y0070295D01*
X0061776Y0069154D01*
X0064760Y0069154D01*
X0067516Y0070295D01*
X0069626Y0072405D01*
X0069729Y0072654D01*
X0069729Y0065754D01*
X0067367Y0063392D01*
X0067367Y0056787D01*
X0064035Y0056787D01*
X0063449Y0056202D01*
X0063449Y0046088D01*
X0056845Y0039483D01*
X0056845Y0039483D01*
X0055556Y0038195D01*
X0055556Y0033470D01*
X0053301Y0031216D01*
X0052013Y0029927D01*
X0052013Y0022199D01*
X0052064Y0022148D01*
X0050462Y0022148D01*
X0045573Y0027037D01*
X0045573Y0032452D01*
X0046321Y0033200D01*
X0046321Y0034295D01*
X0046663Y0034295D01*
X0047188Y0034820D01*
X0047324Y0034586D01*
X0047657Y0034253D01*
X0048064Y0034017D01*
X0048519Y0033895D01*
X0049544Y0033895D01*
X0049544Y0042142D01*
X0050299Y0042142D01*
X0050299Y0042897D01*
X0052876Y0042897D01*
X0052876Y0049591D01*
X0052754Y0050046D01*
X0052519Y0050454D01*
X0052186Y0050787D01*
X0051778Y0051022D01*
X0051323Y0051144D01*
X0050299Y0051144D01*
X0050299Y0042897D01*
X0049544Y0042897D01*
X0049544Y0051144D01*
X0048519Y0051144D01*
X0048064Y0051022D01*
X0047657Y0050787D01*
X0047324Y0050454D01*
X0047188Y0050219D01*
X0046663Y0050744D01*
X0043180Y0050744D01*
X0042421Y0049986D01*
X0041663Y0050744D01*
X0041046Y0050744D01*
X0041046Y0051334D01*
X0041836Y0052124D01*
X0041836Y0053939D01*
X0040553Y0055222D01*
X0038738Y0055222D01*
X0037455Y0053939D01*
X0037455Y0052124D01*
X0038246Y0051334D01*
X0038246Y0050744D01*
X0038180Y0050744D01*
X0037421Y0049986D01*
X0036663Y0050744D01*
X0033180Y0050744D01*
X0032654Y0050219D01*
X0032519Y0050454D01*
X0032186Y0050787D01*
X0031778Y0051022D01*
X0031323Y0051144D01*
X0030299Y0051144D01*
X0030299Y0042897D01*
X0029544Y0042897D01*
X0029544Y0051144D01*
X0028519Y0051144D01*
X0028064Y0051022D01*
X0027657Y0050787D01*
X0027324Y0050454D01*
X0027188Y0050219D01*
X0026663Y0050744D01*
X0023180Y0050744D01*
X0022421Y0049986D01*
X0021663Y0050744D01*
X0018180Y0050744D01*
X0017366Y0049931D01*
X0017366Y0038366D01*
X0015788Y0036788D01*
X0015392Y0035832D01*
X0015392Y0030723D01*
X0013602Y0028933D01*
X0012461Y0026177D01*
X0012461Y0023193D01*
X0013602Y0020437D01*
X0015712Y0018327D01*
X0018469Y0017185D01*
X0021452Y0017185D01*
X0024209Y0018327D01*
X0026319Y0020437D01*
X0027461Y0023193D01*
X0027461Y0026177D01*
X0026319Y0028933D01*
X0024209Y0031043D01*
X0022121Y0031908D01*
X0022121Y0034754D01*
X0022421Y0035054D01*
X0022976Y0034499D01*
X0022731Y0034254D01*
X0022731Y0032439D01*
X0024014Y0031156D01*
X0025132Y0031156D01*
X0029820Y0026467D01*
X0030641Y0025647D01*
X0035916Y0025647D01*
X0042970Y0018593D01*
X0043790Y0017773D01*
X0080641Y0017773D01*
X0084130Y0014284D01*
X0083607Y0013022D01*
X0083607Y0011152D01*
X0084323Y0009424D01*
X0085645Y0008102D01*
X0087372Y0007387D01*
X0089242Y0007387D01*
X0090969Y0008102D01*
X0092292Y0009424D01*
X0093007Y0011152D01*
X0093007Y0013022D01*
X0092292Y0014749D01*
X0090969Y0016071D01*
X0089242Y0016787D01*
X0087372Y0016787D01*
X0086110Y0016264D01*
X0083026Y0019348D01*
X0089066Y0019348D01*
X0094130Y0014284D01*
X0093607Y0013022D01*
X0093607Y0011152D01*
X0094323Y0009424D01*
X0095645Y0008102D01*
X0097372Y0007387D01*
X0099242Y0007387D01*
X0100969Y0008102D01*
X0102292Y0009424D01*
X0103007Y0011152D01*
X0103007Y0013022D01*
X0102292Y0014749D01*
X0100969Y0016071D01*
X0099242Y0016787D01*
X0097372Y0016787D01*
X0096110Y0016264D01*
X0090226Y0022148D01*
X0056362Y0022148D01*
X0056413Y0022199D01*
X0056413Y0028104D01*
X0059956Y0031648D01*
X0059956Y0036372D01*
X0066560Y0042976D01*
X0070375Y0042976D01*
X0070961Y0043562D01*
X0070961Y0053676D01*
X0071767Y0054482D01*
X0071767Y0061569D01*
X0074129Y0063931D01*
X0074129Y0078695D01*
X0077265Y0081830D01*
X0078868Y0081166D01*
X0080738Y0081166D01*
X0082000Y0081689D01*
X0085490Y0078200D01*
X0085490Y0072137D01*
X0086310Y0071317D01*
X0092412Y0065214D01*
X0094641Y0065214D01*
X0095431Y0064424D01*
X0096549Y0064424D01*
X0098876Y0062097D01*
X0098876Y0054926D01*
X0098085Y0054136D01*
X0098085Y0052321D01*
X0099368Y0051038D01*
X0101183Y0051038D01*
X0102466Y0052321D01*
X0102466Y0054136D01*
X0101676Y0054926D01*
X0101676Y0063257D01*
X0100855Y0064077D01*
X0098529Y0066404D01*
X0098529Y0067522D01*
X0097246Y0068805D01*
X0095431Y0068805D01*
X0094641Y0068014D01*
X0093572Y0068014D01*
X0088290Y0073296D01*
X0088290Y0079359D01*
X0083980Y0083669D01*
X0084503Y0084931D01*
X0084503Y0086801D01*
X0083788Y0088528D01*
X0082465Y0089851D01*
X0080738Y0090566D01*
X0078868Y0090566D01*
X0077141Y0089851D01*
X0075819Y0088528D01*
X0075103Y0086801D01*
X0075103Y0085892D01*
X0069769Y0080557D01*
X0069626Y0080902D01*
X0067516Y0083012D01*
X0064807Y0084134D01*
X0067516Y0085256D01*
X0069626Y0087366D01*
X0070768Y0090122D01*
X0070768Y0093106D01*
X0070130Y0094647D01*
X0070218Y0094433D02*
X0070343Y0094433D01*
X0070549Y0093635D02*
X0073416Y0093635D01*
X0073291Y0094433D02*
X0072728Y0094433D01*
X0070768Y0092836D02*
X0080565Y0092836D01*
X0079679Y0093635D02*
X0079498Y0093635D01*
X0082750Y0093635D02*
X0083550Y0093635D01*
X0083550Y0094433D02*
X0082750Y0094433D01*
X0082750Y0095232D02*
X0083550Y0095232D01*
X0083550Y0095742D02*
X0083550Y0092773D01*
X0085499Y0092773D01*
X0085855Y0092869D01*
X0086175Y0093053D01*
X0086435Y0093314D01*
X0086620Y0093633D01*
X0086715Y0093989D01*
X0086715Y0095742D01*
X0083550Y0095742D01*
X0083550Y0096030D02*
X0090148Y0096030D01*
X0089719Y0095232D02*
X0086715Y0095232D01*
X0086715Y0094433D02*
X0089388Y0094433D01*
X0089058Y0093635D02*
X0086620Y0093635D01*
X0085734Y0092836D02*
X0088839Y0092836D01*
X0088839Y0092038D02*
X0070768Y0092038D01*
X0070768Y0091239D02*
X0088839Y0091239D01*
X0088839Y0090441D02*
X0081041Y0090441D01*
X0082674Y0089642D02*
X0089037Y0089642D01*
X0089368Y0088844D02*
X0083472Y0088844D01*
X0083988Y0088045D02*
X0089699Y0088045D01*
X0090099Y0087247D02*
X0084319Y0087247D01*
X0084503Y0086448D02*
X0090898Y0086448D01*
X0091697Y0085650D02*
X0084503Y0085650D01*
X0084470Y0084851D02*
X0093068Y0084851D01*
X0094603Y0084053D02*
X0084139Y0084053D01*
X0084395Y0083254D02*
X0092675Y0083254D01*
X0091534Y0082456D02*
X0085194Y0082456D01*
X0085992Y0081657D02*
X0090736Y0081657D01*
X0089962Y0080859D02*
X0086791Y0080859D01*
X0087589Y0080060D02*
X0089632Y0080060D01*
X0089301Y0079262D02*
X0088290Y0079262D01*
X0088290Y0078463D02*
X0088970Y0078463D01*
X0088839Y0077665D02*
X0088290Y0077665D01*
X0088290Y0076866D02*
X0088839Y0076866D01*
X0088839Y0076068D02*
X0088290Y0076068D01*
X0088290Y0075269D02*
X0088839Y0075269D01*
X0089125Y0074470D02*
X0088290Y0074470D01*
X0088290Y0073672D02*
X0089456Y0073672D01*
X0089786Y0072873D02*
X0088713Y0072873D01*
X0089511Y0072075D02*
X0090311Y0072075D01*
X0090310Y0071276D02*
X0091109Y0071276D01*
X0091108Y0070478D02*
X0091908Y0070478D01*
X0091907Y0069679D02*
X0093577Y0069679D01*
X0092705Y0068881D02*
X0103272Y0068881D01*
X0103272Y0069679D02*
X0099100Y0069679D01*
X0100770Y0070478D02*
X0103272Y0070478D01*
X0103272Y0068082D02*
X0097968Y0068082D01*
X0098529Y0067284D02*
X0103272Y0067284D01*
X0103272Y0066485D02*
X0098529Y0066485D01*
X0099246Y0065687D02*
X0103272Y0065687D01*
X0101641Y0063291D02*
X0152956Y0063291D01*
X0152956Y0062493D02*
X0101676Y0062493D01*
X0101676Y0061694D02*
X0152956Y0061694D01*
X0152956Y0060896D02*
X0101676Y0060896D01*
X0101676Y0060097D02*
X0152956Y0060097D01*
X0152956Y0059299D02*
X0101676Y0059299D01*
X0101676Y0058500D02*
X0152956Y0058500D01*
X0152956Y0057702D02*
X0101676Y0057702D01*
X0101676Y0056903D02*
X0152956Y0056903D01*
X0152956Y0056105D02*
X0101676Y0056105D01*
X0101676Y0055306D02*
X0118074Y0055306D01*
X0117494Y0054726D02*
X0117494Y0052912D01*
X0118778Y0051628D01*
X0120592Y0051628D01*
X0121383Y0052419D01*
X0127506Y0052419D01*
X0128285Y0051640D01*
X0128285Y0050744D01*
X0127943Y0050744D01*
X0127185Y0049986D01*
X0126427Y0050744D01*
X0122943Y0050744D01*
X0122418Y0050219D01*
X0122283Y0050454D01*
X0121950Y0050787D01*
X0121542Y0051022D01*
X0121087Y0051144D01*
X0120063Y0051144D01*
X0120063Y0042897D01*
X0119307Y0042897D01*
X0119307Y0051144D01*
X0118283Y0051144D01*
X0117828Y0051022D01*
X0117420Y0050787D01*
X0117087Y0050454D01*
X0116952Y0050219D01*
X0116427Y0050744D01*
X0112943Y0050744D01*
X0112185Y0049986D01*
X0111427Y0050744D01*
X0107943Y0050744D01*
X0107130Y0049931D01*
X0107130Y0040162D01*
X0105950Y0038982D01*
X0105950Y0038458D01*
X0105576Y0038085D01*
X0105043Y0036799D01*
X0105043Y0020052D01*
X0105576Y0018765D01*
X0106561Y0017781D01*
X0107847Y0017248D01*
X0109239Y0017248D01*
X0110526Y0017781D01*
X0111510Y0018765D01*
X0112043Y0020052D01*
X0112043Y0034912D01*
X0112185Y0035054D01*
X0112740Y0034499D01*
X0112494Y0034254D01*
X0112494Y0032439D01*
X0113285Y0031649D01*
X0113285Y0019044D01*
X0110504Y0016264D01*
X0109242Y0016787D01*
X0107372Y0016787D01*
X0105645Y0016071D01*
X0104323Y0014749D01*
X0103607Y0013022D01*
X0103607Y0011152D01*
X0104323Y0009424D01*
X0105645Y0008102D01*
X0107372Y0007387D01*
X0109242Y0007387D01*
X0110969Y0008102D01*
X0112292Y0009424D01*
X0113007Y0011152D01*
X0113007Y0013022D01*
X0112484Y0014284D01*
X0115265Y0017065D01*
X0116085Y0017885D01*
X0116085Y0031649D01*
X0116876Y0032439D01*
X0116876Y0034254D01*
X0116630Y0034499D01*
X0116952Y0034820D01*
X0117087Y0034586D01*
X0117420Y0034253D01*
X0117828Y0034017D01*
X0118283Y0033895D01*
X0119307Y0033895D01*
X0119307Y0042142D01*
X0120063Y0042142D01*
X0120063Y0033895D01*
X0120892Y0033895D01*
X0117727Y0030731D01*
X0116907Y0029911D01*
X0116907Y0016594D01*
X0115645Y0016071D01*
X0114323Y0014749D01*
X0113607Y0013022D01*
X0113607Y0011152D01*
X0114323Y0009424D01*
X0115645Y0008102D01*
X0117372Y0007387D01*
X0119242Y0007387D01*
X0120969Y0008102D01*
X0122292Y0009424D01*
X0123007Y0011152D01*
X0123007Y0013022D01*
X0122292Y0014749D01*
X0120969Y0016071D01*
X0119707Y0016594D01*
X0119707Y0028751D01*
X0122891Y0031935D01*
X0122891Y0030203D01*
X0125860Y0030203D01*
X0125860Y0029403D01*
X0122891Y0029403D01*
X0122891Y0028647D01*
X0121415Y0028647D01*
X0120132Y0027364D01*
X0120132Y0025549D01*
X0121415Y0024266D01*
X0122533Y0024266D01*
X0123121Y0023679D01*
X0123291Y0023679D01*
X0123291Y0020531D01*
X0123877Y0019945D01*
X0128643Y0019945D01*
X0129228Y0020531D01*
X0129228Y0021415D01*
X0129787Y0021415D01*
X0129787Y0020924D01*
X0130373Y0020339D01*
X0132734Y0020339D01*
X0132734Y0018493D01*
X0130504Y0016264D01*
X0129242Y0016787D01*
X0127372Y0016787D01*
X0125645Y0016071D01*
X0124323Y0014749D01*
X0123607Y0013022D01*
X0123607Y0011152D01*
X0124323Y0009424D01*
X0125645Y0008102D01*
X0127372Y0007387D01*
X0129242Y0007387D01*
X0130969Y0008102D01*
X0132292Y0009424D01*
X0133007Y0011152D01*
X0133007Y0013022D01*
X0132484Y0014284D01*
X0134714Y0016513D01*
X0135534Y0017333D01*
X0135534Y0020339D01*
X0137895Y0020339D01*
X0138480Y0020924D01*
X0138480Y0022694D01*
X0141797Y0022694D01*
X0141987Y0022504D01*
X0146753Y0022504D01*
X0147339Y0023090D01*
X0147339Y0028249D01*
X0146753Y0028835D01*
X0141987Y0028835D01*
X0141402Y0028249D01*
X0141402Y0025494D01*
X0136113Y0025494D01*
X0135910Y0025291D01*
X0135534Y0025291D01*
X0135534Y0026485D01*
X0135721Y0026435D01*
X0136693Y0026435D01*
X0137665Y0026435D01*
X0138021Y0026530D01*
X0138340Y0026714D01*
X0138601Y0026975D01*
X0138785Y0027294D01*
X0138880Y0027650D01*
X0138880Y0029311D01*
X0138880Y0030972D01*
X0138785Y0031328D01*
X0138601Y0031647D01*
X0138340Y0031908D01*
X0138021Y0032092D01*
X0137665Y0032187D01*
X0136693Y0032187D01*
X0136693Y0029311D01*
X0136693Y0029311D01*
X0138880Y0029311D01*
X0136693Y0029311D01*
X0136693Y0026435D01*
X0136693Y0029311D01*
X0136693Y0029311D01*
X0136693Y0029311D01*
X0136693Y0032187D01*
X0135721Y0032187D01*
X0135365Y0032092D01*
X0135046Y0031908D01*
X0134926Y0031787D01*
X0132932Y0031787D01*
X0132854Y0031709D01*
X0132776Y0031787D01*
X0130373Y0031787D01*
X0129787Y0031202D01*
X0129787Y0027420D01*
X0130373Y0026835D01*
X0132734Y0026835D01*
X0132734Y0025291D01*
X0130373Y0025291D01*
X0129787Y0024706D01*
X0129787Y0024215D01*
X0129228Y0024215D01*
X0129228Y0025690D01*
X0128643Y0026276D01*
X0128554Y0026276D01*
X0128769Y0026333D01*
X0129088Y0026518D01*
X0129349Y0026778D01*
X0129533Y0027097D01*
X0129628Y0027453D01*
X0129628Y0029403D01*
X0126660Y0029403D01*
X0126660Y0030203D01*
X0129628Y0030203D01*
X0129628Y0031946D01*
X0134714Y0031946D01*
X0135534Y0032767D01*
X0136085Y0033318D01*
X0136085Y0034295D01*
X0136427Y0034295D01*
X0136952Y0034820D01*
X0137087Y0034586D01*
X0137420Y0034253D01*
X0137828Y0034017D01*
X0138283Y0033895D01*
X0139307Y0033895D01*
X0139307Y0042142D01*
X0140063Y0042142D01*
X0140063Y0042897D01*
X0142640Y0042897D01*
X0142640Y0049591D01*
X0142518Y0050046D01*
X0142283Y0050454D01*
X0141950Y0050787D01*
X0141542Y0051022D01*
X0141087Y0051144D01*
X0140063Y0051144D01*
X0140063Y0042897D01*
X0139307Y0042897D01*
X0139307Y0051144D01*
X0138283Y0051144D01*
X0137828Y0051022D01*
X0137420Y0050787D01*
X0137087Y0050454D01*
X0136952Y0050219D01*
X0136427Y0050744D01*
X0132943Y0050744D01*
X0132185Y0049986D01*
X0131427Y0050744D01*
X0131085Y0050744D01*
X0131085Y0052800D01*
X0129486Y0054399D01*
X0128666Y0055219D01*
X0121383Y0055219D01*
X0120592Y0056009D01*
X0118778Y0056009D01*
X0117494Y0054726D01*
X0117494Y0054508D02*
X0102094Y0054508D01*
X0102466Y0053709D02*
X0117494Y0053709D01*
X0117495Y0052911D02*
X0102466Y0052911D01*
X0102257Y0052112D02*
X0118294Y0052112D01*
X0119685Y0053819D02*
X0128086Y0053819D01*
X0129685Y0052220D01*
X0129685Y0042520D01*
X0134685Y0042520D02*
X0134685Y0033898D01*
X0134134Y0033346D01*
X0122323Y0033346D01*
X0118307Y0029331D01*
X0118307Y0012087D01*
X0113923Y0013784D02*
X0112691Y0013784D01*
X0112783Y0014582D02*
X0114254Y0014582D01*
X0113581Y0015381D02*
X0114954Y0015381D01*
X0114380Y0016179D02*
X0115906Y0016179D01*
X0115178Y0016978D02*
X0116907Y0016978D01*
X0116907Y0017776D02*
X0115977Y0017776D01*
X0116085Y0018575D02*
X0116907Y0018575D01*
X0116907Y0019373D02*
X0116085Y0019373D01*
X0116085Y0020172D02*
X0116907Y0020172D01*
X0116907Y0020970D02*
X0116085Y0020970D01*
X0116085Y0021769D02*
X0116907Y0021769D01*
X0116907Y0022567D02*
X0116085Y0022567D01*
X0116085Y0023366D02*
X0116907Y0023366D01*
X0116907Y0024164D02*
X0116085Y0024164D01*
X0116085Y0024963D02*
X0116907Y0024963D01*
X0116907Y0025761D02*
X0116085Y0025761D01*
X0116085Y0026560D02*
X0116907Y0026560D01*
X0116907Y0027358D02*
X0116085Y0027358D01*
X0116085Y0028157D02*
X0116907Y0028157D01*
X0116907Y0028955D02*
X0116085Y0028955D01*
X0116085Y0029754D02*
X0116907Y0029754D01*
X0117549Y0030552D02*
X0116085Y0030552D01*
X0116085Y0031351D02*
X0118347Y0031351D01*
X0119146Y0032149D02*
X0116586Y0032149D01*
X0116876Y0032948D02*
X0119944Y0032948D01*
X0120743Y0033746D02*
X0116876Y0033746D01*
X0116676Y0034545D02*
X0117128Y0034545D01*
X0119307Y0034545D02*
X0120063Y0034545D01*
X0120063Y0035343D02*
X0119307Y0035343D01*
X0119307Y0036142D02*
X0120063Y0036142D01*
X0120063Y0036940D02*
X0119307Y0036940D01*
X0119307Y0037739D02*
X0120063Y0037739D01*
X0120063Y0038537D02*
X0119307Y0038537D01*
X0119307Y0039336D02*
X0120063Y0039336D01*
X0120063Y0040134D02*
X0119307Y0040134D01*
X0119307Y0040933D02*
X0120063Y0040933D01*
X0120063Y0041732D02*
X0119307Y0041732D01*
X0119307Y0043329D02*
X0120063Y0043329D01*
X0120063Y0044127D02*
X0119307Y0044127D01*
X0119307Y0044926D02*
X0120063Y0044926D01*
X0120063Y0045724D02*
X0119307Y0045724D01*
X0119307Y0046523D02*
X0120063Y0046523D01*
X0120063Y0047321D02*
X0119307Y0047321D01*
X0119307Y0048120D02*
X0120063Y0048120D01*
X0120063Y0048918D02*
X0119307Y0048918D01*
X0119307Y0049717D02*
X0120063Y0049717D01*
X0120063Y0050515D02*
X0119307Y0050515D01*
X0117149Y0050515D02*
X0116656Y0050515D01*
X0112715Y0050515D02*
X0111656Y0050515D01*
X0107715Y0050515D02*
X0096945Y0050515D01*
X0096945Y0049717D02*
X0107130Y0049717D01*
X0107130Y0048918D02*
X0096945Y0048918D01*
X0096945Y0048120D02*
X0107130Y0048120D01*
X0107130Y0047321D02*
X0096945Y0047321D01*
X0096945Y0046523D02*
X0107130Y0046523D01*
X0107130Y0045724D02*
X0096945Y0045724D01*
X0096945Y0044926D02*
X0107130Y0044926D01*
X0107130Y0044127D02*
X0096945Y0044127D01*
X0096945Y0043562D02*
X0096359Y0042976D01*
X0090019Y0042976D01*
X0089433Y0043562D01*
X0089433Y0056202D01*
X0090019Y0056787D01*
X0090589Y0056787D01*
X0090589Y0059041D01*
X0086364Y0063266D01*
X0084503Y0063266D01*
X0084503Y0061752D01*
X0083917Y0061166D01*
X0075689Y0061166D01*
X0075103Y0061752D01*
X0075103Y0069980D01*
X0075689Y0070566D01*
X0083917Y0070566D01*
X0084503Y0069980D01*
X0084503Y0068466D01*
X0087958Y0068466D01*
X0088914Y0068070D01*
X0094662Y0062322D01*
X0095393Y0061591D01*
X0095789Y0060635D01*
X0095789Y0056787D01*
X0096359Y0056787D01*
X0096945Y0056202D01*
X0096945Y0043562D01*
X0096711Y0043329D02*
X0107130Y0043329D01*
X0107130Y0042530D02*
X0066114Y0042530D01*
X0065315Y0041732D02*
X0107130Y0041732D01*
X0107130Y0040933D02*
X0064517Y0040933D01*
X0063718Y0040134D02*
X0107102Y0040134D01*
X0106303Y0039336D02*
X0062920Y0039336D01*
X0062121Y0038537D02*
X0105950Y0038537D01*
X0105433Y0037739D02*
X0097071Y0037739D01*
X0097065Y0037749D02*
X0096804Y0038010D01*
X0096485Y0038194D01*
X0096129Y0038290D01*
X0093589Y0038290D01*
X0093589Y0031384D01*
X0097345Y0031384D01*
X0097345Y0037074D01*
X0097249Y0037430D01*
X0097065Y0037749D01*
X0097345Y0036940D02*
X0105102Y0036940D01*
X0105043Y0036142D02*
X0097345Y0036142D01*
X0097345Y0035343D02*
X0105043Y0035343D01*
X0105043Y0034545D02*
X0097345Y0034545D01*
X0097345Y0033746D02*
X0105043Y0033746D01*
X0105043Y0032948D02*
X0097345Y0032948D01*
X0097345Y0032149D02*
X0105043Y0032149D01*
X0105043Y0031351D02*
X0093589Y0031351D01*
X0093589Y0031384D02*
X0093589Y0030584D01*
X0093589Y0023679D01*
X0096129Y0023679D01*
X0096485Y0023774D01*
X0096804Y0023958D01*
X0097065Y0024219D01*
X0097249Y0024538D01*
X0097345Y0024894D01*
X0097345Y0030584D01*
X0093589Y0030584D01*
X0092789Y0030584D01*
X0092789Y0023679D01*
X0090249Y0023679D01*
X0089893Y0023774D01*
X0089573Y0023958D01*
X0089313Y0024219D01*
X0089128Y0024538D01*
X0089033Y0024894D01*
X0089033Y0030584D01*
X0092789Y0030584D01*
X0092789Y0031384D01*
X0089033Y0031384D01*
X0089033Y0037074D01*
X0089128Y0037430D01*
X0089313Y0037749D01*
X0089573Y0038010D01*
X0089893Y0038194D01*
X0090249Y0038290D01*
X0092789Y0038290D01*
X0092789Y0031384D01*
X0093589Y0031384D01*
X0093589Y0032149D02*
X0092789Y0032149D01*
X0092789Y0031351D02*
X0067605Y0031351D01*
X0067605Y0031384D02*
X0071361Y0031384D01*
X0071361Y0037074D01*
X0071265Y0037430D01*
X0071081Y0037749D01*
X0070820Y0038010D01*
X0070501Y0038194D01*
X0070145Y0038290D01*
X0067605Y0038290D01*
X0067605Y0031384D01*
X0067605Y0030584D01*
X0071361Y0030584D01*
X0071361Y0024894D01*
X0071265Y0024538D01*
X0071081Y0024219D01*
X0070820Y0023958D01*
X0070501Y0023774D01*
X0070145Y0023679D01*
X0067605Y0023679D01*
X0067605Y0030584D01*
X0066805Y0030584D01*
X0066805Y0023679D01*
X0064264Y0023679D01*
X0063908Y0023774D01*
X0063589Y0023958D01*
X0063329Y0024219D01*
X0063144Y0024538D01*
X0063049Y0024894D01*
X0063049Y0030584D01*
X0066805Y0030584D01*
X0066805Y0031384D01*
X0066805Y0038290D01*
X0064264Y0038290D01*
X0063908Y0038194D01*
X0063589Y0038010D01*
X0063329Y0037749D01*
X0063144Y0037430D01*
X0063049Y0037074D01*
X0063049Y0031384D01*
X0066805Y0031384D01*
X0067605Y0031384D01*
X0067605Y0032149D02*
X0066805Y0032149D01*
X0066805Y0031351D02*
X0059659Y0031351D01*
X0059956Y0032149D02*
X0063049Y0032149D01*
X0063049Y0032948D02*
X0059956Y0032948D01*
X0059956Y0033746D02*
X0063049Y0033746D01*
X0063049Y0034545D02*
X0059956Y0034545D01*
X0059956Y0035343D02*
X0063049Y0035343D01*
X0063049Y0036142D02*
X0059956Y0036142D01*
X0060524Y0036940D02*
X0063049Y0036940D01*
X0063323Y0037739D02*
X0061323Y0037739D01*
X0058294Y0040933D02*
X0052876Y0040933D01*
X0052876Y0040134D02*
X0057496Y0040134D01*
X0056697Y0039336D02*
X0052876Y0039336D01*
X0052876Y0038537D02*
X0055899Y0038537D01*
X0055556Y0037739D02*
X0052876Y0037739D01*
X0052876Y0036940D02*
X0055556Y0036940D01*
X0055556Y0036142D02*
X0052876Y0036142D01*
X0052876Y0035449D02*
X0052876Y0042142D01*
X0050299Y0042142D01*
X0050299Y0033895D01*
X0051323Y0033895D01*
X0051778Y0034017D01*
X0052186Y0034253D01*
X0052519Y0034586D01*
X0052754Y0034994D01*
X0052876Y0035449D01*
X0052848Y0035343D02*
X0055556Y0035343D01*
X0055556Y0034545D02*
X0052478Y0034545D01*
X0050299Y0034545D02*
X0049544Y0034545D01*
X0049544Y0035343D02*
X0050299Y0035343D01*
X0050299Y0036142D02*
X0049544Y0036142D01*
X0049544Y0036940D02*
X0050299Y0036940D01*
X0050299Y0037739D02*
X0049544Y0037739D01*
X0049544Y0038537D02*
X0050299Y0038537D01*
X0050299Y0039336D02*
X0049544Y0039336D01*
X0049544Y0040134D02*
X0050299Y0040134D01*
X0050299Y0040933D02*
X0049544Y0040933D01*
X0049544Y0041732D02*
X0050299Y0041732D01*
X0050299Y0042530D02*
X0059891Y0042530D01*
X0059093Y0041732D02*
X0052876Y0041732D01*
X0052876Y0043329D02*
X0060690Y0043329D01*
X0061488Y0044127D02*
X0052876Y0044127D01*
X0052876Y0044926D02*
X0062287Y0044926D01*
X0063085Y0045724D02*
X0052876Y0045724D01*
X0052876Y0046523D02*
X0063449Y0046523D01*
X0063449Y0047321D02*
X0052876Y0047321D01*
X0052876Y0048120D02*
X0063449Y0048120D01*
X0063449Y0048918D02*
X0052876Y0048918D01*
X0052843Y0049717D02*
X0063449Y0049717D01*
X0063449Y0050515D02*
X0052457Y0050515D01*
X0050299Y0050515D02*
X0049544Y0050515D01*
X0049544Y0049717D02*
X0050299Y0049717D01*
X0050299Y0048918D02*
X0049544Y0048918D01*
X0049544Y0048120D02*
X0050299Y0048120D01*
X0050299Y0047321D02*
X0049544Y0047321D01*
X0049544Y0046523D02*
X0050299Y0046523D01*
X0050299Y0045724D02*
X0049544Y0045724D01*
X0049544Y0044926D02*
X0050299Y0044926D01*
X0050299Y0044127D02*
X0049544Y0044127D01*
X0049544Y0043329D02*
X0050299Y0043329D01*
X0044921Y0042520D02*
X0044921Y0033780D01*
X0044173Y0033031D01*
X0044173Y0026457D01*
X0049882Y0020748D01*
X0089646Y0020748D01*
X0098307Y0012087D01*
X0102691Y0013784D02*
X0103923Y0013784D01*
X0103607Y0012985D02*
X0103007Y0012985D01*
X0103007Y0012187D02*
X0103607Y0012187D01*
X0103607Y0011388D02*
X0103007Y0011388D01*
X0102774Y0010590D02*
X0103840Y0010590D01*
X0104171Y0009791D02*
X0102443Y0009791D01*
X0101860Y0008993D02*
X0104754Y0008993D01*
X0105553Y0008194D02*
X0101061Y0008194D01*
X0099264Y0007396D02*
X0107351Y0007396D01*
X0109264Y0007396D02*
X0117351Y0007396D01*
X0119264Y0007396D02*
X0127351Y0007396D01*
X0129264Y0007396D02*
X0137351Y0007396D01*
X0137372Y0007387D02*
X0139242Y0007387D01*
X0140969Y0008102D01*
X0142292Y0009424D01*
X0143007Y0011152D01*
X0143007Y0013022D01*
X0142484Y0014284D01*
X0144011Y0015811D01*
X0146753Y0015811D01*
X0147339Y0016397D01*
X0147339Y0021556D01*
X0146753Y0022142D01*
X0141987Y0022142D01*
X0141402Y0021556D01*
X0141402Y0017161D01*
X0140504Y0016264D01*
X0139242Y0016787D01*
X0137372Y0016787D01*
X0135645Y0016071D01*
X0134323Y0014749D01*
X0133607Y0013022D01*
X0133607Y0011152D01*
X0134323Y0009424D01*
X0135645Y0008102D01*
X0137372Y0007387D01*
X0139264Y0007396D02*
X0152956Y0007396D01*
X0152956Y0008194D02*
X0141061Y0008194D01*
X0141860Y0008993D02*
X0152956Y0008993D01*
X0152956Y0009791D02*
X0142443Y0009791D01*
X0142774Y0010590D02*
X0152956Y0010590D01*
X0152956Y0011388D02*
X0143007Y0011388D01*
X0143007Y0012187D02*
X0152956Y0012187D01*
X0152956Y0012985D02*
X0143007Y0012985D01*
X0142691Y0013784D02*
X0152956Y0013784D01*
X0152956Y0014582D02*
X0142782Y0014582D01*
X0143581Y0015381D02*
X0152956Y0015381D01*
X0152956Y0016179D02*
X0147121Y0016179D01*
X0147339Y0016978D02*
X0152956Y0016978D01*
X0152956Y0017776D02*
X0147339Y0017776D01*
X0147339Y0018575D02*
X0152956Y0018575D01*
X0152956Y0019373D02*
X0147339Y0019373D01*
X0147339Y0020172D02*
X0152956Y0020172D01*
X0152956Y0020970D02*
X0147339Y0020970D01*
X0147126Y0021769D02*
X0152956Y0021769D01*
X0152956Y0022567D02*
X0146816Y0022567D01*
X0147339Y0023366D02*
X0152956Y0023366D01*
X0152956Y0024164D02*
X0147339Y0024164D01*
X0147339Y0024963D02*
X0152956Y0024963D01*
X0152956Y0025761D02*
X0147339Y0025761D01*
X0147339Y0026560D02*
X0152956Y0026560D01*
X0152956Y0027358D02*
X0147339Y0027358D01*
X0147339Y0028157D02*
X0152956Y0028157D01*
X0152956Y0028955D02*
X0138880Y0028955D01*
X0138880Y0028157D02*
X0141402Y0028157D01*
X0141402Y0027358D02*
X0138802Y0027358D01*
X0138072Y0026560D02*
X0141402Y0026560D01*
X0141402Y0025761D02*
X0135534Y0025761D01*
X0136693Y0026560D02*
X0136693Y0026560D01*
X0136693Y0027358D02*
X0136693Y0027358D01*
X0136693Y0028157D02*
X0136693Y0028157D01*
X0136693Y0028955D02*
X0136693Y0028955D01*
X0136693Y0029754D02*
X0136693Y0029754D01*
X0136693Y0030552D02*
X0136693Y0030552D01*
X0136693Y0031351D02*
X0136693Y0031351D01*
X0136693Y0032149D02*
X0136693Y0032149D01*
X0137806Y0032149D02*
X0152956Y0032149D01*
X0152956Y0031351D02*
X0138772Y0031351D01*
X0138880Y0030552D02*
X0152956Y0030552D01*
X0152956Y0029754D02*
X0138880Y0029754D01*
X0135579Y0032149D02*
X0134917Y0032149D01*
X0135715Y0032948D02*
X0152956Y0032948D01*
X0152956Y0033746D02*
X0136085Y0033746D01*
X0136676Y0034545D02*
X0137128Y0034545D01*
X0139307Y0034545D02*
X0140063Y0034545D01*
X0140063Y0033895D02*
X0141087Y0033895D01*
X0141542Y0034017D01*
X0141950Y0034253D01*
X0142283Y0034586D01*
X0142518Y0034994D01*
X0142640Y0035449D01*
X0142640Y0042142D01*
X0140063Y0042142D01*
X0140063Y0033895D01*
X0140063Y0035343D02*
X0139307Y0035343D01*
X0139307Y0036142D02*
X0140063Y0036142D01*
X0140063Y0036940D02*
X0139307Y0036940D01*
X0139307Y0037739D02*
X0140063Y0037739D01*
X0140063Y0038537D02*
X0139307Y0038537D01*
X0139307Y0039336D02*
X0140063Y0039336D01*
X0140063Y0040134D02*
X0139307Y0040134D01*
X0139307Y0040933D02*
X0140063Y0040933D01*
X0140063Y0041732D02*
X0139307Y0041732D01*
X0140063Y0042530D02*
X0152956Y0042530D01*
X0152956Y0041732D02*
X0142640Y0041732D01*
X0142640Y0040933D02*
X0152956Y0040933D01*
X0152956Y0040134D02*
X0142640Y0040134D01*
X0142640Y0039336D02*
X0152956Y0039336D01*
X0152956Y0038537D02*
X0142640Y0038537D01*
X0142640Y0037739D02*
X0152956Y0037739D01*
X0152956Y0036940D02*
X0142640Y0036940D01*
X0142640Y0036142D02*
X0152956Y0036142D01*
X0152956Y0035343D02*
X0142612Y0035343D01*
X0142242Y0034545D02*
X0152956Y0034545D01*
X0144370Y0025669D02*
X0144370Y0024094D01*
X0136693Y0024094D01*
X0136693Y0022815D01*
X0138480Y0022567D02*
X0141924Y0022567D01*
X0141614Y0021769D02*
X0138480Y0021769D01*
X0138480Y0020970D02*
X0141402Y0020970D01*
X0141402Y0020172D02*
X0135534Y0020172D01*
X0135534Y0019373D02*
X0141402Y0019373D01*
X0141402Y0018575D02*
X0135534Y0018575D01*
X0135534Y0017776D02*
X0141402Y0017776D01*
X0141218Y0016978D02*
X0135178Y0016978D01*
X0135906Y0016179D02*
X0134380Y0016179D01*
X0134954Y0015381D02*
X0133581Y0015381D01*
X0134254Y0014582D02*
X0132782Y0014582D01*
X0132691Y0013784D02*
X0133923Y0013784D01*
X0133607Y0012985D02*
X0133007Y0012985D01*
X0133007Y0012187D02*
X0133607Y0012187D01*
X0133607Y0011388D02*
X0133007Y0011388D01*
X0132774Y0010590D02*
X0133840Y0010590D01*
X0134171Y0009791D02*
X0132443Y0009791D01*
X0131860Y0008993D02*
X0134754Y0008993D01*
X0135553Y0008194D02*
X0131061Y0008194D01*
X0128307Y0012087D02*
X0134134Y0017913D01*
X0134134Y0029311D01*
X0132734Y0026560D02*
X0129130Y0026560D01*
X0129157Y0025761D02*
X0132734Y0025761D01*
X0130045Y0024963D02*
X0129228Y0024963D01*
X0129603Y0027358D02*
X0129850Y0027358D01*
X0129787Y0028157D02*
X0129628Y0028157D01*
X0129628Y0028955D02*
X0129787Y0028955D01*
X0129787Y0029754D02*
X0126660Y0029754D01*
X0125860Y0029754D02*
X0120710Y0029754D01*
X0121509Y0030552D02*
X0122891Y0030552D01*
X0122891Y0031351D02*
X0122307Y0031351D01*
X0122891Y0028955D02*
X0119912Y0028955D01*
X0119707Y0028157D02*
X0120925Y0028157D01*
X0120132Y0027358D02*
X0119707Y0027358D01*
X0119707Y0026560D02*
X0120132Y0026560D01*
X0120132Y0025761D02*
X0119707Y0025761D01*
X0119707Y0024963D02*
X0120719Y0024963D01*
X0119707Y0024164D02*
X0122635Y0024164D01*
X0123291Y0023366D02*
X0119707Y0023366D01*
X0119707Y0022567D02*
X0123291Y0022567D01*
X0123291Y0021769D02*
X0119707Y0021769D01*
X0119707Y0020970D02*
X0123291Y0020970D01*
X0123650Y0020172D02*
X0119707Y0020172D01*
X0119707Y0019373D02*
X0132734Y0019373D01*
X0132734Y0018575D02*
X0119707Y0018575D01*
X0119707Y0017776D02*
X0132017Y0017776D01*
X0131218Y0016978D02*
X0119707Y0016978D01*
X0120708Y0016179D02*
X0125906Y0016179D01*
X0124954Y0015381D02*
X0121660Y0015381D01*
X0122361Y0014582D02*
X0124254Y0014582D01*
X0123923Y0013784D02*
X0122691Y0013784D01*
X0123007Y0012985D02*
X0123607Y0012985D01*
X0123607Y0012187D02*
X0123007Y0012187D01*
X0123007Y0011388D02*
X0123607Y0011388D01*
X0123840Y0010590D02*
X0122774Y0010590D01*
X0122443Y0009791D02*
X0124171Y0009791D01*
X0124754Y0008993D02*
X0121860Y0008993D01*
X0121061Y0008194D02*
X0125553Y0008194D01*
X0115553Y0008194D02*
X0111061Y0008194D01*
X0111860Y0008993D02*
X0114754Y0008993D01*
X0114171Y0009791D02*
X0112443Y0009791D01*
X0112774Y0010590D02*
X0113840Y0010590D01*
X0113607Y0011388D02*
X0113007Y0011388D01*
X0113007Y0012187D02*
X0113607Y0012187D01*
X0113607Y0012985D02*
X0113007Y0012985D01*
X0108307Y0012087D02*
X0114685Y0018465D01*
X0114685Y0033346D01*
X0112494Y0032948D02*
X0112043Y0032948D01*
X0112043Y0033746D02*
X0112494Y0033746D01*
X0112694Y0034545D02*
X0112043Y0034545D01*
X0112043Y0032149D02*
X0112784Y0032149D01*
X0113285Y0031351D02*
X0112043Y0031351D01*
X0112043Y0030552D02*
X0113285Y0030552D01*
X0113285Y0029754D02*
X0112043Y0029754D01*
X0112043Y0028955D02*
X0113285Y0028955D01*
X0113285Y0028157D02*
X0112043Y0028157D01*
X0112043Y0027358D02*
X0113285Y0027358D01*
X0113285Y0026560D02*
X0112043Y0026560D01*
X0112043Y0025761D02*
X0113285Y0025761D01*
X0113285Y0024963D02*
X0112043Y0024963D01*
X0112043Y0024164D02*
X0113285Y0024164D01*
X0113285Y0023366D02*
X0112043Y0023366D01*
X0112043Y0022567D02*
X0113285Y0022567D01*
X0113285Y0021769D02*
X0112043Y0021769D01*
X0112043Y0020970D02*
X0113285Y0020970D01*
X0113285Y0020172D02*
X0112043Y0020172D01*
X0111762Y0019373D02*
X0113285Y0019373D01*
X0112815Y0018575D02*
X0111320Y0018575D01*
X0112017Y0017776D02*
X0110515Y0017776D01*
X0111218Y0016978D02*
X0095396Y0016978D01*
X0094597Y0017776D02*
X0106572Y0017776D01*
X0105767Y0018575D02*
X0093799Y0018575D01*
X0093000Y0019373D02*
X0105324Y0019373D01*
X0105043Y0020172D02*
X0092202Y0020172D01*
X0091403Y0020970D02*
X0105043Y0020970D01*
X0105043Y0021769D02*
X0090605Y0021769D01*
X0089368Y0024164D02*
X0071026Y0024164D01*
X0071361Y0024963D02*
X0089033Y0024963D01*
X0089033Y0025761D02*
X0071361Y0025761D01*
X0071361Y0026560D02*
X0089033Y0026560D01*
X0089033Y0027358D02*
X0071361Y0027358D01*
X0071361Y0028157D02*
X0089033Y0028157D01*
X0089033Y0028955D02*
X0071361Y0028955D01*
X0071361Y0029754D02*
X0089033Y0029754D01*
X0089033Y0030552D02*
X0071361Y0030552D01*
X0071361Y0032149D02*
X0089033Y0032149D01*
X0089033Y0032948D02*
X0071361Y0032948D01*
X0071361Y0033746D02*
X0089033Y0033746D01*
X0089033Y0034545D02*
X0071361Y0034545D01*
X0071361Y0035343D02*
X0089033Y0035343D01*
X0089033Y0036142D02*
X0071361Y0036142D01*
X0071361Y0036940D02*
X0089033Y0036940D01*
X0089307Y0037739D02*
X0071087Y0037739D01*
X0067605Y0037739D02*
X0066805Y0037739D01*
X0066805Y0036940D02*
X0067605Y0036940D01*
X0067605Y0036142D02*
X0066805Y0036142D01*
X0066805Y0035343D02*
X0067605Y0035343D01*
X0067605Y0034545D02*
X0066805Y0034545D01*
X0066805Y0033746D02*
X0067605Y0033746D01*
X0067605Y0032948D02*
X0066805Y0032948D01*
X0066805Y0030552D02*
X0067605Y0030552D01*
X0067605Y0029754D02*
X0066805Y0029754D01*
X0066805Y0028955D02*
X0067605Y0028955D01*
X0067605Y0028157D02*
X0066805Y0028157D01*
X0066805Y0027358D02*
X0067605Y0027358D01*
X0067605Y0026560D02*
X0066805Y0026560D01*
X0066805Y0025761D02*
X0067605Y0025761D01*
X0067605Y0024963D02*
X0066805Y0024963D01*
X0066805Y0024164D02*
X0067605Y0024164D01*
X0063383Y0024164D02*
X0056413Y0024164D01*
X0056413Y0023366D02*
X0105043Y0023366D01*
X0105043Y0024164D02*
X0097010Y0024164D01*
X0097345Y0024963D02*
X0105043Y0024963D01*
X0105043Y0025761D02*
X0097345Y0025761D01*
X0097345Y0026560D02*
X0105043Y0026560D01*
X0105043Y0027358D02*
X0097345Y0027358D01*
X0097345Y0028157D02*
X0105043Y0028157D01*
X0105043Y0028955D02*
X0097345Y0028955D01*
X0097345Y0029754D02*
X0105043Y0029754D01*
X0105043Y0030552D02*
X0097345Y0030552D01*
X0093589Y0030552D02*
X0092789Y0030552D01*
X0092789Y0029754D02*
X0093589Y0029754D01*
X0093589Y0028955D02*
X0092789Y0028955D01*
X0092789Y0028157D02*
X0093589Y0028157D01*
X0093589Y0027358D02*
X0092789Y0027358D01*
X0092789Y0026560D02*
X0093589Y0026560D01*
X0093589Y0025761D02*
X0092789Y0025761D01*
X0092789Y0024963D02*
X0093589Y0024963D01*
X0093589Y0024164D02*
X0092789Y0024164D01*
X0089839Y0018575D02*
X0083799Y0018575D01*
X0084597Y0017776D02*
X0090638Y0017776D01*
X0091436Y0016978D02*
X0085396Y0016978D01*
X0083033Y0015381D02*
X0081660Y0015381D01*
X0082292Y0014749D02*
X0080969Y0016071D01*
X0079242Y0016787D01*
X0077372Y0016787D01*
X0075645Y0016071D01*
X0074323Y0014749D01*
X0074131Y0014287D01*
X0072483Y0014287D01*
X0072292Y0014749D01*
X0070969Y0016071D01*
X0069242Y0016787D01*
X0067372Y0016787D01*
X0065645Y0016071D01*
X0064323Y0014749D01*
X0063607Y0013022D01*
X0063607Y0011152D01*
X0064323Y0009424D01*
X0065645Y0008102D01*
X0067372Y0007387D01*
X0069242Y0007387D01*
X0070969Y0008102D01*
X0072292Y0009424D01*
X0072483Y0009887D01*
X0074131Y0009887D01*
X0074323Y0009424D01*
X0075645Y0008102D01*
X0077372Y0007387D01*
X0079242Y0007387D01*
X0080969Y0008102D01*
X0082292Y0009424D01*
X0083007Y0011152D01*
X0083007Y0013022D01*
X0082292Y0014749D01*
X0082361Y0014582D02*
X0083832Y0014582D01*
X0083923Y0013784D02*
X0082691Y0013784D01*
X0083007Y0012985D02*
X0083607Y0012985D01*
X0083607Y0012187D02*
X0083007Y0012187D01*
X0083007Y0011388D02*
X0083607Y0011388D01*
X0083840Y0010590D02*
X0082774Y0010590D01*
X0082443Y0009791D02*
X0084171Y0009791D01*
X0084754Y0008993D02*
X0081860Y0008993D01*
X0081061Y0008194D02*
X0085553Y0008194D01*
X0087351Y0007396D02*
X0079264Y0007396D01*
X0077351Y0007396D02*
X0069264Y0007396D01*
X0067351Y0007396D02*
X0060334Y0007396D01*
X0060265Y0007360D02*
X0060980Y0007725D01*
X0061630Y0008197D01*
X0062197Y0008764D01*
X0062669Y0009414D01*
X0063033Y0010129D01*
X0063281Y0010892D01*
X0063407Y0011685D01*
X0063407Y0011687D01*
X0058707Y0011687D01*
X0058707Y0012487D01*
X0057907Y0012487D01*
X0057907Y0017187D01*
X0057906Y0017187D01*
X0057113Y0017061D01*
X0056349Y0016813D01*
X0055634Y0016449D01*
X0054985Y0015977D01*
X0054417Y0015409D01*
X0053945Y0014760D01*
X0053581Y0014044D01*
X0053333Y0013281D01*
X0053307Y0013119D01*
X0053281Y0013281D01*
X0053033Y0014044D01*
X0052669Y0014760D01*
X0052197Y0015409D01*
X0051630Y0015977D01*
X0050980Y0016449D01*
X0050265Y0016813D01*
X0049501Y0017061D01*
X0048708Y0017187D01*
X0048707Y0017187D01*
X0048707Y0012487D01*
X0047907Y0012487D01*
X0047907Y0017187D01*
X0047906Y0017187D01*
X0047113Y0017061D01*
X0046349Y0016813D01*
X0045634Y0016449D01*
X0044985Y0015977D01*
X0044417Y0015409D01*
X0043945Y0014760D01*
X0043581Y0014044D01*
X0043333Y0013281D01*
X0043207Y0012488D01*
X0043207Y0012487D01*
X0047907Y0012487D01*
X0047907Y0011687D01*
X0043207Y0011687D01*
X0043207Y0011685D01*
X0043333Y0010892D01*
X0043581Y0010129D01*
X0043945Y0009414D01*
X0044417Y0008764D01*
X0044985Y0008197D01*
X0045634Y0007725D01*
X0046349Y0007360D01*
X0047113Y0007112D01*
X0047906Y0006987D01*
X0047907Y0006987D01*
X0047907Y0011687D01*
X0048707Y0011687D01*
X0048707Y0012487D01*
X0057907Y0012487D01*
X0057907Y0011687D01*
X0053207Y0011687D01*
X0048707Y0011687D01*
X0048707Y0006987D01*
X0048708Y0006987D01*
X0049501Y0007112D01*
X0050265Y0007360D01*
X0050980Y0007725D01*
X0051630Y0008197D01*
X0052197Y0008764D01*
X0052669Y0009414D01*
X0053033Y0010129D01*
X0053281Y0010892D01*
X0053307Y0011054D01*
X0053333Y0010892D01*
X0053581Y0010129D01*
X0053945Y0009414D01*
X0054417Y0008764D01*
X0054985Y0008197D01*
X0055634Y0007725D01*
X0056349Y0007360D01*
X0057113Y0007112D01*
X0057906Y0006987D01*
X0057907Y0006987D01*
X0057907Y0011687D01*
X0058707Y0011687D01*
X0058707Y0006987D01*
X0058708Y0006987D01*
X0059501Y0007112D01*
X0060265Y0007360D01*
X0058707Y0007396D02*
X0057907Y0007396D01*
X0057907Y0008194D02*
X0058707Y0008194D01*
X0058707Y0008993D02*
X0057907Y0008993D01*
X0057907Y0009791D02*
X0058707Y0009791D01*
X0058707Y0010590D02*
X0057907Y0010590D01*
X0057907Y0011388D02*
X0058707Y0011388D01*
X0058707Y0012187D02*
X0063607Y0012187D01*
X0063407Y0012487D02*
X0063407Y0012488D01*
X0063281Y0013281D01*
X0063033Y0014044D01*
X0062669Y0014760D01*
X0062197Y0015409D01*
X0061630Y0015977D01*
X0060980Y0016449D01*
X0060265Y0016813D01*
X0059501Y0017061D01*
X0058708Y0017187D01*
X0058707Y0017187D01*
X0058707Y0012487D01*
X0063407Y0012487D01*
X0063328Y0012985D02*
X0063607Y0012985D01*
X0063923Y0013784D02*
X0063118Y0013784D01*
X0062759Y0014582D02*
X0064254Y0014582D01*
X0064954Y0015381D02*
X0062218Y0015381D01*
X0061351Y0016179D02*
X0065906Y0016179D01*
X0070708Y0016179D02*
X0075906Y0016179D01*
X0074954Y0015381D02*
X0071660Y0015381D01*
X0072361Y0014582D02*
X0074254Y0014582D01*
X0080708Y0016179D02*
X0082235Y0016179D01*
X0081436Y0016978D02*
X0059758Y0016978D01*
X0058707Y0016978D02*
X0057907Y0016978D01*
X0057907Y0016179D02*
X0058707Y0016179D01*
X0058707Y0015381D02*
X0057907Y0015381D01*
X0057907Y0014582D02*
X0058707Y0014582D01*
X0058707Y0013784D02*
X0057907Y0013784D01*
X0057907Y0012985D02*
X0058707Y0012985D01*
X0057907Y0012187D02*
X0048707Y0012187D01*
X0048707Y0012985D02*
X0047907Y0012985D01*
X0047907Y0012187D02*
X0040437Y0012187D01*
X0040332Y0011388D02*
X0043254Y0011388D01*
X0043431Y0010590D02*
X0040126Y0010590D01*
X0039833Y0009791D02*
X0043753Y0009791D01*
X0044251Y0008993D02*
X0039440Y0008993D01*
X0038926Y0008194D02*
X0044988Y0008194D01*
X0046280Y0007396D02*
X0038253Y0007396D01*
X0043286Y0012985D02*
X0032959Y0012985D01*
X0032959Y0013274D02*
X0040459Y0013274D01*
X0040459Y0013392D01*
X0040324Y0014419D01*
X0040056Y0015419D01*
X0039660Y0016376D01*
X0039142Y0017272D01*
X0038511Y0018094D01*
X0037779Y0018826D01*
X0036957Y0019457D01*
X0036061Y0019975D01*
X0035104Y0020371D01*
X0034104Y0020639D01*
X0033077Y0020774D01*
X0032959Y0020774D01*
X0032959Y0013274D01*
X0032959Y0013784D02*
X0032159Y0013784D01*
X0032159Y0013274D02*
X0032159Y0020774D01*
X0032041Y0020774D01*
X0031015Y0020639D01*
X0030014Y0020371D01*
X0029057Y0019975D01*
X0028161Y0019457D01*
X0027339Y0018826D01*
X0026607Y0018094D01*
X0025976Y0017272D01*
X0025459Y0016376D01*
X0025062Y0015419D01*
X0024794Y0014419D01*
X0024659Y0013392D01*
X0024659Y0013274D01*
X0032159Y0013274D01*
X0032159Y0012985D02*
X0006650Y0012985D01*
X0006650Y0012187D02*
X0024681Y0012187D01*
X0024787Y0011388D02*
X0006650Y0011388D01*
X0006650Y0010590D02*
X0024992Y0010590D01*
X0025285Y0009791D02*
X0006650Y0009791D01*
X0006650Y0008993D02*
X0025678Y0008993D01*
X0026192Y0008194D02*
X0006650Y0008194D01*
X0006650Y0007396D02*
X0026865Y0007396D01*
X0024711Y0013784D02*
X0006650Y0013784D01*
X0006650Y0014582D02*
X0024838Y0014582D01*
X0025052Y0015381D02*
X0006650Y0015381D01*
X0006650Y0016179D02*
X0025377Y0016179D01*
X0025806Y0016978D02*
X0006650Y0016978D01*
X0006650Y0017776D02*
X0017042Y0017776D01*
X0015464Y0018575D02*
X0006650Y0018575D01*
X0006650Y0019373D02*
X0014666Y0019373D01*
X0013867Y0020172D02*
X0006650Y0020172D01*
X0006650Y0020970D02*
X0013381Y0020970D01*
X0013051Y0021769D02*
X0006650Y0021769D01*
X0006650Y0022567D02*
X0012720Y0022567D01*
X0012461Y0023366D02*
X0006650Y0023366D01*
X0006650Y0024164D02*
X0012461Y0024164D01*
X0012461Y0024963D02*
X0006650Y0024963D01*
X0006650Y0025761D02*
X0012461Y0025761D01*
X0012619Y0026560D02*
X0006650Y0026560D01*
X0006650Y0027358D02*
X0012950Y0027358D01*
X0013281Y0028157D02*
X0006650Y0028157D01*
X0006650Y0028955D02*
X0013624Y0028955D01*
X0014423Y0029754D02*
X0006650Y0029754D01*
X0006650Y0030552D02*
X0015221Y0030552D01*
X0015392Y0031351D02*
X0006650Y0031351D01*
X0006650Y0032149D02*
X0015392Y0032149D01*
X0015392Y0032948D02*
X0006650Y0032948D01*
X0006650Y0033746D02*
X0015392Y0033746D01*
X0015392Y0034545D02*
X0006650Y0034545D01*
X0006650Y0035343D02*
X0015392Y0035343D01*
X0015520Y0036142D02*
X0006650Y0036142D01*
X0006650Y0036940D02*
X0015941Y0036940D01*
X0016739Y0037739D02*
X0006650Y0037739D01*
X0006650Y0038537D02*
X0017366Y0038537D01*
X0017366Y0039336D02*
X0006650Y0039336D01*
X0006650Y0040134D02*
X0017366Y0040134D01*
X0017366Y0040933D02*
X0006650Y0040933D01*
X0006650Y0041732D02*
X0017366Y0041732D01*
X0017366Y0042530D02*
X0006650Y0042530D01*
X0006650Y0043329D02*
X0017366Y0043329D01*
X0017366Y0044127D02*
X0006650Y0044127D01*
X0006650Y0044926D02*
X0017366Y0044926D01*
X0017366Y0045724D02*
X0006650Y0045724D01*
X0006650Y0046523D02*
X0017366Y0046523D01*
X0017366Y0047321D02*
X0006650Y0047321D01*
X0006650Y0048120D02*
X0017366Y0048120D01*
X0017366Y0048918D02*
X0006650Y0048918D01*
X0006650Y0049717D02*
X0017366Y0049717D01*
X0017951Y0050515D02*
X0006650Y0050515D01*
X0006650Y0051314D02*
X0038246Y0051314D01*
X0037951Y0050515D02*
X0036892Y0050515D01*
X0037467Y0052112D02*
X0006650Y0052112D01*
X0006650Y0052911D02*
X0037455Y0052911D01*
X0037455Y0053709D02*
X0006650Y0053709D01*
X0006650Y0054508D02*
X0038024Y0054508D01*
X0039646Y0053031D02*
X0039646Y0042520D01*
X0039921Y0042520D01*
X0030299Y0042142D02*
X0030299Y0033895D01*
X0031323Y0033895D01*
X0031778Y0034017D01*
X0032186Y0034253D01*
X0032519Y0034586D01*
X0032654Y0034820D01*
X0033180Y0034295D01*
X0036663Y0034295D01*
X0037421Y0035054D01*
X0038180Y0034295D01*
X0041663Y0034295D01*
X0042421Y0035054D01*
X0043180Y0034295D01*
X0043457Y0034295D01*
X0042773Y0033611D01*
X0042773Y0025877D01*
X0043593Y0025057D01*
X0048077Y0020573D01*
X0044950Y0020573D01*
X0037076Y0028447D01*
X0031800Y0028447D01*
X0027112Y0033136D01*
X0027112Y0034254D01*
X0026867Y0034499D01*
X0027188Y0034820D01*
X0027324Y0034586D01*
X0027657Y0034253D01*
X0028064Y0034017D01*
X0028519Y0033895D01*
X0029544Y0033895D01*
X0029544Y0042142D01*
X0030299Y0042142D01*
X0030299Y0041732D02*
X0029544Y0041732D01*
X0029544Y0040933D02*
X0030299Y0040933D01*
X0030299Y0040134D02*
X0029544Y0040134D01*
X0029544Y0039336D02*
X0030299Y0039336D01*
X0030299Y0038537D02*
X0029544Y0038537D01*
X0029544Y0037739D02*
X0030299Y0037739D01*
X0030299Y0036940D02*
X0029544Y0036940D01*
X0029544Y0036142D02*
X0030299Y0036142D01*
X0030299Y0035343D02*
X0029544Y0035343D01*
X0029544Y0034545D02*
X0030299Y0034545D01*
X0032478Y0034545D02*
X0032930Y0034545D01*
X0036912Y0034545D02*
X0037930Y0034545D01*
X0041912Y0034545D02*
X0042930Y0034545D01*
X0042908Y0033746D02*
X0027112Y0033746D01*
X0027300Y0032948D02*
X0042773Y0032948D01*
X0042773Y0032149D02*
X0028098Y0032149D01*
X0028897Y0031351D02*
X0042773Y0031351D01*
X0042773Y0030552D02*
X0029695Y0030552D01*
X0030494Y0029754D02*
X0042773Y0029754D01*
X0042773Y0028955D02*
X0031292Y0028955D01*
X0031220Y0027047D02*
X0036496Y0027047D01*
X0044370Y0019173D01*
X0081220Y0019173D01*
X0088307Y0012087D01*
X0093007Y0012187D02*
X0093607Y0012187D01*
X0093607Y0012985D02*
X0093007Y0012985D01*
X0092691Y0013784D02*
X0093923Y0013784D01*
X0093832Y0014582D02*
X0092361Y0014582D01*
X0093033Y0015381D02*
X0091660Y0015381D01*
X0092235Y0016179D02*
X0090708Y0016179D01*
X0093007Y0011388D02*
X0093607Y0011388D01*
X0093840Y0010590D02*
X0092774Y0010590D01*
X0092443Y0009791D02*
X0094171Y0009791D01*
X0094754Y0008993D02*
X0091860Y0008993D01*
X0091061Y0008194D02*
X0095553Y0008194D01*
X0097351Y0007396D02*
X0089264Y0007396D01*
X0100708Y0016179D02*
X0105906Y0016179D01*
X0104954Y0015381D02*
X0101660Y0015381D01*
X0102361Y0014582D02*
X0104254Y0014582D01*
X0105043Y0022567D02*
X0056413Y0022567D01*
X0056413Y0024963D02*
X0063049Y0024963D01*
X0063049Y0025761D02*
X0056413Y0025761D01*
X0056413Y0026560D02*
X0063049Y0026560D01*
X0063049Y0027358D02*
X0056413Y0027358D01*
X0056465Y0028157D02*
X0063049Y0028157D01*
X0063049Y0028955D02*
X0057263Y0028955D01*
X0058062Y0029754D02*
X0063049Y0029754D01*
X0063049Y0030552D02*
X0058860Y0030552D01*
X0055033Y0032948D02*
X0046070Y0032948D01*
X0046321Y0033746D02*
X0055556Y0033746D01*
X0054235Y0032149D02*
X0045573Y0032149D01*
X0045573Y0031351D02*
X0053436Y0031351D01*
X0052638Y0030552D02*
X0045573Y0030552D01*
X0045573Y0029754D02*
X0052013Y0029754D01*
X0052013Y0028955D02*
X0045573Y0028955D01*
X0045573Y0028157D02*
X0052013Y0028157D01*
X0052013Y0027358D02*
X0045573Y0027358D01*
X0046050Y0026560D02*
X0052013Y0026560D01*
X0052013Y0025761D02*
X0046848Y0025761D01*
X0047647Y0024963D02*
X0052013Y0024963D01*
X0052013Y0024164D02*
X0048446Y0024164D01*
X0049244Y0023366D02*
X0052013Y0023366D01*
X0052013Y0022567D02*
X0050043Y0022567D01*
X0047680Y0020970D02*
X0044553Y0020970D01*
X0043754Y0021769D02*
X0046881Y0021769D01*
X0046083Y0022567D02*
X0042956Y0022567D01*
X0042157Y0023366D02*
X0045284Y0023366D01*
X0044486Y0024164D02*
X0041359Y0024164D01*
X0040560Y0024963D02*
X0043687Y0024963D01*
X0043593Y0025057D02*
X0043593Y0025057D01*
X0042889Y0025761D02*
X0039762Y0025761D01*
X0038963Y0026560D02*
X0042773Y0026560D01*
X0042773Y0027358D02*
X0038165Y0027358D01*
X0037366Y0028157D02*
X0042773Y0028157D01*
X0037399Y0024164D02*
X0027461Y0024164D01*
X0027461Y0023366D02*
X0038198Y0023366D01*
X0038996Y0022567D02*
X0027201Y0022567D01*
X0026871Y0021769D02*
X0039795Y0021769D01*
X0040593Y0020970D02*
X0026540Y0020970D01*
X0026054Y0020172D02*
X0029534Y0020172D01*
X0028052Y0019373D02*
X0025255Y0019373D01*
X0024457Y0018575D02*
X0027087Y0018575D01*
X0026363Y0017776D02*
X0022880Y0017776D01*
X0032159Y0017776D02*
X0032959Y0017776D01*
X0032959Y0016978D02*
X0032159Y0016978D01*
X0032159Y0016179D02*
X0032959Y0016179D01*
X0032959Y0015381D02*
X0032159Y0015381D01*
X0032159Y0014582D02*
X0032959Y0014582D01*
X0038755Y0017776D02*
X0043787Y0017776D01*
X0042989Y0018575D02*
X0038031Y0018575D01*
X0037066Y0019373D02*
X0042190Y0019373D01*
X0041392Y0020172D02*
X0035585Y0020172D01*
X0032959Y0020172D02*
X0032159Y0020172D01*
X0032159Y0019373D02*
X0032959Y0019373D01*
X0032959Y0018575D02*
X0032159Y0018575D01*
X0039312Y0016978D02*
X0046856Y0016978D01*
X0047907Y0016978D02*
X0048707Y0016978D01*
X0048707Y0016179D02*
X0047907Y0016179D01*
X0047907Y0015381D02*
X0048707Y0015381D01*
X0048707Y0014582D02*
X0047907Y0014582D01*
X0047907Y0013784D02*
X0048707Y0013784D01*
X0048707Y0011388D02*
X0047907Y0011388D01*
X0047907Y0010590D02*
X0048707Y0010590D01*
X0048707Y0009791D02*
X0047907Y0009791D01*
X0047907Y0008993D02*
X0048707Y0008993D01*
X0048707Y0008194D02*
X0047907Y0008194D01*
X0047907Y0007396D02*
X0048707Y0007396D01*
X0050334Y0007396D02*
X0056280Y0007396D01*
X0054988Y0008194D02*
X0051626Y0008194D01*
X0052363Y0008993D02*
X0054251Y0008993D01*
X0053753Y0009791D02*
X0052861Y0009791D01*
X0053183Y0010590D02*
X0053431Y0010590D01*
X0053496Y0013784D02*
X0053118Y0013784D01*
X0052759Y0014582D02*
X0053855Y0014582D01*
X0054396Y0015381D02*
X0052218Y0015381D01*
X0051351Y0016179D02*
X0055263Y0016179D01*
X0056856Y0016978D02*
X0049758Y0016978D01*
X0045263Y0016179D02*
X0039741Y0016179D01*
X0040066Y0015381D02*
X0044396Y0015381D01*
X0043855Y0014582D02*
X0040280Y0014582D01*
X0040407Y0013784D02*
X0043496Y0013784D01*
X0036601Y0024963D02*
X0027461Y0024963D01*
X0027461Y0025761D02*
X0030527Y0025761D01*
X0029728Y0026560D02*
X0027302Y0026560D01*
X0026971Y0027358D02*
X0028929Y0027358D01*
X0028131Y0028157D02*
X0026641Y0028157D01*
X0026297Y0028955D02*
X0027332Y0028955D01*
X0026534Y0029754D02*
X0025498Y0029754D01*
X0025735Y0030552D02*
X0024700Y0030552D01*
X0023819Y0031351D02*
X0023466Y0031351D01*
X0023020Y0032149D02*
X0022121Y0032149D01*
X0022121Y0032948D02*
X0022731Y0032948D01*
X0022731Y0033746D02*
X0022121Y0033746D01*
X0022121Y0034545D02*
X0022930Y0034545D01*
X0024921Y0033346D02*
X0031220Y0027047D01*
X0027364Y0034545D02*
X0026912Y0034545D01*
X0029544Y0043329D02*
X0030299Y0043329D01*
X0030299Y0044127D02*
X0029544Y0044127D01*
X0029544Y0044926D02*
X0030299Y0044926D01*
X0030299Y0045724D02*
X0029544Y0045724D01*
X0029544Y0046523D02*
X0030299Y0046523D01*
X0030299Y0047321D02*
X0029544Y0047321D01*
X0029544Y0048120D02*
X0030299Y0048120D01*
X0030299Y0048918D02*
X0029544Y0048918D01*
X0029544Y0049717D02*
X0030299Y0049717D01*
X0030299Y0050515D02*
X0029544Y0050515D01*
X0027385Y0050515D02*
X0026892Y0050515D01*
X0022951Y0050515D02*
X0021892Y0050515D01*
X0032457Y0050515D02*
X0032951Y0050515D01*
X0041046Y0051314D02*
X0063449Y0051314D01*
X0063449Y0052112D02*
X0041824Y0052112D01*
X0041836Y0052911D02*
X0063449Y0052911D01*
X0063449Y0053709D02*
X0041836Y0053709D01*
X0041267Y0054508D02*
X0063449Y0054508D01*
X0063449Y0055306D02*
X0006650Y0055306D01*
X0006650Y0056105D02*
X0063449Y0056105D01*
X0067367Y0056903D02*
X0006650Y0056903D01*
X0006650Y0057702D02*
X0067367Y0057702D01*
X0067367Y0058500D02*
X0006650Y0058500D01*
X0006650Y0059299D02*
X0067367Y0059299D01*
X0067367Y0060097D02*
X0006650Y0060097D01*
X0006650Y0060896D02*
X0067367Y0060896D01*
X0067367Y0061694D02*
X0006650Y0061694D01*
X0006650Y0062493D02*
X0067367Y0062493D01*
X0067367Y0063291D02*
X0006650Y0063291D01*
X0006650Y0064090D02*
X0068065Y0064090D01*
X0068864Y0064888D02*
X0006650Y0064888D01*
X0006650Y0065687D02*
X0013508Y0065687D01*
X0013508Y0066485D02*
X0006650Y0066485D01*
X0006650Y0067284D02*
X0013508Y0067284D01*
X0013508Y0068082D02*
X0006650Y0068082D01*
X0006650Y0068881D02*
X0013508Y0068881D01*
X0013508Y0069679D02*
X0006650Y0069679D01*
X0006650Y0070478D02*
X0013508Y0070478D01*
X0013508Y0071276D02*
X0006650Y0071276D01*
X0006650Y0072075D02*
X0013508Y0072075D01*
X0013508Y0072873D02*
X0006650Y0072873D01*
X0006650Y0073672D02*
X0013508Y0073672D01*
X0013508Y0074470D02*
X0006650Y0074470D01*
X0006650Y0075269D02*
X0013508Y0075269D01*
X0013508Y0076068D02*
X0006650Y0076068D01*
X0006650Y0076866D02*
X0013508Y0076866D01*
X0013508Y0077665D02*
X0006650Y0077665D01*
X0006650Y0078463D02*
X0013508Y0078463D01*
X0013508Y0079262D02*
X0006650Y0079262D01*
X0006650Y0080060D02*
X0013508Y0080060D01*
X0013508Y0080859D02*
X0006650Y0080859D01*
X0006650Y0081657D02*
X0013508Y0081657D01*
X0013508Y0082456D02*
X0006650Y0082456D01*
X0006650Y0083254D02*
X0013508Y0083254D01*
X0013508Y0084053D02*
X0006650Y0084053D01*
X0006650Y0084851D02*
X0013508Y0084851D01*
X0013508Y0085650D02*
X0006650Y0085650D01*
X0006650Y0086448D02*
X0013508Y0086448D01*
X0013508Y0087247D02*
X0006650Y0087247D01*
X0006650Y0088045D02*
X0013508Y0088045D01*
X0013508Y0088844D02*
X0006650Y0088844D01*
X0006650Y0089642D02*
X0013508Y0089642D01*
X0013508Y0090441D02*
X0006650Y0090441D01*
X0006650Y0091239D02*
X0013508Y0091239D01*
X0013508Y0092038D02*
X0006650Y0092038D01*
X0006650Y0092836D02*
X0013508Y0092836D01*
X0013508Y0093635D02*
X0006650Y0093635D01*
X0006650Y0094433D02*
X0013508Y0094433D01*
X0013508Y0095232D02*
X0006650Y0095232D01*
X0006650Y0096030D02*
X0013508Y0096030D01*
X0013508Y0096829D02*
X0006650Y0096829D01*
X0006650Y0097627D02*
X0013508Y0097627D01*
X0056335Y0070478D02*
X0058837Y0070478D01*
X0060506Y0069679D02*
X0056335Y0069679D01*
X0056335Y0068881D02*
X0069729Y0068881D01*
X0069729Y0069679D02*
X0066029Y0069679D01*
X0067699Y0070478D02*
X0069729Y0070478D01*
X0069729Y0071276D02*
X0068497Y0071276D01*
X0069296Y0072075D02*
X0069729Y0072075D01*
X0074129Y0072075D02*
X0076382Y0072075D01*
X0076481Y0071976D02*
X0075913Y0072544D01*
X0075441Y0073193D01*
X0075077Y0073908D01*
X0074829Y0074672D01*
X0074703Y0075465D01*
X0074703Y0075466D01*
X0079403Y0075466D01*
X0079403Y0076266D01*
X0074703Y0076266D01*
X0074703Y0076268D01*
X0074829Y0077060D01*
X0075077Y0077824D01*
X0075441Y0078539D01*
X0075913Y0079189D01*
X0076481Y0079756D01*
X0077130Y0080228D01*
X0077845Y0080592D01*
X0078609Y0080841D01*
X0079402Y0080966D01*
X0079403Y0080966D01*
X0079403Y0076266D01*
X0080203Y0076266D01*
X0080203Y0080966D01*
X0080205Y0080966D01*
X0080997Y0080841D01*
X0081761Y0080592D01*
X0082476Y0080228D01*
X0083126Y0079756D01*
X0083693Y0079189D01*
X0084165Y0078539D01*
X0084529Y0077824D01*
X0084778Y0077060D01*
X0084903Y0076268D01*
X0084903Y0076266D01*
X0080203Y0076266D01*
X0080203Y0075466D01*
X0080203Y0070766D01*
X0080205Y0070766D01*
X0080997Y0070892D01*
X0081761Y0071140D01*
X0082476Y0071504D01*
X0083126Y0071976D01*
X0083693Y0072544D01*
X0084165Y0073193D01*
X0084529Y0073908D01*
X0084778Y0074672D01*
X0084903Y0075465D01*
X0084903Y0075466D01*
X0080203Y0075466D01*
X0079403Y0075466D01*
X0079403Y0070766D01*
X0079402Y0070766D01*
X0078609Y0070892D01*
X0077845Y0071140D01*
X0077130Y0071504D01*
X0076481Y0071976D01*
X0075673Y0072873D02*
X0074129Y0072873D01*
X0074129Y0073672D02*
X0075197Y0073672D01*
X0074894Y0074470D02*
X0074129Y0074470D01*
X0074129Y0075269D02*
X0074734Y0075269D01*
X0074129Y0076068D02*
X0079403Y0076068D01*
X0079403Y0076866D02*
X0080203Y0076866D01*
X0080203Y0076068D02*
X0085490Y0076068D01*
X0085490Y0076866D02*
X0084808Y0076866D01*
X0084581Y0077665D02*
X0085490Y0077665D01*
X0085226Y0078463D02*
X0084204Y0078463D01*
X0084428Y0079262D02*
X0083620Y0079262D01*
X0083629Y0080060D02*
X0082707Y0080060D01*
X0082831Y0080859D02*
X0080884Y0080859D01*
X0080203Y0080859D02*
X0079403Y0080859D01*
X0078723Y0080859D02*
X0076293Y0080859D01*
X0076899Y0080060D02*
X0075494Y0080060D01*
X0075986Y0079262D02*
X0074696Y0079262D01*
X0074129Y0078463D02*
X0075402Y0078463D01*
X0075025Y0077665D02*
X0074129Y0077665D01*
X0074129Y0076866D02*
X0074798Y0076866D01*
X0079403Y0077665D02*
X0080203Y0077665D01*
X0080203Y0078463D02*
X0079403Y0078463D01*
X0079403Y0079262D02*
X0080203Y0079262D01*
X0080203Y0080060D02*
X0079403Y0080060D01*
X0077683Y0081657D02*
X0077091Y0081657D01*
X0074063Y0084851D02*
X0066539Y0084851D01*
X0067910Y0085650D02*
X0074861Y0085650D01*
X0075103Y0086448D02*
X0068708Y0086448D01*
X0069507Y0087247D02*
X0075288Y0087247D01*
X0075618Y0088045D02*
X0069907Y0088045D01*
X0070238Y0088844D02*
X0076134Y0088844D01*
X0076932Y0089642D02*
X0070569Y0089642D01*
X0070768Y0090441D02*
X0078565Y0090441D01*
X0082750Y0092836D02*
X0083550Y0092836D01*
X0086715Y0096829D02*
X0090947Y0096829D01*
X0091745Y0097627D02*
X0086715Y0097627D01*
X0079803Y0085866D02*
X0086890Y0078780D01*
X0086890Y0072717D01*
X0092992Y0066614D01*
X0096339Y0066614D01*
X0100276Y0062677D01*
X0100276Y0053228D01*
X0098457Y0054508D02*
X0096945Y0054508D01*
X0096945Y0055306D02*
X0098876Y0055306D01*
X0098876Y0056105D02*
X0096945Y0056105D01*
X0095789Y0056903D02*
X0098876Y0056903D01*
X0098876Y0057702D02*
X0095789Y0057702D01*
X0095789Y0058500D02*
X0098876Y0058500D01*
X0098876Y0059299D02*
X0095789Y0059299D01*
X0095789Y0060097D02*
X0098876Y0060097D01*
X0098876Y0060896D02*
X0095681Y0060896D01*
X0095290Y0061694D02*
X0098876Y0061694D01*
X0098480Y0062493D02*
X0094491Y0062493D01*
X0093693Y0063291D02*
X0097682Y0063291D01*
X0096883Y0064090D02*
X0092894Y0064090D01*
X0092096Y0064888D02*
X0094966Y0064888D01*
X0091940Y0065687D02*
X0091297Y0065687D01*
X0091141Y0066485D02*
X0090499Y0066485D01*
X0090343Y0067284D02*
X0089700Y0067284D01*
X0089544Y0068082D02*
X0088885Y0068082D01*
X0088745Y0068881D02*
X0084503Y0068881D01*
X0084503Y0069679D02*
X0087947Y0069679D01*
X0087148Y0070478D02*
X0084006Y0070478D01*
X0083224Y0072075D02*
X0085551Y0072075D01*
X0085490Y0072873D02*
X0083933Y0072873D01*
X0084409Y0073672D02*
X0085490Y0073672D01*
X0085490Y0074470D02*
X0084712Y0074470D01*
X0084872Y0075269D02*
X0085490Y0075269D01*
X0080203Y0075269D02*
X0079403Y0075269D01*
X0079403Y0074470D02*
X0080203Y0074470D01*
X0080203Y0073672D02*
X0079403Y0073672D01*
X0079403Y0072873D02*
X0080203Y0072873D01*
X0080203Y0072075D02*
X0079403Y0072075D01*
X0079403Y0071276D02*
X0080203Y0071276D01*
X0082029Y0071276D02*
X0086350Y0071276D01*
X0093504Y0068082D02*
X0094709Y0068082D01*
X0100044Y0064888D02*
X0152956Y0064888D01*
X0152956Y0064090D02*
X0100843Y0064090D01*
X0090589Y0058500D02*
X0071767Y0058500D01*
X0071767Y0057702D02*
X0090589Y0057702D01*
X0090589Y0056903D02*
X0071767Y0056903D01*
X0071767Y0056105D02*
X0089433Y0056105D01*
X0089433Y0055306D02*
X0071767Y0055306D01*
X0071767Y0054508D02*
X0089433Y0054508D01*
X0089433Y0053709D02*
X0070994Y0053709D01*
X0070961Y0052911D02*
X0089433Y0052911D01*
X0089433Y0052112D02*
X0070961Y0052112D01*
X0070961Y0051314D02*
X0089433Y0051314D01*
X0089433Y0050515D02*
X0070961Y0050515D01*
X0070961Y0049717D02*
X0089433Y0049717D01*
X0089433Y0048918D02*
X0070961Y0048918D01*
X0070961Y0048120D02*
X0089433Y0048120D01*
X0089433Y0047321D02*
X0070961Y0047321D01*
X0070961Y0046523D02*
X0089433Y0046523D01*
X0089433Y0045724D02*
X0070961Y0045724D01*
X0070961Y0044926D02*
X0089433Y0044926D01*
X0089433Y0044127D02*
X0070961Y0044127D01*
X0070727Y0043329D02*
X0089667Y0043329D01*
X0092789Y0037739D02*
X0093589Y0037739D01*
X0093589Y0036940D02*
X0092789Y0036940D01*
X0092789Y0036142D02*
X0093589Y0036142D01*
X0093589Y0035343D02*
X0092789Y0035343D01*
X0092789Y0034545D02*
X0093589Y0034545D01*
X0093589Y0033746D02*
X0092789Y0033746D01*
X0092789Y0032948D02*
X0093589Y0032948D01*
X0096945Y0051314D02*
X0099092Y0051314D01*
X0098294Y0052112D02*
X0096945Y0052112D01*
X0096945Y0052911D02*
X0098085Y0052911D01*
X0098085Y0053709D02*
X0096945Y0053709D01*
X0101459Y0051314D02*
X0128285Y0051314D01*
X0127813Y0052112D02*
X0121076Y0052112D01*
X0122221Y0050515D02*
X0122715Y0050515D01*
X0126656Y0050515D02*
X0127715Y0050515D01*
X0131085Y0051314D02*
X0152956Y0051314D01*
X0152956Y0052112D02*
X0131085Y0052112D01*
X0130974Y0052911D02*
X0152956Y0052911D01*
X0152956Y0053709D02*
X0130176Y0053709D01*
X0129377Y0054508D02*
X0152956Y0054508D01*
X0152956Y0055306D02*
X0121296Y0055306D01*
X0131656Y0050515D02*
X0132715Y0050515D01*
X0136656Y0050515D02*
X0137149Y0050515D01*
X0139307Y0050515D02*
X0140063Y0050515D01*
X0140063Y0049717D02*
X0139307Y0049717D01*
X0139307Y0048918D02*
X0140063Y0048918D01*
X0140063Y0048120D02*
X0139307Y0048120D01*
X0139307Y0047321D02*
X0140063Y0047321D01*
X0140063Y0046523D02*
X0139307Y0046523D01*
X0139307Y0045724D02*
X0140063Y0045724D01*
X0140063Y0044926D02*
X0139307Y0044926D01*
X0139307Y0044127D02*
X0140063Y0044127D01*
X0140063Y0043329D02*
X0139307Y0043329D01*
X0142640Y0043329D02*
X0152956Y0043329D01*
X0152956Y0044127D02*
X0142640Y0044127D01*
X0142640Y0044926D02*
X0152956Y0044926D01*
X0152956Y0045724D02*
X0142640Y0045724D01*
X0142640Y0046523D02*
X0152956Y0046523D01*
X0152956Y0047321D02*
X0142640Y0047321D01*
X0142640Y0048120D02*
X0152956Y0048120D01*
X0152956Y0048918D02*
X0142640Y0048918D01*
X0142606Y0049717D02*
X0152956Y0049717D01*
X0152956Y0050515D02*
X0142221Y0050515D01*
X0146098Y0065687D02*
X0152956Y0065687D01*
X0152956Y0066485D02*
X0146098Y0066485D01*
X0146098Y0067284D02*
X0152956Y0067284D01*
X0152956Y0068082D02*
X0146098Y0068082D01*
X0146098Y0068881D02*
X0152956Y0068881D01*
X0152956Y0069679D02*
X0146098Y0069679D01*
X0146098Y0070478D02*
X0152956Y0070478D01*
X0152956Y0071276D02*
X0146098Y0071276D01*
X0146098Y0072075D02*
X0152956Y0072075D01*
X0152956Y0072873D02*
X0146098Y0072873D01*
X0146098Y0073672D02*
X0152956Y0073672D01*
X0152956Y0074470D02*
X0146098Y0074470D01*
X0146098Y0075269D02*
X0152956Y0075269D01*
X0152956Y0076068D02*
X0146098Y0076068D01*
X0146098Y0076866D02*
X0152956Y0076866D01*
X0152956Y0077665D02*
X0146098Y0077665D01*
X0146098Y0078463D02*
X0152956Y0078463D01*
X0152956Y0079262D02*
X0146098Y0079262D01*
X0146098Y0080060D02*
X0152956Y0080060D01*
X0152956Y0080859D02*
X0146098Y0080859D01*
X0146098Y0081657D02*
X0152956Y0081657D01*
X0152956Y0082456D02*
X0146098Y0082456D01*
X0146098Y0083254D02*
X0152956Y0083254D01*
X0152956Y0084053D02*
X0146098Y0084053D01*
X0146098Y0084851D02*
X0152956Y0084851D01*
X0152956Y0085650D02*
X0146098Y0085650D01*
X0146098Y0086448D02*
X0152956Y0086448D01*
X0152956Y0087247D02*
X0146098Y0087247D01*
X0146098Y0088045D02*
X0152956Y0088045D01*
X0152956Y0088844D02*
X0146098Y0088844D01*
X0146098Y0089642D02*
X0152956Y0089642D01*
X0152956Y0090441D02*
X0146098Y0090441D01*
X0146098Y0091239D02*
X0152956Y0091239D01*
X0152956Y0092038D02*
X0146098Y0092038D01*
X0146098Y0092836D02*
X0152956Y0092836D01*
X0152956Y0093635D02*
X0146098Y0093635D01*
X0146098Y0094433D02*
X0152956Y0094433D01*
X0152956Y0095232D02*
X0146098Y0095232D01*
X0146098Y0096030D02*
X0152956Y0096030D01*
X0152956Y0096829D02*
X0146098Y0096829D01*
X0146098Y0097627D02*
X0152956Y0097627D01*
X0090331Y0059299D02*
X0071767Y0059299D01*
X0071767Y0060097D02*
X0089533Y0060097D01*
X0088734Y0060896D02*
X0071767Y0060896D01*
X0071892Y0061694D02*
X0075161Y0061694D01*
X0075103Y0062493D02*
X0072691Y0062493D01*
X0073489Y0063291D02*
X0075103Y0063291D01*
X0075103Y0064090D02*
X0074129Y0064090D01*
X0074129Y0064888D02*
X0075103Y0064888D01*
X0075103Y0065687D02*
X0074129Y0065687D01*
X0074129Y0066485D02*
X0075103Y0066485D01*
X0075103Y0067284D02*
X0074129Y0067284D01*
X0074129Y0068082D02*
X0075103Y0068082D01*
X0075103Y0068881D02*
X0074129Y0068881D01*
X0074129Y0069679D02*
X0075103Y0069679D01*
X0075601Y0070478D02*
X0074129Y0070478D01*
X0074129Y0071276D02*
X0077577Y0071276D01*
X0069729Y0068082D02*
X0056335Y0068082D01*
X0056335Y0067284D02*
X0069729Y0067284D01*
X0069729Y0066485D02*
X0056335Y0066485D01*
X0056335Y0065687D02*
X0069662Y0065687D01*
X0084503Y0062493D02*
X0087137Y0062493D01*
X0087936Y0061694D02*
X0084446Y0061694D01*
X0070070Y0080859D02*
X0069644Y0080859D01*
X0068871Y0081657D02*
X0070869Y0081657D01*
X0071667Y0082456D02*
X0068072Y0082456D01*
X0066931Y0083254D02*
X0072466Y0083254D01*
X0073264Y0084053D02*
X0065003Y0084053D01*
X0081923Y0081657D02*
X0082032Y0081657D01*
X0047385Y0050515D02*
X0046892Y0050515D01*
X0042951Y0050515D02*
X0041892Y0050515D01*
X0046912Y0034545D02*
X0047364Y0034545D01*
X0063360Y0011388D02*
X0063607Y0011388D01*
X0063840Y0010590D02*
X0063183Y0010590D01*
X0062861Y0009791D02*
X0064171Y0009791D01*
X0064754Y0008993D02*
X0062363Y0008993D01*
X0061626Y0008194D02*
X0065553Y0008194D01*
X0071061Y0008194D02*
X0075553Y0008194D01*
X0074754Y0008993D02*
X0071860Y0008993D01*
X0072443Y0009791D02*
X0074171Y0009791D01*
X0122323Y0026457D02*
X0123701Y0025079D01*
X0124291Y0025079D01*
X0126260Y0023110D01*
X0126260Y0022815D01*
X0131575Y0022815D01*
X0129787Y0020970D02*
X0129228Y0020970D01*
X0128869Y0020172D02*
X0132734Y0020172D01*
X0138307Y0012087D02*
X0144370Y0018150D01*
X0144370Y0018976D01*
X0129787Y0030552D02*
X0129628Y0030552D01*
X0129628Y0031351D02*
X0129937Y0031351D01*
D21*
X0122126Y0029803D03*
X0122323Y0026457D03*
X0114685Y0033346D03*
X0108543Y0025472D03*
X0108543Y0023110D03*
X0108543Y0020748D03*
X0103425Y0016417D03*
X0103425Y0025276D03*
X0098701Y0030984D03*
X0087677Y0030984D03*
X0082165Y0025472D03*
X0073898Y0025472D03*
X0061693Y0023110D03*
X0054213Y0023110D03*
X0051063Y0023110D03*
X0043583Y0023110D03*
X0039252Y0019173D03*
X0041220Y0017205D03*
X0037283Y0021142D03*
X0046732Y0031772D03*
X0039843Y0032953D03*
X0030000Y0032953D03*
X0024921Y0033346D03*
X0016024Y0042402D03*
X0016024Y0045157D03*
X0016024Y0047913D03*
X0019961Y0052244D03*
X0039646Y0053031D03*
X0053031Y0051457D03*
X0053819Y0047913D03*
X0053819Y0045157D03*
X0053819Y0042402D03*
X0065630Y0039646D03*
X0081378Y0043583D03*
X0093189Y0039252D03*
X0097913Y0039646D03*
X0097913Y0042205D03*
X0102835Y0044173D03*
X0102835Y0046732D03*
X0102835Y0049291D03*
X0105787Y0051457D03*
X0100276Y0053228D03*
X0097126Y0057756D03*
X0093189Y0058543D03*
X0089252Y0057756D03*
X0081378Y0051457D03*
X0072717Y0054213D03*
X0074291Y0060906D03*
X0071929Y0064843D03*
X0067205Y0067992D03*
X0066417Y0061693D03*
X0058543Y0061693D03*
X0083937Y0071535D03*
X0085709Y0069764D03*
X0096339Y0066614D03*
X0101063Y0066417D03*
X0103031Y0060118D03*
X0106772Y0056181D03*
X0112480Y0056181D03*
X0119685Y0053819D03*
X0122480Y0051457D03*
X0130591Y0055394D03*
X0139646Y0052244D03*
X0143583Y0048307D03*
X0143583Y0045354D03*
X0143583Y0042402D03*
X0145354Y0030591D03*
X0136496Y0019370D03*
X0145354Y0012480D03*
X0145354Y0009921D03*
X0145354Y0007559D03*
X0123307Y0007559D03*
X0073307Y0015630D03*
X0105394Y0042402D03*
X0112480Y0051457D03*
X0088661Y0080984D03*
X0088661Y0083346D03*
X0088661Y0085709D03*
X0071535Y0096339D03*
X0015236Y0016024D03*
X0015236Y0012087D03*
X0015236Y0008150D03*
D22*
X0026850Y0007165D02*
X0032559Y0012874D01*
X0038268Y0007165D01*
X0032559Y0012874D02*
X0038268Y0018583D01*
X0032559Y0012874D02*
X0026457Y0018976D01*
X0050276Y0036890D02*
X0054213Y0036890D01*
X0053819Y0048110D02*
X0049882Y0048110D01*
X0139843Y0048110D02*
X0143780Y0048110D01*
X0143583Y0036890D02*
X0139646Y0036890D01*
D23*
X0109685Y0039606D02*
X0108150Y0038071D01*
X0108150Y0036496D01*
X0109685Y0039606D02*
X0109685Y0042520D01*
X0071929Y0064843D02*
X0069567Y0062480D01*
X0069567Y0055394D01*
X0067205Y0053031D01*
X0067205Y0049882D01*
X0067205Y0046732D01*
X0057756Y0037283D01*
X0057756Y0032559D01*
X0054213Y0029016D01*
X0054213Y0023110D01*
X0068307Y0012087D02*
X0078307Y0012087D01*
X0019961Y0024685D02*
X0019921Y0024685D01*
X0019921Y0042520D01*
X0071929Y0064843D02*
X0071929Y0079606D01*
X0078189Y0085866D01*
X0079803Y0085866D01*
X0078819Y0085866D01*
D24*
X0079803Y0065866D02*
X0087441Y0065866D01*
X0093189Y0060118D01*
X0093189Y0058543D01*
X0093189Y0049882D01*
X0108150Y0036496D02*
X0108543Y0036102D01*
X0019567Y0036890D02*
X0017992Y0035315D01*
X0017992Y0024685D01*
X0019961Y0024685D01*
D25*
X0108543Y0025472D02*
X0108543Y0023110D01*
X0108543Y0020748D01*
X0108543Y0025472D02*
X0108543Y0036102D01*
D26*
X0096339Y0076654D02*
X0124685Y0076654D01*
X0124685Y0081732D01*
X0063268Y0076654D02*
X0034921Y0076654D01*
X0034921Y0081732D01*
M02*
