G75*
%MOIN*%
%OFA0B0*%
%FSLAX25Y25*%
%IPPOS*%
%LPD*%
%AMOC8*
5,1,8,0,0,1.08239X$1,22.5*
%
%ADD10C,0.05000*%
%ADD11C,0.10000*%
%ADD12R,0.03937X0.08661*%
%ADD13R,0.04724X0.08661*%
%ADD14R,0.12598X0.07874*%
%ADD15C,0.00500*%
%ADD16C,0.00878*%
%ADD17R,0.41227X0.32054*%
%ADD18R,0.05912X0.12211*%
%ADD19C,0.13400*%
%ADD20C,0.07800*%
%ADD21R,0.07800X0.07800*%
%ADD22R,0.01975X0.03353*%
%ADD23R,0.04337X0.04731*%
%ADD24R,0.04731X0.04337*%
D10*
X0018780Y0024882D02*
X0018780Y0035512D01*
X0108543Y0037480D02*
X0108543Y0020748D01*
D11*
X0110512Y0076654D02*
X0096339Y0076654D01*
X0063268Y0076654D02*
X0049882Y0076654D01*
D12*
X0052638Y0045551D03*
D13*
X0142795Y0045551D03*
D14*
X0026260Y0009724D03*
D15*
X0005000Y0005000D02*
X0005000Y0099488D01*
X0154606Y0099488D01*
X0154606Y0005000D01*
X0005000Y0005000D01*
D16*
X0021237Y0035535D02*
X0021237Y0049505D01*
X0021237Y0035535D02*
X0018605Y0035535D01*
X0018605Y0049505D01*
X0021237Y0049505D01*
X0021237Y0036412D02*
X0018605Y0036412D01*
X0018605Y0037289D02*
X0021237Y0037289D01*
X0021237Y0038166D02*
X0018605Y0038166D01*
X0018605Y0039043D02*
X0021237Y0039043D01*
X0021237Y0039920D02*
X0018605Y0039920D01*
X0018605Y0040797D02*
X0021237Y0040797D01*
X0021237Y0041674D02*
X0018605Y0041674D01*
X0018605Y0042551D02*
X0021237Y0042551D01*
X0021237Y0043428D02*
X0018605Y0043428D01*
X0018605Y0044305D02*
X0021237Y0044305D01*
X0021237Y0045182D02*
X0018605Y0045182D01*
X0018605Y0046059D02*
X0021237Y0046059D01*
X0021237Y0046936D02*
X0018605Y0046936D01*
X0018605Y0047813D02*
X0021237Y0047813D01*
X0021237Y0048690D02*
X0018605Y0048690D01*
X0026237Y0049505D02*
X0026237Y0035535D01*
X0023605Y0035535D01*
X0023605Y0049505D01*
X0026237Y0049505D01*
X0026237Y0036412D02*
X0023605Y0036412D01*
X0023605Y0037289D02*
X0026237Y0037289D01*
X0026237Y0038166D02*
X0023605Y0038166D01*
X0023605Y0039043D02*
X0026237Y0039043D01*
X0026237Y0039920D02*
X0023605Y0039920D01*
X0023605Y0040797D02*
X0026237Y0040797D01*
X0026237Y0041674D02*
X0023605Y0041674D01*
X0023605Y0042551D02*
X0026237Y0042551D01*
X0026237Y0043428D02*
X0023605Y0043428D01*
X0023605Y0044305D02*
X0026237Y0044305D01*
X0026237Y0045182D02*
X0023605Y0045182D01*
X0023605Y0046059D02*
X0026237Y0046059D01*
X0026237Y0046936D02*
X0023605Y0046936D01*
X0023605Y0047813D02*
X0026237Y0047813D01*
X0026237Y0048690D02*
X0023605Y0048690D01*
X0031237Y0049505D02*
X0031237Y0035535D01*
X0028605Y0035535D01*
X0028605Y0049505D01*
X0031237Y0049505D01*
X0031237Y0036412D02*
X0028605Y0036412D01*
X0028605Y0037289D02*
X0031237Y0037289D01*
X0031237Y0038166D02*
X0028605Y0038166D01*
X0028605Y0039043D02*
X0031237Y0039043D01*
X0031237Y0039920D02*
X0028605Y0039920D01*
X0028605Y0040797D02*
X0031237Y0040797D01*
X0031237Y0041674D02*
X0028605Y0041674D01*
X0028605Y0042551D02*
X0031237Y0042551D01*
X0031237Y0043428D02*
X0028605Y0043428D01*
X0028605Y0044305D02*
X0031237Y0044305D01*
X0031237Y0045182D02*
X0028605Y0045182D01*
X0028605Y0046059D02*
X0031237Y0046059D01*
X0031237Y0046936D02*
X0028605Y0046936D01*
X0028605Y0047813D02*
X0031237Y0047813D01*
X0031237Y0048690D02*
X0028605Y0048690D01*
X0036237Y0049505D02*
X0036237Y0035535D01*
X0033605Y0035535D01*
X0033605Y0049505D01*
X0036237Y0049505D01*
X0036237Y0036412D02*
X0033605Y0036412D01*
X0033605Y0037289D02*
X0036237Y0037289D01*
X0036237Y0038166D02*
X0033605Y0038166D01*
X0033605Y0039043D02*
X0036237Y0039043D01*
X0036237Y0039920D02*
X0033605Y0039920D01*
X0033605Y0040797D02*
X0036237Y0040797D01*
X0036237Y0041674D02*
X0033605Y0041674D01*
X0033605Y0042551D02*
X0036237Y0042551D01*
X0036237Y0043428D02*
X0033605Y0043428D01*
X0033605Y0044305D02*
X0036237Y0044305D01*
X0036237Y0045182D02*
X0033605Y0045182D01*
X0033605Y0046059D02*
X0036237Y0046059D01*
X0036237Y0046936D02*
X0033605Y0046936D01*
X0033605Y0047813D02*
X0036237Y0047813D01*
X0036237Y0048690D02*
X0033605Y0048690D01*
X0041237Y0049505D02*
X0041237Y0035535D01*
X0038605Y0035535D01*
X0038605Y0049505D01*
X0041237Y0049505D01*
X0041237Y0036412D02*
X0038605Y0036412D01*
X0038605Y0037289D02*
X0041237Y0037289D01*
X0041237Y0038166D02*
X0038605Y0038166D01*
X0038605Y0039043D02*
X0041237Y0039043D01*
X0041237Y0039920D02*
X0038605Y0039920D01*
X0038605Y0040797D02*
X0041237Y0040797D01*
X0041237Y0041674D02*
X0038605Y0041674D01*
X0038605Y0042551D02*
X0041237Y0042551D01*
X0041237Y0043428D02*
X0038605Y0043428D01*
X0038605Y0044305D02*
X0041237Y0044305D01*
X0041237Y0045182D02*
X0038605Y0045182D01*
X0038605Y0046059D02*
X0041237Y0046059D01*
X0041237Y0046936D02*
X0038605Y0046936D01*
X0038605Y0047813D02*
X0041237Y0047813D01*
X0041237Y0048690D02*
X0038605Y0048690D01*
X0046237Y0049505D02*
X0046237Y0035535D01*
X0043605Y0035535D01*
X0043605Y0049505D01*
X0046237Y0049505D01*
X0046237Y0036412D02*
X0043605Y0036412D01*
X0043605Y0037289D02*
X0046237Y0037289D01*
X0046237Y0038166D02*
X0043605Y0038166D01*
X0043605Y0039043D02*
X0046237Y0039043D01*
X0046237Y0039920D02*
X0043605Y0039920D01*
X0043605Y0040797D02*
X0046237Y0040797D01*
X0046237Y0041674D02*
X0043605Y0041674D01*
X0043605Y0042551D02*
X0046237Y0042551D01*
X0046237Y0043428D02*
X0043605Y0043428D01*
X0043605Y0044305D02*
X0046237Y0044305D01*
X0046237Y0045182D02*
X0043605Y0045182D01*
X0043605Y0046059D02*
X0046237Y0046059D01*
X0046237Y0046936D02*
X0043605Y0046936D01*
X0043605Y0047813D02*
X0046237Y0047813D01*
X0046237Y0048690D02*
X0043605Y0048690D01*
X0051237Y0049505D02*
X0051237Y0035535D01*
X0048605Y0035535D01*
X0048605Y0049505D01*
X0051237Y0049505D01*
X0051237Y0036412D02*
X0048605Y0036412D01*
X0048605Y0037289D02*
X0051237Y0037289D01*
X0051237Y0038166D02*
X0048605Y0038166D01*
X0048605Y0039043D02*
X0051237Y0039043D01*
X0051237Y0039920D02*
X0048605Y0039920D01*
X0048605Y0040797D02*
X0051237Y0040797D01*
X0051237Y0041674D02*
X0048605Y0041674D01*
X0048605Y0042551D02*
X0051237Y0042551D01*
X0051237Y0043428D02*
X0048605Y0043428D01*
X0048605Y0044305D02*
X0051237Y0044305D01*
X0051237Y0045182D02*
X0048605Y0045182D01*
X0048605Y0046059D02*
X0051237Y0046059D01*
X0051237Y0046936D02*
X0048605Y0046936D01*
X0048605Y0047813D02*
X0051237Y0047813D01*
X0051237Y0048690D02*
X0048605Y0048690D01*
X0111001Y0049505D02*
X0111001Y0035535D01*
X0108369Y0035535D01*
X0108369Y0049505D01*
X0111001Y0049505D01*
X0111001Y0036412D02*
X0108369Y0036412D01*
X0108369Y0037289D02*
X0111001Y0037289D01*
X0111001Y0038166D02*
X0108369Y0038166D01*
X0108369Y0039043D02*
X0111001Y0039043D01*
X0111001Y0039920D02*
X0108369Y0039920D01*
X0108369Y0040797D02*
X0111001Y0040797D01*
X0111001Y0041674D02*
X0108369Y0041674D01*
X0108369Y0042551D02*
X0111001Y0042551D01*
X0111001Y0043428D02*
X0108369Y0043428D01*
X0108369Y0044305D02*
X0111001Y0044305D01*
X0111001Y0045182D02*
X0108369Y0045182D01*
X0108369Y0046059D02*
X0111001Y0046059D01*
X0111001Y0046936D02*
X0108369Y0046936D01*
X0108369Y0047813D02*
X0111001Y0047813D01*
X0111001Y0048690D02*
X0108369Y0048690D01*
X0116001Y0049505D02*
X0116001Y0035535D01*
X0113369Y0035535D01*
X0113369Y0049505D01*
X0116001Y0049505D01*
X0116001Y0036412D02*
X0113369Y0036412D01*
X0113369Y0037289D02*
X0116001Y0037289D01*
X0116001Y0038166D02*
X0113369Y0038166D01*
X0113369Y0039043D02*
X0116001Y0039043D01*
X0116001Y0039920D02*
X0113369Y0039920D01*
X0113369Y0040797D02*
X0116001Y0040797D01*
X0116001Y0041674D02*
X0113369Y0041674D01*
X0113369Y0042551D02*
X0116001Y0042551D01*
X0116001Y0043428D02*
X0113369Y0043428D01*
X0113369Y0044305D02*
X0116001Y0044305D01*
X0116001Y0045182D02*
X0113369Y0045182D01*
X0113369Y0046059D02*
X0116001Y0046059D01*
X0116001Y0046936D02*
X0113369Y0046936D01*
X0113369Y0047813D02*
X0116001Y0047813D01*
X0116001Y0048690D02*
X0113369Y0048690D01*
X0121001Y0049505D02*
X0121001Y0035535D01*
X0118369Y0035535D01*
X0118369Y0049505D01*
X0121001Y0049505D01*
X0121001Y0036412D02*
X0118369Y0036412D01*
X0118369Y0037289D02*
X0121001Y0037289D01*
X0121001Y0038166D02*
X0118369Y0038166D01*
X0118369Y0039043D02*
X0121001Y0039043D01*
X0121001Y0039920D02*
X0118369Y0039920D01*
X0118369Y0040797D02*
X0121001Y0040797D01*
X0121001Y0041674D02*
X0118369Y0041674D01*
X0118369Y0042551D02*
X0121001Y0042551D01*
X0121001Y0043428D02*
X0118369Y0043428D01*
X0118369Y0044305D02*
X0121001Y0044305D01*
X0121001Y0045182D02*
X0118369Y0045182D01*
X0118369Y0046059D02*
X0121001Y0046059D01*
X0121001Y0046936D02*
X0118369Y0046936D01*
X0118369Y0047813D02*
X0121001Y0047813D01*
X0121001Y0048690D02*
X0118369Y0048690D01*
X0126001Y0049505D02*
X0126001Y0035535D01*
X0123369Y0035535D01*
X0123369Y0049505D01*
X0126001Y0049505D01*
X0126001Y0036412D02*
X0123369Y0036412D01*
X0123369Y0037289D02*
X0126001Y0037289D01*
X0126001Y0038166D02*
X0123369Y0038166D01*
X0123369Y0039043D02*
X0126001Y0039043D01*
X0126001Y0039920D02*
X0123369Y0039920D01*
X0123369Y0040797D02*
X0126001Y0040797D01*
X0126001Y0041674D02*
X0123369Y0041674D01*
X0123369Y0042551D02*
X0126001Y0042551D01*
X0126001Y0043428D02*
X0123369Y0043428D01*
X0123369Y0044305D02*
X0126001Y0044305D01*
X0126001Y0045182D02*
X0123369Y0045182D01*
X0123369Y0046059D02*
X0126001Y0046059D01*
X0126001Y0046936D02*
X0123369Y0046936D01*
X0123369Y0047813D02*
X0126001Y0047813D01*
X0126001Y0048690D02*
X0123369Y0048690D01*
X0131001Y0049505D02*
X0131001Y0035535D01*
X0128369Y0035535D01*
X0128369Y0049505D01*
X0131001Y0049505D01*
X0131001Y0036412D02*
X0128369Y0036412D01*
X0128369Y0037289D02*
X0131001Y0037289D01*
X0131001Y0038166D02*
X0128369Y0038166D01*
X0128369Y0039043D02*
X0131001Y0039043D01*
X0131001Y0039920D02*
X0128369Y0039920D01*
X0128369Y0040797D02*
X0131001Y0040797D01*
X0131001Y0041674D02*
X0128369Y0041674D01*
X0128369Y0042551D02*
X0131001Y0042551D01*
X0131001Y0043428D02*
X0128369Y0043428D01*
X0128369Y0044305D02*
X0131001Y0044305D01*
X0131001Y0045182D02*
X0128369Y0045182D01*
X0128369Y0046059D02*
X0131001Y0046059D01*
X0131001Y0046936D02*
X0128369Y0046936D01*
X0128369Y0047813D02*
X0131001Y0047813D01*
X0131001Y0048690D02*
X0128369Y0048690D01*
X0136001Y0049505D02*
X0136001Y0035535D01*
X0133369Y0035535D01*
X0133369Y0049505D01*
X0136001Y0049505D01*
X0136001Y0036412D02*
X0133369Y0036412D01*
X0133369Y0037289D02*
X0136001Y0037289D01*
X0136001Y0038166D02*
X0133369Y0038166D01*
X0133369Y0039043D02*
X0136001Y0039043D01*
X0136001Y0039920D02*
X0133369Y0039920D01*
X0133369Y0040797D02*
X0136001Y0040797D01*
X0136001Y0041674D02*
X0133369Y0041674D01*
X0133369Y0042551D02*
X0136001Y0042551D01*
X0136001Y0043428D02*
X0133369Y0043428D01*
X0133369Y0044305D02*
X0136001Y0044305D01*
X0136001Y0045182D02*
X0133369Y0045182D01*
X0133369Y0046059D02*
X0136001Y0046059D01*
X0136001Y0046936D02*
X0133369Y0046936D01*
X0133369Y0047813D02*
X0136001Y0047813D01*
X0136001Y0048690D02*
X0133369Y0048690D01*
X0141001Y0049505D02*
X0141001Y0035535D01*
X0138369Y0035535D01*
X0138369Y0049505D01*
X0141001Y0049505D01*
X0141001Y0036412D02*
X0138369Y0036412D01*
X0138369Y0037289D02*
X0141001Y0037289D01*
X0141001Y0038166D02*
X0138369Y0038166D01*
X0138369Y0039043D02*
X0141001Y0039043D01*
X0141001Y0039920D02*
X0138369Y0039920D01*
X0138369Y0040797D02*
X0141001Y0040797D01*
X0141001Y0041674D02*
X0138369Y0041674D01*
X0138369Y0042551D02*
X0141001Y0042551D01*
X0141001Y0043428D02*
X0138369Y0043428D01*
X0138369Y0044305D02*
X0141001Y0044305D01*
X0141001Y0045182D02*
X0138369Y0045182D01*
X0138369Y0046059D02*
X0141001Y0046059D01*
X0141001Y0046936D02*
X0138369Y0046936D01*
X0138369Y0047813D02*
X0141001Y0047813D01*
X0141001Y0048690D02*
X0138369Y0048690D01*
D17*
X0124685Y0081732D03*
X0034921Y0081732D03*
D18*
X0067205Y0049882D03*
X0093189Y0049882D03*
X0093189Y0030984D03*
X0067205Y0030984D03*
D19*
X0032559Y0012874D03*
X0019961Y0024685D03*
X0063268Y0076654D03*
X0063268Y0091614D03*
X0096339Y0091614D03*
X0096339Y0076654D03*
D20*
X0079803Y0075866D03*
X0079803Y0085866D03*
X0078307Y0012087D03*
X0088307Y0012087D03*
X0098307Y0012087D03*
X0108307Y0012087D03*
X0118307Y0012087D03*
X0128307Y0012087D03*
X0138307Y0012087D03*
X0068307Y0012087D03*
X0058307Y0012087D03*
X0048307Y0012087D03*
D21*
X0079803Y0065866D03*
D22*
X0131575Y0029311D03*
X0134134Y0029311D03*
X0136693Y0029311D03*
X0136693Y0022815D03*
X0131575Y0022815D03*
D23*
X0126260Y0023110D03*
X0126260Y0029803D03*
X0144370Y0025669D03*
X0144370Y0018976D03*
D24*
X0083150Y0096142D03*
X0076457Y0096142D03*
M02*
