%
M48
M72
T01C0.0118
T02C0.0394
T03C0.0400
T04C0.0787
%
T01
X4358Y2311
X3984Y3295
X6169Y2311
X4122Y1720
X3925Y1917
X3728Y2114
X1602Y4240
X1996Y5224
X5382Y4240
X5303Y5146
X9319Y3925
X8768Y3098
X9870Y3098
X7390Y2547
X7272Y5421
X5854Y6169
X6642Y6169
X8925Y5776
X9713Y5776
X10303Y6012
X10579Y5146
X10539Y4240
X13965Y5224
X14358Y4240
X14535Y3059
X12213Y2980
X3000Y3295
X5106Y2311
X10283Y4929
X10283Y4673
X10283Y4417
X9791Y4220
X9791Y3965
X7429Y6091
X6720Y6799
X6563Y3965
X8217Y2547
X14358Y4831
X10106Y6642
X8138Y5146
X8138Y4358
X11248Y5146
X11248Y5618
X10677Y5618
X14535Y756
X14535Y992
X14535Y1248
X13650Y1937
X12331Y756
X12248Y5146
X13059Y5539
X8866Y8098
X8866Y8335
X8866Y8571
X8571Y6976
X8394Y7154
X4673Y3177
X1602Y4791
X1524Y1602
X1524Y815
X1524Y1209
X10343Y1642
X10343Y2528
X7331Y1563
X1602Y4516
X5382Y4516
X5382Y4791
X14358Y4535
X5421Y2311
X7193Y6484
X9634Y6661
X10028Y5323
X12232Y2646
X3965Y5303
X11969Y5382
X10854Y2075
X10854Y2311
X10854Y2547
X9319Y5854
X2492Y3335
X11469Y3335
X7154Y9634
T02
X7980Y6587
X7980Y7587
X7980Y8587
T03
X4831Y1209
X5831Y1209
X6831Y1209
X7831Y1209
X8831Y1209
X9831Y1209
X10831Y1209
X11831Y1209
X12831Y1209
X13831Y1209
T04
X1996Y2469
X3256Y1287
X6327Y9161
X9634Y9161
X6327Y7665
X9634Y7665
M30
