G75*
%MOIN*%
%OFA0B0*%
%FSLAX25Y25*%
%IPPOS*%
%LPD*%
%AMOC8*
5,1,8,0,0,1.08239X$1,22.5*
%
%ADD10C,0.00500*%
%ADD11C,0.00787*%
%ADD12R,0.03000X0.01800*%
%ADD13C,0.00300*%
%ADD14C,0.00400*%
%ADD15C,0.00800*%
D10*
X0005000Y0005000D02*
X0005000Y0099488D01*
X0154606Y0099488D01*
X0154606Y0005000D01*
X0005000Y0005000D01*
X0012874Y0005000D02*
X0012874Y0009265D01*
X0012874Y0013202D02*
X0012874Y0017467D01*
X0012874Y0021404D02*
X0012874Y0025669D01*
X0012874Y0029606D02*
X0012874Y0033871D01*
X0012874Y0037808D02*
X0012874Y0042073D01*
X0012874Y0046010D02*
X0012874Y0050276D01*
X0012874Y0054213D02*
X0012874Y0058478D01*
X0015236Y0056220D02*
X0054606Y0056220D01*
X0054606Y0064669D01*
X0015236Y0064669D02*
X0015236Y0056220D01*
X0012874Y0062415D02*
X0012874Y0066680D01*
X0012874Y0070617D02*
X0012874Y0074882D01*
X0012874Y0078819D02*
X0012874Y0083084D01*
X0012874Y0087021D02*
X0012874Y0091286D01*
X0012874Y0095223D02*
X0012874Y0099488D01*
X0079134Y0098150D02*
X0079134Y0096339D01*
X0080354Y0097259D01*
X0079134Y0096339D02*
X0079134Y0094528D01*
X0080354Y0095479D02*
X0079194Y0096239D01*
X0105000Y0064669D02*
X0105000Y0056220D01*
X0144370Y0056220D01*
X0144370Y0064669D01*
X0146732Y0066680D02*
X0146732Y0062415D01*
X0146732Y0058478D02*
X0146732Y0054213D01*
X0146732Y0050276D02*
X0146732Y0046010D01*
X0146732Y0042073D02*
X0146732Y0037808D01*
X0146732Y0033871D02*
X0146732Y0029606D01*
X0146142Y0025866D02*
X0146142Y0020354D01*
X0141024Y0020354D01*
X0141024Y0025866D01*
X0146732Y0025669D02*
X0146732Y0021404D01*
X0146142Y0020354D02*
X0146142Y0018780D01*
X0146732Y0017467D02*
X0146732Y0013202D01*
X0146732Y0009265D02*
X0146732Y0005000D01*
X0141024Y0018780D02*
X0141024Y0020354D01*
X0101850Y0032165D02*
X0097126Y0032165D01*
X0089252Y0032165D02*
X0084528Y0032165D01*
X0146732Y0070617D02*
X0146732Y0074882D01*
X0146732Y0078819D02*
X0146732Y0083084D01*
X0146732Y0087021D02*
X0146732Y0091286D01*
X0146732Y0095223D02*
X0146732Y0099488D01*
D11*
X0109291Y0032953D02*
X0109293Y0032992D01*
X0109299Y0033031D01*
X0109309Y0033069D01*
X0109322Y0033106D01*
X0109339Y0033141D01*
X0109359Y0033175D01*
X0109383Y0033206D01*
X0109410Y0033235D01*
X0109439Y0033261D01*
X0109471Y0033284D01*
X0109505Y0033304D01*
X0109541Y0033320D01*
X0109578Y0033332D01*
X0109617Y0033341D01*
X0109656Y0033346D01*
X0109695Y0033347D01*
X0109734Y0033344D01*
X0109773Y0033337D01*
X0109810Y0033326D01*
X0109847Y0033312D01*
X0109882Y0033294D01*
X0109915Y0033273D01*
X0109946Y0033248D01*
X0109974Y0033221D01*
X0109999Y0033191D01*
X0110021Y0033158D01*
X0110040Y0033124D01*
X0110055Y0033088D01*
X0110067Y0033050D01*
X0110075Y0033012D01*
X0110079Y0032973D01*
X0110079Y0032933D01*
X0110075Y0032894D01*
X0110067Y0032856D01*
X0110055Y0032818D01*
X0110040Y0032782D01*
X0110021Y0032748D01*
X0109999Y0032715D01*
X0109974Y0032685D01*
X0109946Y0032658D01*
X0109915Y0032633D01*
X0109882Y0032612D01*
X0109847Y0032594D01*
X0109810Y0032580D01*
X0109773Y0032569D01*
X0109734Y0032562D01*
X0109695Y0032559D01*
X0109656Y0032560D01*
X0109617Y0032565D01*
X0109578Y0032574D01*
X0109541Y0032586D01*
X0109505Y0032602D01*
X0109471Y0032622D01*
X0109439Y0032645D01*
X0109410Y0032671D01*
X0109383Y0032700D01*
X0109359Y0032731D01*
X0109339Y0032765D01*
X0109322Y0032800D01*
X0109309Y0032837D01*
X0109299Y0032875D01*
X0109293Y0032914D01*
X0109291Y0032953D01*
X0019527Y0032953D02*
X0019529Y0032992D01*
X0019535Y0033031D01*
X0019545Y0033069D01*
X0019558Y0033106D01*
X0019575Y0033141D01*
X0019595Y0033175D01*
X0019619Y0033206D01*
X0019646Y0033235D01*
X0019675Y0033261D01*
X0019707Y0033284D01*
X0019741Y0033304D01*
X0019777Y0033320D01*
X0019814Y0033332D01*
X0019853Y0033341D01*
X0019892Y0033346D01*
X0019931Y0033347D01*
X0019970Y0033344D01*
X0020009Y0033337D01*
X0020046Y0033326D01*
X0020083Y0033312D01*
X0020118Y0033294D01*
X0020151Y0033273D01*
X0020182Y0033248D01*
X0020210Y0033221D01*
X0020235Y0033191D01*
X0020257Y0033158D01*
X0020276Y0033124D01*
X0020291Y0033088D01*
X0020303Y0033050D01*
X0020311Y0033012D01*
X0020315Y0032973D01*
X0020315Y0032933D01*
X0020311Y0032894D01*
X0020303Y0032856D01*
X0020291Y0032818D01*
X0020276Y0032782D01*
X0020257Y0032748D01*
X0020235Y0032715D01*
X0020210Y0032685D01*
X0020182Y0032658D01*
X0020151Y0032633D01*
X0020118Y0032612D01*
X0020083Y0032594D01*
X0020046Y0032580D01*
X0020009Y0032569D01*
X0019970Y0032562D01*
X0019931Y0032559D01*
X0019892Y0032560D01*
X0019853Y0032565D01*
X0019814Y0032574D01*
X0019777Y0032586D01*
X0019741Y0032602D01*
X0019707Y0032622D01*
X0019675Y0032645D01*
X0019646Y0032671D01*
X0019619Y0032700D01*
X0019595Y0032731D01*
X0019575Y0032765D01*
X0019558Y0032800D01*
X0019545Y0032837D01*
X0019535Y0032875D01*
X0019529Y0032914D01*
X0019527Y0032953D01*
D12*
X0062480Y0061693D03*
D13*
X0059527Y0063461D02*
X0056625Y0063461D01*
X0056625Y0064912D01*
X0057108Y0065396D01*
X0058076Y0065396D01*
X0058560Y0064912D01*
X0058560Y0063461D01*
X0058560Y0064429D02*
X0059527Y0065396D01*
X0059527Y0066408D02*
X0059527Y0068343D01*
X0059527Y0067375D02*
X0056625Y0067375D01*
X0057592Y0066408D01*
X0074423Y0090539D02*
X0076358Y0090539D01*
X0077370Y0090539D02*
X0079304Y0090539D01*
X0080316Y0090539D02*
X0081767Y0090539D01*
X0082251Y0091022D01*
X0082251Y0092957D01*
X0081767Y0093441D01*
X0080316Y0093441D01*
X0080316Y0090539D01*
X0078337Y0091990D02*
X0077370Y0091990D01*
X0077370Y0093441D02*
X0077370Y0090539D01*
X0077370Y0093441D02*
X0079304Y0093441D01*
X0083263Y0092474D02*
X0084230Y0093441D01*
X0084230Y0090539D01*
X0083263Y0090539D02*
X0085198Y0090539D01*
X0074423Y0090539D02*
X0074423Y0093441D01*
X0075769Y0041427D02*
X0075769Y0038525D01*
X0074802Y0038525D02*
X0076737Y0038525D01*
X0074802Y0040460D02*
X0075769Y0041427D01*
X0071855Y0041427D02*
X0071855Y0038525D01*
X0073790Y0038525D01*
X0084625Y0038198D02*
X0085592Y0037230D01*
X0085108Y0036219D02*
X0084625Y0035735D01*
X0084625Y0034768D01*
X0085108Y0034284D01*
X0087043Y0034284D01*
X0087527Y0034768D01*
X0087527Y0035735D01*
X0087043Y0036219D01*
X0087527Y0037230D02*
X0087527Y0039165D01*
X0087527Y0038198D02*
X0084625Y0038198D01*
X0147730Y0023994D02*
X0150633Y0023994D01*
X0150633Y0024961D02*
X0150633Y0023026D01*
X0150149Y0022015D02*
X0148214Y0022015D01*
X0147730Y0021531D01*
X0147730Y0020080D01*
X0150633Y0020080D01*
X0150633Y0021531D01*
X0150149Y0022015D01*
X0148698Y0023026D02*
X0147730Y0023994D01*
D14*
X0105984Y0027638D02*
X0096929Y0027638D01*
X0089449Y0027638D02*
X0080394Y0027638D01*
X0080394Y0046535D01*
X0087087Y0053228D01*
X0089449Y0053228D01*
X0096929Y0053228D02*
X0099291Y0053228D01*
X0105984Y0046535D01*
X0105984Y0027638D01*
X0089449Y0028818D02*
X0089166Y0028913D01*
X0088885Y0029015D01*
X0088608Y0029124D01*
X0088332Y0029239D01*
X0088060Y0029361D01*
X0087791Y0029490D01*
X0087525Y0029625D01*
X0087263Y0029767D01*
X0087004Y0029915D01*
X0086748Y0030069D01*
X0086497Y0030230D01*
X0086249Y0030397D01*
X0086006Y0030569D01*
X0085767Y0030748D01*
X0085532Y0030932D01*
X0085302Y0031122D01*
X0085077Y0031318D01*
X0084857Y0031519D01*
X0084641Y0031725D01*
X0084431Y0031937D01*
X0084226Y0032153D01*
X0084026Y0032375D01*
X0083832Y0032602D01*
X0083643Y0032833D01*
X0083460Y0033068D01*
X0083283Y0033308D01*
X0083112Y0033553D01*
X0082947Y0033801D01*
X0082788Y0034054D01*
X0082635Y0034310D01*
X0082488Y0034570D01*
X0082348Y0034833D01*
X0082214Y0035100D01*
X0082087Y0035370D01*
X0081967Y0035643D01*
X0081853Y0035918D01*
X0081746Y0036197D01*
X0081646Y0036478D01*
X0081553Y0036761D01*
X0081466Y0037047D01*
X0081387Y0037335D01*
X0081315Y0037624D01*
X0081250Y0037915D01*
X0081192Y0038208D01*
X0081141Y0038502D01*
X0081097Y0038797D01*
X0081061Y0039093D01*
X0081032Y0039390D01*
X0081010Y0039688D01*
X0080995Y0039986D01*
X0080988Y0040284D01*
X0080988Y0040582D01*
X0080995Y0040880D01*
X0081010Y0041178D01*
X0081032Y0041476D01*
X0081061Y0041773D01*
X0081097Y0042069D01*
X0081141Y0042364D01*
X0081192Y0042658D01*
X0081250Y0042951D01*
X0081315Y0043242D01*
X0081387Y0043531D01*
X0081466Y0043819D01*
X0081553Y0044105D01*
X0081646Y0044388D01*
X0081746Y0044669D01*
X0081853Y0044948D01*
X0081967Y0045223D01*
X0082087Y0045496D01*
X0082214Y0045766D01*
X0082348Y0046033D01*
X0082488Y0046296D01*
X0082635Y0046556D01*
X0082788Y0046812D01*
X0082947Y0047065D01*
X0083112Y0047313D01*
X0083283Y0047558D01*
X0083460Y0047798D01*
X0083643Y0048033D01*
X0083832Y0048264D01*
X0084026Y0048491D01*
X0084226Y0048713D01*
X0084431Y0048929D01*
X0084641Y0049141D01*
X0084857Y0049347D01*
X0085077Y0049548D01*
X0085302Y0049744D01*
X0085532Y0049934D01*
X0085767Y0050118D01*
X0086006Y0050297D01*
X0086249Y0050469D01*
X0086497Y0050636D01*
X0086748Y0050797D01*
X0087004Y0050951D01*
X0087263Y0051099D01*
X0087525Y0051241D01*
X0087791Y0051376D01*
X0088060Y0051505D01*
X0088332Y0051627D01*
X0088608Y0051742D01*
X0088885Y0051851D01*
X0089166Y0051953D01*
X0089449Y0052048D01*
X0096929Y0052048D02*
X0097212Y0051953D01*
X0097493Y0051851D01*
X0097770Y0051742D01*
X0098046Y0051627D01*
X0098318Y0051505D01*
X0098587Y0051376D01*
X0098853Y0051241D01*
X0099115Y0051099D01*
X0099374Y0050951D01*
X0099630Y0050797D01*
X0099881Y0050636D01*
X0100129Y0050469D01*
X0100372Y0050297D01*
X0100611Y0050118D01*
X0100846Y0049934D01*
X0101076Y0049744D01*
X0101301Y0049548D01*
X0101521Y0049347D01*
X0101737Y0049141D01*
X0101947Y0048929D01*
X0102152Y0048713D01*
X0102352Y0048491D01*
X0102546Y0048264D01*
X0102735Y0048033D01*
X0102918Y0047798D01*
X0103095Y0047558D01*
X0103266Y0047313D01*
X0103431Y0047065D01*
X0103590Y0046812D01*
X0103743Y0046556D01*
X0103890Y0046296D01*
X0104030Y0046033D01*
X0104164Y0045766D01*
X0104291Y0045496D01*
X0104411Y0045223D01*
X0104525Y0044948D01*
X0104632Y0044669D01*
X0104732Y0044388D01*
X0104825Y0044105D01*
X0104912Y0043819D01*
X0104991Y0043531D01*
X0105063Y0043242D01*
X0105128Y0042951D01*
X0105186Y0042658D01*
X0105237Y0042364D01*
X0105281Y0042069D01*
X0105317Y0041773D01*
X0105346Y0041476D01*
X0105368Y0041178D01*
X0105383Y0040880D01*
X0105390Y0040582D01*
X0105390Y0040284D01*
X0105383Y0039986D01*
X0105368Y0039688D01*
X0105346Y0039390D01*
X0105317Y0039093D01*
X0105281Y0038797D01*
X0105237Y0038502D01*
X0105186Y0038208D01*
X0105128Y0037915D01*
X0105063Y0037624D01*
X0104991Y0037335D01*
X0104912Y0037047D01*
X0104825Y0036761D01*
X0104732Y0036478D01*
X0104632Y0036197D01*
X0104525Y0035918D01*
X0104411Y0035643D01*
X0104291Y0035370D01*
X0104164Y0035100D01*
X0104030Y0034833D01*
X0103890Y0034570D01*
X0103743Y0034310D01*
X0103590Y0034054D01*
X0103431Y0033801D01*
X0103266Y0033553D01*
X0103095Y0033308D01*
X0102918Y0033068D01*
X0102735Y0032833D01*
X0102546Y0032602D01*
X0102352Y0032375D01*
X0102152Y0032153D01*
X0101947Y0031937D01*
X0101737Y0031725D01*
X0101521Y0031519D01*
X0101301Y0031318D01*
X0101076Y0031122D01*
X0100846Y0030932D01*
X0100611Y0030748D01*
X0100372Y0030569D01*
X0100129Y0030397D01*
X0099881Y0030230D01*
X0099630Y0030069D01*
X0099374Y0029915D01*
X0099115Y0029767D01*
X0098853Y0029625D01*
X0098587Y0029490D01*
X0098318Y0029361D01*
X0098046Y0029239D01*
X0097770Y0029124D01*
X0097493Y0029015D01*
X0097212Y0028913D01*
X0096929Y0028818D01*
D15*
X0095807Y0017087D02*
X0100807Y0017087D01*
X0103307Y0014587D01*
X0105807Y0017087D01*
X0110807Y0017087D01*
X0113307Y0014587D01*
X0115807Y0017087D01*
X0120807Y0017087D01*
X0123307Y0014587D01*
X0125807Y0017087D01*
X0130807Y0017087D01*
X0133307Y0014587D01*
X0135807Y0017087D01*
X0140807Y0017087D01*
X0143307Y0014587D01*
X0143307Y0009587D01*
X0140807Y0007087D01*
X0135807Y0007087D01*
X0133307Y0009587D01*
X0130807Y0007087D01*
X0125807Y0007087D01*
X0123307Y0009587D01*
X0120807Y0007087D01*
X0115807Y0007087D01*
X0113307Y0009587D01*
X0110807Y0007087D01*
X0105807Y0007087D01*
X0103307Y0009587D01*
X0100807Y0007087D01*
X0095807Y0007087D01*
X0093307Y0009587D01*
X0090807Y0007087D01*
X0085807Y0007087D01*
X0083307Y0009587D01*
X0080807Y0007087D01*
X0075807Y0007087D01*
X0073307Y0009587D01*
X0070807Y0007087D01*
X0065807Y0007087D01*
X0063307Y0009587D01*
X0060807Y0007087D01*
X0055807Y0007087D01*
X0053307Y0009587D01*
X0050807Y0007087D01*
X0045807Y0007087D01*
X0043307Y0009587D01*
X0043307Y0014587D01*
X0045807Y0017087D01*
X0050807Y0017087D01*
X0053307Y0014587D01*
X0055807Y0017087D01*
X0060807Y0017087D01*
X0063307Y0014587D01*
X0065807Y0017087D01*
X0070807Y0017087D01*
X0073307Y0014587D01*
X0075807Y0017087D01*
X0080807Y0017087D01*
X0083307Y0014587D01*
X0085807Y0017087D01*
X0090807Y0017087D01*
X0093307Y0014587D01*
X0095807Y0017087D01*
M02*
