<?xml version="1.0" encoding="UTF-8" standalone="no"?>
<svg
   sodipodi:docname="srpp_armour.svg"
   inkscape:version="1.2.1 (9c6d41e410, 2022-07-14)"
   id="svg8"
   version="1.1"
   viewBox="0 0 300 210"
   height="210mm"
   width="300mm"
   xmlns:inkscape="http://www.inkscape.org/namespaces/inkscape"
   xmlns:sodipodi="http://sodipodi.sourceforge.net/DTD/sodipodi-0.dtd"
   xmlns="http://www.w3.org/2000/svg"
   xmlns:svg="http://www.w3.org/2000/svg"
   xmlns:rdf="http://www.w3.org/1999/02/22-rdf-syntax-ns#"
   xmlns:cc="http://creativecommons.org/ns#"
   xmlns:dc="http://purl.org/dc/elements/1.1/">
  <defs
     id="defs2" />
  <sodipodi:namedview
     inkscape:window-maximized="1"
     inkscape:window-y="-8"
     inkscape:window-x="-8"
     inkscape:window-height="1369"
     inkscape:window-width="3440"
     inkscape:showpageshadow="false"
     borderlayer="true"
     showgrid="false"
     inkscape:document-rotation="0"
     inkscape:current-layer="layer2"
     inkscape:document-units="mm"
     inkscape:cy="80"
     inkscape:cx="-30.714286"
     inkscape:zoom="0.7"
     inkscape:pageshadow="2"
     inkscape:pageopacity="0.0"
     borderopacity="1.0"
     bordercolor="#666666"
     pagecolor="#ffffff"
     id="base"
     inkscape:pagecheckerboard="0"
     inkscape:deskcolor="#d1d1d1" />
  <metadata
     id="metadata5">
    <rdf:RDF>
      <cc:Work
         rdf:about="">
        <dc:format>image/svg+xml</dc:format>
        <dc:type
           rdf:resource="http://purl.org/dc/dcmitype/StillImage" />
      </cc:Work>
    </rdf:RDF>
  </metadata>
  <g
     sodipodi:insensitive="true"
     id="layer1"
     inkscape:groupmode="layer"
     inkscape:label="background"
     style="display:none">
    <rect
       y="0"
       x="0"
       height="210"
       width="300"
       id="rect833"
       style="fill:#000000;fill-opacity:0.0722891;stroke:none;stroke-width:0;stroke-miterlimit:1.5;stroke-dasharray:none" />
  </g>
  <g
     inkscape:label="cut_outermost"
     id="layer2"
     inkscape:groupmode="layer">
    <path
       style="fill:none;stroke:#000000;stroke-width:0.264583"
       d="M 8.05351,41.348789 H 194.46998"
       id="path428" />
    <path
       d="m 194.46986,41.348207 a 17.026888,17.026888 0 0 0 0,-34.0537527"
       style="fill:none;stroke:#000000;stroke-width:0.264583"
       id="path430" />
    <path
       style="fill:none;stroke:#000000;stroke-width:0.264583"
       d="M 26.98013,7.2942693 H 194.46998"
       id="path432" />
    <path
       style="fill:none;stroke:#000000;stroke-width:0.264583"
       d="M 26.98013,7.2942693 8.05351,41.348789"
       id="path434" />
  </g>
  <g
     inkscape:label="cut_mid"
     id="layer3"
     inkscape:groupmode="layer" />
  <g
     inkscape:label="cut_innermost"
     id="layer4"
     inkscape:groupmode="layer">
    <path
       d="m 31.97856,15.012509 a 1.9999999,2.0775961 0 1 0 -3.90654,0"
       style="fill:none;stroke:#000000;stroke-width:0.264583"
       id="path402" />
    <path
       d="m 32.02529,15.458994 a 1.9999999,2.0775961 0 0 0 -0.0467,-0.446485"
       style="fill:none;stroke:#000000;stroke-width:0.264583"
       id="path404" />
    <path
       d="m 28.02529,15.458994 a 2,2.0775962 0 1 0 4,0"
       style="fill:none;stroke:#000000;stroke-width:0.264583"
       id="path406" />
    <path
       d="m 28.07202,15.012509 a 1.9999999,2.0775961 0 0 0 -0.0467,0.446485"
       style="fill:none;stroke:#000000;stroke-width:0.264583"
       id="path408" />
    <path
       d="m 27.15548,33.710877 a 1.9999999,2.0775961 0 1 0 -3.90654,0"
       style="fill:none;stroke:#000000;stroke-width:0.264583"
       id="path410" />
    <path
       d="m 27.20221,34.157362 a 1.9999999,2.0775961 0 0 0 -0.0467,-0.446485"
       style="fill:none;stroke:#000000;stroke-width:0.264583"
       id="path412" />
    <path
       d="m 23.20221,34.157362 a 2.0000001,2.0775963 0 1 0 4,0"
       style="fill:none;stroke:#000000;stroke-width:0.264583"
       id="path414" />
    <path
       d="m 23.24894,33.710877 a 1.9999999,2.0775961 0 0 0 -0.0467,0.446485"
       style="fill:none;stroke:#000000;stroke-width:0.264583"
       id="path416" />
    <path
       d="m 155.5,31.348228 a 1.5,1.5 0 0 0 -3,0 1.5,1.5 0 0 0 3,0 z"
       style="fill:none;stroke:#000000;stroke-width:0.264583"
       id="path418" />
    <path
       d="m 141.08253,31.348228 a 1.5,1.5 0 0 0 -3,0 1.5,1.5 0 0 0 3,0 z"
       style="fill:none;stroke:#000000;stroke-width:0.264583"
       id="path420" />
    <path
       d="m 169.91747,31.348228 a 1.5,1.5 0 0 0 -3,0 1.5,1.5 0 0 0 3,0 z"
       style="fill:none;stroke:#000000;stroke-width:0.264583"
       id="path422" />
    <path
       d="m 159.5,11.294452 a 1.5,1.5 0 0 0 -3,0 1.5,1.5 0 0 0 3,0 z"
       style="fill:none;stroke:#000000;stroke-width:0.264583"
       id="path424" />
    <path
       d="m 151.5,11.294452 a 1.5,1.5 0 0 0 -3,0 1.5,1.5 0 0 0 3,0 z"
       style="fill:none;stroke:#000000;stroke-width:0.264583"
       id="path426" />
  </g>
  <g
     inkscape:label="engrave_2"
     id="layer5"
     inkscape:groupmode="layer" />
  <g
     inkscape:label="engrave_1"
     id="layer6"
     inkscape:groupmode="layer" />
</svg>
