<?xml version="1.0" encoding="UTF-8" standalone="no"?>
<svg
   sodipodi:docname="oled-shield-spacer.svg"
   inkscape:version="1.2.1 (9c6d41e410, 2022-07-14)"
   id="svg8"
   version="1.1"
   viewBox="0 0 300 210"
   height="210mm"
   width="300mm"
   xmlns:inkscape="http://www.inkscape.org/namespaces/inkscape"
   xmlns:sodipodi="http://sodipodi.sourceforge.net/DTD/sodipodi-0.dtd"
   xmlns="http://www.w3.org/2000/svg"
   xmlns:svg="http://www.w3.org/2000/svg"
   xmlns:rdf="http://www.w3.org/1999/02/22-rdf-syntax-ns#"
   xmlns:cc="http://creativecommons.org/ns#"
   xmlns:dc="http://purl.org/dc/elements/1.1/">
  <defs
     id="defs2" />
  <sodipodi:namedview
     inkscape:window-maximized="0"
     inkscape:window-y="0"
     inkscape:window-x="1713"
     inkscape:window-height="1360"
     inkscape:window-width="1718"
     inkscape:showpageshadow="false"
     borderlayer="true"
     showgrid="false"
     inkscape:document-rotation="0"
     inkscape:current-layer="layer3"
     inkscape:document-units="mm"
     inkscape:cy="160.53572"
     inkscape:cx="179.46429"
     inkscape:zoom="2.8"
     inkscape:pageshadow="2"
     inkscape:pageopacity="0.0"
     borderopacity="1.0"
     bordercolor="#666666"
     pagecolor="#ffffff"
     id="base"
     inkscape:pagecheckerboard="0"
     inkscape:deskcolor="#d1d1d1" />
  <metadata
     id="metadata5">
    <rdf:RDF>
      <cc:Work
         rdf:about="">
        <dc:format>image/svg+xml</dc:format>
        <dc:type
           rdf:resource="http://purl.org/dc/dcmitype/StillImage" />
      </cc:Work>
    </rdf:RDF>
  </metadata>
  <g
     sodipodi:insensitive="true"
     id="layer1"
     inkscape:groupmode="layer"
     inkscape:label="background"
     style="display:none">
    <rect
       y="0"
       x="0"
       height="210"
       width="300"
       id="rect833"
       style="fill:#000000;fill-opacity:0.0722891;stroke:none;stroke-width:0;stroke-miterlimit:1.5;stroke-dasharray:none" />
  </g>
  <g
     inkscape:label="cut_outermost"
     id="layer2"
     inkscape:groupmode="layer"
     style="display:inline">
    <path
       style="fill:none;stroke:#000000;stroke-width:0.2;stroke-linecap:round;stroke-dasharray:none"
       d="m 33.396549,15.361013 -1.41419,1.412875"
       id="path257" />
    <path
       d="m 30.568139,17.359967 a 1.9999999,1.9999999 0 0 0 1.41421,-0.585788"
       style="fill:none;stroke:#000000;stroke-width:0.2;stroke-linecap:round;stroke-dasharray:none"
       id="path259" />
    <path
       style="fill:none;stroke:#000000;stroke-width:0.2;stroke-linecap:round;stroke-dasharray:none"
       d="M 30.568129,17.361263 H 13.237739"
       id="path261" />
    <path
       d="m 13.237629,17.359967 a 1.9999999,1.9999999 0 0 0 -2,2.000012"
       style="fill:none;stroke:#000000;stroke-width:0.2;stroke-linecap:round;stroke-dasharray:none"
       id="path263" />
    <path
       style="fill:none;stroke:#000000;stroke-width:0.2;stroke-linecap:round;stroke-dasharray:none"
       d="M 11.237749,19.358867 V 51.061242"
       id="path265" />
    <path
       d="m 11.237629,51.059972 a 1.9999999,1.9999999 0 0 0 2,2.000012"
       style="fill:none;stroke:#000000;stroke-width:0.2;stroke-linecap:round;stroke-dasharray:none"
       id="path267" />
    <path
       style="fill:none;stroke:#000000;stroke-width:0.2;stroke-linecap:round;stroke-dasharray:none"
       d="m 13.237739,53.058846 h 65.99978"
       id="path269" />
    <path
       d="m 79.237629,53.059984 a 1.9999999,1.9999999 0 0 0 2,-2.000012"
       style="fill:none;stroke:#000000;stroke-width:0.2;stroke-linecap:round;stroke-dasharray:none"
       id="path271" />
    <path
       style="fill:none;stroke:#000000;stroke-width:0.2;stroke-linecap:round;stroke-dasharray:none"
       d="M 81.237509,51.061242 V 19.358867"
       id="path273" />
    <path
       d="m 81.237629,19.359979 a 1.9999999,1.9999999 0 0 0 -2,-2.000012"
       style="fill:none;stroke:#000000;stroke-width:0.2;stroke-linecap:round;stroke-dasharray:none"
       id="path275" />
    <path
       style="fill:none;stroke:#000000;stroke-width:0.2;stroke-linecap:round;stroke-dasharray:none"
       d="M 79.237519,17.361263 H 61.367109"
       id="path277" />
    <path
       d="m 59.952909,16.774179 a 1.9999999,1.9999999 0 0 0 1.41421,0.585788"
       style="fill:none;stroke:#000000;stroke-width:0.2;stroke-linecap:round;stroke-dasharray:none"
       id="path279" />
    <path
       style="fill:none;stroke:#000000;stroke-width:0.2;stroke-linecap:round;stroke-dasharray:none"
       d="m 59.952919,16.773888 -1.41423,-1.412875"
       id="path281" />
    <path
       style="fill:none;stroke:#000000;stroke-width:0.2;stroke-linecap:round;stroke-dasharray:none"
       d="M 58.538689,15.361013 H 33.396549"
       id="path283" />
  </g>
  <g
     inkscape:label="cut_mid"
     id="layer3"
     inkscape:groupmode="layer"
     style="display:inline">
    <path
       style="fill:none;stroke:#000000;stroke-width:0.2;stroke-linecap:round;stroke-dasharray:none"
       d="m 20.697639,23.359367 v -2.00025"
       id="path199" />
    <path
       d="m 22.697629,19.359979 a 1.9999999,1.9999999 0 0 0 -2,1.999985"
       style="fill:none;stroke:#000000;stroke-width:0.2;stroke-linecap:round;stroke-dasharray:none"
       id="path201" />
    <path
       style="fill:none;stroke:#000000;stroke-width:0.2;stroke-linecap:round;stroke-dasharray:none"
       d="m 22.697619,19.358867 h 13.77001"
       id="path203" />
    <path
       style="fill:none;stroke:#000000;stroke-width:0.2;stroke-linecap:round;stroke-dasharray:none"
       d="m 36.467629,19.358867 1.41422,-1.412875"
       id="path205" />
    <path
       d="m 39.296059,17.359967 a 1.9999999,1.9999999 0 0 0 -1.41422,0.585787"
       style="fill:none;stroke:#000000;stroke-width:0.2;stroke-linecap:round;stroke-dasharray:none"
       id="path207" />
    <path
       style="fill:none;stroke:#000000;stroke-width:0.2;stroke-linecap:round;stroke-dasharray:none"
       d="m 39.296049,17.361263 h 13.34315"
       id="path209" />
    <path
       d="m 54.053419,17.945754 a 1.9999999,1.9999999 0 0 0 -1.41422,-0.585787"
       style="fill:none;stroke:#000000;stroke-width:0.2;stroke-linecap:round;stroke-dasharray:none"
       id="path211" />
    <path
       style="fill:none;stroke:#000000;stroke-width:0.2;stroke-linecap:round;stroke-dasharray:none"
       d="m 54.053419,17.945992 1.4142,1.412875"
       id="path213" />
    <path
       style="fill:none;stroke:#000000;stroke-width:0.2;stroke-linecap:round;stroke-dasharray:none"
       d="m 55.467619,19.358867 h 13.77"
       id="path215" />
    <path
       d="m 71.237629,21.359964 a 1.9999999,1.9999999 0 0 0 -2,-1.999985"
       style="fill:none;stroke:#000000;stroke-width:0.2;stroke-linecap:round;stroke-dasharray:none"
       id="path217" />
    <path
       style="fill:none;stroke:#000000;stroke-width:0.2;stroke-linecap:round;stroke-dasharray:none"
       d="m 71.237629,21.359117 v 2.00025"
       id="path219" />
    <path
       d="m 71.237629,23.359976 a 3.9999999,3.9999999 0 0 0 4,3.999997"
       style="fill:none;stroke:#000000;stroke-width:0.2;stroke-linecap:round;stroke-dasharray:none"
       id="path221" />
    <path
       style="fill:none;stroke:#000000;stroke-width:0.2;stroke-linecap:round;stroke-dasharray:none"
       d="m 75.237549,27.359867 h 1.99999"
       id="path223" />
    <path
       d="m 79.237629,29.359959 a 1.9999999,1.9999999 0 0 0 -2,-1.999986"
       style="fill:none;stroke:#000000;stroke-width:0.2;stroke-linecap:round;stroke-dasharray:none"
       id="path225" />
    <path
       style="fill:none;stroke:#000000;stroke-width:0.2;stroke-linecap:round;stroke-dasharray:none"
       d="M 79.237519,29.360117 V 40.358846"
       id="path227" />
    <path
       d="m 77.237629,42.359969 a 1.9999999,1.9999999 0 0 0 2,-1.999985"
       style="fill:none;stroke:#000000;stroke-width:0.2;stroke-linecap:round;stroke-dasharray:none"
       id="path229" />
    <path
       style="fill:none;stroke:#000000;stroke-width:0.2;stroke-linecap:round;stroke-dasharray:none"
       d="m 77.237539,42.359096 h -1.99999"
       id="path231" />
    <path
       d="m 75.237629,42.359969 a 3.9999999,3.9999999 0 0 0 -4,3.999998"
       style="fill:none;stroke:#000000;stroke-width:0.2;stroke-linecap:round;stroke-dasharray:none"
       id="path233" />
    <path
       style="fill:none;stroke:#000000;stroke-width:0.2;stroke-linecap:round;stroke-dasharray:none"
       d="m 71.237629,46.359596 v 1.701271"
       id="path235" />
    <path
       d="m 69.237629,50.059979 a 1.9999999,1.9999999 0 0 0 2,-2.000012"
       style="fill:none;stroke:#000000;stroke-width:0.2;stroke-linecap:round;stroke-dasharray:none"
       id="path237" />
    <path
       style="fill:none;stroke:#000000;stroke-width:0.2;stroke-linecap:round;stroke-dasharray:none"
       d="M 69.237619,50.061117 H 23.237639"
       id="path239" />
    <path
       d="m 21.237629,48.059967 a 1.9999999,1.9999999 0 0 0 2,2.000012"
       style="fill:none;stroke:#000000;stroke-width:0.2;stroke-linecap:round;stroke-dasharray:none"
       id="path241" />
    <path
       style="fill:none;stroke:#000000;stroke-width:0.2;stroke-linecap:round;stroke-dasharray:none"
       d="M 21.237629,48.060867 V 46.359596"
       id="path243" />
    <path
       d="m 21.237629,46.359967 a 3.9999999,3.9999999 0 0 0 -4,-3.999998"
       style="fill:none;stroke:#000000;stroke-width:0.2;stroke-linecap:round;stroke-dasharray:none"
       id="path245" />
    <path
       d="m 14.237629,39.359965 a 3,3 0 0 0 3,3.000004"
       style="fill:none;stroke:#000000;stroke-width:0.2;stroke-linecap:round;stroke-dasharray:none"
       id="path247" />
    <path
       style="fill:none;stroke:#000000;stroke-width:0.2;stroke-linecap:round;stroke-dasharray:none"
       d="M 14.237599,39.358721 V 28.820367"
       id="path249" />
    <path
       d="m 16.237629,26.819959 a 1.9999999,1.9999999 0 0 0 -2,2.000011"
       style="fill:none;stroke:#000000;stroke-width:0.2;stroke-linecap:round;stroke-dasharray:none"
       id="path251" />
    <path
       style="fill:none;stroke:#000000;stroke-width:0.2;stroke-linecap:round;stroke-dasharray:none"
       d="m 16.237579,26.820117 h 1.00013"
       id="path253" />
    <path
       d="m 17.237629,26.819959 a 3.4599999,3.4599999 0 0 0 3.46,-3.459983"
       style="fill:none;stroke:#000000;stroke-width:0.2;stroke-linecap:round;stroke-dasharray:none"
       id="path255" />
  </g>
  <g
     inkscape:label="cut_innermost"
     id="layer4"
     inkscape:groupmode="layer"
     style="display:inline">
    <path
       d="m 18.737629,23.359976 a 1.5,1.5 0 0 0 -3,0 1.5,1.5 0 0 0 3,0 z"
       style="fill:none;stroke:#000000;stroke-width:0.2;stroke-linecap:round;stroke-dasharray:none"
       id="path285" />
    <path
       d="m 18.737629,46.359967 a 1.5,1.5 0 0 0 -3,0 1.5,1.5 0 0 0 3,0 z"
       style="fill:none;stroke:#000000;stroke-width:0.2;stroke-linecap:round;stroke-dasharray:none"
       id="path287" />
    <path
       d="m 76.737629,46.359967 a 1.5,1.5 0 0 0 -3,0 1.5,1.5 0 0 0 3,0 z"
       style="fill:none;stroke:#000000;stroke-width:0.2;stroke-linecap:round;stroke-dasharray:none"
       id="path289" />
    <path
       d="m 76.737629,23.359976 a 1.5,1.5 0 0 0 -3,0 1.5,1.5 0 0 0 3,0 z"
       style="fill:none;stroke:#000000;stroke-width:0.2;stroke-linecap:round;stroke-dasharray:none"
       id="path291" />
  </g>
  <g
     inkscape:label="engrave_2"
     id="layer5"
     inkscape:groupmode="layer"
     style="display:none" />
  <g
     inkscape:label="engrave_1"
     id="layer6"
     inkscape:groupmode="layer"
     style="display:none" />
</svg>
