<?xml version="1.0" encoding="UTF-8" standalone="no"?>
<svg
   sodipodi:docname="oled-shield.svg"
   inkscape:version="1.2.1 (9c6d41e410, 2022-07-14)"
   id="svg8"
   version="1.1"
   viewBox="0 0 300 210"
   height="210mm"
   width="300mm"
   xmlns:inkscape="http://www.inkscape.org/namespaces/inkscape"
   xmlns:sodipodi="http://sodipodi.sourceforge.net/DTD/sodipodi-0.dtd"
   xmlns="http://www.w3.org/2000/svg"
   xmlns:svg="http://www.w3.org/2000/svg"
   xmlns:rdf="http://www.w3.org/1999/02/22-rdf-syntax-ns#"
   xmlns:cc="http://creativecommons.org/ns#"
   xmlns:dc="http://purl.org/dc/elements/1.1/">
  <defs
     id="defs2" />
  <sodipodi:namedview
     inkscape:window-maximized="0"
     inkscape:window-y="0"
     inkscape:window-x="1713"
     inkscape:window-height="1360"
     inkscape:window-width="1718"
     inkscape:showpageshadow="false"
     borderlayer="true"
     showgrid="false"
     inkscape:document-rotation="0"
     inkscape:current-layer="layer3"
     inkscape:document-units="mm"
     inkscape:cy="368.2006"
     inkscape:cx="359.10923"
     inkscape:zoom="0.98994949"
     inkscape:pageshadow="2"
     inkscape:pageopacity="0.0"
     borderopacity="1.0"
     bordercolor="#666666"
     pagecolor="#ffffff"
     id="base"
     inkscape:pagecheckerboard="0"
     inkscape:deskcolor="#d1d1d1" />
  <metadata
     id="metadata5">
    <rdf:RDF>
      <cc:Work
         rdf:about="">
        <dc:format>image/svg+xml</dc:format>
        <dc:type
           rdf:resource="http://purl.org/dc/dcmitype/StillImage" />
      </cc:Work>
    </rdf:RDF>
  </metadata>
  <g
     sodipodi:insensitive="true"
     id="layer1"
     inkscape:groupmode="layer"
     inkscape:label="background"
     style="display:none">
    <rect
       y="0"
       x="0"
       height="210"
       width="300"
       id="rect833"
       style="fill:#000000;fill-opacity:0.0722891;stroke:none;stroke-width:0;stroke-miterlimit:1.5;stroke-dasharray:none" />
  </g>
  <g
     inkscape:label="cut_outermost"
     id="layer2"
     inkscape:groupmode="layer">
    <path
       style="fill:none;stroke:#000000;stroke-width:0.2;stroke-linecap:round;stroke-dasharray:none"
       d="M 80.970235,19.84526 V 11.14311"
       id="path343" />
    <path
       d="M 80.970355,11.14422 A 1.9999999,1.9999999 0 0 0 78.970359,9.1442099"
       style="fill:none;stroke:#000000;stroke-width:0.2;stroke-linecap:round;stroke-dasharray:none"
       id="path345" />
    <path
       style="fill:none;stroke:#000000;stroke-width:0.2;stroke-linecap:round;stroke-dasharray:none"
       d="M 78.97025,9.1455099 H 12.970468"
       id="path347" />
    <path
       d="M 12.970359,9.1442099 A 1.9999999,1.9999999 0 0 0 10.970361,11.14422"
       style="fill:none;stroke:#000000;stroke-width:0.2;stroke-linecap:round;stroke-dasharray:none"
       id="path349" />
    <path
       style="fill:none;stroke:#000000;stroke-width:0.2;stroke-linecap:round;stroke-dasharray:none"
       d="M 10.970482,11.14311 V 42.84549"
       id="path351" />
    <path
       d="m 10.970361,42.84422 a 1.9999999,1.9999999 0 0 0 1.999998,2.00001"
       style="fill:none;stroke:#000000;stroke-width:0.2;stroke-linecap:round;stroke-dasharray:none"
       id="path353" />
    <path
       style="fill:none;stroke:#000000;stroke-width:0.2;stroke-linecap:round;stroke-dasharray:none"
       d="M 12.970468,44.84309 H 78.97025"
       id="path355" />
    <path
       d="m 78.970359,44.84423 a 1.9999999,1.9999999 0 0 0 1.999996,-2.00001"
       style="fill:none;stroke:#000000;stroke-width:0.2;stroke-linecap:round;stroke-dasharray:none"
       id="path357" />
    <path
       style="fill:none;stroke:#000000;stroke-width:0.2;stroke-linecap:round;stroke-dasharray:none"
       d="m 80.970235,42.84549 v -8.001"
       id="path359" />
    <path
       style="fill:none;stroke:#000000;stroke-width:0.2;stroke-linecap:round;stroke-dasharray:none"
       d="m 74.970279,34.84449 h 5.999956"
       id="path361" />
    <path
       d="M 74.970359,34.84422 A 3.9999999,3.9999999 0 0 0 72.141932,36.0158"
       style="fill:none;stroke:#000000;stroke-width:0.2;stroke-linecap:round;stroke-dasharray:none"
       id="path363" />
    <path
       style="fill:none;stroke:#000000;stroke-width:0.2;stroke-linecap:round;stroke-dasharray:none"
       d="m 70.297791,37.86074 1.844146,-1.84415"
       id="path365" />
    <path
       d="m 63.220359,34.92833 a 4.14587,4.14587 0 0 0 7.077443,2.93159"
       style="fill:none;stroke:#000000;stroke-width:0.2;stroke-linecap:round;stroke-dasharray:none"
       id="path367" />
    <path
       style="fill:none;stroke:#000000;stroke-width:0.2;stroke-linecap:round;stroke-dasharray:none"
       d="m 63.220345,25.84336 v 9.08579"
       id="path369" />
    <path
       d="m 69.220359,19.84423 a 5.9999998,5.9999998 0 0 0 -6,5.99998"
       style="fill:none;stroke:#000000;stroke-width:0.2;stroke-linecap:round;stroke-dasharray:none"
       id="path371" />
    <path
       style="fill:none;stroke:#000000;stroke-width:0.2;stroke-linecap:round;stroke-dasharray:none"
       d="M 80.970235,19.84526 H 69.220355"
       id="path373" />
  </g>
  <g
     inkscape:label="cut_mid"
     id="layer3"
     inkscape:groupmode="layer">
    <path
       style="fill:none;stroke:#000000;stroke-width:0.2;stroke-linecap:round;stroke-dasharray:none"
       d="M 25.970346,22.38526 H 16.970439"
       id="path327" />
    <path
       d="m 27.970359,24.38421 a 1.9999999,1.9999999 0 0 0 -2,-1.99998"
       style="fill:none;stroke:#000000;stroke-width:0.2;stroke-linecap:round;stroke-dasharray:none"
       id="path329" />
    <path
       style="fill:none;stroke:#000000;stroke-width:0.2;stroke-linecap:round;stroke-dasharray:none"
       d="M 27.970358,33.38399 V 24.38551"
       id="path331" />
    <path
       d="m 25.970359,35.38421 a 1.9999999,1.9999999 0 0 0 2,-1.99998"
       style="fill:none;stroke:#000000;stroke-width:0.2;stroke-linecap:round;stroke-dasharray:none"
       id="path333" />
    <path
       style="fill:none;stroke:#000000;stroke-width:0.2;stroke-linecap:round;stroke-dasharray:none"
       d="m 16.970439,35.38424 h 8.999907"
       id="path335" />
    <path
       d="m 14.970361,33.38423 a 1.9999999,1.9999999 0 0 0 1.999998,1.99998"
       style="fill:none;stroke:#000000;stroke-width:0.2;stroke-linecap:round;stroke-dasharray:none"
       id="path337" />
    <path
       style="fill:none;stroke:#000000;stroke-width:0.2;stroke-linecap:round;stroke-dasharray:none"
       d="m 14.970453,24.38551 v 8.99848"
       id="path339" />
    <path
       d="m 16.970359,22.38423 a 1.9999999,1.9999999 0 0 0 -1.999998,1.99998"
       style="fill:none;stroke:#000000;stroke-width:0.2;stroke-linecap:round;stroke-dasharray:none"
       id="path341" />
  </g>
  <g
     inkscape:label="cut_innermost"
     id="layer4"
     inkscape:groupmode="layer">
    <path
       d="m 18.470359,38.84422 a 1.5,1.5 0 0 0 -2.999999,0 1.5,1.5 0 0 0 2.999999,0 z"
       style="fill:none;stroke:#000000;stroke-width:0.2;stroke-linecap:round;stroke-dasharray:none"
       id="path375" />
    <path
       d="m 76.470358,38.84422 a 1.5,1.5 0 0 0 -2.999999,0 1.5,1.5 0 0 0 2.999999,0 z"
       style="fill:none;stroke:#000000;stroke-width:0.2;stroke-linecap:round;stroke-dasharray:none"
       id="path377" />
    <path
       d="m 76.470358,15.84423 a 1.5,1.5 0 0 0 -2.999999,0 1.5,1.5 0 0 0 2.999999,0 z"
       style="fill:none;stroke:#000000;stroke-width:0.2;stroke-linecap:round;stroke-dasharray:none"
       id="path379" />
    <path
       d="m 18.470359,15.84423 a 1.5,1.5 0 0 0 -2.999999,0 1.5,1.5 0 0 0 2.999999,0 z"
       style="fill:none;stroke:#000000;stroke-width:0.2;stroke-linecap:round;stroke-dasharray:none"
       id="path381" />
  </g>
  <g
     inkscape:label="engrave_2"
     id="layer5"
     inkscape:groupmode="layer"
     style="display:none" />
  <g
     inkscape:label="engrave_1"
     id="layer6"
     inkscape:groupmode="layer"
     style="display:none" />
</svg>
