<?xml version="1.0" encoding="UTF-8" standalone="no"?>
<svg
   sodipodi:docname="top-cover-noguard.svg"
   inkscape:version="1.2.1 (9c6d41e410, 2022-07-14)"
   id="svg8"
   version="1.1"
   viewBox="0 0 300 210"
   height="210mm"
   width="300mm"
   xmlns:inkscape="http://www.inkscape.org/namespaces/inkscape"
   xmlns:sodipodi="http://sodipodi.sourceforge.net/DTD/sodipodi-0.dtd"
   xmlns="http://www.w3.org/2000/svg"
   xmlns:svg="http://www.w3.org/2000/svg"
   xmlns:rdf="http://www.w3.org/1999/02/22-rdf-syntax-ns#"
   xmlns:cc="http://creativecommons.org/ns#"
   xmlns:dc="http://purl.org/dc/elements/1.1/">
  <defs
     id="defs2" />
  <sodipodi:namedview
     inkscape:window-maximized="0"
     inkscape:window-y="0"
     inkscape:window-x="1713"
     inkscape:window-height="1360"
     inkscape:window-width="1718"
     inkscape:showpageshadow="false"
     borderlayer="true"
     showgrid="false"
     inkscape:document-rotation="0"
     inkscape:current-layer="layer2"
     inkscape:document-units="mm"
     inkscape:cy="279.30718"
     inkscape:cx="117.1777"
     inkscape:zoom="0.98994949"
     inkscape:pageshadow="2"
     inkscape:pageopacity="0.0"
     borderopacity="1.0"
     bordercolor="#666666"
     pagecolor="#ffffff"
     id="base"
     inkscape:pagecheckerboard="0"
     inkscape:deskcolor="#d1d1d1" />
  <metadata
     id="metadata5">
    <rdf:RDF>
      <cc:Work
         rdf:about="">
        <dc:format>image/svg+xml</dc:format>
        <dc:type
           rdf:resource="http://purl.org/dc/dcmitype/StillImage" />
      </cc:Work>
    </rdf:RDF>
  </metadata>
  <g
     sodipodi:insensitive="true"
     id="layer1"
     inkscape:groupmode="layer"
     inkscape:label="background"
     style="display:none">
    <rect
       y="0"
       x="0"
       height="210"
       width="300"
       id="rect833"
       style="fill:#000000;fill-opacity:0.0722891;stroke:none;stroke-width:0;stroke-miterlimit:1.5;stroke-dasharray:none" />
  </g>
  <g
     inkscape:label="cut_outermost"
     id="layer2"
     inkscape:groupmode="layer"
     sodipodi:insensitive="true">
    <path
       d="m 57.631843,66.976415 a 1.5000004,1.5000004 0 0 0 -3,0 1.5000004,1.5000004 0 0 0 3,0 z"
       style="fill:none;stroke:#000000;stroke-width:0.2;stroke-linecap:round;stroke-dasharray:none"
       id="path213" />
    <path
       style="fill:none;stroke:#000000;stroke-width:0.2;stroke-linecap:round;stroke-dasharray:none"
       d="m 161.52325,9.691262 v 15.7988"
       id="path221" />
    <path
       d="m 161.52331,9.691312 a 1.6,1.6 0 0 0 -1.6,-1.599999"
       style="fill:none;stroke:#000000;stroke-width:0.2;stroke-linecap:round;stroke-dasharray:none"
       id="path223" />
    <path
       style="fill:none;stroke:#000000;stroke-width:0.2;stroke-linecap:round;stroke-dasharray:none"
       d="M 10.067033,8.091326 H 159.92332"
       id="path225" />
    <path
       d="M 10.067153,8.091313 A 1.6,1.6 0 0 0 8.4671533,9.691312"
       style="fill:none;stroke:#000000;stroke-width:0.2;stroke-linecap:round;stroke-dasharray:none"
       id="path227" />
    <path
       style="fill:none;stroke:#000000;stroke-width:0.2;stroke-linecap:round;stroke-dasharray:none"
       d="M 8.4670933,53.091395 V 9.691262"
       id="path229" />
    <path
       d="M 13.338023,110.73696 A 45.245054,45.245054 0 0 0 8.4671533,53.091315"
       style="fill:none;stroke:#000000;stroke-width:0.2;stroke-linecap:round;stroke-dasharray:none"
       id="path231" />
    <path
       style="fill:none;stroke:#000000;stroke-width:0.2;stroke-linecap:round;stroke-dasharray:none"
       d="M 58.839363,99.263835 13.338073,110.73617"
       id="path233" />
    <path
       d="m 59.069293,69.756915 a 45.245054,45.245054 0 0 0 -0.22992,29.50652"
       style="fill:none;stroke:#000000;stroke-width:0.2;stroke-linecap:round;stroke-dasharray:none"
       id="path235" />
    <path
       d="m 68.497003,63.091325 a 10,10 0 0 0 -9.42771,6.66559"
       style="fill:none;stroke:#000000;stroke-width:0.2;stroke-linecap:round;stroke-dasharray:none"
       id="path237" />
    <path
       style="fill:none;stroke:#000000;stroke-width:0.2;stroke-linecap:round;stroke-dasharray:none"
       d="M 116.18346,63.089995 H 68.497003"
       id="path239" />
    <path
       style="fill:none;stroke:#000000;stroke-width:0.2;stroke-linecap:round;stroke-dasharray:none"
       d="m 111.85356,55.591707 4.3299,7.498288"
       id="path241" />
    <path
       d="M 157.85621,25.491305 A 27.655969,27.655969 0 0 0 111.85344,55.59131"
       style="fill:none;stroke:#000000;stroke-width:0.2;stroke-linecap:round;stroke-dasharray:none"
       id="path243" />
    <path
       style="fill:none;stroke:#000000;stroke-width:0.2;stroke-linecap:round;stroke-dasharray:none"
       d="m 161.52325,25.490062 h -3.66712"
       id="path245" />
  </g>
  <g
     inkscape:label="cut_mid"
     id="layer3"
     inkscape:groupmode="layer"
     sodipodi:insensitive="true">
    <path
       d="m 85.023313,53.091315 a 3.5,3.5 0 0 0 -7,0 3.5,3.5 0 0 0 7,0 z"
       style="fill:none;stroke:#000000;stroke-width:0.2;stroke-linecap:round;stroke-dasharray:none"
       id="path201" />
    <path
       d="m 61.098313,53.091315 a 5.0000005,5.0000005 0 0 0 -10,0 5.0000005,5.0000005 0 0 0 10,0 z"
       style="fill:none;stroke:#000000;stroke-width:0.2;stroke-linecap:round;stroke-dasharray:none"
       id="path203" />
    <path
       d="m 106.52331,43.091309 a 5,5 0 0 0 -9.999997,0 5,5 0 0 0 9.999997,0 z"
       style="fill:none;stroke:#000000;stroke-width:0.2;stroke-linecap:round;stroke-dasharray:none"
       id="path205" />
  </g>
  <g
     inkscape:label="cut_innermost"
     id="layer4"
     inkscape:groupmode="layer"
     sodipodi:insensitive="true">
    <path
       d="m 156.62331,14.491311 a 1.5,1.5 0 0 0 -3,0 1.5,1.5 0 0 0 3,0 z"
       style="fill:none;stroke:#000000;stroke-width:0.2;stroke-linecap:round;stroke-dasharray:none"
       id="path199" />
    <path
       d="m 109.02331,58.091305 a 1.5000003,1.5000003 0 0 0 -3,0 1.5000003,1.5000003 0 0 0 3,0 z"
       style="fill:none;stroke:#000000;stroke-width:0.2;stroke-linecap:round;stroke-dasharray:none"
       id="path207" />
    <path
       d="m 85.023313,13.091311 a 1.5,1.5 0 0 0 -3,0 1.5,1.5 0 0 0 3,0 z"
       style="fill:none;stroke:#000000;stroke-width:0.2;stroke-linecap:round;stroke-dasharray:none"
       id="path209" />
    <path
       d="m 14.967153,13.091311 a 1.5,1.5 0 0 0 -3,0 1.5,1.5 0 0 0 3,0 z"
       style="fill:none;stroke:#000000;stroke-width:0.2;stroke-linecap:round;stroke-dasharray:none"
       id="path211" />
    <path
       d="m 20.203543,60.803495 a 1.5,1.5 0 0 0 -3,0 1.5,1.5 0 0 0 3,0 z"
       style="fill:none;stroke:#000000;stroke-width:0.2;stroke-linecap:round;stroke-dasharray:none"
       id="path215" />
    <path
       d="m 40.598843,76.240875 a 1.5,1.5 0 0 0 -3,0 1.5,1.5 0 0 0 3,0 z"
       style="fill:none;stroke:#000000;stroke-width:0.2;stroke-linecap:round;stroke-dasharray:none"
       id="path217" />
    <path
       d="m 38.616293,100.03859 a 1.5,1.5 0 0 0 -3,0 1.5,1.5 0 0 0 3,0 z"
       style="fill:none;stroke:#000000;stroke-width:0.2;stroke-linecap:round;stroke-dasharray:none"
       id="path219" />
  </g>
  <g
     inkscape:label="engrave_2"
     id="layer5"
     inkscape:groupmode="layer"
     style="display:none" />
  <g
     inkscape:label="engrave_1"
     id="layer6"
     inkscape:groupmode="layer"
     style="display:none" />
</svg>
