<?xml version="1.0" encoding="UTF-8" standalone="no"?>
<svg
   sodipodi:docname="top-cover.svg"
   inkscape:version="1.2.1 (9c6d41e410, 2022-07-14)"
   id="svg8"
   version="1.1"
   viewBox="0 0 300 210"
   height="210mm"
   width="300mm"
   xmlns:inkscape="http://www.inkscape.org/namespaces/inkscape"
   xmlns:sodipodi="http://sodipodi.sourceforge.net/DTD/sodipodi-0.dtd"
   xmlns="http://www.w3.org/2000/svg"
   xmlns:svg="http://www.w3.org/2000/svg"
   xmlns:rdf="http://www.w3.org/1999/02/22-rdf-syntax-ns#"
   xmlns:cc="http://creativecommons.org/ns#"
   xmlns:dc="http://purl.org/dc/elements/1.1/">
  <defs
     id="defs2" />
  <sodipodi:namedview
     inkscape:window-maximized="1"
     inkscape:window-y="-8"
     inkscape:window-x="-8"
     inkscape:window-height="1369"
     inkscape:window-width="3440"
     inkscape:showpageshadow="false"
     borderlayer="true"
     showgrid="false"
     inkscape:document-rotation="0"
     inkscape:current-layer="layer2"
     inkscape:document-units="mm"
     inkscape:cy="445.71429"
     inkscape:cx="-422.14286"
     inkscape:zoom="0.7"
     inkscape:pageshadow="2"
     inkscape:pageopacity="0.0"
     borderopacity="1.0"
     bordercolor="#666666"
     pagecolor="#ffffff"
     id="base"
     inkscape:pagecheckerboard="0"
     inkscape:deskcolor="#d1d1d1" />
  <metadata
     id="metadata5">
    <rdf:RDF>
      <cc:Work
         rdf:about="">
        <dc:format>image/svg+xml</dc:format>
        <dc:type
           rdf:resource="http://purl.org/dc/dcmitype/StillImage" />
      </cc:Work>
    </rdf:RDF>
  </metadata>
  <g
     sodipodi:insensitive="true"
     id="layer1"
     inkscape:groupmode="layer"
     inkscape:label="background"
     style="display:none">
    <rect
       y="0"
       x="0"
       height="210"
       width="300"
       id="rect833"
       style="fill:#000000;fill-opacity:0.0722891;stroke:none;stroke-width:0;stroke-miterlimit:1.5;stroke-dasharray:none" />
  </g>
  <g
     inkscape:label="cut_outermost"
     id="layer2"
     inkscape:groupmode="layer">
    <g
       id="g1365">
      <path
         d="m 141.11987,119.99968 a 5,5 0 0 0 0.87891,-0.86178"
         style="fill:none;stroke:#000000;stroke-width:0.2;stroke-linecap:round;stroke-dasharray:none"
         id="path335" />
      <path
         style="fill:none;stroke:#000000;stroke-width:0.2;stroke-linecap:round;stroke-dasharray:none"
         d="m 142.31879,84.350832 1.50944,2.614083"
         id="path345" />
      <path
         d="M 188.32144,54.25043 A 27.655969,27.655969 0 0 0 142.31867,84.350435"
         style="fill:none;stroke:#000000;stroke-width:0.2;stroke-linecap:round;stroke-dasharray:none"
         id="path347" />
      <path
         style="fill:none;stroke:#000000;stroke-width:0.2;stroke-linecap:round;stroke-dasharray:none"
         d="m 191.98848,54.249187 h -3.66712"
         id="path349" />
      <path
         style="fill:none;stroke:#000000;stroke-width:0.2;stroke-linecap:round;stroke-dasharray:none"
         d="m 191.98848,38.450387 v 15.7988"
         id="path351" />
      <path
         d="m 191.98854,38.450437 a 1.6,1.6 0 0 0 -1.6,-1.599999"
         style="fill:none;stroke:#000000;stroke-width:0.2;stroke-linecap:round;stroke-dasharray:none"
         id="path353" />
      <path
         style="fill:none;stroke:#000000;stroke-width:0.2;stroke-linecap:round;stroke-dasharray:none"
         d="M 40.532265,36.850451 H 190.38855"
         id="path355" />
      <path
         d="m 40.532385,36.850438 a 1.6,1.6 0 0 0 -1.6,1.599999"
         style="fill:none;stroke:#000000;stroke-width:0.2;stroke-linecap:round;stroke-dasharray:none"
         id="path357" />
      <path
         style="fill:none;stroke:#000000;stroke-width:0.2;stroke-linecap:round;stroke-dasharray:none"
         d="M 38.932325,81.85052 V 38.450387"
         id="path359" />
      <path
         d="M 43.803255,139.49608 A 45.245054,45.245054 0 0 0 38.932385,81.85044"
         style="fill:none;stroke:#000000;stroke-width:0.2;stroke-linecap:round;stroke-dasharray:none"
         id="path361" />
      <path
         style="fill:none;stroke:#000000;stroke-width:0.2;stroke-linecap:round;stroke-dasharray:none"
         d="m 86.861835,128.63944 -43.05853,10.85585"
         id="path363" />
      <path
         d="m 90.217565,130.09007 a 3,3 0 0 0 -3.35572,-1.45153"
         style="fill:none;stroke:#000000;stroke-width:0.2;stroke-linecap:round;stroke-dasharray:none"
         id="path365" />
      <path
         d="m 90.217565,130.09007 a 12.373281,12.373281 0 0 0 7.70782,5.9658"
         style="fill:none;stroke:#000000;stroke-width:0.2;stroke-linecap:round;stroke-dasharray:none"
         id="path367" />
      <path
         d="m 97.925385,136.05587 a 55.999998,55.999998 0 0 0 43.175925,-6.36773"
         style="fill:none;stroke:#000000;stroke-width:0.2;stroke-linecap:round;stroke-dasharray:none"
         id="path369" />
      <path
         d="M 141.10131,129.68814 A 25.552004,25.552004 0 0 0 146.6286,90.567429"
         style="fill:none;stroke:#000000;stroke-width:0.2;stroke-linecap:round;stroke-dasharray:none"
         id="path371" />
      <path
         d="m 143.82829,86.96518 a 27.655969,27.655969 0 0 0 2.80031,3.602249"
         style="fill:none;stroke:#000000;stroke-width:0.2;stroke-linecap:round;stroke-dasharray:none"
         id="path373" />
    </g>
  </g>
  <g
     inkscape:label="cut_mid"
     id="layer3"
     inkscape:groupmode="layer">
    <g
       id="g1313">
      <path
         style="fill:none;stroke:#000000;stroke-width:0.2;stroke-linecap:round;stroke-dasharray:none"
         d="M 135.51579,91.849124 H 98.962235"
         id="path327" />
      <path
         d="m 139.19672,93.466548 a 5,5 0 0 0 -3.68093,-1.616101"
         style="fill:none;stroke:#000000;stroke-width:0.2;stroke-linecap:round;stroke-dasharray:none"
         id="path329" />
      <path
         style="fill:none;stroke:#000000;stroke-width:0.2;stroke-linecap:round;stroke-dasharray:none"
         d="m 139.1967,93.465728 1.95951,2.132541"
         id="path331" />
      <path
         d="M 141.99878,119.1379 A 18.118696,18.118696 0 0 0 141.1563,95.598137"
         style="fill:none;stroke:#000000;stroke-width:0.2;stroke-linecap:round;stroke-dasharray:none"
         id="path333" />
      <path
         d="m 105.80743,129.45078 a 47.999999,47.999999 0 0 0 35.31244,-9.4511"
         style="fill:none;stroke:#000000;stroke-width:0.2;stroke-linecap:round;stroke-dasharray:none"
         id="path337" />
      <path
         d="m 87.930215,104.21305 a 21.045486,21.045486 0 0 0 17.877215,25.23773"
         style="fill:none;stroke:#000000;stroke-width:0.2;stroke-linecap:round;stroke-dasharray:none"
         id="path339" />
      <path
         d="m 89.534525,98.516041 a 45.245054,45.245054 0 0 0 -1.60431,5.697009"
         style="fill:none;stroke:#000000;stroke-width:0.2;stroke-linecap:round;stroke-dasharray:none"
         id="path341" />
      <path
         d="m 98.962235,91.850447 a 10,10 0 0 0 -9.42771,6.665594"
         style="fill:none;stroke:#000000;stroke-width:0.2;stroke-linecap:round;stroke-dasharray:none"
         id="path343" />
    </g>
  </g>
  <g
     inkscape:label="cut_innermost"
     id="layer4"
     inkscape:groupmode="layer">
    <g
       id="g1335">
      <path
         d="m 187.08854,43.250436 a 1.5,1.5 0 0 0 -3,0 1.5,1.5 0 0 0 3,0 z"
         style="fill:none;stroke:#000000;stroke-width:0.2;stroke-linecap:round;stroke-dasharray:none"
         id="path375" />
      <path
         d="m 115.48854,81.85044 a 3.5,3.5 0 0 0 -7,0 3.5,3.5 0 0 0 7,0 z"
         style="fill:none;stroke:#000000;stroke-width:0.2;stroke-linecap:round;stroke-dasharray:none"
         id="path377" />
      <path
         d="m 91.563545,81.85044 a 5.0000005,5.0000005 0 0 0 -10,0 5.0000005,5.0000005 0 0 0 10,0 z"
         style="fill:none;stroke:#000000;stroke-width:0.2;stroke-linecap:round;stroke-dasharray:none"
         id="path379" />
      <path
         d="m 136.98854,71.850434 a 5,5 0 0 0 -10,0 5,5 0 0 0 10,0 z"
         style="fill:none;stroke:#000000;stroke-width:0.2;stroke-linecap:round;stroke-dasharray:none"
         id="path381" />
      <path
         d="m 139.48854,86.85043 a 1.5000003,1.5000003 0 0 0 -3,0 1.5000003,1.5000003 0 0 0 3,0 z"
         style="fill:none;stroke:#000000;stroke-width:0.2;stroke-linecap:round;stroke-dasharray:none"
         id="path383" />
      <path
         d="m 115.48854,41.850436 a 1.5,1.5 0 0 0 -3,0 1.5,1.5 0 0 0 3,0 z"
         style="fill:none;stroke:#000000;stroke-width:0.2;stroke-linecap:round;stroke-dasharray:none"
         id="path385" />
      <path
         d="m 45.432385,41.850436 a 1.5,1.5 0 0 0 -3,0 1.5,1.5 0 0 0 3,0 z"
         style="fill:none;stroke:#000000;stroke-width:0.2;stroke-linecap:round;stroke-dasharray:none"
         id="path387" />
      <path
         d="m 88.097075,95.735535 a 1.5000004,1.5000004 0 0 0 -3,0 1.5000004,1.5000004 0 0 0 3,0 z"
         style="fill:none;stroke:#000000;stroke-width:0.2;stroke-linecap:round;stroke-dasharray:none"
         id="path389" />
      <path
         d="m 50.668775,89.562621 a 1.5,1.5 0 0 0 -3,0 1.5,1.5 0 0 0 3,0 z"
         style="fill:none;stroke:#000000;stroke-width:0.2;stroke-linecap:round;stroke-dasharray:none"
         id="path391" />
      <path
         d="m 71.064075,105 a 1.5,1.5 0 0 0 -3,0 1.5,1.5 0 0 0 3,0 z"
         style="fill:none;stroke:#000000;stroke-width:0.2;stroke-linecap:round;stroke-dasharray:none"
         id="path393" />
      <path
         d="m 69.081525,128.79771 a 1.5,1.5 0 0 0 -3,0 1.5,1.5 0 0 0 3,0 z"
         style="fill:none;stroke:#000000;stroke-width:0.2;stroke-linecap:round;stroke-dasharray:none"
         id="path395" />
    </g>
  </g>
  <g
     inkscape:label="engrave_2"
     id="layer5"
     inkscape:groupmode="layer"
     style="display:none" />
  <g
     inkscape:label="engrave_1"
     id="layer6"
     inkscape:groupmode="layer"
     style="display:none" />
</svg>
