<?xml version="1.0" encoding="UTF-8" standalone="no"?>
<svg
   sodipodi:docname="extra-holes-template.svg"
   inkscape:version="1.2.1 (9c6d41e410, 2022-07-14)"
   id="svg8"
   version="1.1"
   viewBox="0 0 300 210"
   height="210mm"
   width="300mm"
   xmlns:inkscape="http://www.inkscape.org/namespaces/inkscape"
   xmlns:sodipodi="http://sodipodi.sourceforge.net/DTD/sodipodi-0.dtd"
   xmlns="http://www.w3.org/2000/svg"
   xmlns:svg="http://www.w3.org/2000/svg"
   xmlns:rdf="http://www.w3.org/1999/02/22-rdf-syntax-ns#"
   xmlns:cc="http://creativecommons.org/ns#"
   xmlns:dc="http://purl.org/dc/elements/1.1/">
  <defs
     id="defs2" />
  <sodipodi:namedview
     inkscape:window-maximized="1"
     inkscape:window-y="-8"
     inkscape:window-x="-8"
     inkscape:window-height="1369"
     inkscape:window-width="3440"
     inkscape:showpageshadow="false"
     borderlayer="true"
     showgrid="false"
     inkscape:document-rotation="0"
     inkscape:current-layer="layer3"
     inkscape:document-units="mm"
     inkscape:cy="357.14286"
     inkscape:cx="235.35714"
     inkscape:zoom="1.4"
     inkscape:pageshadow="2"
     inkscape:pageopacity="0.0"
     borderopacity="1.0"
     bordercolor="#666666"
     pagecolor="#ffffff"
     id="base"
     inkscape:pagecheckerboard="0"
     inkscape:deskcolor="#d1d1d1" />
  <metadata
     id="metadata5">
    <rdf:RDF>
      <cc:Work
         rdf:about="">
        <dc:format>image/svg+xml</dc:format>
        <dc:type
           rdf:resource="http://purl.org/dc/dcmitype/StillImage" />
      </cc:Work>
    </rdf:RDF>
  </metadata>
  <g
     sodipodi:insensitive="true"
     id="layer1"
     inkscape:groupmode="layer"
     inkscape:label="background"
     style="display:none">
    <rect
       y="0"
       x="0"
       height="210"
       width="300"
       id="rect833"
       style="fill:#000000;fill-opacity:0.0722891;stroke:none;stroke-width:0;stroke-miterlimit:1.5;stroke-dasharray:none" />
  </g>
  <g
     inkscape:label="cut_outermost"
     id="layer2"
     inkscape:groupmode="layer">
    <path
       style="fill:none;stroke:#000000;stroke-width:0.2;stroke-linecap:round;stroke-dasharray:none"
       d="M 81.40202,48.181271 V 98.7405"
       id="path199" />
    <path
       d="m 74.30327,48.414104 a 12,12 0 0 0 7.09876,-0.232013"
       style="fill:none;stroke:#000000;stroke-width:0.2;stroke-linecap:round;stroke-dasharray:none"
       id="path201" />
    <path
       d="M 45.94158,35.865208 A 104.6,104.6 0 0 0 74.30327,48.414104"
       style="fill:none;stroke:#000000;stroke-width:0.2;stroke-linecap:round;stroke-dasharray:none"
       id="path203" />
    <path
       d="m 44.62702,28.634172 a 5,5 0 0 0 1.31456,7.231036"
       style="fill:none;stroke:#000000;stroke-width:0.2;stroke-linecap:round;stroke-dasharray:none"
       id="path205" />
    <path
       style="fill:none;stroke:#000000;stroke-width:0.2;stroke-linecap:round;stroke-dasharray:none"
       d="m 46.29666,26.419292 -1.66952,2.214562"
       id="path207" />
    <path
       d="M 27.83121,9.381951 A 96.550524,96.550524 0 0 0 46.29663,26.418525"
       style="fill:none;stroke:#000000;stroke-width:0.2;stroke-linecap:round;stroke-dasharray:none"
       id="path209" />
    <path
       style="fill:none;stroke:#000000;stroke-width:0.2;stroke-linecap:round;stroke-dasharray:none"
       d="M 27.83112,9.382771 12.81814,29.305896"
       id="path211" />
    <path
       style="fill:none;stroke:#000000;stroke-width:0.2;stroke-linecap:round;stroke-dasharray:none"
       d="M 12.81814,29.305896 V 104.9"
       id="path213" />
    <path
       style="fill:none;stroke:#000000;stroke-width:0.2;stroke-linecap:round;stroke-dasharray:none"
       d="m 12.81814,104.9 h 7.97057"
       id="path215" />
    <path
       style="fill:none;stroke:#000000;stroke-width:0.2;stroke-linecap:round;stroke-dasharray:none"
       d="m 20.78871,104.9 6.15738,-6.1595"
       id="path217" />
    <path
       style="fill:none;stroke:#000000;stroke-width:0.2;stroke-linecap:round;stroke-dasharray:none"
       d="M 26.94609,98.7405 H 81.40202"
       id="path219" />
  </g>
  <g
     inkscape:label="cut_mid"
     id="layer3"
     inkscape:groupmode="layer">
    <path
       style="fill:none;stroke:#000000;stroke-width:0.2;stroke-linecap:round;stroke-dasharray:none"
       d="M 34.97831,55.642521 V 88.64135"
       id="path225" />
    <path
       d="m 38.97822,51.641624 a 3.9999999,3.9999999 0 0 0 -4,3.999997"
       style="fill:none;stroke:#000000;stroke-width:0.2;stroke-linecap:round;stroke-dasharray:none"
       id="path227" />
    <path
       style="fill:none;stroke:#000000;stroke-width:0.2;stroke-linecap:round;stroke-dasharray:none"
       d="M 58.97814,51.642021 H 38.97828"
       id="path229" />
    <path
       d="m 62.97822,55.641621 a 3.9999999,3.9999999 0 0 0 -4,-3.999997"
       style="fill:none;stroke:#000000;stroke-width:0.2;stroke-linecap:round;stroke-dasharray:none"
       id="path231" />
    <path
       style="fill:none;stroke:#000000;stroke-width:0.2;stroke-linecap:round;stroke-dasharray:none"
       d="M 62.97811,88.64135 V 55.642521"
       id="path233" />
    <path
       d="m 58.97822,92.64162 a 3.9999999,3.9999999 0 0 0 4,-4"
       style="fill:none;stroke:#000000;stroke-width:0.2;stroke-linecap:round;stroke-dasharray:none"
       id="path235" />
    <path
       style="fill:none;stroke:#000000;stroke-width:0.2;stroke-linecap:round;stroke-dasharray:none"
       d="M 38.97828,92.64185 H 58.97814"
       id="path237" />
    <path
       d="m 34.97822,88.64162 a 3.9999999,3.9999999 0 0 0 4,4"
       style="fill:none;stroke:#000000;stroke-width:0.2;stroke-linecap:round;stroke-dasharray:none"
       id="path239" />
    <path
       style="fill:none;stroke:#000000;stroke-width:0.2;stroke-linecap:round;stroke-dasharray:none"
       d="m 19.81822,89.48802 h 10.16"
       id="path247" />
    <path
       d="m 17.81822,87.48827 a 1.9999999,1.9999999 0 0 0 2,1.99999"
       style="fill:none;stroke:#000000;stroke-width:0.2;stroke-linecap:round;stroke-dasharray:none"
       id="path249" />
    <path
       style="fill:none;stroke:#000000;stroke-width:0.2;stroke-linecap:round;stroke-dasharray:none"
       d="M 17.81823,56.796104 V 87.48777"
       id="path251" />
    <path
       d="m 19.81822,54.794981 a 1.9999999,1.9999999 0 0 0 -2,2.000012"
       style="fill:none;stroke:#000000;stroke-width:0.2;stroke-linecap:round;stroke-dasharray:none"
       id="path253" />
    <path
       style="fill:none;stroke:#000000;stroke-width:0.2;stroke-linecap:round;stroke-dasharray:none"
       d="m 29.97822,54.795854 h -10.16"
       id="path255" />
    <path
       d="m 31.97822,56.794993 a 1.9999999,1.9999999 0 0 0 -2,-2.000012"
       style="fill:none;stroke:#000000;stroke-width:0.2;stroke-linecap:round;stroke-dasharray:none"
       id="path257" />
    <path
       style="fill:none;stroke:#000000;stroke-width:0.2;stroke-linecap:round;stroke-dasharray:none"
       d="M 31.9782,87.48777 V 56.796104"
       id="path259" />
    <path
       d="m 29.97822,89.48826 a 1.9999999,1.9999999 0 0 0 2,-1.99999"
       style="fill:none;stroke:#000000;stroke-width:0.2;stroke-linecap:round;stroke-dasharray:none"
       id="path261" />
  </g>
  <g
     inkscape:label="cut_innermost"
     id="layer4"
     inkscape:groupmode="layer">
    <path
       d="m 21.31822,46.141624 a 1.5000009,1.5000009 0 0 0 -3,0 1.5000009,1.5000009 0 0 0 3,0 z"
       style="fill:none;stroke:#000000;stroke-width:0.2;stroke-linecap:round;stroke-dasharray:none"
       id="path221" />
    <path
       d="m 37.30652,33.653556 a 1.5,1.5 0 0 0 -3,0 1.5,1.5 0 0 0 3,0 z"
       style="fill:none;stroke:#000000;stroke-width:0.2;stroke-linecap:round;stroke-dasharray:none"
       id="path223" />
    <path
       d="m 24.83949,25.312513 a 1.5000009,1.5000009 0 0 0 -3,0 1.5000009,1.5000009 0 0 0 3,0 z"
       style="fill:none;stroke:#000000;stroke-width:0.2;stroke-linecap:round;stroke-dasharray:none"
       id="path241" />
    <path
       d="m 20.31822,100.14163 a 1.5,1.5 0 0 0 -3,0 1.5,1.5 0 0 0 3,0 z"
       style="fill:none;stroke:#000000;stroke-width:0.2;stroke-linecap:round;stroke-dasharray:none"
       id="path243" />
    <path
       d="m 76.47822,53.763847 a 1.5,1.5 0 0 0 -3,0 1.5,1.5 0 0 0 3,0 z"
       style="fill:none;stroke:#000000;stroke-width:0.2;stroke-linecap:round;stroke-dasharray:none"
       id="path245" />
  </g>
  <g
     inkscape:label="engrave_2"
     id="layer5"
     inkscape:groupmode="layer"
     style="display:none" />
  <g
     inkscape:label="engrave_1"
     id="layer6"
     inkscape:groupmode="layer"
     style="display:none" />
</svg>
