ISO-10303-21;
HEADER;
/* Generated by software containing ST-Developer
 * from STEP Tools, Inc. (www.steptools.com) 
 */
/* OPTION: using custom renumber hook */

FILE_DESCRIPTION(
/* description */ ('STEP AP242 Edition 2',
'CAx-IF Rec.Pracs.---Representation and Presentation of Product Manufa
cturing Information (PMI)---4.0---2014-10-13',
'CAx-IF Rec.Pracs.---3D Tessellated Geometry---0.4---2014-09-14','2;1',
'CAx-IF Rec.Pracs.---User Defined Attributes---1.5---2016-08-15'),
/* implementation_level */ '2;1');

FILE_NAME(
/* name */ '698cdf14a470bfd90cbda248',
/* time_stamp */ '2026-02-11T19:57:09Z',
/* author */ (''),
/* organization */ (''),
/* preprocessor_version */ 'ST-DEVELOPER v20',
/* originating_system */ 'ONSHAPE BY PTC INC, 1.210',
/* authorisation */ '  ');

FILE_SCHEMA (('AP242_MANAGED_MODEL_BASED_3D_ENGINEERING_MIM_LF { 1 0 10303 442 3 1 4 }'));
ENDSEC;

DATA;
#10=SHAPE_REPRESENTATION_RELATIONSHIP('','',#990,#11);
#11=ADVANCED_BREP_SHAPE_REPRESENTATION('',(#988),#1702);
#12=TOROIDAL_SURFACE('',#1065,0.00535,0.0016);
#13=TOROIDAL_SURFACE('',#1067,0.00535,0.0016);
#14=TOROIDAL_SURFACE('',#1073,0.00535,0.0016);
#15=TOROIDAL_SURFACE('',#1075,0.00535,0.0016);
#16=CONICAL_SURFACE('',#1038,0.0185,0.785398163397448);
#17=CONICAL_SURFACE('',#1055,0.008,0.785398163397448);
#18=B_SPLINE_CURVE_WITH_KNOTS('',3,(#1442,#1443,#1444,#1445,#1446,#1447,
#1448,#1449,#1450),.UNSPECIFIED.,.F.,.F.,(4,1,1,1,1,1,4),(8.84538885469324E-18,
0.00231765758893112,0.00463531517786224,0.00695297276679336,0.00927063035572447,
0.0139059455335867,0.0185412607114489),.UNSPECIFIED.);
#19=B_SPLINE_CURVE_WITH_KNOTS('',3,(#1459,#1460,#1461,#1462,#1463,#1464,
#1465,#1466,#1467),.UNSPECIFIED.,.F.,.F.,(4,1,1,1,1,1,4),(1.35486234660355E-17,
0.00231765758893113,0.00463531517786224,0.00695297276679335,0.00927063035572446,
0.0139059455335867,0.0185412607114489),.UNSPECIFIED.);
#20=B_SPLINE_CURVE_WITH_KNOTS('',3,(#1498,#1499,#1500,#1501,#1502,#1503,
#1504,#1505,#1506),.UNSPECIFIED.,.F.,.F.,(4,1,1,1,1,1,4),(0.,0.00231765758893112,
0.00463531517786223,0.00695297276679335,0.00927063035572446,0.0139059455335867,
0.0185412607114489),.UNSPECIFIED.);
#21=B_SPLINE_CURVE_WITH_KNOTS('',3,(#1515,#1516,#1517,#1518,#1519,#1520,
#1521,#1522,#1523),.UNSPECIFIED.,.F.,.F.,(4,1,1,1,1,1,4),(0.,0.00231765758893111,
0.00463531517786222,0.00695297276679333,0.00927063035572444,0.0139059455335867,
0.0185412607114489),.UNSPECIFIED.);
#22=B_SPLINE_CURVE_WITH_KNOTS('',3,(#1560,#1561,#1562,#1563),
 .UNSPECIFIED.,.F.,.F.,(4,4),(7.71790771763262E-7,0.00239457465621945),
 .UNSPECIFIED.);
#23=CYLINDRICAL_SURFACE('',#1003,0.00695);
#24=CYLINDRICAL_SURFACE('',#1007,0.00695);
#25=CYLINDRICAL_SURFACE('',#1014,0.0104174735871491);
#26=CYLINDRICAL_SURFACE('',#1016,0.0104174735871491);
#27=CYLINDRICAL_SURFACE('',#1018,0.0104174735871491);
#28=CYLINDRICAL_SURFACE('',#1020,0.0104174735871491);
#29=CYLINDRICAL_SURFACE('',#1029,0.004);
#30=CYLINDRICAL_SURFACE('',#1031,0.0185);
#31=CYLINDRICAL_SURFACE('',#1043,0.0013);
#32=CYLINDRICAL_SURFACE('',#1045,0.00695);
#33=CYLINDRICAL_SURFACE('',#1048,0.00695);
#34=CYLINDRICAL_SURFACE('',#1052,0.003);
#35=CYLINDRICAL_SURFACE('',#1054,0.003);
#36=CYLINDRICAL_SURFACE('',#1062,0.0016);
#37=CYLINDRICAL_SURFACE('',#1069,0.0016);
#38=CYLINDRICAL_SURFACE('',#1070,0.0016);
#39=CYLINDRICAL_SURFACE('',#1077,0.0016);
#40=CYLINDRICAL_SURFACE('',#1088,0.001);
#41=CYLINDRICAL_SURFACE('',#1089,0.001);
#42=CYLINDRICAL_SURFACE('',#1090,0.001);
#43=CYLINDRICAL_SURFACE('',#1091,0.001);
#44=CYLINDRICAL_SURFACE('',#1092,0.001);
#45=CIRCLE('',#996,0.001);
#46=CIRCLE('',#997,0.001);
#47=CIRCLE('',#1001,0.008);
#48=CIRCLE('',#1002,0.0185);
#49=CIRCLE('',#1004,0.00695);
#50=CIRCLE('',#1005,0.00695);
#51=CIRCLE('',#1008,0.00695);
#52=CIRCLE('',#1009,0.00695);
#53=CIRCLE('',#1015,0.0104174735871491);
#54=CIRCLE('',#1017,0.0104174735871491);
#55=CIRCLE('',#1019,0.0104174735871491);
#56=CIRCLE('',#1021,0.0104174735871491);
#57=CIRCLE('',#1026,0.0013);
#58=CIRCLE('',#1028,0.0013);
#59=CIRCLE('',#1030,0.004);
#60=CIRCLE('',#1032,0.0185);
#61=CIRCLE('',#1041,0.00695);
#62=CIRCLE('',#1042,0.00695);
#63=CIRCLE('',#1046,0.00695);
#64=CIRCLE('',#1049,0.00695);
#65=CIRCLE('',#1057,0.00535);
#66=CIRCLE('',#1058,0.00535);
#67=CIRCLE('',#1060,0.00535);
#68=CIRCLE('',#1061,0.00535);
#69=CIRCLE('',#1063,0.0016);
#70=CIRCLE('',#1064,0.0016);
#71=CIRCLE('',#1066,0.0016);
#72=CIRCLE('',#1068,0.0016);
#73=CIRCLE('',#1071,0.0016);
#74=CIRCLE('',#1072,0.0016);
#75=CIRCLE('',#1074,0.0016);
#76=CIRCLE('',#1076,0.0016);
#77=ELLIPSE('',#993,0.00369350447524327,0.001);
#78=ELLIPSE('',#995,0.00415519253464867,0.004);
#79=ELLIPSE('',#998,0.0146643486270527,0.0135468238677373);
#80=ELLIPSE('',#999,0.00369350447524327,0.001);
#81=ELLIPSE('',#1012,0.00346410161513772,0.003);
#82=ELLIPSE('',#1013,0.00346410161513774,0.003);
#83=ELLIPSE('',#1023,0.00346410161513773,0.003);
#84=ELLIPSE('',#1024,0.00346410161513774,0.003);
#85=ELLIPSE('',#1033,0.0261629509039022,0.0185);
#86=ELLIPSE('',#1035,0.00103879813366217,0.001);
#87=ELLIPSE('',#1036,0.00103879813366217,0.001);
#88=ELLIPSE('',#1079,0.00120254273068414,0.001);
#89=ELLIPSE('',#1081,0.00120254273068414,0.001);
#90=ELLIPSE('',#1083,0.00120254273068414,0.001);
#91=ELLIPSE('',#1085,0.00120254273068414,0.001);
#92=ELLIPSE('',#1087,0.00120254273068414,0.001);
#93=ORIENTED_EDGE('',*,*,#369,.F.);
#94=ORIENTED_EDGE('',*,*,#370,.T.);
#95=ORIENTED_EDGE('',*,*,#371,.T.);
#96=ORIENTED_EDGE('',*,*,#372,.T.);
#97=ORIENTED_EDGE('',*,*,#373,.F.);
#98=ORIENTED_EDGE('',*,*,#374,.T.);
#99=ORIENTED_EDGE('',*,*,#375,.F.);
#100=ORIENTED_EDGE('',*,*,#376,.F.);
#101=ORIENTED_EDGE('',*,*,#377,.T.);
#102=ORIENTED_EDGE('',*,*,#378,.F.);
#103=ORIENTED_EDGE('',*,*,#379,.T.);
#104=ORIENTED_EDGE('',*,*,#380,.F.);
#105=ORIENTED_EDGE('',*,*,#381,.F.);
#106=ORIENTED_EDGE('',*,*,#382,.T.);
#107=ORIENTED_EDGE('',*,*,#383,.T.);
#108=ORIENTED_EDGE('',*,*,#384,.F.);
#109=ORIENTED_EDGE('',*,*,#385,.T.);
#110=ORIENTED_EDGE('',*,*,#386,.T.);
#111=ORIENTED_EDGE('',*,*,#387,.T.);
#112=ORIENTED_EDGE('',*,*,#388,.F.);
#113=ORIENTED_EDGE('',*,*,#389,.F.);
#114=ORIENTED_EDGE('',*,*,#390,.T.);
#115=ORIENTED_EDGE('',*,*,#391,.F.);
#116=ORIENTED_EDGE('',*,*,#392,.F.);
#117=ORIENTED_EDGE('',*,*,#393,.F.);
#118=ORIENTED_EDGE('',*,*,#388,.T.);
#119=ORIENTED_EDGE('',*,*,#394,.T.);
#120=ORIENTED_EDGE('',*,*,#395,.F.);
#121=ORIENTED_EDGE('',*,*,#396,.F.);
#122=ORIENTED_EDGE('',*,*,#397,.F.);
#123=ORIENTED_EDGE('',*,*,#395,.T.);
#124=ORIENTED_EDGE('',*,*,#398,.T.);
#125=ORIENTED_EDGE('',*,*,#399,.F.);
#126=ORIENTED_EDGE('',*,*,#400,.T.);
#127=ORIENTED_EDGE('',*,*,#399,.T.);
#128=ORIENTED_EDGE('',*,*,#401,.T.);
#129=ORIENTED_EDGE('',*,*,#386,.F.);
#130=ORIENTED_EDGE('',*,*,#402,.F.);
#131=ORIENTED_EDGE('',*,*,#403,.F.);
#132=ORIENTED_EDGE('',*,*,#404,.F.);
#133=ORIENTED_EDGE('',*,*,#405,.T.);
#134=ORIENTED_EDGE('',*,*,#406,.T.);
#135=ORIENTED_EDGE('',*,*,#407,.F.);
#136=ORIENTED_EDGE('',*,*,#408,.F.);
#137=ORIENTED_EDGE('',*,*,#409,.T.);
#138=ORIENTED_EDGE('',*,*,#410,.F.);
#139=ORIENTED_EDGE('',*,*,#411,.T.);
#140=ORIENTED_EDGE('',*,*,#412,.F.);
#141=ORIENTED_EDGE('',*,*,#407,.T.);
#142=ORIENTED_EDGE('',*,*,#413,.T.);
#143=ORIENTED_EDGE('',*,*,#414,.F.);
#144=ORIENTED_EDGE('',*,*,#415,.F.);
#145=ORIENTED_EDGE('',*,*,#416,.T.);
#146=ORIENTED_EDGE('',*,*,#417,.F.);
#147=ORIENTED_EDGE('',*,*,#418,.F.);
#148=ORIENTED_EDGE('',*,*,#419,.F.);
#149=ORIENTED_EDGE('',*,*,#420,.T.);
#150=ORIENTED_EDGE('',*,*,#421,.F.);
#151=ORIENTED_EDGE('',*,*,#422,.T.);
#152=ORIENTED_EDGE('',*,*,#423,.T.);
#153=ORIENTED_EDGE('',*,*,#424,.F.);
#154=ORIENTED_EDGE('',*,*,#389,.T.);
#155=ORIENTED_EDGE('',*,*,#397,.T.);
#156=ORIENTED_EDGE('',*,*,#425,.F.);
#157=ORIENTED_EDGE('',*,*,#426,.T.);
#158=ORIENTED_EDGE('',*,*,#427,.F.);
#159=ORIENTED_EDGE('',*,*,#402,.T.);
#160=ORIENTED_EDGE('',*,*,#393,.T.);
#161=ORIENTED_EDGE('',*,*,#428,.F.);
#162=ORIENTED_EDGE('',*,*,#429,.F.);
#163=ORIENTED_EDGE('',*,*,#430,.T.);
#164=ORIENTED_EDGE('',*,*,#431,.F.);
#165=ORIENTED_EDGE('',*,*,#432,.T.);
#166=ORIENTED_EDGE('',*,*,#433,.T.);
#167=ORIENTED_EDGE('',*,*,#434,.F.);
#168=ORIENTED_EDGE('',*,*,#405,.F.);
#169=ORIENTED_EDGE('',*,*,#435,.T.);
#170=ORIENTED_EDGE('',*,*,#436,.F.);
#171=ORIENTED_EDGE('',*,*,#437,.T.);
#172=ORIENTED_EDGE('',*,*,#438,.F.);
#173=ORIENTED_EDGE('',*,*,#371,.F.);
#174=ORIENTED_EDGE('',*,*,#382,.F.);
#175=ORIENTED_EDGE('',*,*,#439,.F.);
#176=ORIENTED_EDGE('',*,*,#440,.T.);
#177=ORIENTED_EDGE('',*,*,#390,.F.);
#178=ORIENTED_EDGE('',*,*,#426,.F.);
#179=ORIENTED_EDGE('',*,*,#441,.F.);
#180=ORIENTED_EDGE('',*,*,#432,.F.);
#181=ORIENTED_EDGE('',*,*,#442,.T.);
#182=ORIENTED_EDGE('',*,*,#415,.T.);
#183=ORIENTED_EDGE('',*,*,#443,.T.);
#184=ORIENTED_EDGE('',*,*,#419,.T.);
#185=ORIENTED_EDGE('',*,*,#444,.F.);
#186=ORIENTED_EDGE('',*,*,#445,.F.);
#187=ORIENTED_EDGE('',*,*,#446,.T.);
#188=ORIENTED_EDGE('',*,*,#379,.F.);
#189=ORIENTED_EDGE('',*,*,#447,.T.);
#190=ORIENTED_EDGE('',*,*,#448,.T.);
#191=ORIENTED_EDGE('',*,*,#423,.F.);
#192=ORIENTED_EDGE('',*,*,#449,.F.);
#193=ORIENTED_EDGE('',*,*,#413,.F.);
#194=ORIENTED_EDGE('',*,*,#406,.F.);
#195=ORIENTED_EDGE('',*,*,#434,.T.);
#196=ORIENTED_EDGE('',*,*,#450,.T.);
#197=ORIENTED_EDGE('',*,*,#428,.T.);
#198=ORIENTED_EDGE('',*,*,#392,.T.);
#199=ORIENTED_EDGE('',*,*,#451,.F.);
#200=ORIENTED_EDGE('',*,*,#452,.T.);
#201=ORIENTED_EDGE('',*,*,#453,.T.);
#202=ORIENTED_EDGE('',*,*,#372,.F.);
#203=ORIENTED_EDGE('',*,*,#391,.T.);
#204=ORIENTED_EDGE('',*,*,#440,.F.);
#205=ORIENTED_EDGE('',*,*,#454,.F.);
#206=ORIENTED_EDGE('',*,*,#455,.T.);
#207=ORIENTED_EDGE('',*,*,#451,.T.);
#208=ORIENTED_EDGE('',*,*,#456,.T.);
#209=ORIENTED_EDGE('',*,*,#457,.T.);
#210=ORIENTED_EDGE('',*,*,#458,.T.);
#211=ORIENTED_EDGE('',*,*,#459,.T.);
#212=ORIENTED_EDGE('',*,*,#444,.T.);
#213=ORIENTED_EDGE('',*,*,#418,.T.);
#214=ORIENTED_EDGE('',*,*,#460,.F.);
#215=ORIENTED_EDGE('',*,*,#461,.T.);
#216=ORIENTED_EDGE('',*,*,#462,.T.);
#217=ORIENTED_EDGE('',*,*,#424,.T.);
#218=ORIENTED_EDGE('',*,*,#448,.F.);
#219=ORIENTED_EDGE('',*,*,#463,.T.);
#220=ORIENTED_EDGE('',*,*,#464,.T.);
#221=ORIENTED_EDGE('',*,*,#465,.T.);
#222=ORIENTED_EDGE('',*,*,#466,.T.);
#223=ORIENTED_EDGE('',*,*,#380,.T.);
#224=ORIENTED_EDGE('',*,*,#452,.F.);
#225=ORIENTED_EDGE('',*,*,#455,.F.);
#226=ORIENTED_EDGE('',*,*,#439,.T.);
#227=ORIENTED_EDGE('',*,*,#381,.T.);
#228=ORIENTED_EDGE('',*,*,#466,.F.);
#229=ORIENTED_EDGE('',*,*,#454,.T.);
#230=ORIENTED_EDGE('',*,*,#431,.T.);
#231=ORIENTED_EDGE('',*,*,#467,.T.);
#232=ORIENTED_EDGE('',*,*,#416,.F.);
#233=ORIENTED_EDGE('',*,*,#442,.F.);
#234=ORIENTED_EDGE('',*,*,#468,.F.);
#235=ORIENTED_EDGE('',*,*,#420,.F.);
#236=ORIENTED_EDGE('',*,*,#443,.F.);
#237=ORIENTED_EDGE('',*,*,#414,.T.);
#238=ORIENTED_EDGE('',*,*,#449,.T.);
#239=ORIENTED_EDGE('',*,*,#422,.F.);
#240=ORIENTED_EDGE('',*,*,#469,.F.);
#241=ORIENTED_EDGE('',*,*,#470,.T.);
#242=ORIENTED_EDGE('',*,*,#446,.F.);
#243=ORIENTED_EDGE('',*,*,#445,.T.);
#244=ORIENTED_EDGE('',*,*,#425,.T.);
#245=ORIENTED_EDGE('',*,*,#396,.T.);
#246=ORIENTED_EDGE('',*,*,#400,.F.);
#247=ORIENTED_EDGE('',*,*,#403,.T.);
#248=ORIENTED_EDGE('',*,*,#427,.T.);
#249=ORIENTED_EDGE('',*,*,#450,.F.);
#250=ORIENTED_EDGE('',*,*,#433,.F.);
#251=ORIENTED_EDGE('',*,*,#441,.T.);
#252=ORIENTED_EDGE('',*,*,#471,.F.);
#253=ORIENTED_EDGE('',*,*,#472,.T.);
#254=ORIENTED_EDGE('',*,*,#460,.T.);
#255=ORIENTED_EDGE('',*,*,#417,.T.);
#256=ORIENTED_EDGE('',*,*,#468,.T.);
#257=ORIENTED_EDGE('',*,*,#473,.F.);
#258=ORIENTED_EDGE('',*,*,#474,.T.);
#259=ORIENTED_EDGE('',*,*,#471,.T.);
#260=ORIENTED_EDGE('',*,*,#470,.F.);
#261=ORIENTED_EDGE('',*,*,#462,.F.);
#262=ORIENTED_EDGE('',*,*,#475,.T.);
#263=ORIENTED_EDGE('',*,*,#473,.T.);
#264=ORIENTED_EDGE('',*,*,#469,.T.);
#265=ORIENTED_EDGE('',*,*,#421,.T.);
#266=ORIENTED_EDGE('',*,*,#408,.T.);
#267=ORIENTED_EDGE('',*,*,#467,.F.);
#268=ORIENTED_EDGE('',*,*,#430,.F.);
#269=ORIENTED_EDGE('',*,*,#476,.T.);
#270=ORIENTED_EDGE('',*,*,#412,.T.);
#271=ORIENTED_EDGE('',*,*,#477,.F.);
#272=ORIENTED_EDGE('',*,*,#435,.F.);
#273=ORIENTED_EDGE('',*,*,#404,.T.);
#274=ORIENTED_EDGE('',*,*,#478,.F.);
#275=ORIENTED_EDGE('',*,*,#436,.T.);
#276=ORIENTED_EDGE('',*,*,#477,.T.);
#277=ORIENTED_EDGE('',*,*,#411,.F.);
#278=ORIENTED_EDGE('',*,*,#410,.T.);
#279=ORIENTED_EDGE('',*,*,#479,.F.);
#280=ORIENTED_EDGE('',*,*,#437,.F.);
#281=ORIENTED_EDGE('',*,*,#478,.T.);
#282=ORIENTED_EDGE('',*,*,#476,.F.);
#283=ORIENTED_EDGE('',*,*,#429,.T.);
#284=ORIENTED_EDGE('',*,*,#479,.T.);
#285=ORIENTED_EDGE('',*,*,#409,.F.);
#286=ORIENTED_EDGE('',*,*,#453,.F.);
#287=ORIENTED_EDGE('',*,*,#385,.F.);
#288=ORIENTED_EDGE('',*,*,#480,.T.);
#289=ORIENTED_EDGE('',*,*,#481,.T.);
#290=ORIENTED_EDGE('',*,*,#482,.T.);
#291=ORIENTED_EDGE('',*,*,#483,.T.);
#292=ORIENTED_EDGE('',*,*,#484,.T.);
#293=ORIENTED_EDGE('',*,*,#485,.T.);
#294=ORIENTED_EDGE('',*,*,#486,.T.);
#295=ORIENTED_EDGE('',*,*,#487,.T.);
#296=ORIENTED_EDGE('',*,*,#488,.F.);
#297=ORIENTED_EDGE('',*,*,#387,.F.);
#298=ORIENTED_EDGE('',*,*,#489,.F.);
#299=ORIENTED_EDGE('',*,*,#487,.F.);
#300=ORIENTED_EDGE('',*,*,#489,.T.);
#301=ORIENTED_EDGE('',*,*,#401,.F.);
#302=ORIENTED_EDGE('',*,*,#490,.F.);
#303=ORIENTED_EDGE('',*,*,#484,.F.);
#304=ORIENTED_EDGE('',*,*,#488,.T.);
#305=ORIENTED_EDGE('',*,*,#486,.F.);
#306=ORIENTED_EDGE('',*,*,#491,.F.);
#307=ORIENTED_EDGE('',*,*,#394,.F.);
#308=ORIENTED_EDGE('',*,*,#490,.T.);
#309=ORIENTED_EDGE('',*,*,#398,.F.);
#310=ORIENTED_EDGE('',*,*,#491,.T.);
#311=ORIENTED_EDGE('',*,*,#485,.F.);
#312=ORIENTED_EDGE('',*,*,#492,.F.);
#313=ORIENTED_EDGE('',*,*,#483,.F.);
#314=ORIENTED_EDGE('',*,*,#493,.F.);
#315=ORIENTED_EDGE('',*,*,#461,.F.);
#316=ORIENTED_EDGE('',*,*,#493,.T.);
#317=ORIENTED_EDGE('',*,*,#482,.F.);
#318=ORIENTED_EDGE('',*,*,#494,.F.);
#319=ORIENTED_EDGE('',*,*,#475,.F.);
#320=ORIENTED_EDGE('',*,*,#492,.T.);
#321=ORIENTED_EDGE('',*,*,#472,.F.);
#322=ORIENTED_EDGE('',*,*,#495,.F.);
#323=ORIENTED_EDGE('',*,*,#480,.F.);
#324=ORIENTED_EDGE('',*,*,#494,.T.);
#325=ORIENTED_EDGE('',*,*,#481,.F.);
#326=ORIENTED_EDGE('',*,*,#495,.T.);
#327=ORIENTED_EDGE('',*,*,#474,.F.);
#328=ORIENTED_EDGE('',*,*,#496,.T.);
#329=ORIENTED_EDGE('',*,*,#458,.F.);
#330=ORIENTED_EDGE('',*,*,#497,.T.);
#331=ORIENTED_EDGE('',*,*,#373,.T.);
#332=ORIENTED_EDGE('',*,*,#498,.F.);
#333=ORIENTED_EDGE('',*,*,#499,.T.);
#334=ORIENTED_EDGE('',*,*,#375,.T.);
#335=ORIENTED_EDGE('',*,*,#500,.T.);
#336=ORIENTED_EDGE('',*,*,#456,.F.);
#337=ORIENTED_EDGE('',*,*,#501,.T.);
#338=ORIENTED_EDGE('',*,*,#502,.T.);
#339=ORIENTED_EDGE('',*,*,#465,.F.);
#340=ORIENTED_EDGE('',*,*,#503,.T.);
#341=ORIENTED_EDGE('',*,*,#376,.T.);
#342=ORIENTED_EDGE('',*,*,#501,.F.);
#343=ORIENTED_EDGE('',*,*,#384,.T.);
#344=ORIENTED_EDGE('',*,*,#504,.T.);
#345=ORIENTED_EDGE('',*,*,#369,.T.);
#346=ORIENTED_EDGE('',*,*,#438,.T.);
#347=ORIENTED_EDGE('',*,*,#459,.F.);
#348=ORIENTED_EDGE('',*,*,#498,.T.);
#349=ORIENTED_EDGE('',*,*,#505,.T.);
#350=ORIENTED_EDGE('',*,*,#378,.T.);
#351=ORIENTED_EDGE('',*,*,#506,.T.);
#352=ORIENTED_EDGE('',*,*,#463,.F.);
#353=ORIENTED_EDGE('',*,*,#447,.F.);
#354=ORIENTED_EDGE('',*,*,#505,.F.);
#355=ORIENTED_EDGE('',*,*,#502,.F.);
#356=ORIENTED_EDGE('',*,*,#504,.F.);
#357=ORIENTED_EDGE('',*,*,#383,.F.);
#358=ORIENTED_EDGE('',*,*,#370,.F.);
#359=ORIENTED_EDGE('',*,*,#499,.F.);
#360=ORIENTED_EDGE('',*,*,#496,.F.);
#361=ORIENTED_EDGE('',*,*,#457,.F.);
#362=ORIENTED_EDGE('',*,*,#500,.F.);
#363=ORIENTED_EDGE('',*,*,#374,.F.);
#364=ORIENTED_EDGE('',*,*,#497,.F.);
#365=ORIENTED_EDGE('',*,*,#464,.F.);
#366=ORIENTED_EDGE('',*,*,#506,.F.);
#367=ORIENTED_EDGE('',*,*,#377,.F.);
#368=ORIENTED_EDGE('',*,*,#503,.F.);
#369=EDGE_CURVE('',#507,#508,#599,.T.);
#370=EDGE_CURVE('',#507,#509,#77,.T.);
#371=EDGE_CURVE('',#509,#508,#600,.T.);
#372=EDGE_CURVE('',#510,#510,#78,.T.);
#373=EDGE_CURVE('',#511,#512,#601,.T.);
#374=EDGE_CURVE('',#511,#513,#45,.F.);
#375=EDGE_CURVE('',#514,#513,#602,.T.);
#376=EDGE_CURVE('',#515,#514,#603,.T.);
#377=EDGE_CURVE('',#515,#516,#46,.F.);
#378=EDGE_CURVE('',#517,#516,#604,.T.);
#379=EDGE_CURVE('',#517,#518,#605,.T.);
#380=EDGE_CURVE('',#519,#518,#606,.T.);
#381=EDGE_CURVE('',#520,#519,#79,.T.);
#382=EDGE_CURVE('',#520,#509,#607,.T.);
#383=EDGE_CURVE('',#509,#521,#80,.T.);
#384=EDGE_CURVE('',#512,#521,#608,.T.);
#385=EDGE_CURVE('',#522,#522,#47,.T.);
#386=EDGE_CURVE('',#523,#524,#609,.T.);
#387=EDGE_CURVE('',#524,#525,#610,.F.);
#388=EDGE_CURVE('',#526,#525,#611,.T.);
#389=EDGE_CURVE('',#527,#526,#612,.T.);
#390=EDGE_CURVE('',#527,#528,#613,.T.);
#391=EDGE_CURVE('',#529,#528,#48,.T.);
#392=EDGE_CURVE('',#530,#529,#614,.T.);
#393=EDGE_CURVE('',#523,#530,#615,.T.);
#394=EDGE_CURVE('',#525,#531,#49,.T.);
#395=EDGE_CURVE('',#532,#531,#616,.T.);
#396=EDGE_CURVE('',#533,#532,#50,.F.);
#397=EDGE_CURVE('',#526,#533,#18,.F.);
#398=EDGE_CURVE('',#531,#534,#617,.F.);
#399=EDGE_CURVE('',#535,#534,#618,.T.);
#400=EDGE_CURVE('',#535,#532,#619,.T.);
#401=EDGE_CURVE('',#534,#524,#51,.T.);
#402=EDGE_CURVE('',#536,#523,#19,.T.);
#403=EDGE_CURVE('',#535,#536,#52,.F.);
#404=EDGE_CURVE('',#537,#538,#620,.T.);
#405=EDGE_CURVE('',#537,#539,#621,.T.);
#406=EDGE_CURVE('',#539,#540,#622,.T.);
#407=EDGE_CURVE('',#538,#540,#623,.T.);
#408=EDGE_CURVE('',#541,#542,#624,.T.);
#409=EDGE_CURVE('',#541,#543,#81,.T.);
#410=EDGE_CURVE('',#544,#543,#625,.T.);
#411=EDGE_CURVE('',#544,#545,#82,.T.);
#412=EDGE_CURVE('',#538,#545,#626,.T.);
#413=EDGE_CURVE('',#540,#546,#627,.T.);
#414=EDGE_CURVE('',#547,#546,#628,.T.);
#415=EDGE_CURVE('',#548,#547,#629,.T.);
#416=EDGE_CURVE('',#548,#542,#630,.T.);
#417=EDGE_CURVE('',#549,#550,#20,.F.);
#418=EDGE_CURVE('',#551,#549,#631,.T.);
#419=EDGE_CURVE('',#552,#551,#53,.F.);
#420=EDGE_CURVE('',#552,#550,#632,.T.);
#421=EDGE_CURVE('',#553,#554,#21,.T.);
#422=EDGE_CURVE('',#553,#555,#633,.T.);
#423=EDGE_CURVE('',#555,#556,#54,.T.);
#424=EDGE_CURVE('',#554,#556,#634,.T.);
#425=EDGE_CURVE('',#557,#533,#635,.T.);
#426=EDGE_CURVE('',#557,#527,#55,.T.);
#427=EDGE_CURVE('',#536,#558,#636,.T.);
#428=EDGE_CURVE('',#558,#530,#56,.T.);
#429=EDGE_CURVE('',#559,#560,#83,.T.);
#430=EDGE_CURVE('',#559,#561,#637,.T.);
#431=EDGE_CURVE('',#562,#561,#638,.T.);
#432=EDGE_CURVE('',#562,#563,#639,.T.);
#433=EDGE_CURVE('',#563,#564,#640,.T.);
#434=EDGE_CURVE('',#539,#564,#641,.T.);
#435=EDGE_CURVE('',#537,#565,#642,.T.);
#436=EDGE_CURVE('',#566,#565,#84,.T.);
#437=EDGE_CURVE('',#566,#560,#643,.T.);
#438=EDGE_CURVE('',#508,#567,#644,.T.);
#439=EDGE_CURVE('',#568,#520,#22,.T.);
#440=EDGE_CURVE('',#568,#528,#645,.T.);
#441=EDGE_CURVE('',#563,#557,#646,.T.);
#442=EDGE_CURVE('',#562,#548,#647,.T.);
#443=EDGE_CURVE('',#547,#552,#648,.T.);
#444=EDGE_CURVE('',#567,#551,#649,.T.);
#445=EDGE_CURVE('',#569,#569,#57,.T.);
#446=EDGE_CURVE('',#570,#570,#58,.T.);
#447=EDGE_CURVE('',#517,#571,#650,.T.);
#448=EDGE_CURVE('',#571,#556,#651,.T.);
#449=EDGE_CURVE('',#546,#555,#652,.T.);
#450=EDGE_CURVE('',#564,#558,#653,.T.);
#451=EDGE_CURVE('',#572,#529,#654,.T.);
#452=EDGE_CURVE('',#572,#518,#655,.T.);
#453=EDGE_CURVE('',#573,#573,#59,.F.);
#454=EDGE_CURVE('',#574,#568,#60,.T.);
#455=EDGE_CURVE('',#574,#572,#85,.T.);
#456=EDGE_CURVE('',#575,#576,#656,.T.);
#457=EDGE_CURVE('',#576,#577,#86,.F.);
#458=EDGE_CURVE('',#577,#578,#657,.T.);
#459=EDGE_CURVE('',#578,#567,#658,.T.);
#460=EDGE_CURVE('',#579,#549,#659,.T.);
#461=EDGE_CURVE('',#579,#580,#660,.T.);
#462=EDGE_CURVE('',#580,#554,#661,.T.);
#463=EDGE_CURVE('',#571,#581,#662,.T.);
#464=EDGE_CURVE('',#581,#582,#87,.F.);
#465=EDGE_CURVE('',#582,#575,#663,.T.);
#466=EDGE_CURVE('',#574,#519,#664,.T.);
#467=EDGE_CURVE('',#561,#542,#665,.T.);
#468=EDGE_CURVE('',#550,#583,#61,.F.);
#469=EDGE_CURVE('',#584,#553,#62,.F.);
#470=EDGE_CURVE('',#584,#583,#666,.T.);
#471=EDGE_CURVE('',#585,#583,#667,.T.);
#472=EDGE_CURVE('',#585,#579,#63,.F.);
#473=EDGE_CURVE('',#586,#584,#668,.T.);
#474=EDGE_CURVE('',#586,#585,#669,.T.);
#475=EDGE_CURVE('',#580,#586,#64,.F.);
#476=EDGE_CURVE('',#559,#541,#670,.T.);
#477=EDGE_CURVE('',#565,#545,#671,.T.);
#478=EDGE_CURVE('',#566,#544,#672,.T.);
#479=EDGE_CURVE('',#560,#543,#673,.T.);
#480=EDGE_CURVE('',#587,#588,#65,.T.);
#481=EDGE_CURVE('',#588,#589,#674,.F.);
#482=EDGE_CURVE('',#589,#590,#66,.T.);
#483=EDGE_CURVE('',#590,#587,#675,.F.);
#484=EDGE_CURVE('',#591,#592,#67,.F.);
#485=EDGE_CURVE('',#592,#593,#676,.T.);
#486=EDGE_CURVE('',#593,#594,#68,.F.);
#487=EDGE_CURVE('',#594,#591,#677,.T.);
#488=EDGE_CURVE('',#525,#594,#69,.T.);
#489=EDGE_CURVE('',#591,#524,#70,.T.);
#490=EDGE_CURVE('',#592,#534,#71,.T.);
#491=EDGE_CURVE('',#531,#593,#72,.T.);
#492=EDGE_CURVE('',#587,#579,#73,.T.);
#493=EDGE_CURVE('',#580,#590,#74,.T.);
#494=EDGE_CURVE('',#586,#589,#75,.T.);
#495=EDGE_CURVE('',#588,#585,#76,.T.);
#496=EDGE_CURVE('',#595,#595,#88,.T.);
#497=EDGE_CURVE('',#577,#511,#678,.T.);
#498=EDGE_CURVE('',#578,#512,#679,.T.);
#499=EDGE_CURVE('',#596,#596,#89,.T.);
#500=EDGE_CURVE('',#513,#576,#680,.F.);
#501=EDGE_CURVE('',#575,#514,#681,.T.);
#502=EDGE_CURVE('',#597,#597,#90,.T.);
#503=EDGE_CURVE('',#582,#515,#682,.T.);
#504=EDGE_CURVE('',#521,#507,#91,.T.);
#505=EDGE_CURVE('',#598,#598,#92,.T.);
#506=EDGE_CURVE('',#516,#581,#683,.F.);
#507=VERTEX_POINT('',#1385);
#508=VERTEX_POINT('',#1386);
#509=VERTEX_POINT('',#1388);
#510=VERTEX_POINT('',#1392);
#511=VERTEX_POINT('',#1394);
#512=VERTEX_POINT('',#1395);
#513=VERTEX_POINT('',#1397);
#514=VERTEX_POINT('',#1399);
#515=VERTEX_POINT('',#1401);
#516=VERTEX_POINT('',#1403);
#517=VERTEX_POINT('',#1405);
#518=VERTEX_POINT('',#1407);
#519=VERTEX_POINT('',#1409);
#520=VERTEX_POINT('',#1411);
#521=VERTEX_POINT('',#1414);
#522=VERTEX_POINT('',#1418);
#523=VERTEX_POINT('',#1420);
#524=VERTEX_POINT('',#1421);
#525=VERTEX_POINT('',#1423);
#526=VERTEX_POINT('',#1425);
#527=VERTEX_POINT('',#1427);
#528=VERTEX_POINT('',#1429);
#529=VERTEX_POINT('',#1431);
#530=VERTEX_POINT('',#1433);
#531=VERTEX_POINT('',#1437);
#532=VERTEX_POINT('',#1439);
#533=VERTEX_POINT('',#1441);
#534=VERTEX_POINT('',#1453);
#535=VERTEX_POINT('',#1455);
#536=VERTEX_POINT('',#1468);
#537=VERTEX_POINT('',#1472);
#538=VERTEX_POINT('',#1473);
#539=VERTEX_POINT('',#1475);
#540=VERTEX_POINT('',#1477);
#541=VERTEX_POINT('',#1481);
#542=VERTEX_POINT('',#1482);
#543=VERTEX_POINT('',#1484);
#544=VERTEX_POINT('',#1486);
#545=VERTEX_POINT('',#1488);
#546=VERTEX_POINT('',#1491);
#547=VERTEX_POINT('',#1493);
#548=VERTEX_POINT('',#1495);
#549=VERTEX_POINT('',#1507);
#550=VERTEX_POINT('',#1508);
#551=VERTEX_POINT('',#1510);
#552=VERTEX_POINT('',#1512);
#553=VERTEX_POINT('',#1524);
#554=VERTEX_POINT('',#1525);
#555=VERTEX_POINT('',#1527);
#556=VERTEX_POINT('',#1529);
#557=VERTEX_POINT('',#1533);
#558=VERTEX_POINT('',#1537);
#559=VERTEX_POINT('',#1541);
#560=VERTEX_POINT('',#1542);
#561=VERTEX_POINT('',#1544);
#562=VERTEX_POINT('',#1546);
#563=VERTEX_POINT('',#1548);
#564=VERTEX_POINT('',#1550);
#565=VERTEX_POINT('',#1553);
#566=VERTEX_POINT('',#1555);
#567=VERTEX_POINT('',#1559);
#568=VERTEX_POINT('',#1564);
#569=VERTEX_POINT('',#1571);
#570=VERTEX_POINT('',#1574);
#571=VERTEX_POINT('',#1576);
#572=VERTEX_POINT('',#1581);
#573=VERTEX_POINT('',#1585);
#574=VERTEX_POINT('',#1588);
#575=VERTEX_POINT('',#1592);
#576=VERTEX_POINT('',#1593);
#577=VERTEX_POINT('',#1595);
#578=VERTEX_POINT('',#1597);
#579=VERTEX_POINT('',#1600);
#580=VERTEX_POINT('',#1602);
#581=VERTEX_POINT('',#1605);
#582=VERTEX_POINT('',#1607);
#583=VERTEX_POINT('',#1616);
#584=VERTEX_POINT('',#1618);
#585=VERTEX_POINT('',#1624);
#586=VERTEX_POINT('',#1628);
#587=VERTEX_POINT('',#1644);
#588=VERTEX_POINT('',#1645);
#589=VERTEX_POINT('',#1647);
#590=VERTEX_POINT('',#1649);
#591=VERTEX_POINT('',#1653);
#592=VERTEX_POINT('',#1654);
#593=VERTEX_POINT('',#1656);
#594=VERTEX_POINT('',#1658);
#595=VERTEX_POINT('',#1678);
#596=VERTEX_POINT('',#1683);
#597=VERTEX_POINT('',#1688);
#598=VERTEX_POINT('',#1694);
#599=LINE('',#1384,#684);
#600=LINE('',#1389,#685);
#601=LINE('',#1393,#686);
#602=LINE('',#1398,#687);
#603=LINE('',#1400,#688);
#604=LINE('',#1404,#689);
#605=LINE('',#1406,#690);
#606=LINE('',#1408,#691);
#607=LINE('',#1412,#692);
#608=LINE('',#1415,#693);
#609=LINE('',#1419,#694);
#610=LINE('',#1422,#695);
#611=LINE('',#1424,#696);
#612=LINE('',#1426,#697);
#613=LINE('',#1428,#698);
#614=LINE('',#1432,#699);
#615=LINE('',#1434,#700);
#616=LINE('',#1438,#701);
#617=LINE('',#1452,#702);
#618=LINE('',#1454,#703);
#619=LINE('',#1456,#704);
#620=LINE('',#1471,#705);
#621=LINE('',#1474,#706);
#622=LINE('',#1476,#707);
#623=LINE('',#1478,#708);
#624=LINE('',#1480,#709);
#625=LINE('',#1485,#710);
#626=LINE('',#1489,#711);
#627=LINE('',#1490,#712);
#628=LINE('',#1492,#713);
#629=LINE('',#1494,#714);
#630=LINE('',#1496,#715);
#631=LINE('',#1509,#716);
#632=LINE('',#1513,#717);
#633=LINE('',#1526,#718);
#634=LINE('',#1530,#719);
#635=LINE('',#1532,#720);
#636=LINE('',#1536,#721);
#637=LINE('',#1543,#722);
#638=LINE('',#1545,#723);
#639=LINE('',#1547,#724);
#640=LINE('',#1549,#725);
#641=LINE('',#1551,#726);
#642=LINE('',#1552,#727);
#643=LINE('',#1556,#728);
#644=LINE('',#1558,#729);
#645=LINE('',#1565,#730);
#646=LINE('',#1566,#731);
#647=LINE('',#1567,#732);
#648=LINE('',#1568,#733);
#649=LINE('',#1569,#734);
#650=LINE('',#1575,#735);
#651=LINE('',#1577,#736);
#652=LINE('',#1578,#737);
#653=LINE('',#1579,#738);
#654=LINE('',#1580,#739);
#655=LINE('',#1582,#740);
#656=LINE('',#1591,#741);
#657=LINE('',#1596,#742);
#658=LINE('',#1598,#743);
#659=LINE('',#1599,#744);
#660=LINE('',#1601,#745);
#661=LINE('',#1603,#746);
#662=LINE('',#1604,#747);
#663=LINE('',#1608,#748);
#664=LINE('',#1610,#749);
#665=LINE('',#1613,#750);
#666=LINE('',#1619,#751);
#667=LINE('',#1623,#752);
#668=LINE('',#1627,#753);
#669=LINE('',#1629,#754);
#670=LINE('',#1633,#755);
#671=LINE('',#1635,#756);
#672=LINE('',#1637,#757);
#673=LINE('',#1639,#758);
#674=LINE('',#1646,#759);
#675=LINE('',#1650,#760);
#676=LINE('',#1655,#761);
#677=LINE('',#1659,#762);
#678=LINE('',#1679,#763);
#679=LINE('',#1680,#764);
#680=LINE('',#1684,#765);
#681=LINE('',#1685,#766);
#682=LINE('',#1689,#767);
#683=LINE('',#1695,#768);
#684=VECTOR('',#1097,1.);
#685=VECTOR('',#1100,1.);
#686=VECTOR('',#1105,1.);
#687=VECTOR('',#1108,1.);
#688=VECTOR('',#1109,1.);
#689=VECTOR('',#1112,1.);
#690=VECTOR('',#1113,1.);
#691=VECTOR('',#1114,1.);
#692=VECTOR('',#1117,1.);
#693=VECTOR('',#1120,1.);
#694=VECTOR('',#1125,1.);
#695=VECTOR('',#1126,1.);
#696=VECTOR('',#1127,1.);
#697=VECTOR('',#1128,1.);
#698=VECTOR('',#1129,1.);
#699=VECTOR('',#1132,1.);
#700=VECTOR('',#1133,1.);
#701=VECTOR('',#1138,1.);
#702=VECTOR('',#1143,1.);
#703=VECTOR('',#1144,1.);
#704=VECTOR('',#1145,1.);
#705=VECTOR('',#1154,1.);
#706=VECTOR('',#1155,1.);
#707=VECTOR('',#1156,1.);
#708=VECTOR('',#1157,1.);
#709=VECTOR('',#1160,1.);
#710=VECTOR('',#1163,1.);
#711=VECTOR('',#1166,1.);
#712=VECTOR('',#1167,1.);
#713=VECTOR('',#1168,1.);
#714=VECTOR('',#1169,1.);
#715=VECTOR('',#1170,1.);
#716=VECTOR('',#1173,1.);
#717=VECTOR('',#1176,1.);
#718=VECTOR('',#1179,1.);
#719=VECTOR('',#1182,1.);
#720=VECTOR('',#1185,1.);
#721=VECTOR('',#1190,1.);
#722=VECTOR('',#1197,1.);
#723=VECTOR('',#1198,1.);
#724=VECTOR('',#1199,1.);
#725=VECTOR('',#1200,1.);
#726=VECTOR('',#1201,1.);
#727=VECTOR('',#1202,1.);
#728=VECTOR('',#1205,1.);
#729=VECTOR('',#1208,1.);
#730=VECTOR('',#1209,1.);
#731=VECTOR('',#1210,1.);
#732=VECTOR('',#1211,1.);
#733=VECTOR('',#1212,1.);
#734=VECTOR('',#1213,1.);
#735=VECTOR('',#1220,1.);
#736=VECTOR('',#1221,1.);
#737=VECTOR('',#1222,1.);
#738=VECTOR('',#1223,1.);
#739=VECTOR('',#1224,1.);
#740=VECTOR('',#1225,1.);
#741=VECTOR('',#1238,1.);
#742=VECTOR('',#1241,1.);
#743=VECTOR('',#1242,1.);
#744=VECTOR('',#1243,1.);
#745=VECTOR('',#1244,1.);
#746=VECTOR('',#1245,1.);
#747=VECTOR('',#1246,1.);
#748=VECTOR('',#1249,1.);
#749=VECTOR('',#1252,1.);
#750=VECTOR('',#1257,1.);
#751=VECTOR('',#1264,1.);
#752=VECTOR('',#1271,1.);
#753=VECTOR('',#1276,1.);
#754=VECTOR('',#1277,1.);
#755=VECTOR('',#1284,1.);
#756=VECTOR('',#1287,1.);
#757=VECTOR('',#1290,1.);
#758=VECTOR('',#1293,1.);
#759=VECTOR('',#1302,1.);
#760=VECTOR('',#1305,1.);
#761=VECTOR('',#1310,1.);
#762=VECTOR('',#1313,1.);
#763=VECTOR('',#1350,1.);
#764=VECTOR('',#1351,1.);
#765=VECTOR('',#1356,1.);
#766=VECTOR('',#1357,1.);
#767=VECTOR('',#1362,1.);
#768=VECTOR('',#1371,1.);
#769=EDGE_LOOP('',(#93,#94,#95));
#770=EDGE_LOOP('',(#96));
#771=EDGE_LOOP('',(#97,#98,#99,#100,#101,#102,#103,#104,#105,#106,#107,
#108));
#772=EDGE_LOOP('',(#109));
#773=EDGE_LOOP('',(#110,#111,#112,#113,#114,#115,#116,#117));
#774=EDGE_LOOP('',(#118,#119,#120,#121,#122));
#775=EDGE_LOOP('',(#123,#124,#125,#126));
#776=EDGE_LOOP('',(#127,#128,#129,#130,#131));
#777=EDGE_LOOP('',(#132,#133,#134,#135));
#778=EDGE_LOOP('',(#136,#137,#138,#139,#140,#141,#142,#143,#144,#145));
#779=EDGE_LOOP('',(#146,#147,#148,#149));
#780=EDGE_LOOP('',(#150,#151,#152,#153));
#781=EDGE_LOOP('',(#154,#155,#156,#157));
#782=EDGE_LOOP('',(#158,#159,#160,#161));
#783=EDGE_LOOP('',(#162,#163,#164,#165,#166,#167,#168,#169,#170,#171));
#784=EDGE_LOOP('',(#172,#173,#174,#175,#176,#177,#178,#179,#180,#181,#182,
#183,#184,#185));
#785=EDGE_LOOP('',(#186));
#786=EDGE_LOOP('',(#187));
#787=EDGE_LOOP('',(#188,#189,#190,#191,#192,#193,#194,#195,#196,#197,#198,
#199,#200));
#788=EDGE_LOOP('',(#201));
#789=EDGE_LOOP('',(#202));
#790=EDGE_LOOP('',(#203,#204,#205,#206,#207));
#791=EDGE_LOOP('',(#208,#209,#210,#211,#212,#213,#214,#215,#216,#217,#218,
#219,#220,#221));
#792=EDGE_LOOP('',(#222,#223,#224,#225));
#793=EDGE_LOOP('',(#226,#227,#228,#229));
#794=EDGE_LOOP('',(#230,#231,#232,#233));
#795=EDGE_LOOP('',(#234,#235,#236,#237,#238,#239,#240,#241));
#796=EDGE_LOOP('',(#242));
#797=EDGE_LOOP('',(#243));
#798=EDGE_LOOP('',(#244,#245,#246,#247,#248,#249,#250,#251));
#799=EDGE_LOOP('',(#252,#253,#254,#255,#256));
#800=EDGE_LOOP('',(#257,#258,#259,#260));
#801=EDGE_LOOP('',(#261,#262,#263,#264,#265));
#802=EDGE_LOOP('',(#266,#267,#268,#269));
#803=EDGE_LOOP('',(#270,#271,#272,#273));
#804=EDGE_LOOP('',(#274,#275,#276,#277));
#805=EDGE_LOOP('',(#278,#279,#280,#281));
#806=EDGE_LOOP('',(#282,#283,#284,#285));
#807=EDGE_LOOP('',(#286));
#808=EDGE_LOOP('',(#287));
#809=EDGE_LOOP('',(#288,#289,#290,#291));
#810=EDGE_LOOP('',(#292,#293,#294,#295));
#811=EDGE_LOOP('',(#296,#297,#298,#299));
#812=EDGE_LOOP('',(#300,#301,#302,#303));
#813=EDGE_LOOP('',(#304,#305,#306,#307));
#814=EDGE_LOOP('',(#308,#309,#310,#311));
#815=EDGE_LOOP('',(#312,#313,#314,#315));
#816=EDGE_LOOP('',(#316,#317,#318,#319));
#817=EDGE_LOOP('',(#320,#321,#322,#323));
#818=EDGE_LOOP('',(#324,#325,#326,#327));
#819=EDGE_LOOP('',(#328));
#820=EDGE_LOOP('',(#329,#330,#331,#332));
#821=EDGE_LOOP('',(#333));
#822=EDGE_LOOP('',(#334,#335,#336,#337));
#823=EDGE_LOOP('',(#338));
#824=EDGE_LOOP('',(#339,#340,#341,#342));
#825=EDGE_LOOP('',(#343,#344,#345,#346,#347,#348));
#826=EDGE_LOOP('',(#349));
#827=EDGE_LOOP('',(#350,#351,#352,#353));
#828=EDGE_LOOP('',(#354));
#829=EDGE_LOOP('',(#355));
#830=EDGE_LOOP('',(#356,#357,#358));
#831=EDGE_LOOP('',(#359));
#832=EDGE_LOOP('',(#360));
#833=EDGE_LOOP('',(#361,#362,#363,#364));
#834=EDGE_LOOP('',(#365,#366,#367,#368));
#835=FACE_BOUND('',#769,.T.);
#836=FACE_BOUND('',#770,.T.);
#837=FACE_BOUND('',#771,.T.);
#838=FACE_BOUND('',#772,.T.);
#839=FACE_BOUND('',#773,.T.);
#840=FACE_BOUND('',#774,.T.);
#841=FACE_BOUND('',#775,.T.);
#842=FACE_BOUND('',#776,.T.);
#843=FACE_BOUND('',#777,.T.);
#844=FACE_BOUND('',#778,.T.);
#845=FACE_BOUND('',#779,.T.);
#846=FACE_BOUND('',#780,.T.);
#847=FACE_BOUND('',#781,.T.);
#848=FACE_BOUND('',#782,.T.);
#849=FACE_BOUND('',#783,.T.);
#850=FACE_BOUND('',#784,.T.);
#851=FACE_BOUND('',#785,.T.);
#852=FACE_BOUND('',#786,.T.);
#853=FACE_BOUND('',#787,.T.);
#854=FACE_BOUND('',#788,.T.);
#855=FACE_BOUND('',#789,.T.);
#856=FACE_BOUND('',#790,.T.);
#857=FACE_BOUND('',#791,.T.);
#858=FACE_BOUND('',#792,.T.);
#859=FACE_BOUND('',#793,.T.);
#860=FACE_BOUND('',#794,.T.);
#861=FACE_BOUND('',#795,.T.);
#862=FACE_BOUND('',#796,.T.);
#863=FACE_BOUND('',#797,.T.);
#864=FACE_BOUND('',#798,.T.);
#865=FACE_BOUND('',#799,.T.);
#866=FACE_BOUND('',#800,.T.);
#867=FACE_BOUND('',#801,.T.);
#868=FACE_BOUND('',#802,.T.);
#869=FACE_BOUND('',#803,.T.);
#870=FACE_BOUND('',#804,.T.);
#871=FACE_BOUND('',#805,.T.);
#872=FACE_BOUND('',#806,.T.);
#873=FACE_BOUND('',#807,.T.);
#874=FACE_BOUND('',#808,.T.);
#875=FACE_BOUND('',#809,.T.);
#876=FACE_BOUND('',#810,.T.);
#877=FACE_BOUND('',#811,.T.);
#878=FACE_BOUND('',#812,.T.);
#879=FACE_BOUND('',#813,.T.);
#880=FACE_BOUND('',#814,.T.);
#881=FACE_BOUND('',#815,.T.);
#882=FACE_BOUND('',#816,.T.);
#883=FACE_BOUND('',#817,.T.);
#884=FACE_BOUND('',#818,.T.);
#885=FACE_BOUND('',#819,.T.);
#886=FACE_BOUND('',#820,.T.);
#887=FACE_BOUND('',#821,.T.);
#888=FACE_BOUND('',#822,.T.);
#889=FACE_BOUND('',#823,.T.);
#890=FACE_BOUND('',#824,.T.);
#891=FACE_BOUND('',#825,.T.);
#892=FACE_BOUND('',#826,.T.);
#893=FACE_BOUND('',#827,.T.);
#894=FACE_BOUND('',#828,.T.);
#895=FACE_BOUND('',#829,.T.);
#896=FACE_BOUND('',#830,.T.);
#897=FACE_BOUND('',#831,.T.);
#898=FACE_BOUND('',#832,.T.);
#899=FACE_BOUND('',#833,.T.);
#900=FACE_BOUND('',#834,.T.);
#901=PLANE('',#992);
#902=PLANE('',#994);
#903=PLANE('',#1000);
#904=PLANE('',#1006);
#905=PLANE('',#1010);
#906=PLANE('',#1011);
#907=PLANE('',#1022);
#908=PLANE('',#1025);
#909=PLANE('',#1027);
#910=PLANE('',#1034);
#911=PLANE('',#1037);
#912=PLANE('',#1039);
#913=PLANE('',#1040);
#914=PLANE('',#1044);
#915=PLANE('',#1047);
#916=PLANE('',#1050);
#917=PLANE('',#1051);
#918=PLANE('',#1053);
#919=PLANE('',#1056);
#920=PLANE('',#1059);
#921=PLANE('',#1078);
#922=PLANE('',#1080);
#923=PLANE('',#1082);
#924=PLANE('',#1084);
#925=PLANE('',#1086);
#926=ADVANCED_FACE('',(#835),#901,.F.);
#927=ADVANCED_FACE('',(#836,#837),#902,.F.);
#928=ADVANCED_FACE('',(#838,#839),#903,.F.);
#929=ADVANCED_FACE('',(#840),#23,.F.);
#930=ADVANCED_FACE('',(#841),#904,.F.);
#931=ADVANCED_FACE('',(#842),#24,.F.);
#932=ADVANCED_FACE('',(#843),#905,.F.);
#933=ADVANCED_FACE('',(#844),#906,.F.);
#934=ADVANCED_FACE('',(#845),#25,.F.);
#935=ADVANCED_FACE('',(#846),#26,.F.);
#936=ADVANCED_FACE('',(#847),#27,.F.);
#937=ADVANCED_FACE('',(#848),#28,.F.);
#938=ADVANCED_FACE('',(#849),#907,.T.);
#939=ADVANCED_FACE('',(#850,#851),#908,.T.);
#940=ADVANCED_FACE('',(#852,#853),#909,.F.);
#941=ADVANCED_FACE('',(#854,#855),#29,.F.);
#942=ADVANCED_FACE('',(#856),#30,.T.);
#943=ADVANCED_FACE('',(#857),#910,.F.);
#944=ADVANCED_FACE('',(#858),#911,.F.);
#945=ADVANCED_FACE('',(#859),#16,.T.);
#946=ADVANCED_FACE('',(#860),#912,.F.);
#947=ADVANCED_FACE('',(#861),#913,.F.);
#948=ADVANCED_FACE('',(#862,#863),#31,.F.);
#949=ADVANCED_FACE('',(#864),#914,.T.);
#950=ADVANCED_FACE('',(#865),#32,.F.);
#951=ADVANCED_FACE('',(#866),#915,.F.);
#952=ADVANCED_FACE('',(#867),#33,.F.);
#953=ADVANCED_FACE('',(#868),#916,.T.);
#954=ADVANCED_FACE('',(#869),#917,.T.);
#955=ADVANCED_FACE('',(#870),#34,.F.);
#956=ADVANCED_FACE('',(#871),#918,.T.);
#957=ADVANCED_FACE('',(#872),#35,.F.);
#958=ADVANCED_FACE('',(#873,#874),#17,.F.);
#959=ADVANCED_FACE('',(#875),#919,.T.);
#960=ADVANCED_FACE('',(#876),#920,.F.);
#961=ADVANCED_FACE('',(#877),#36,.F.);
#962=ADVANCED_FACE('',(#878),#12,.F.);
#963=ADVANCED_FACE('',(#879),#13,.F.);
#964=ADVANCED_FACE('',(#880),#37,.F.);
#965=ADVANCED_FACE('',(#881),#38,.F.);
#966=ADVANCED_FACE('',(#882),#14,.F.);
#967=ADVANCED_FACE('',(#883),#15,.F.);
#968=ADVANCED_FACE('',(#884),#39,.F.);
#969=ADVANCED_FACE('',(#885,#886),#921,.F.);
#970=ADVANCED_FACE('',(#887,#888),#922,.F.);
#971=ADVANCED_FACE('',(#889,#890),#923,.F.);
#972=ADVANCED_FACE('',(#891),#924,.F.);
#973=ADVANCED_FACE('',(#892,#893),#925,.F.);
#974=ADVANCED_FACE('',(#894,#895),#40,.F.);
#975=ADVANCED_FACE('',(#896),#41,.F.);
#976=ADVANCED_FACE('',(#897,#898),#42,.F.);
#977=ADVANCED_FACE('',(#899),#43,.T.);
#978=ADVANCED_FACE('',(#900),#44,.T.);
#979=CLOSED_SHELL('',(#926,#927,#928,#929,#930,#931,#932,#933,#934,#935,
#936,#937,#938,#939,#940,#941,#942,#943,#944,#945,#946,#947,#948,#949,#950,
#951,#952,#953,#954,#955,#956,#957,#958,#959,#960,#961,#962,#963,#964,#965,
#966,#967,#968,#969,#970,#971,#972,#973,#974,#975,#976,#977,#978));
#980=STYLED_ITEM('',(#981),#988);
#981=PRESENTATION_STYLE_ASSIGNMENT((#982));
#982=SURFACE_STYLE_USAGE(.BOTH.,#983);
#983=SURFACE_SIDE_STYLE('',(#984));
#984=SURFACE_STYLE_FILL_AREA(#985);
#985=FILL_AREA_STYLE('',(#986));
#986=FILL_AREA_STYLE_COLOUR('',#987);
#987=COLOUR_RGB('',0.96078431372549,0.835294117647059,0.470588235294118);
#988=MANIFOLD_SOLID_BREP('left-side-armour',#979);
#989=SHAPE_DEFINITION_REPRESENTATION(#1707,#990);
#990=SHAPE_REPRESENTATION('left-side-armour',(#991),#1702);
#991=AXIS2_PLACEMENT_3D('',#1382,#1093,#1094);
#992=AXIS2_PLACEMENT_3D('',#1383,#1095,#1096);
#993=AXIS2_PLACEMENT_3D('',#1387,#1098,#1099);
#994=AXIS2_PLACEMENT_3D('',#1390,#1101,#1102);
#995=AXIS2_PLACEMENT_3D('',#1391,#1103,#1104);
#996=AXIS2_PLACEMENT_3D('',#1396,#1106,#1107);
#997=AXIS2_PLACEMENT_3D('',#1402,#1110,#1111);
#998=AXIS2_PLACEMENT_3D('',#1410,#1115,#1116);
#999=AXIS2_PLACEMENT_3D('',#1413,#1118,#1119);
#1000=AXIS2_PLACEMENT_3D('',#1416,#1121,#1122);
#1001=AXIS2_PLACEMENT_3D('',#1417,#1123,#1124);
#1002=AXIS2_PLACEMENT_3D('',#1430,#1130,#1131);
#1003=AXIS2_PLACEMENT_3D('',#1435,#1134,#1135);
#1004=AXIS2_PLACEMENT_3D('',#1436,#1136,#1137);
#1005=AXIS2_PLACEMENT_3D('',#1440,#1139,#1140);
#1006=AXIS2_PLACEMENT_3D('',#1451,#1141,#1142);
#1007=AXIS2_PLACEMENT_3D('',#1457,#1146,#1147);
#1008=AXIS2_PLACEMENT_3D('',#1458,#1148,#1149);
#1009=AXIS2_PLACEMENT_3D('',#1469,#1150,#1151);
#1010=AXIS2_PLACEMENT_3D('',#1470,#1152,#1153);
#1011=AXIS2_PLACEMENT_3D('',#1479,#1158,#1159);
#1012=AXIS2_PLACEMENT_3D('',#1483,#1161,#1162);
#1013=AXIS2_PLACEMENT_3D('',#1487,#1164,#1165);
#1014=AXIS2_PLACEMENT_3D('',#1497,#1171,#1172);
#1015=AXIS2_PLACEMENT_3D('',#1511,#1174,#1175);
#1016=AXIS2_PLACEMENT_3D('',#1514,#1177,#1178);
#1017=AXIS2_PLACEMENT_3D('',#1528,#1180,#1181);
#1018=AXIS2_PLACEMENT_3D('',#1531,#1183,#1184);
#1019=AXIS2_PLACEMENT_3D('',#1534,#1186,#1187);
#1020=AXIS2_PLACEMENT_3D('',#1535,#1188,#1189);
#1021=AXIS2_PLACEMENT_3D('',#1538,#1191,#1192);
#1022=AXIS2_PLACEMENT_3D('',#1539,#1193,#1194);
#1023=AXIS2_PLACEMENT_3D('',#1540,#1195,#1196);
#1024=AXIS2_PLACEMENT_3D('',#1554,#1203,#1204);
#1025=AXIS2_PLACEMENT_3D('',#1557,#1206,#1207);
#1026=AXIS2_PLACEMENT_3D('',#1570,#1214,#1215);
#1027=AXIS2_PLACEMENT_3D('',#1572,#1216,#1217);
#1028=AXIS2_PLACEMENT_3D('',#1573,#1218,#1219);
#1029=AXIS2_PLACEMENT_3D('',#1583,#1226,#1227);
#1030=AXIS2_PLACEMENT_3D('',#1584,#1228,#1229);
#1031=AXIS2_PLACEMENT_3D('',#1586,#1230,#1231);
#1032=AXIS2_PLACEMENT_3D('',#1587,#1232,#1233);
#1033=AXIS2_PLACEMENT_3D('',#1589,#1234,#1235);
#1034=AXIS2_PLACEMENT_3D('',#1590,#1236,#1237);
#1035=AXIS2_PLACEMENT_3D('',#1594,#1239,#1240);
#1036=AXIS2_PLACEMENT_3D('',#1606,#1247,#1248);
#1037=AXIS2_PLACEMENT_3D('',#1609,#1250,#1251);
#1038=AXIS2_PLACEMENT_3D('',#1611,#1253,#1254);
#1039=AXIS2_PLACEMENT_3D('',#1612,#1255,#1256);
#1040=AXIS2_PLACEMENT_3D('',#1614,#1258,#1259);
#1041=AXIS2_PLACEMENT_3D('',#1615,#1260,#1261);
#1042=AXIS2_PLACEMENT_3D('',#1617,#1262,#1263);
#1043=AXIS2_PLACEMENT_3D('',#1620,#1265,#1266);
#1044=AXIS2_PLACEMENT_3D('',#1621,#1267,#1268);
#1045=AXIS2_PLACEMENT_3D('',#1622,#1269,#1270);
#1046=AXIS2_PLACEMENT_3D('',#1625,#1272,#1273);
#1047=AXIS2_PLACEMENT_3D('',#1626,#1274,#1275);
#1048=AXIS2_PLACEMENT_3D('',#1630,#1278,#1279);
#1049=AXIS2_PLACEMENT_3D('',#1631,#1280,#1281);
#1050=AXIS2_PLACEMENT_3D('',#1632,#1282,#1283);
#1051=AXIS2_PLACEMENT_3D('',#1634,#1285,#1286);
#1052=AXIS2_PLACEMENT_3D('',#1636,#1288,#1289);
#1053=AXIS2_PLACEMENT_3D('',#1638,#1291,#1292);
#1054=AXIS2_PLACEMENT_3D('',#1640,#1294,#1295);
#1055=AXIS2_PLACEMENT_3D('',#1641,#1296,#1297);
#1056=AXIS2_PLACEMENT_3D('',#1642,#1298,#1299);
#1057=AXIS2_PLACEMENT_3D('',#1643,#1300,#1301);
#1058=AXIS2_PLACEMENT_3D('',#1648,#1303,#1304);
#1059=AXIS2_PLACEMENT_3D('',#1651,#1306,#1307);
#1060=AXIS2_PLACEMENT_3D('',#1652,#1308,#1309);
#1061=AXIS2_PLACEMENT_3D('',#1657,#1311,#1312);
#1062=AXIS2_PLACEMENT_3D('',#1660,#1314,#1315);
#1063=AXIS2_PLACEMENT_3D('',#1661,#1316,#1317);
#1064=AXIS2_PLACEMENT_3D('',#1662,#1318,#1319);
#1065=AXIS2_PLACEMENT_3D('',#1663,#1320,#1321);
#1066=AXIS2_PLACEMENT_3D('',#1664,#1322,#1323);
#1067=AXIS2_PLACEMENT_3D('',#1665,#1324,#1325);
#1068=AXIS2_PLACEMENT_3D('',#1666,#1326,#1327);
#1069=AXIS2_PLACEMENT_3D('',#1667,#1328,#1329);
#1070=AXIS2_PLACEMENT_3D('',#1668,#1330,#1331);
#1071=AXIS2_PLACEMENT_3D('',#1669,#1332,#1333);
#1072=AXIS2_PLACEMENT_3D('',#1670,#1334,#1335);
#1073=AXIS2_PLACEMENT_3D('',#1671,#1336,#1337);
#1074=AXIS2_PLACEMENT_3D('',#1672,#1338,#1339);
#1075=AXIS2_PLACEMENT_3D('',#1673,#1340,#1341);
#1076=AXIS2_PLACEMENT_3D('',#1674,#1342,#1343);
#1077=AXIS2_PLACEMENT_3D('',#1675,#1344,#1345);
#1078=AXIS2_PLACEMENT_3D('',#1676,#1346,#1347);
#1079=AXIS2_PLACEMENT_3D('',#1677,#1348,#1349);
#1080=AXIS2_PLACEMENT_3D('',#1681,#1352,#1353);
#1081=AXIS2_PLACEMENT_3D('',#1682,#1354,#1355);
#1082=AXIS2_PLACEMENT_3D('',#1686,#1358,#1359);
#1083=AXIS2_PLACEMENT_3D('',#1687,#1360,#1361);
#1084=AXIS2_PLACEMENT_3D('',#1690,#1363,#1364);
#1085=AXIS2_PLACEMENT_3D('',#1691,#1365,#1366);
#1086=AXIS2_PLACEMENT_3D('',#1692,#1367,#1368);
#1087=AXIS2_PLACEMENT_3D('',#1693,#1369,#1370);
#1088=AXIS2_PLACEMENT_3D('',#1696,#1372,#1373);
#1089=AXIS2_PLACEMENT_3D('',#1697,#1374,#1375);
#1090=AXIS2_PLACEMENT_3D('',#1698,#1376,#1377);
#1091=AXIS2_PLACEMENT_3D('',#1699,#1378,#1379);
#1092=AXIS2_PLACEMENT_3D('',#1700,#1380,#1381);
#1093=DIRECTION('',(0.,0.,1.));
#1094=DIRECTION('',(1.,0.,0.));
#1095=DIRECTION('',(-1.11022302462516E-16,0.,1.));
#1096=DIRECTION('',(-1.,0.,-5.55111512312578E-17));
#1097=DIRECTION('',(-0.503775365357802,0.863834695563111,-5.59303009859183E-17));
#1098=DIRECTION('',(-1.11022302462516E-16,0.,1.));
#1099=DIRECTION('',(1.,0.,1.11022302462516E-16));
#1100=DIRECTION('',(0.,1.,0.));
#1101=DIRECTION('',(-1.11022302462516E-16,0.,1.));
#1102=DIRECTION('',(-1.,0.,-5.55111512312578E-17));
#1103=DIRECTION('',(-1.11022302462516E-16,0.,1.));
#1104=DIRECTION('',(-1.,0.,-5.55111512312578E-17));
#1105=DIRECTION('',(-0.503775365357802,-0.863834695563111,-5.59303009859183E-17));
#1106=DIRECTION('',(-1.11022302462516E-16,0.,1.));
#1107=DIRECTION('',(1.,0.,1.11022302462516E-16));
#1108=DIRECTION('',(-0.503775365357802,0.863834695563111,-5.59303009859183E-17));
#1109=DIRECTION('',(-0.503775365357802,-0.863834695563111,-5.59303009859183E-17));
#1110=DIRECTION('',(-1.11022302462516E-16,0.,1.));
#1111=DIRECTION('',(1.,0.,1.11022302462516E-16));
#1112=DIRECTION('',(-0.503775365357802,0.863834695563111,-5.59303009859183E-17));
#1113=DIRECTION('',(0.,-1.,0.));
#1114=DIRECTION('',(0.880553256956736,0.473947214004772,5.55111512312578E-17));
#1115=DIRECTION('',(-1.11022302462516E-16,0.,1.));
#1116=DIRECTION('',(-1.,0.,-5.55111512312578E-17));
#1117=DIRECTION('',(0.,1.,0.));
#1118=DIRECTION('',(-1.11022302462516E-16,0.,1.));
#1119=DIRECTION('',(1.,0.,1.11022302462516E-16));
#1120=DIRECTION('',(-0.503775365357802,0.863834695563111,-5.59303009859183E-17));
#1121=DIRECTION('',(0.270745576918284,0.,-0.962650940153899));
#1122=DIRECTION('',(0.,-1.,0.));
#1123=DIRECTION('',(0.270745576918284,0.,-0.962650940153899));
#1124=DIRECTION('',(0.962650940153899,0.,0.270745576918284));
#1125=DIRECTION('',(0.,1.,0.));
#1126=DIRECTION('',(0.962650940153899,0.,0.270745576918284));
#1127=DIRECTION('',(0.,1.,0.));
#1128=DIRECTION('',(0.962650940153899,-4.7191872699637E-16,0.270745576918285));
#1129=DIRECTION('',(0.,-1.,0.));
#1130=DIRECTION('',(0.270745576918284,0.,-0.962650940153899));
#1131=DIRECTION('',(0.962650940153899,0.,0.270745576918284));
#1132=DIRECTION('',(0.,-1.,0.));
#1133=DIRECTION('',(0.962650940153899,-4.7191872699637E-16,0.270745576918285));
#1134=DIRECTION('',(0.,1.,0.));
#1135=DIRECTION('',(0.962650940153899,0.,0.270745576918284));
#1136=DIRECTION('',(0.,1.,0.));
#1137=DIRECTION('',(0.962650940153899,0.,0.270745576918284));
#1138=DIRECTION('',(0.,1.,0.));
#1139=DIRECTION('',(-4.54293006219286E-16,-1.,-1.27769907999175E-16));
#1140=DIRECTION('',(-0.962650940153899,4.7191872699637E-16,-0.270745576918284));
#1141=DIRECTION('',(-0.270745576918284,0.,0.962650940153899));
#1142=DIRECTION('',(-0.962650940153899,0.,-0.270745576918284));
#1143=DIRECTION('',(-0.962650940153899,0.,-0.270745576918284));
#1144=DIRECTION('',(0.,1.,0.));
#1145=DIRECTION('',(-0.962650940153899,4.7191872699637E-16,-0.270745576918284));
#1146=DIRECTION('',(0.,1.,0.));
#1147=DIRECTION('',(0.962650940153899,0.,0.270745576918284));
#1148=DIRECTION('',(0.,1.,0.));
#1149=DIRECTION('',(0.962650940153899,0.,0.270745576918284));
#1150=DIRECTION('',(-4.54293006219286E-16,-1.,-1.27769907999175E-16));
#1151=DIRECTION('',(-0.962650940153899,4.7191872699637E-16,-0.270745576918284));
#1152=DIRECTION('',(0.270745576918285,-6.20500095888573E-31,-0.962650940153899));
#1153=DIRECTION('',(0.962650940153899,0.,0.270745576918285));
#1154=DIRECTION('',(0.,1.,0.));
#1155=DIRECTION('',(0.962650940153899,-4.7191872699637E-16,0.270745576918285));
#1156=DIRECTION('',(4.54293006219287E-16,1.,1.27769907999174E-16));
#1157=DIRECTION('',(0.962650940153899,-4.7191872699637E-16,0.270745576918285));
#1158=DIRECTION('',(0.135372788459142,-0.866025403784439,-0.481325470076949));
#1159=DIRECTION('',(-0.234472547573507,-0.5,0.83368016915025));
#1160=DIRECTION('',(-0.640229210250407,-0.447213595499958,0.624585108966057));
#1161=DIRECTION('',(0.135372788459142,-0.866025403784439,-0.481325470076949));
#1162=DIRECTION('',(0.234472547573508,0.5,-0.83368016915025));
#1163=DIRECTION('',(-0.962650940153899,-3.62700494524274E-16,-0.270745576918284));
#1164=DIRECTION('',(0.135372788459142,-0.866025403784439,-0.481325470076949));
#1165=DIRECTION('',(0.234472547573508,0.5,-0.83368016915025));
#1166=DIRECTION('',(-0.220791966064874,0.447213595499957,-0.866747314804729));
#1167=DIRECTION('',(0.234472547573509,0.5,-0.83368016915025));
#1168=DIRECTION('',(0.962650940153899,-4.7191872699637E-16,0.270745576918285));
#1169=DIRECTION('',(0.234472547573509,0.5,-0.83368016915025));
#1170=DIRECTION('',(0.962650940153899,-4.7191872699637E-16,0.270745576918285));
#1171=DIRECTION('',(0.962650940153899,-4.7191872699637E-16,0.270745576918285));
#1172=DIRECTION('',(-0.270745576918285,0.,0.962650940153899));
#1173=DIRECTION('',(0.962650940153899,-4.7191872699637E-16,0.270745576918285));
#1174=DIRECTION('',(-0.962650940153899,4.7191872699637E-16,-0.270745576918285));
#1175=DIRECTION('',(0.270745576918285,0.,-0.962650940153899));
#1176=DIRECTION('',(0.962650940153899,-4.7191872699637E-16,0.270745576918285));
#1177=DIRECTION('',(0.962650940153899,-4.7191872699637E-16,0.270745576918285));
#1178=DIRECTION('',(-0.270745576918285,0.,0.962650940153899));
#1179=DIRECTION('',(0.962650940153899,-4.7191872699637E-16,0.270745576918285));
#1180=DIRECTION('',(0.962650940153899,-4.7191872699637E-16,0.270745576918285));
#1181=DIRECTION('',(0.270745576918285,0.,-0.962650940153899));
#1182=DIRECTION('',(0.962650940153899,-4.7191872699637E-16,0.270745576918285));
#1183=DIRECTION('',(0.962650940153899,-4.7191872699637E-16,0.270745576918285));
#1184=DIRECTION('',(-0.270745576918285,0.,0.962650940153899));
#1185=DIRECTION('',(0.962650940153899,-4.7191872699637E-16,0.270745576918285));
#1186=DIRECTION('',(-0.962650940153899,4.7191872699637E-16,-0.270745576918285));
#1187=DIRECTION('',(0.270745576918285,0.,-0.962650940153899));
#1188=DIRECTION('',(0.962650940153899,-4.7191872699637E-16,0.270745576918285));
#1189=DIRECTION('',(-0.270745576918285,0.,0.962650940153899));
#1190=DIRECTION('',(0.962650940153899,-4.7191872699637E-16,0.270745576918285));
#1191=DIRECTION('',(-0.962650940153899,4.7191872699637E-16,-0.270745576918285));
#1192=DIRECTION('',(0.270745576918285,0.,-0.962650940153899));
#1193=DIRECTION('',(-0.135372788459143,-0.866025403784439,0.481325470076949));
#1194=DIRECTION('',(-0.234472547573507,0.5,0.83368016915025));
#1195=DIRECTION('',(-0.135372788459143,-0.866025403784439,0.481325470076949));
#1196=DIRECTION('',(-0.234472547573509,0.5,0.83368016915025));
#1197=DIRECTION('',(-0.640229210250406,0.447213595499958,0.624585108966056));
#1198=DIRECTION('',(0.962650940153899,-4.7191872699637E-16,0.270745576918285));
#1199=DIRECTION('',(0.234472547573508,-0.5,-0.83368016915025));
#1200=DIRECTION('',(0.962650940153899,-4.7191872699637E-16,0.270745576918285));
#1201=DIRECTION('',(0.234472547573508,-0.5,-0.83368016915025));
#1202=DIRECTION('',(-0.220791966064874,-0.447213595499957,-0.866747314804729));
#1203=DIRECTION('',(-0.135372788459143,-0.866025403784439,0.481325470076949));
#1204=DIRECTION('',(-0.234472547573509,0.5,0.83368016915025));
#1205=DIRECTION('',(-0.962650940153899,1.30653794851701E-15,-0.270745576918284));
#1206=DIRECTION('',(-0.962650940153899,0.,-0.270745576918284));
#1207=DIRECTION('',(0.270745576918284,0.,-0.962650940153899));
#1208=DIRECTION('',(-0.245571697718519,0.421087189499485,0.873143814110292));
#1209=DIRECTION('',(-0.270745576918284,0.,0.962650940153899));
#1210=DIRECTION('',(0.270745576918285,-3.81192598155587E-32,-0.962650940153899));
#1211=DIRECTION('',(4.54293006219287E-16,1.,1.27769907999174E-16));
#1212=DIRECTION('',(0.270745576918285,-3.81192598155587E-32,-0.962650940153899));
#1213=DIRECTION('',(0.,-1.,0.));
#1214=DIRECTION('',(-0.962650940153899,4.7191872699637E-16,-0.270745576918285));
#1215=DIRECTION('',(0.270745576918285,0.,-0.962650940153899));
#1216=DIRECTION('',(-0.962650940153899,0.,-0.270745576918284));
#1217=DIRECTION('',(0.270745576918284,0.,-0.962650940153899));
#1218=DIRECTION('',(-0.962650940153899,4.7191872699637E-16,-0.270745576918285));
#1219=DIRECTION('',(0.270745576918285,0.,-0.962650940153899));
#1220=DIRECTION('',(-0.245571697718519,0.421087189499485,0.873143814110292));
#1221=DIRECTION('',(0.,-1.,0.));
#1222=DIRECTION('',(0.270745576918285,-3.81192598155588E-32,-0.962650940153899));
#1223=DIRECTION('',(0.270745576918285,-3.81192598155588E-32,-0.962650940153899));
#1224=DIRECTION('',(-0.270745576918284,0.,0.962650940153899));
#1225=DIRECTION('',(0.188099566485867,0.719254596676404,-0.668798458616415));
#1226=DIRECTION('',(-0.270745576918284,0.,0.962650940153899));
#1227=DIRECTION('',(-0.962650940153899,0.,-0.270745576918284));
#1228=DIRECTION('',(0.270745576918284,0.,-0.962650940153899));
#1229=DIRECTION('',(0.962650940153899,0.,0.270745576918284));
#1230=DIRECTION('',(-0.270745576918284,0.,0.962650940153899));
#1231=DIRECTION('',(-0.962650940153899,0.,-0.270745576918284));
#1232=DIRECTION('',(0.270745576918284,0.,-0.962650940153899));
#1233=DIRECTION('',(0.249152397097676,-0.965925826289068,0.0700741116837211));
#1234=DIRECTION('',(-0.367623382951833,0.683012701892219,0.631147128141245));
#1235=DIRECTION('',(-0.0152686838785325,-0.683012701892219,0.73024688725561));
#1236=DIRECTION('',(0.270745576918284,0.,-0.962650940153899));
#1237=DIRECTION('',(0.,-1.,0.));
#1238=DIRECTION('',(-0.498793564567413,0.855292292212233,-0.140285690034585));
#1239=DIRECTION('',(0.270745576918284,0.,-0.962650940153899));
#1240=DIRECTION('',(-0.962650940153899,0.,-0.270745576918284));
#1241=DIRECTION('',(-0.498793564567413,-0.855292292212233,-0.140285690034585));
#1242=DIRECTION('',(-0.498793564567412,0.855292292212233,-0.140285690034585));
#1243=DIRECTION('',(0.,1.,0.));
#1244=DIRECTION('',(0.962650940153899,0.,0.270745576918284));
#1245=DIRECTION('',(0.,1.,0.));
#1246=DIRECTION('',(-0.498793564567413,0.855292292212233,-0.140285690034585));
#1247=DIRECTION('',(0.270745576918284,0.,-0.962650940153899));
#1248=DIRECTION('',(-0.962650940153899,-2.59561242359898E-32,-0.270745576918284));
#1249=DIRECTION('',(-0.498793564567412,-0.855292292212233,-0.140285690034585));
#1250=DIRECTION('',(-0.367623382951833,0.683012701892219,0.631147128141245));
#1251=DIRECTION('',(0.188099566485867,0.719254596676404,-0.668798458616415));
#1252=DIRECTION('',(0.0152686838785326,0.683012701892219,-0.73024688725561));
#1253=DIRECTION('',(-0.270745576918284,0.,0.962650940153899));
#1254=DIRECTION('',(-0.962650940153899,0.,-0.270745576918284));
#1255=DIRECTION('',(0.270745576918285,-6.20500095888573E-31,-0.962650940153899));
#1256=DIRECTION('',(0.962650940153899,0.,0.270745576918285));
#1257=DIRECTION('',(0.,1.,0.));
#1258=DIRECTION('',(-4.54293006219286E-16,-1.,-1.27769907999175E-16));
#1259=DIRECTION('',(-0.962650940153899,4.7191872699637E-16,-0.270745576918284));
#1260=DIRECTION('',(-4.54293006219286E-16,-1.,-1.27769907999175E-16));
#1261=DIRECTION('',(-0.962650940153899,4.7191872699637E-16,-0.270745576918284));
#1262=DIRECTION('',(-4.54293006219286E-16,-1.,-1.27769907999175E-16));
#1263=DIRECTION('',(-0.962650940153899,4.7191872699637E-16,-0.270745576918284));
#1264=DIRECTION('',(-0.962650940153899,4.7191872699637E-16,-0.270745576918284));
#1265=DIRECTION('',(0.962650940153899,-4.7191872699637E-16,0.270745576918285));
#1266=DIRECTION('',(-0.270745576918285,0.,0.962650940153899));
#1267=DIRECTION('',(-4.54293006219286E-16,-1.,-1.27769907999175E-16));
#1268=DIRECTION('',(-0.962650940153899,4.7191872699637E-16,-0.270745576918284));
#1269=DIRECTION('',(0.,1.,0.));
#1270=DIRECTION('',(0.962650940153899,0.,0.270745576918284));
#1271=DIRECTION('',(0.,1.,0.));
#1272=DIRECTION('',(0.,1.,0.));
#1273=DIRECTION('',(0.962650940153899,0.,0.270745576918284));
#1274=DIRECTION('',(-0.270745576918284,0.,0.962650940153899));
#1275=DIRECTION('',(-0.962650940153899,0.,-0.270745576918284));
#1276=DIRECTION('',(0.,1.,0.));
#1277=DIRECTION('',(-0.962650940153899,0.,-0.270745576918284));
#1278=DIRECTION('',(0.,1.,0.));
#1279=DIRECTION('',(0.962650940153899,0.,0.270745576918284));
#1280=DIRECTION('',(0.,1.,0.));
#1281=DIRECTION('',(0.962650940153899,0.,0.270745576918284));
#1282=DIRECTION('',(0.698307380691108,0.,0.715798017650457));
#1283=DIRECTION('',(-0.715798017650457,0.,0.698307380691108));
#1284=DIRECTION('',(0.,1.,0.));
#1285=DIRECTION('',(-0.969052957609392,0.,0.246852922503443));
#1286=DIRECTION('',(-0.246852922503443,0.,-0.969052957609392));
#1287=DIRECTION('',(0.,1.,0.));
#1288=DIRECTION('',(0.,1.,0.));
#1289=DIRECTION('',(0.962650940153899,0.,0.270745576918284));
#1290=DIRECTION('',(0.,1.,0.));
#1291=DIRECTION('',(-0.270745576918284,0.,0.962650940153899));
#1292=DIRECTION('',(-0.962650940153899,0.,-0.270745576918284));
#1293=DIRECTION('',(0.,1.,0.));
#1294=DIRECTION('',(0.,1.,0.));
#1295=DIRECTION('',(0.962650940153899,0.,0.270745576918284));
#1296=DIRECTION('',(-0.270745576918284,0.,0.962650940153899));
#1297=DIRECTION('',(-0.962650940153899,0.,-0.270745576918284));
#1298=DIRECTION('',(0.,1.,0.));
#1299=DIRECTION('',(0.962650940153899,0.,0.270745576918284));
#1300=DIRECTION('',(0.,1.,0.));
#1301=DIRECTION('',(0.962650940153899,0.,0.270745576918284));
#1302=DIRECTION('',(-0.962650940153899,0.,-0.270745576918284));
#1303=DIRECTION('',(0.,1.,0.));
#1304=DIRECTION('',(0.962650940153899,0.,0.270745576918284));
#1305=DIRECTION('',(0.962650940153899,0.,0.270745576918284));
#1306=DIRECTION('',(0.,1.,0.));
#1307=DIRECTION('',(0.962650940153899,0.,0.270745576918284));
#1308=DIRECTION('',(0.,1.,0.));
#1309=DIRECTION('',(0.962650940153899,0.,0.270745576918284));
#1310=DIRECTION('',(-0.962650940153899,0.,-0.270745576918284));
#1311=DIRECTION('',(0.,1.,0.));
#1312=DIRECTION('',(0.962650940153899,0.,0.270745576918284));
#1313=DIRECTION('',(0.962650940153899,0.,0.270745576918284));
#1314=DIRECTION('',(-0.962650940153899,0.,-0.270745576918284));
#1315=DIRECTION('',(0.270745576918284,0.,-0.962650940153899));
#1316=DIRECTION('',(0.962650940153899,0.,0.270745576918284));
#1317=DIRECTION('',(-0.270745576918284,0.,0.962650940153899));
#1318=DIRECTION('',(-0.962650940153899,0.,-0.270745576918284));
#1319=DIRECTION('',(0.270745576918284,0.,-0.962650940153899));
#1320=DIRECTION('',(0.,1.,0.));
#1321=DIRECTION('',(0.962650940153899,0.,0.270745576918284));
#1322=DIRECTION('',(0.962650940153899,0.,0.270745576918284));
#1323=DIRECTION('',(-0.270745576918284,0.,0.962650940153899));
#1324=DIRECTION('',(0.,1.,0.));
#1325=DIRECTION('',(0.962650940153899,0.,0.270745576918284));
#1326=DIRECTION('',(-0.962650940153899,0.,-0.270745576918284));
#1327=DIRECTION('',(0.270745576918284,0.,-0.962650940153899));
#1328=DIRECTION('',(0.962650940153899,0.,0.270745576918284));
#1329=DIRECTION('',(-0.270745576918284,0.,0.962650940153899));
#1330=DIRECTION('',(0.962650940153899,0.,0.270745576918284));
#1331=DIRECTION('',(-0.270745576918284,0.,0.962650940153899));
#1332=DIRECTION('',(0.962650940153899,0.,0.270745576918284));
#1333=DIRECTION('',(-0.270745576918284,0.,0.962650940153899));
#1334=DIRECTION('',(-0.962650940153899,0.,-0.270745576918284));
#1335=DIRECTION('',(0.270745576918284,0.,-0.962650940153899));
#1336=DIRECTION('',(0.,1.,0.));
#1337=DIRECTION('',(0.962650940153899,0.,0.270745576918284));
#1338=DIRECTION('',(0.962650940153899,0.,0.270745576918284));
#1339=DIRECTION('',(-0.270745576918284,0.,0.962650940153899));
#1340=DIRECTION('',(0.,1.,0.));
#1341=DIRECTION('',(0.962650940153899,0.,0.270745576918284));
#1342=DIRECTION('',(-0.962650940153899,0.,-0.270745576918284));
#1343=DIRECTION('',(0.270745576918284,0.,-0.962650940153899));
#1344=DIRECTION('',(-0.962650940153899,0.,-0.270745576918284));
#1345=DIRECTION('',(0.270745576918284,0.,-0.962650940153899));
#1346=DIRECTION('',(0.863834695563111,-0.503775365357802,9.59049168484228E-17));
#1347=DIRECTION('',(0.503775365357802,0.863834695563111,0.));
#1348=DIRECTION('',(0.863834695563111,-0.503775365357802,9.59049168484228E-17));
#1349=DIRECTION('',(0.439868343963317,0.754251920844778,0.487462695886497));
#1350=DIRECTION('',(1.11022302462516E-16,-1.72490192892929E-33,-1.));
#1351=DIRECTION('',(1.11022302462516E-16,0.,-1.));
#1352=DIRECTION('',(-0.863834695563111,-0.503775365357802,-9.59049168484228E-17));
#1353=DIRECTION('',(0.503775365357802,-0.863834695563111,0.));
#1354=DIRECTION('',(-0.863834695563111,-0.503775365357802,-9.59049168484228E-17));
#1355=DIRECTION('',(0.439868343963317,-0.754251920844778,0.487462695886497));
#1356=DIRECTION('',(1.11022302462516E-16,1.72490192892929E-33,-1.));
#1357=DIRECTION('',(1.11022302462516E-16,0.,-1.));
#1358=DIRECTION('',(0.863834695563111,-0.503775365357802,9.59049168484228E-17));
#1359=DIRECTION('',(0.503775365357802,0.863834695563111,0.));
#1360=DIRECTION('',(0.863834695563111,-0.503775365357802,9.59049168484228E-17));
#1361=DIRECTION('',(0.439868343963317,0.754251920844778,0.487462695886497));
#1362=DIRECTION('',(1.11022302462516E-16,-6.20951079287815E-33,-1.));
#1363=DIRECTION('',(-0.863834695563111,-0.503775365357802,-9.59049168484228E-17));
#1364=DIRECTION('',(0.503775365357802,-0.863834695563111,0.));
#1365=DIRECTION('',(-0.863834695563111,-0.503775365357802,-9.59049168484228E-17));
#1366=DIRECTION('',(0.439868343963317,-0.754251920844778,0.487462695886497));
#1367=DIRECTION('',(-0.863834695563111,-0.503775365357802,-9.59049168484228E-17));
#1368=DIRECTION('',(0.503775365357802,-0.863834695563111,0.));
#1369=DIRECTION('',(-0.863834695563111,-0.503775365357802,-9.59049168484228E-17));
#1370=DIRECTION('',(0.439868343963317,-0.754251920844778,0.487462695886497));
#1371=DIRECTION('',(1.11022302462516E-16,-1.68105605080271E-32,-1.));
#1372=DIRECTION('',(0.962650940153899,0.,0.270745576918284));
#1373=DIRECTION('',(0.270745576918284,0.,-0.962650940153899));
#1374=DIRECTION('',(0.962650940153899,0.,0.270745576918284));
#1375=DIRECTION('',(0.270745576918284,0.,-0.962650940153899));
#1376=DIRECTION('',(0.962650940153899,0.,0.270745576918284));
#1377=DIRECTION('',(0.270745576918284,0.,-0.962650940153899));
#1378=DIRECTION('',(1.11022302462516E-16,0.,-1.));
#1379=DIRECTION('',(-1.,0.,-1.11022302462516E-16));
#1380=DIRECTION('',(1.11022302462516E-16,-7.0275058308357E-33,-1.));
#1381=DIRECTION('',(-1.,0.,-1.11022302462516E-16));
#1382=CARTESIAN_POINT('',(0.,0.,0.));
#1383=CARTESIAN_POINT('',(-0.000189221137552897,-0.189801894770595,-1.38777878078145E-17));
#1384=CARTESIAN_POINT('',(-0.0218099912761476,0.00552360993574567,-1.62781754896141E-17));
#1385=CARTESIAN_POINT('',(-0.0144523510996304,-0.00709269744846017,-1.54613133365264E-17));
#1386=CARTESIAN_POINT('',(-0.0168099912761476,-0.00305,-1.56677876305463E-17));
#1387=CARTESIAN_POINT('',(-0.0131164868009042,-0.008025,-1.38777878078145E-17));
#1388=CARTESIAN_POINT('',(-0.0168099912761475,-0.008025,-1.42878491788116E-17));
#1389=CARTESIAN_POINT('',(-0.0168099912761476,-0.189801894770595,-1.38777878078145E-17));
#1390=CARTESIAN_POINT('',(-0.000189221137552897,-0.189801894770595,-1.38777878078145E-17));
#1391=CARTESIAN_POINT('',(-0.000189221137552609,-0.0814479017144062,-1.38777878078145E-17));
#1392=CARTESIAN_POINT('',(-0.00434441367220128,-0.0814479017144062,-1.41084473290003E-17));
#1393=CARTESIAN_POINT('',(-0.00806221751899248,-0.00805,-1.47518659933609E-17));
#1394=CARTESIAN_POINT('',(-0.00601012762883723,-0.00453123634574434,-1.45240382488958E-17));
#1395=CARTESIAN_POINT('',(-0.0109781421047108,-0.01305,-1.50755986546744E-17));
#1396=CARTESIAN_POINT('',(-0.00514629293327412,-0.00503501171110215,0.));
#1397=CARTESIAN_POINT('',(-0.004282458237711,-0.00453123634574434,-1.4332228415199E-17));
#1398=CARTESIAN_POINT('',(-0.00223036834755575,-0.00805,-1.41044006707339E-17));
#1399=CARTESIAN_POINT('',(0.000685556238162607,-0.01305,-1.37806680094204E-17));
#1400=CARTESIAN_POINT('',(0.00360148082388097,-0.00805,-1.34569353481069E-17));
#1401=CARTESIAN_POINT('',(0.00565357071403622,-0.00453123634574434,-1.32291076036418E-17));
#1402=CARTESIAN_POINT('',(0.00651740540959933,-0.00503501171110215,-5.55111512312578E-17));
#1403=CARTESIAN_POINT('',(0.00738124010516244,-0.00453123634574434,-1.3037297769945E-17));
#1404=CARTESIAN_POINT('',(0.0114744772053205,-0.01155,-1.25828571625604E-17));
#1405=CARTESIAN_POINT('',(0.0164315490010418,-0.02005,0.));
#1406=CARTESIAN_POINT('',(0.0164315490010418,0.00665261594097664,0.));
#1407=CARTESIAN_POINT('',(0.0164315490010418,-0.0859605621689941,-1.38777878078145E-17));
#1408=CARTESIAN_POINT('',(0.0853880758220463,-0.0488455398622102,0.));
#1409=CARTESIAN_POINT('',(0.00306880729929582,-0.0931528973866231,-1.38777878078145E-17));
#1410=CARTESIAN_POINT('',(-0.00431356918891117,-0.0814479017144062,0.));
#1411=CARTESIAN_POINT('',(-0.0168099912761476,-0.0885366251537845,-1.38777878078145E-17));
#1412=CARTESIAN_POINT('',(-0.0168099912761476,-0.189801894770595,-1.38777878078145E-17));
#1413=CARTESIAN_POINT('',(-0.0131164868009042,-0.008025,-1.38777878078145E-17));
#1414=CARTESIAN_POINT('',(-0.0133264040372902,-0.00902338363262093,-1.53363081012145E-17));
#1415=CARTESIAN_POINT('',(-0.0218099912761476,0.00552360993574567,-1.62781754896141E-17));
#1416=CARTESIAN_POINT('',(-0.00221981296443638,0.00204615984622857,0.00721988205115524));
#1417=CARTESIAN_POINT('',(-0.00221981296443975,-0.0814479017144062,0.0072198820511543));
#1418=CARTESIAN_POINT('',(0.00548139455679144,-0.0814479017144062,0.00938584666650057));
#1419=CARTESIAN_POINT('',(0.00167892334318324,-0.189801894770595,0.00831640163767321));
#1420=CARTESIAN_POINT('',(0.00167892334318324,-0.060868622191715,0.00831640163767321));
#1421=CARTESIAN_POINT('',(0.00167892334318324,-0.0448511486045658,0.00831640163767321));
#1422=CARTESIAN_POINT('',(-0.0061185492720633,-0.0448511486045658,0.00612336246463517));
#1423=CARTESIAN_POINT('',(-0.00611854927206329,-0.0448511486045658,0.00612336246463513));
#1424=CARTESIAN_POINT('',(-0.00611854927206329,-0.189801894770595,0.00612336246463513));
#1425=CARTESIAN_POINT('',(-0.00611854927206329,-0.060868622191715,0.00612336246463513));
#1426=CARTESIAN_POINT('',(-0.0176241533087828,-0.060868622191715,0.00288741132930778));
#1427=CARTESIAN_POINT('',(-0.0176222280069025,-0.060868622191715,0.00288795282046161));
#1428=CARTESIAN_POINT('',(-0.0176222280069024,-0.00258498836605689,0.00288795282046168));
#1429=CARTESIAN_POINT('',(-0.0176222280069024,-0.090734989524909,0.00288795282046168));
#1430=CARTESIAN_POINT('',(-0.00221981296443977,-0.0814479017144062,0.00721988205115429));
#1431=CARTESIAN_POINT('',(0.0131826020780224,-0.09073498952491,0.0115518112818468));
#1432=CARTESIAN_POINT('',(0.0131826020780224,0.00665261594097664,0.0115518112818468));
#1433=CARTESIAN_POINT('',(0.0131826020780223,-0.060868622191715,0.0115518112818467));
#1434=CARTESIAN_POINT('',(-0.0176241533087828,-0.060868622191715,0.00288741132930778));
#1435=CARTESIAN_POINT('',(-0.00800023103164537,-0.189801894770595,0.0128137864987047));
#1436=CARTESIAN_POINT('',(-0.00800023103164537,-0.0448511486045658,0.0128137864987047));
#1437=CARTESIAN_POINT('',(-0.00988191279122745,-0.0448511486045658,0.0195042105327744));
#1438=CARTESIAN_POINT('',(-0.00988191279122745,-0.189801894770595,0.0195042105327744));
#1439=CARTESIAN_POINT('',(-0.00988191279122745,-0.0504511486045658,0.0195042105327744));
#1440=CARTESIAN_POINT('',(-0.00800023103164537,-0.0504511486045658,0.0128137864987047));
#1441=CARTESIAN_POINT('',(-0.0147372883891369,-0.0504511486045658,0.0145209942077636));
#1442=CARTESIAN_POINT('',(-0.0147372883891369,-0.0504511486045659,0.0145209942077636));
#1443=CARTESIAN_POINT('',(-0.0149297549067853,-0.0504511486045659,0.0137614744598655));
#1444=CARTESIAN_POINT('',(-0.0150500079438977,-0.050587660087802,0.0121963790317862));
#1445=CARTESIAN_POINT('',(-0.0144812944531826,-0.0513321613123481,0.0100143442271397));
#1446=CARTESIAN_POINT('',(-0.0133926858108156,-0.0525210280034679,0.00829180296291461));
#1447=CARTESIAN_POINT('',(-0.0115865700247965,-0.0544666764790087,0.006663151540101));
#1448=CARTESIAN_POINT('',(-0.00903632120234501,-0.057296411713644,0.00572098685395458));
#1449=CARTESIAN_POINT('',(-0.00705946552669016,-0.059671961585517,0.0058587297680214));
#1450=CARTESIAN_POINT('',(-0.0061185492720633,-0.060868622191715,0.0061233624646352));
#1451=CARTESIAN_POINT('',(-0.00598317648360419,-0.189801894770595,0.0206007301192935));
#1452=CARTESIAN_POINT('',(-0.00208444017598093,-0.0448511486045658,0.0216972497058125));
#1453=CARTESIAN_POINT('',(-0.00208444017598093,-0.0448511486045658,0.0216972497058125));
#1454=CARTESIAN_POINT('',(-0.00208444017598093,-0.189801894770595,0.0216972497058125));
#1455=CARTESIAN_POINT('',(-0.00208444017598093,-0.0504511486045658,0.0216972497058125));
#1456=CARTESIAN_POINT('',(-0.0213875168279469,-0.0504511486045658,0.0162682593974471));
#1457=CARTESIAN_POINT('',(-0.000202758416398844,-0.189801894770595,0.0150068256717429));
#1458=CARTESIAN_POINT('',(-0.000202758416398844,-0.0448511486045658,0.0150068256717429));
#1459=CARTESIAN_POINT('',(0.00465669266748944,-0.0504511486045659,0.0199755513799398));
#1460=CARTESIAN_POINT('',(0.0052168549307761,-0.0504511486045659,0.0194277084766797));
#1461=CARTESIAN_POINT('',(0.00613531065979914,-0.0505876600878018,0.018154749889076));
#1462=CARTESIAN_POINT('',(0.00678739683693328,-0.0513321613123488,0.0159961636524849));
#1463=CARTESIAN_POINT('',(0.00675628898031529,-0.0525210280034652,0.0139587021229202));
#1464=CARTESIAN_POINT('',(0.00606392339963376,-0.0544666764790231,0.011627352815722));
#1465=CARTESIAN_POINT('',(0.00437867653943335,-0.0572964117135278,0.00949395496882977));
#1466=CARTESIAN_POINT('',(0.00261983959809765,-0.059671961585761,0.00858103433436798));
#1467=CARTESIAN_POINT('',(0.00167892334318322,-0.060868622191715,0.0083164016376733));
#1468=CARTESIAN_POINT('',(0.00465669266748943,-0.0504511486045658,0.0199755513799398));
#1469=CARTESIAN_POINT('',(-0.000202758416398844,-0.0504511486045658,0.0150068256717429));
#1470=CARTESIAN_POINT('',(-0.0243657181740481,-0.0424511486045658,0.0268574197391399));
#1471=CARTESIAN_POINT('',(0.00162778251198758,-0.189801894770595,0.0341680918070875));
#1472=CARTESIAN_POINT('',(0.00162778251198758,-0.0464926004888932,0.0341680918070875));
#1473=CARTESIAN_POINT('',(0.00162778251198758,-0.0384096967202384,0.0341680918070875));
#1474=CARTESIAN_POINT('',(-0.0243657181740481,-0.0464926004888933,0.0268574197391399));
#1475=CARTESIAN_POINT('',(0.00644103721275697,-0.0464926004888933,0.0355218196916788));
#1476=CARTESIAN_POINT('',(0.00644103721275697,-0.0424511486045658,0.0355218196916788));
#1477=CARTESIAN_POINT('',(0.00644103721275697,-0.0384096967202385,0.0355218196916788));
#1478=CARTESIAN_POINT('',(-0.0243657181740481,-0.0384096967202384,0.0268574197391399));
#1479=CARTESIAN_POINT('',(-0.023437547312674,-0.0364304226624022,0.0235572566764766));
#1480=CARTESIAN_POINT('',(-0.0187158901299353,-0.0378266774739694,0.027397435829376));
#1481=CARTESIAN_POINT('',(-0.0174842072805187,-0.0369663210472644,0.0261958493437896));
#1482=CARTESIAN_POINT('',(-0.0195505381713982,-0.0384096967202384,0.0282116891148852));
#1483=CARTESIAN_POINT('',(-0.0153892851384454,-0.0378323464510487,0.0283432433967409));
#1484=CARTESIAN_POINT('',(-0.0145770484076905,-0.0361002956434799,0.0254552905762793));
#1485=CARTESIAN_POINT('',(-0.0232827358663749,-0.0361002956434799,0.0230068159785243));
#1486=CARTESIAN_POINT('',(-0.00117974263637379,-0.0361002956434799,0.0292232828244622));
#1487=CARTESIAN_POINT('',(-0.00199197936712864,-0.0378323464510488,0.0321112356449238));
#1488=CARTESIAN_POINT('',(0.000915179505699525,-0.0369663210472644,0.0313706768774135));
#1489=CARTESIAN_POINT('',(-0.00182016987036703,-0.0314258774739694,0.0206327104150746));
#1490=CARTESIAN_POINT('',(0.00736920807413103,-0.0364304226624022,0.0322216566290155));
#1491=CARTESIAN_POINT('',(0.00829737893550509,-0.0344511486045658,0.0289214935663522));
#1492=CARTESIAN_POINT('',(-0.0225093764512999,-0.0344511486045658,0.0202570936138133));
#1493=CARTESIAN_POINT('',(-0.0225074511494196,-0.0344511486045658,0.0202576351049672));
#1494=CARTESIAN_POINT('',(-0.0234356220107937,-0.0364304226624022,0.0235577981676304));
#1495=CARTESIAN_POINT('',(-0.0243637928721677,-0.0384096967202384,0.0268579612302937));
#1496=CARTESIAN_POINT('',(-0.0243657181740481,-0.0384096967202384,0.0268574197391399));
#1497=CARTESIAN_POINT('',(-0.0204446382051665,-0.0240336750174167,0.0129158020720053));
#1498=CARTESIAN_POINT('',(-0.0147372883891369,-0.0344511486045658,0.0145209942077636));
#1499=CARTESIAN_POINT('',(-0.0149297549067853,-0.0344511486045658,0.0137614744598655));
#1500=CARTESIAN_POINT('',(-0.0150500079438978,-0.0343146371213297,0.0121963790317862));
#1501=CARTESIAN_POINT('',(-0.0144812944531826,-0.0335701358967837,0.0100143442271397));
#1502=CARTESIAN_POINT('',(-0.0133926858108157,-0.0323812692056638,0.0082918029629146));
#1503=CARTESIAN_POINT('',(-0.0115865700247963,-0.0304356207301233,0.00666315154010105));
#1504=CARTESIAN_POINT('',(-0.00903632120234669,-0.0276058854954863,0.00572098685395411));
#1505=CARTESIAN_POINT('',(-0.00705946552668662,-0.0252303356236177,0.00585872976802239));
#1506=CARTESIAN_POINT('',(-0.0061185492720633,-0.0240336750174167,0.0061233624646352));
#1507=CARTESIAN_POINT('',(-0.00611854927206329,-0.0240336750174167,0.00612336246463513));
#1508=CARTESIAN_POINT('',(-0.0147372883891369,-0.0344511486045658,0.0145209942077636));
#1509=CARTESIAN_POINT('',(-0.0176241533087828,-0.0240336750174167,0.00288741132930784));
#1510=CARTESIAN_POINT('',(-0.0176222280069025,-0.0240336750174167,0.00288795282046167));
#1511=CARTESIAN_POINT('',(-0.0204427129032861,-0.0240336750174167,0.0129163435631591));
#1512=CARTESIAN_POINT('',(-0.0204427129032861,-0.0344511486045658,0.0129163435631591));
#1513=CARTESIAN_POINT('',(-0.0204446382051665,-0.0344511486045658,0.0129158020720053));
#1514=CARTESIAN_POINT('',(-0.0204446382051665,-0.0240336750174167,0.0129158020720053));
#1515=CARTESIAN_POINT('',(0.00465669266748944,-0.0344511486045658,0.0199755513799398));
#1516=CARTESIAN_POINT('',(0.0052168549307761,-0.0344511486045658,0.0194277084766797));
#1517=CARTESIAN_POINT('',(0.00613531065979913,-0.03431463712133,0.018154749889076));
#1518=CARTESIAN_POINT('',(0.00678739683693328,-0.033570135896783,0.0159961636524849));
#1519=CARTESIAN_POINT('',(0.00675628898031529,-0.0323812692056666,0.0139587021229202));
#1520=CARTESIAN_POINT('',(0.00606392339963377,-0.0304356207301087,0.011627352815722));
#1521=CARTESIAN_POINT('',(0.00437867653943331,-0.027605885495604,0.00949395496882975));
#1522=CARTESIAN_POINT('',(0.00261983959809773,-0.0252303356233706,0.00858103433436801));
#1523=CARTESIAN_POINT('',(0.00167892334318322,-0.0240336750174167,0.0083164016376733));
#1524=CARTESIAN_POINT('',(0.00465669266748944,-0.0344511486045658,0.0199755513799398));
#1525=CARTESIAN_POINT('',(0.00167892334318324,-0.0240336750174167,0.00831640163767321));
#1526=CARTESIAN_POINT('',(-0.0204446382051665,-0.0344511486045658,0.0129158020720053));
#1527=CARTESIAN_POINT('',(0.0103621171816386,-0.0344511486045658,0.0215802020245442));
#1528=CARTESIAN_POINT('',(0.0103621171816386,-0.0240336750174167,0.0215802020245442));
#1529=CARTESIAN_POINT('',(0.0131826020780224,-0.0240336750174167,0.0115518112818468));
#1530=CARTESIAN_POINT('',(-0.0176241533087828,-0.0240336750174167,0.00288741132930784));
#1531=CARTESIAN_POINT('',(-0.0204446382051665,-0.060868622191715,0.0129158020720053));
#1532=CARTESIAN_POINT('',(-0.0204446382051665,-0.0504511486045659,0.0129158020720053));
#1533=CARTESIAN_POINT('',(-0.0204427129032861,-0.0504511486045659,0.0129163435631591));
#1534=CARTESIAN_POINT('',(-0.0204427129032861,-0.060868622191715,0.0129163435631591));
#1535=CARTESIAN_POINT('',(-0.0204446382051665,-0.060868622191715,0.0129158020720053));
#1536=CARTESIAN_POINT('',(-0.0204446382051665,-0.0504511486045659,0.0129158020720053));
#1537=CARTESIAN_POINT('',(0.0103621171816386,-0.0504511486045659,0.0215802020245442));
#1538=CARTESIAN_POINT('',(0.0103621171816386,-0.060868622191715,0.0215802020245442));
#1539=CARTESIAN_POINT('',(-0.023437547312674,-0.0484718745467296,0.0235572566764766));
#1540=CARTESIAN_POINT('',(-0.0153892851384454,-0.0470699507580829,0.0283432433967409));
#1541=CARTESIAN_POINT('',(-0.0174842072805187,-0.0479359761618673,0.0261958493437896));
#1542=CARTESIAN_POINT('',(-0.0145770484076905,-0.0488020015656518,0.0254552905762793));
#1543=CARTESIAN_POINT('',(-0.0187158901299353,-0.0470756197351623,0.027397435829376));
#1544=CARTESIAN_POINT('',(-0.0195505381713982,-0.0464926004888932,0.0282116891148852));
#1545=CARTESIAN_POINT('',(-0.0243657181740481,-0.0464926004888933,0.0268574197391399));
#1546=CARTESIAN_POINT('',(-0.0243637928721678,-0.0464926004888933,0.0268579612302937));
#1547=CARTESIAN_POINT('',(-0.0234356220107938,-0.0484718745467296,0.0235577981676304));
#1548=CARTESIAN_POINT('',(-0.0225074511494196,-0.0504511486045658,0.0202576351049672));
#1549=CARTESIAN_POINT('',(-0.0225093764513,-0.0504511486045658,0.0202570936138133));
#1550=CARTESIAN_POINT('',(0.00829737893550508,-0.0504511486045659,0.0289214935663522));
#1551=CARTESIAN_POINT('',(0.00736920807413103,-0.0484718745467296,0.0322216566290155));
#1552=CARTESIAN_POINT('',(-0.00182016987036703,-0.0534764197351623,0.0206327104150746));
#1553=CARTESIAN_POINT('',(0.000915179505699525,-0.0479359761618674,0.0313706768774135));
#1554=CARTESIAN_POINT('',(-0.00199197936712864,-0.0470699507580829,0.0321112356449238));
#1555=CARTESIAN_POINT('',(-0.00117974263637379,-0.0488020015656518,0.0292232828244622));
#1556=CARTESIAN_POINT('',(-0.0232827358663749,-0.0488020015656518,0.0230068159785243));
#1557=CARTESIAN_POINT('',(-0.0143727395927292,-0.00258498836605689,-0.00866578376326539));
#1558=CARTESIAN_POINT('',(-0.0148529849668754,-0.00640572174749852,-0.00695824465518985));
#1559=CARTESIAN_POINT('',(-0.0176222280069025,-0.0016572398190044,0.00288795282046165));
#1560=CARTESIAN_POINT('',(-0.0170807368530658,-0.090734989524909,0.000962650940153846));
#1561=CARTESIAN_POINT('',(-0.0169823728045801,-0.0900112751460947,0.000612912101093567));
#1562=CARTESIAN_POINT('',(-0.0168914362867115,-0.0892792562477457,0.000289582259782955));
#1563=CARTESIAN_POINT('',(-0.0168099912761475,-0.0885366251537845,-1.48527299679345E-17));
#1564=CARTESIAN_POINT('',(-0.0170807368530658,-0.090734989524909,0.000962650940153867));
#1565=CARTESIAN_POINT('',(-0.0143727395927292,-0.090734989524909,-0.00866578376326539));
#1566=CARTESIAN_POINT('',(-0.0214750820263529,-0.0504511486045658,0.0165869893340631));
#1567=CARTESIAN_POINT('',(-0.0243637928721678,-0.0424511486045658,0.0268579612302937));
#1568=CARTESIAN_POINT('',(-0.0214750820263529,-0.0344511486045658,0.0165869893340631));
#1569=CARTESIAN_POINT('',(-0.0176222280069024,-0.00258498836605689,0.00288795282046168));
#1570=CARTESIAN_POINT('',(-0.0224685738337398,-0.0424511486045658,0.0201194046492165));
#1571=CARTESIAN_POINT('',(-0.022116604583746,-0.0424511486045658,0.0188679584270164));
#1572=CARTESIAN_POINT('',(0.0164320904921956,0.00665261594097664,-1.92530188031226E-6));
#1573=CARTESIAN_POINT('',(0.00833625625118496,-0.0424511486045659,0.0287832631106016));
#1574=CARTESIAN_POINT('',(0.00868822550117873,-0.0424511486045659,0.0275318168884015));
#1575=CARTESIAN_POINT('',(0.0136707545076007,-0.0153160049800964,0.00981615819890157));
#1576=CARTESIAN_POINT('',(0.0131826020780224,-0.0144789592760181,0.0115518112818468));
#1577=CARTESIAN_POINT('',(0.0131826020780224,0.00665261594097664,0.0115518112818468));
#1578=CARTESIAN_POINT('',(0.00932974805857184,-0.0344511486045658,0.0252508477954482));
#1579=CARTESIAN_POINT('',(0.00932974805857184,-0.0504511486045659,0.0252508477954482));
#1580=CARTESIAN_POINT('',(0.0164320904921956,-0.09073498952491,-1.92530188031226E-6));
#1581=CARTESIAN_POINT('',(0.0151829400661585,-0.09073498952491,0.00443949843514066));
#1582=CARTESIAN_POINT('',(0.0289615840969338,-0.0380482489850389,-0.0445512358965052));
#1583=CARTESIAN_POINT('',(0.00102967544973348,-0.0814479017144062,-0.00433385453257278));
#1584=CARTESIAN_POINT('',(-0.00113683065676662,-0.0814479017144062,0.00336927829053871));
#1585=CARTESIAN_POINT('',(0.00271377310384898,-0.0814479017144062,0.00445226059821185));
#1586=CARTESIAN_POINT('',(0.00102967544973346,-0.0814479017144062,-0.00433385453257279));
#1587=CARTESIAN_POINT('',(-0.00167832181060319,-0.0814479017144062,0.0052945801708465));
#1588=CARTESIAN_POINT('',(0.00293099753570381,-0.099317529500754,0.00659095123699534));
#1589=CARTESIAN_POINT('',(0.00333047136238505,-0.0814479017144062,-0.0125144622220007));
#1590=CARTESIAN_POINT('',(-0.00221981296443638,0.00204615984622857,0.00721988205115524));
#1591=CARTESIAN_POINT('',(-0.00653470056650572,-0.00066926690417208,0.00600631991307324));
#1592=CARTESIAN_POINT('',(0.000685556238162606,-0.01305,0.00803701713938621));
#1593=CARTESIAN_POINT('',(-0.004282458237711,-0.00453123634574435,0.00663976306804676));
#1594=CARTESIAN_POINT('',(-0.00514629293327412,-0.00503501171110215,0.00639680955991967));
#1595=CARTESIAN_POINT('',(-0.00601012762883723,-0.00453123634574434,0.00615385605179251));
#1596=CARTESIAN_POINT('',(-0.00218651132543253,0.00202520260012559,0.00722924813712508));
#1597=CARTESIAN_POINT('',(-0.0109781421047108,-0.01305,0.00475660198045305));
#1598=CARTESIAN_POINT('',(-0.0150669863900971,-0.00603876880181898,0.00360661452518815));
#1599=CARTESIAN_POINT('',(-0.00611854927206329,-0.189801894770595,0.00612336246463513));
#1600=CARTESIAN_POINT('',(-0.00611854927206329,-0.0400511486045659,0.00612336246463513));
#1601=CARTESIAN_POINT('',(-0.00221981296443638,-0.0400511486045659,0.00721988205115524));
#1602=CARTESIAN_POINT('',(0.00167892334318324,-0.0400511486045659,0.00831640163767321));
#1603=CARTESIAN_POINT('',(0.00167892334318324,-0.189801894770595,0.00831640163767321));
#1604=CARTESIAN_POINT('',(0.00199758525708572,0.00470023499347482,0.00840602530095833));
#1605=CARTESIAN_POINT('',(0.00738124010516244,-0.00453123634574434,0.00992017822697991));
#1606=CARTESIAN_POINT('',(0.00651740540959933,-0.00503501171110215,0.00967722471885277));
#1607=CARTESIAN_POINT('',(0.00565357071403622,-0.00453123634574435,0.00943427121072566));
#1608=CARTESIAN_POINT('',(0.00634577449815892,-0.00334429929752131,0.00962895352501017));
#1609=CARTESIAN_POINT('',(0.0960239039144173,-0.0686059958590566,0.0275793404876977));
#1610=CARTESIAN_POINT('',(0.00303896343480685,-0.0944879003693087,0.00142732597780724));
#1611=CARTESIAN_POINT('',(-0.00167832181060319,-0.0814479017144062,0.0052945801708465));
#1612=CARTESIAN_POINT('',(-0.0243657181740481,-0.0424511486045658,0.0268574197391399));
#1613=CARTESIAN_POINT('',(-0.0195505381713982,-0.189801894770595,0.0282116891148852));
#1614=CARTESIAN_POINT('',(-0.0214770073282332,-0.0344511486045658,0.0165864478429093));
#1615=CARTESIAN_POINT('',(-0.00800023103164537,-0.0344511486045658,0.0128137864987047));
#1616=CARTESIAN_POINT('',(-0.00988191279122745,-0.0344511486045658,0.0195042105327744));
#1617=CARTESIAN_POINT('',(-0.000202758416398844,-0.0344511486045658,0.0150068256717429));
#1618=CARTESIAN_POINT('',(-0.00208444017598093,-0.0344511486045658,0.0216972497058125));
#1619=CARTESIAN_POINT('',(-0.0213875168279469,-0.0344511486045658,0.0162682593974471));
#1620=CARTESIAN_POINT('',(-0.0224704991356201,-0.0424511486045658,0.0201188631580626));
#1621=CARTESIAN_POINT('',(-0.0214770073282332,-0.0504511486045658,0.0165864478429093));
#1622=CARTESIAN_POINT('',(-0.00800023103164537,-0.189801894770595,0.0128137864987047));
#1623=CARTESIAN_POINT('',(-0.00988191279122745,-0.189801894770595,0.0195042105327744));
#1624=CARTESIAN_POINT('',(-0.00988191279122745,-0.0400511486045659,0.0195042105327744));
#1625=CARTESIAN_POINT('',(-0.00800023103164537,-0.0400511486045659,0.0128137864987047));
#1626=CARTESIAN_POINT('',(-0.00598317648360419,-0.189801894770595,0.0206007301192935));
#1627=CARTESIAN_POINT('',(-0.00208444017598093,-0.189801894770595,0.0216972497058125));
#1628=CARTESIAN_POINT('',(-0.00208444017598093,-0.0400511486045659,0.0216972497058125));
#1629=CARTESIAN_POINT('',(-0.00598317648360419,-0.0400511486045659,0.0206007301192935));
#1630=CARTESIAN_POINT('',(-0.000202758416398844,-0.189801894770595,0.0150068256717429));
#1631=CARTESIAN_POINT('',(-0.000202758416398844,-0.0400511486045659,0.0150068256717429));
#1632=CARTESIAN_POINT('',(-0.0185173727259585,-0.189801894770595,0.0272037692293374));
#1633=CARTESIAN_POINT('',(-0.0174842072805187,-0.189801894770595,0.0261958493437896));
#1634=CARTESIAN_POINT('',(0.00127148100884355,-0.189801894770595,0.0327693843422505));
#1635=CARTESIAN_POINT('',(0.000915179505699525,-0.189801894770595,0.0313706768774135));
#1636=CARTESIAN_POINT('',(-0.00199197936712864,-0.189801894770595,0.0321112356449238));
#1637=CARTESIAN_POINT('',(-0.00117974263637379,-0.189801894770595,0.0292232828244622));
#1638=CARTESIAN_POINT('',(-0.00787839552203217,-0.189801894770595,0.0273392867003707));
#1639=CARTESIAN_POINT('',(-0.0145770484076905,-0.189801894770595,0.0254552905762793));
#1640=CARTESIAN_POINT('',(-0.0153892851384454,-0.189801894770595,0.0283432433967409));
#1641=CARTESIAN_POINT('',(-0.00221981296443975,-0.0814479017144062,0.0072198820511543));
#1642=CARTESIAN_POINT('',(0.0113434574568583,-0.0416511486045658,0.0180983791660471));
#1643=CARTESIAN_POINT('',(-0.00800023103164537,-0.0416511486045658,0.0128137864987047));
#1644=CARTESIAN_POINT('',(-0.00655174219513256,-0.0416511486045658,0.00766360396888142));
#1645=CARTESIAN_POINT('',(-0.00944871986815819,-0.0416511486045658,0.0179639690285281));
#1646=CARTESIAN_POINT('',(0.00985435678380776,-0.0416511486045658,0.0233929593368935));
#1647=CARTESIAN_POINT('',(-0.00165124725291167,-0.0416511486045658,0.0201570082015662));
#1648=CARTESIAN_POINT('',(-0.000202758416398844,-0.0416511486045658,0.0150068256717429));
#1649=CARTESIAN_POINT('',(0.00124573042011398,-0.0416511486045658,0.00985664314191946));
#1650=CARTESIAN_POINT('',(0.0127513344568334,-0.0416511486045658,0.0130925942772468));
#1651=CARTESIAN_POINT('',(0.0113434574568583,-0.0432511486045658,0.0180983791660471));
#1652=CARTESIAN_POINT('',(-0.000202758416398844,-0.0432511486045658,0.0150068256717429));
#1653=CARTESIAN_POINT('',(0.00124573042011398,-0.0432511486045658,0.00985664314191946));
#1654=CARTESIAN_POINT('',(-0.00165124725291167,-0.0432511486045658,0.0201570082015662));
#1655=CARTESIAN_POINT('',(-0.0094487198681582,-0.0432511486045658,0.0179639690285282));
#1656=CARTESIAN_POINT('',(-0.00944871986815819,-0.0432511486045658,0.0179639690285281));
#1657=CARTESIAN_POINT('',(-0.00800023103164537,-0.0432511486045658,0.0128137864987047));
#1658=CARTESIAN_POINT('',(-0.00655174219513256,-0.0432511486045658,0.00766360396888142));
#1659=CARTESIAN_POINT('',(0.00124573042011396,-0.0432511486045658,0.00985664314191952));
#1660=CARTESIAN_POINT('',(0.0127513344568334,-0.0448511486045658,0.0130925942772468));
#1661=CARTESIAN_POINT('',(-0.00655174219513256,-0.0448511486045658,0.00766360396888142));
#1662=CARTESIAN_POINT('',(0.00124573042011396,-0.0448511486045658,0.00985664314191952));
#1663=CARTESIAN_POINT('',(-0.000202758416398844,-0.0448511486045658,0.0150068256717429));
#1664=CARTESIAN_POINT('',(-0.00165124725291167,-0.0448511486045658,0.0201570082015662));
#1665=CARTESIAN_POINT('',(-0.00800023103164537,-0.0448511486045658,0.0128137864987047));
#1666=CARTESIAN_POINT('',(-0.00944871986815819,-0.0448511486045658,0.0179639690285281));
#1667=CARTESIAN_POINT('',(0.00985435678380776,-0.0448511486045658,0.0233929593368935));
#1668=CARTESIAN_POINT('',(-0.00265300588750563,-0.0400511486045659,0.0087601235554015));
#1669=CARTESIAN_POINT('',(-0.00655174219513256,-0.0400511486045659,0.00766360396888142));
#1670=CARTESIAN_POINT('',(0.00124573042011396,-0.0400511486045659,0.00985664314191952));
#1671=CARTESIAN_POINT('',(-0.000202758416398844,-0.0400511486045659,0.0150068256717429));
#1672=CARTESIAN_POINT('',(-0.00165124725291167,-0.0400511486045659,0.0201570082015662));
#1673=CARTESIAN_POINT('',(-0.00800023103164537,-0.0400511486045659,0.0128137864987047));
#1674=CARTESIAN_POINT('',(-0.00944871986815819,-0.0400511486045659,0.0179639690285281));
#1675=CARTESIAN_POINT('',(-0.00554998356053493,-0.0400511486045659,0.0190604886150472));
#1676=CARTESIAN_POINT('',(-0.0080622175189925,-0.00805,0.211534903626713));
#1677=CARTESIAN_POINT('',(-0.00804763789606389,-0.008025,0.00142561375448634));
#1678=CARTESIAN_POINT('',(-0.00751867741657273,-0.00711797983548356,0.00201180847590434));
#1679=CARTESIAN_POINT('',(-0.00601012762883725,-0.00453123634574435,0.211534903626713));
#1680=CARTESIAN_POINT('',(-0.0109781421047109,-0.01305,0.211534903626713));
#1681=CARTESIAN_POINT('',(-0.00223036834755578,-0.00805,0.211534903626713));
#1682=CARTESIAN_POINT('',(-0.00224494797048433,-0.008025,0.00305762029605559));
#1683=CARTESIAN_POINT('',(-0.00171598749099317,-0.00893202016451644,0.00364381501747359));
#1684=CARTESIAN_POINT('',(-0.00428245823771103,-0.00453123634574434,0.211534903626713));
#1685=CARTESIAN_POINT('',(0.000685556238162583,-0.01305,0.211534903626713));
#1686=CARTESIAN_POINT('',(0.00360148082388095,-0.00805,0.211534903626713));
#1687=CARTESIAN_POINT('',(0.00361606044680959,-0.008025,0.0047060289134195));
#1688=CARTESIAN_POINT('',(0.00414502092630075,-0.00711797983548356,0.0052922236348375));
#1689=CARTESIAN_POINT('',(0.0056535707140362,-0.00453123634574434,0.211534903626713));
#1690=CARTESIAN_POINT('',(-0.0218099912761476,0.00552360993574567,0.211534903626713));
#1691=CARTESIAN_POINT('',(-0.0139086463133577,-0.008025,-0.00022279486287756));
#1692=CARTESIAN_POINT('',(0.0114744772053205,-0.01155,0.211534903626713));
#1693=CARTESIAN_POINT('',(0.00941875037238912,-0.008025,0.00633803545498875));
#1694=CARTESIAN_POINT('',(0.00994771085188028,-0.00893202016451644,0.00692423017640675));
#1695=CARTESIAN_POINT('',(0.00738124010516242,-0.00453123634574434,0.211534903626713));
#1696=CARTESIAN_POINT('',(-0.18890037383748,-0.008025,-0.0494392182290369));
#1697=CARTESIAN_POINT('',(-0.18890037383748,-0.008025,-0.0494392182290369));
#1698=CARTESIAN_POINT('',(-0.18890037383748,-0.008025,-0.0494392182290369));
#1699=CARTESIAN_POINT('',(-0.00514629293327414,-0.00503501171110215,0.211534903626713));
#1700=CARTESIAN_POINT('',(0.00651740540959931,-0.00503501171110215,0.211534903626713));
#1701=MECHANICAL_DESIGN_GEOMETRIC_PRESENTATION_REPRESENTATION('',(#980),
#1702);
#1702=(
GEOMETRIC_REPRESENTATION_CONTEXT(3)
GLOBAL_UNCERTAINTY_ASSIGNED_CONTEXT((#1703))
GLOBAL_UNIT_ASSIGNED_CONTEXT((#1706,#1705,#1704))
REPRESENTATION_CONTEXT('left-side-armour','TOP_LEVEL_ASSEMBLY_PART')
);
#1703=UNCERTAINTY_MEASURE_WITH_UNIT(LENGTH_MEASURE(2.E-5),#1706,
'DISTANCE_ACCURACY_VALUE','Maximum Tolerance applied to model');
#1704=(
NAMED_UNIT(*)
SI_UNIT($,.STERADIAN.)
SOLID_ANGLE_UNIT()
);
#1705=(
NAMED_UNIT(*)
PLANE_ANGLE_UNIT()
SI_UNIT($,.RADIAN.)
);
#1706=(
LENGTH_UNIT()
NAMED_UNIT(*)
SI_UNIT($,.METRE.)
);
#1707=PRODUCT_DEFINITION_SHAPE('','',#1708);
#1708=PRODUCT_DEFINITION('','',#1710,#1709);
#1709=PRODUCT_DEFINITION_CONTEXT('',#1716,'design');
#1710=PRODUCT_DEFINITION_FORMATION_WITH_SPECIFIED_SOURCE('','',#1712,
 .NOT_KNOWN.);
#1711=PRODUCT_RELATED_PRODUCT_CATEGORY('','',(#1712));
#1712=PRODUCT('left-side-armour','left-side-armour','left-side-armour',
(#1714));
#1713=PRODUCT_CATEGORY('','');
#1714=PRODUCT_CONTEXT('',#1716,'mechanical');
#1715=APPLICATION_PROTOCOL_DEFINITION('international standard',
'ap242_managed_model_based_3d_engineering',2020,#1716);
#1716=APPLICATION_CONTEXT('managed model based 3d engineering');
ENDSEC;
END-ISO-10303-21;
