ISO-10303-21;
HEADER;
/* Generated by software containing ST-Developer
 * from STEP Tools, Inc. (www.steptools.com) 
 */
/* OPTION: using custom renumber hook */

FILE_DESCRIPTION(
/* description */ ('STEP AP242 Edition 2',
'CAx-IF Rec.Pracs.---Representation and Presentation of Product Manufa
cturing Information (PMI)---4.0---2014-10-13',
'CAx-IF Rec.Pracs.---3D Tessellated Geometry---0.4---2014-09-14','2;1',
'CAx-IF Rec.Pracs.---User Defined Attributes---1.5---2016-08-15'),
/* implementation_level */ '2;1');

FILE_NAME(
/* name */ '698cdf1aa470bfd90cbda26e',
/* time_stamp */ '2026-02-11T19:57:14Z',
/* author */ (''),
/* organization */ (''),
/* preprocessor_version */ 'ST-DEVELOPER v20',
/* originating_system */ 'ONSHAPE BY PTC INC, 1.210',
/* authorisation */ '  ');

FILE_SCHEMA (('AP242_MANAGED_MODEL_BASED_3D_ENGINEERING_MIM_LF { 1 0 10303 442 3 1 4 }'));
ENDSEC;

DATA;
#10=SHAPE_REPRESENTATION_RELATIONSHIP('','',#445,#11);
#11=ADVANCED_BREP_SHAPE_REPRESENTATION('',(#443),#743);
#12=LINE('',#649,#40);
#13=LINE('',#652,#41);
#14=LINE('',#654,#42);
#15=LINE('',#656,#43);
#16=LINE('',#658,#44);
#17=LINE('',#671,#45);
#18=LINE('',#676,#46);
#19=LINE('',#678,#47);
#20=LINE('',#680,#48);
#21=LINE('',#681,#49);
#22=LINE('',#683,#50);
#23=LINE('',#687,#51);
#24=LINE('',#689,#52);
#25=LINE('',#694,#53);
#26=LINE('',#696,#54);
#27=LINE('',#700,#55);
#28=LINE('',#704,#56);
#29=LINE('',#706,#57);
#30=LINE('',#707,#58);
#31=LINE('',#709,#59);
#32=LINE('',#713,#60);
#33=LINE('',#715,#61);
#34=LINE('',#717,#62);
#35=LINE('',#721,#63);
#36=LINE('',#722,#64);
#37=LINE('',#726,#65);
#38=LINE('',#730,#66);
#39=LINE('',#732,#67);
#40=VECTOR('',#528,1.);
#41=VECTOR('',#529,1.);
#42=VECTOR('',#530,1.);
#43=VECTOR('',#531,1.);
#44=VECTOR('',#534,1.);
#45=VECTOR('',#551,1.);
#46=VECTOR('',#554,1.);
#47=VECTOR('',#555,1.);
#48=VECTOR('',#556,1.);
#49=VECTOR('',#557,1.);
#50=VECTOR('',#558,1.);
#51=VECTOR('',#561,1.);
#52=VECTOR('',#564,1.);
#53=VECTOR('',#567,1.);
#54=VECTOR('',#568,1.);
#55=VECTOR('',#571,1.);
#56=VECTOR('',#574,1.);
#57=VECTOR('',#575,1.);
#58=VECTOR('',#576,1.);
#59=VECTOR('',#577,1.);
#60=VECTOR('',#582,1.);
#61=VECTOR('',#585,1.);
#62=VECTOR('',#588,1.);
#63=VECTOR('',#593,1.);
#64=VECTOR('',#594,1.);
#65=VECTOR('',#599,1.);
#66=VECTOR('',#604,1.);
#67=VECTOR('',#607,1.);
#68=CONICAL_SURFACE('',#453,0.008,0.785398163397448);
#69=PLANE('',#450);
#70=PLANE('',#461);
#71=PLANE('',#462);
#72=PLANE('',#470);
#73=PLANE('',#473);
#74=PLANE('',#477);
#75=PLANE('',#479);
#76=PLANE('',#480);
#77=PLANE('',#481);
#78=PLANE('',#483);
#79=PLANE('',#485);
#80=PLANE('',#487);
#81=PLANE('',#493);
#82=CIRCLE('',#449,0.001);
#83=CIRCLE('',#451,0.002);
#84=CIRCLE('',#452,0.0045);
#85=CIRCLE('',#454,0.004);
#86=CIRCLE('',#455,0.008);
#87=CIRCLE('',#457,0.002);
#88=CIRCLE('',#458,0.002);
#89=CIRCLE('',#460,0.002);
#90=CIRCLE('',#463,0.0045);
#91=CIRCLE('',#474,0.001);
#92=CIRCLE('',#475,0.001);
#93=CIRCLE('',#478,0.003);
#94=CIRCLE('',#494,0.003);
#95=ORIENTED_EDGE('',*,*,#199,.T.);
#96=ORIENTED_EDGE('',*,*,#200,.F.);
#97=ORIENTED_EDGE('',*,*,#201,.F.);
#98=ORIENTED_EDGE('',*,*,#202,.T.);
#99=ORIENTED_EDGE('',*,*,#203,.F.);
#100=ORIENTED_EDGE('',*,*,#204,.F.);
#101=ORIENTED_EDGE('',*,*,#205,.F.);
#102=ORIENTED_EDGE('',*,*,#206,.T.);
#103=ORIENTED_EDGE('',*,*,#207,.F.);
#104=ORIENTED_EDGE('',*,*,#201,.T.);
#105=ORIENTED_EDGE('',*,*,#208,.F.);
#106=ORIENTED_EDGE('',*,*,#209,.T.);
#107=ORIENTED_EDGE('',*,*,#210,.T.);
#108=ORIENTED_EDGE('',*,*,#211,.T.);
#109=ORIENTED_EDGE('',*,*,#206,.F.);
#110=ORIENTED_EDGE('',*,*,#212,.T.);
#111=ORIENTED_EDGE('',*,*,#213,.T.);
#112=ORIENTED_EDGE('',*,*,#214,.T.);
#113=ORIENTED_EDGE('',*,*,#213,.F.);
#114=ORIENTED_EDGE('',*,*,#202,.F.);
#115=ORIENTED_EDGE('',*,*,#215,.T.);
#116=ORIENTED_EDGE('',*,*,#203,.T.);
#117=ORIENTED_EDGE('',*,*,#216,.F.);
#118=ORIENTED_EDGE('',*,*,#207,.T.);
#119=ORIENTED_EDGE('',*,*,#205,.T.);
#120=ORIENTED_EDGE('',*,*,#204,.T.);
#121=ORIENTED_EDGE('',*,*,#217,.F.);
#122=ORIENTED_EDGE('',*,*,#218,.T.);
#123=ORIENTED_EDGE('',*,*,#219,.F.);
#124=ORIENTED_EDGE('',*,*,#220,.F.);
#125=ORIENTED_EDGE('',*,*,#221,.F.);
#126=ORIENTED_EDGE('',*,*,#211,.F.);
#127=ORIENTED_EDGE('',*,*,#222,.T.);
#128=ORIENTED_EDGE('',*,*,#223,.T.);
#129=ORIENTED_EDGE('',*,*,#224,.T.);
#130=ORIENTED_EDGE('',*,*,#225,.F.);
#131=ORIENTED_EDGE('',*,*,#216,.T.);
#132=ORIENTED_EDGE('',*,*,#215,.F.);
#133=ORIENTED_EDGE('',*,*,#214,.F.);
#134=ORIENTED_EDGE('',*,*,#212,.F.);
#135=ORIENTED_EDGE('',*,*,#226,.T.);
#136=ORIENTED_EDGE('',*,*,#227,.T.);
#137=ORIENTED_EDGE('',*,*,#228,.T.);
#138=ORIENTED_EDGE('',*,*,#229,.T.);
#139=ORIENTED_EDGE('',*,*,#230,.T.);
#140=ORIENTED_EDGE('',*,*,#231,.F.);
#141=ORIENTED_EDGE('',*,*,#232,.T.);
#142=ORIENTED_EDGE('',*,*,#233,.F.);
#143=ORIENTED_EDGE('',*,*,#234,.T.);
#144=ORIENTED_EDGE('',*,*,#209,.F.);
#145=ORIENTED_EDGE('',*,*,#235,.T.);
#146=ORIENTED_EDGE('',*,*,#236,.T.);
#147=ORIENTED_EDGE('',*,*,#237,.F.);
#148=ORIENTED_EDGE('',*,*,#238,.F.);
#149=ORIENTED_EDGE('',*,*,#235,.F.);
#150=ORIENTED_EDGE('',*,*,#208,.T.);
#151=ORIENTED_EDGE('',*,*,#221,.T.);
#152=ORIENTED_EDGE('',*,*,#239,.F.);
#153=ORIENTED_EDGE('',*,*,#222,.F.);
#154=ORIENTED_EDGE('',*,*,#210,.F.);
#155=ORIENTED_EDGE('',*,*,#234,.F.);
#156=ORIENTED_EDGE('',*,*,#199,.F.);
#157=ORIENTED_EDGE('',*,*,#238,.T.);
#158=ORIENTED_EDGE('',*,*,#220,.T.);
#159=ORIENTED_EDGE('',*,*,#240,.T.);
#160=ORIENTED_EDGE('',*,*,#236,.F.);
#161=ORIENTED_EDGE('',*,*,#241,.F.);
#162=ORIENTED_EDGE('',*,*,#225,.T.);
#163=ORIENTED_EDGE('',*,*,#242,.T.);
#164=ORIENTED_EDGE('',*,*,#229,.F.);
#165=ORIENTED_EDGE('',*,*,#243,.F.);
#166=ORIENTED_EDGE('',*,*,#244,.F.);
#167=ORIENTED_EDGE('',*,*,#228,.F.);
#168=ORIENTED_EDGE('',*,*,#245,.T.);
#169=ORIENTED_EDGE('',*,*,#217,.T.);
#170=ORIENTED_EDGE('',*,*,#243,.T.);
#171=ORIENTED_EDGE('',*,*,#246,.F.);
#172=ORIENTED_EDGE('',*,*,#219,.T.);
#173=ORIENTED_EDGE('',*,*,#247,.T.);
#174=ORIENTED_EDGE('',*,*,#226,.F.);
#175=ORIENTED_EDGE('',*,*,#240,.F.);
#176=ORIENTED_EDGE('',*,*,#231,.T.);
#177=ORIENTED_EDGE('',*,*,#248,.T.);
#178=ORIENTED_EDGE('',*,*,#223,.F.);
#179=ORIENTED_EDGE('',*,*,#239,.T.);
#180=ORIENTED_EDGE('',*,*,#233,.T.);
#181=ORIENTED_EDGE('',*,*,#249,.T.);
#182=ORIENTED_EDGE('',*,*,#241,.T.);
#183=ORIENTED_EDGE('',*,*,#249,.F.);
#184=ORIENTED_EDGE('',*,*,#232,.F.);
#185=ORIENTED_EDGE('',*,*,#244,.T.);
#186=ORIENTED_EDGE('',*,*,#246,.T.);
#187=ORIENTED_EDGE('',*,*,#218,.F.);
#188=ORIENTED_EDGE('',*,*,#245,.F.);
#189=ORIENTED_EDGE('',*,*,#227,.F.);
#190=ORIENTED_EDGE('',*,*,#247,.F.);
#191=ORIENTED_EDGE('',*,*,#224,.F.);
#192=ORIENTED_EDGE('',*,*,#248,.F.);
#193=ORIENTED_EDGE('',*,*,#230,.F.);
#194=ORIENTED_EDGE('',*,*,#242,.F.);
#195=ORIENTED_EDGE('',*,*,#250,.T.);
#196=ORIENTED_EDGE('',*,*,#200,.T.);
#197=ORIENTED_EDGE('',*,*,#250,.F.);
#198=ORIENTED_EDGE('',*,*,#237,.T.);
#199=EDGE_CURVE('',#251,#251,#291,.T.);
#200=EDGE_CURVE('',#252,#252,#82,.F.);
#201=EDGE_CURVE('',#253,#253,#83,.T.);
#202=EDGE_CURVE('',#254,#254,#84,.T.);
#203=EDGE_CURVE('',#255,#255,#85,.F.);
#204=EDGE_CURVE('',#256,#256,#86,.T.);
#205=EDGE_CURVE('',#257,#257,#87,.T.);
#206=EDGE_CURVE('',#258,#258,#88,.T.);
#207=EDGE_CURVE('',#259,#259,#89,.T.);
#208=EDGE_CURVE('',#260,#261,#12,.T.);
#209=EDGE_CURVE('',#260,#262,#13,.T.);
#210=EDGE_CURVE('',#262,#263,#14,.T.);
#211=EDGE_CURVE('',#263,#261,#15,.T.);
#212=EDGE_CURVE('',#264,#265,#16,.T.);
#213=EDGE_CURVE('',#265,#264,#90,.T.);
#214=EDGE_CURVE('',#265,#264,#292,.F.);
#215=EDGE_CURVE('',#266,#266,#293,.F.);
#216=EDGE_CURVE('',#267,#267,#294,.T.);
#217=EDGE_CURVE('',#268,#269,#17,.T.);
#218=EDGE_CURVE('',#268,#270,#295,.F.);
#219=EDGE_CURVE('',#271,#270,#18,.T.);
#220=EDGE_CURVE('',#272,#271,#19,.T.);
#221=EDGE_CURVE('',#261,#272,#20,.T.);
#222=EDGE_CURVE('',#263,#273,#21,.T.);
#223=EDGE_CURVE('',#273,#274,#22,.T.);
#224=EDGE_CURVE('',#274,#275,#296,.F.);
#225=EDGE_CURVE('',#269,#275,#23,.T.);
#226=EDGE_CURVE('',#276,#277,#24,.T.);
#227=EDGE_CURVE('',#277,#278,#91,.F.);
#228=EDGE_CURVE('',#278,#279,#25,.T.);
#229=EDGE_CURVE('',#279,#280,#26,.T.);
#230=EDGE_CURVE('',#280,#281,#92,.F.);
#231=EDGE_CURVE('',#282,#281,#27,.T.);
#232=EDGE_CURVE('',#282,#283,#297,.T.);
#233=EDGE_CURVE('',#284,#283,#28,.T.);
#234=EDGE_CURVE('',#284,#262,#29,.T.);
#235=EDGE_CURVE('',#260,#285,#30,.T.);
#236=EDGE_CURVE('',#285,#276,#31,.T.);
#237=EDGE_CURVE('',#286,#286,#93,.T.);
#238=EDGE_CURVE('',#285,#272,#32,.T.);
#239=EDGE_CURVE('',#273,#284,#33,.T.);
#240=EDGE_CURVE('',#271,#276,#34,.T.);
#241=EDGE_CURVE('',#287,#287,#298,.T.);
#242=EDGE_CURVE('',#275,#280,#35,.T.);
#243=EDGE_CURVE('',#269,#279,#36,.T.);
#244=EDGE_CURVE('',#288,#288,#299,.T.);
#245=EDGE_CURVE('',#278,#268,#37,.F.);
#246=EDGE_CURVE('',#289,#289,#300,.T.);
#247=EDGE_CURVE('',#270,#277,#38,.T.);
#248=EDGE_CURVE('',#281,#274,#39,.F.);
#249=EDGE_CURVE('',#283,#282,#301,.T.);
#250=EDGE_CURVE('',#290,#290,#94,.T.);
#251=VERTEX_POINT('',#627);
#252=VERTEX_POINT('',#629);
#253=VERTEX_POINT('',#632);
#254=VERTEX_POINT('',#634);
#255=VERTEX_POINT('',#637);
#256=VERTEX_POINT('',#639);
#257=VERTEX_POINT('',#642);
#258=VERTEX_POINT('',#644);
#259=VERTEX_POINT('',#647);
#260=VERTEX_POINT('',#650);
#261=VERTEX_POINT('',#651);
#262=VERTEX_POINT('',#653);
#263=VERTEX_POINT('',#655);
#264=VERTEX_POINT('',#659);
#265=VERTEX_POINT('',#660);
#266=VERTEX_POINT('',#666);
#267=VERTEX_POINT('',#669);
#268=VERTEX_POINT('',#672);
#269=VERTEX_POINT('',#673);
#270=VERTEX_POINT('',#675);
#271=VERTEX_POINT('',#677);
#272=VERTEX_POINT('',#679);
#273=VERTEX_POINT('',#682);
#274=VERTEX_POINT('',#684);
#275=VERTEX_POINT('',#686);
#276=VERTEX_POINT('',#690);
#277=VERTEX_POINT('',#691);
#278=VERTEX_POINT('',#693);
#279=VERTEX_POINT('',#695);
#280=VERTEX_POINT('',#697);
#281=VERTEX_POINT('',#699);
#282=VERTEX_POINT('',#701);
#283=VERTEX_POINT('',#703);
#284=VERTEX_POINT('',#705);
#285=VERTEX_POINT('',#708);
#286=VERTEX_POINT('',#712);
#287=VERTEX_POINT('',#720);
#288=VERTEX_POINT('',#725);
#289=VERTEX_POINT('',#729);
#290=VERTEX_POINT('',#740);
#291=ELLIPSE('',#448,0.00120254273068414,0.001);
#292=ELLIPSE('',#465,0.00467459160147975,0.0045);
#293=ELLIPSE('',#467,0.00467459160147975,0.0045);
#294=ELLIPSE('',#469,0.00415519253464867,0.004);
#295=ELLIPSE('',#471,0.00103879813366217,0.001);
#296=ELLIPSE('',#472,0.00103879813366217,0.001);
#297=ELLIPSE('',#476,0.00369350447524327,0.001);
#298=ELLIPSE('',#482,0.00120254273068414,0.001);
#299=ELLIPSE('',#484,0.00120254273068414,0.001);
#300=ELLIPSE('',#486,0.00120254273068414,0.001);
#301=ELLIPSE('',#488,0.00120254273068414,0.001);
#302=EDGE_LOOP('',(#95));
#303=EDGE_LOOP('',(#96));
#304=EDGE_LOOP('',(#97));
#305=EDGE_LOOP('',(#98));
#306=EDGE_LOOP('',(#99));
#307=EDGE_LOOP('',(#100));
#308=EDGE_LOOP('',(#101));
#309=EDGE_LOOP('',(#102));
#310=EDGE_LOOP('',(#103));
#311=EDGE_LOOP('',(#104));
#312=EDGE_LOOP('',(#105,#106,#107,#108));
#313=EDGE_LOOP('',(#109));
#314=EDGE_LOOP('',(#110,#111));
#315=EDGE_LOOP('',(#112,#113));
#316=EDGE_LOOP('',(#114));
#317=EDGE_LOOP('',(#115));
#318=EDGE_LOOP('',(#116));
#319=EDGE_LOOP('',(#117));
#320=EDGE_LOOP('',(#118));
#321=EDGE_LOOP('',(#119));
#322=EDGE_LOOP('',(#120));
#323=EDGE_LOOP('',(#121,#122,#123,#124,#125,#126,#127,#128,#129,#130));
#324=EDGE_LOOP('',(#131));
#325=EDGE_LOOP('',(#132));
#326=EDGE_LOOP('',(#133,#134));
#327=EDGE_LOOP('',(#135,#136,#137,#138,#139,#140,#141,#142,#143,#144,#145,
#146));
#328=EDGE_LOOP('',(#147));
#329=EDGE_LOOP('',(#148,#149,#150,#151));
#330=EDGE_LOOP('',(#152,#153,#154,#155));
#331=EDGE_LOOP('',(#156));
#332=EDGE_LOOP('',(#157,#158,#159,#160));
#333=EDGE_LOOP('',(#161));
#334=EDGE_LOOP('',(#162,#163,#164,#165));
#335=EDGE_LOOP('',(#166));
#336=EDGE_LOOP('',(#167,#168,#169,#170));
#337=EDGE_LOOP('',(#171));
#338=EDGE_LOOP('',(#172,#173,#174,#175));
#339=EDGE_LOOP('',(#176,#177,#178,#179,#180,#181));
#340=EDGE_LOOP('',(#182));
#341=EDGE_LOOP('',(#183,#184));
#342=EDGE_LOOP('',(#185));
#343=EDGE_LOOP('',(#186));
#344=EDGE_LOOP('',(#187,#188,#189,#190));
#345=EDGE_LOOP('',(#191,#192,#193,#194));
#346=EDGE_LOOP('',(#195));
#347=EDGE_LOOP('',(#196));
#348=EDGE_LOOP('',(#197));
#349=EDGE_LOOP('',(#198));
#350=FACE_BOUND('',#302,.T.);
#351=FACE_BOUND('',#303,.T.);
#352=FACE_BOUND('',#304,.T.);
#353=FACE_BOUND('',#305,.T.);
#354=FACE_BOUND('',#306,.T.);
#355=FACE_BOUND('',#307,.T.);
#356=FACE_BOUND('',#308,.T.);
#357=FACE_BOUND('',#309,.T.);
#358=FACE_BOUND('',#310,.T.);
#359=FACE_BOUND('',#311,.T.);
#360=FACE_BOUND('',#312,.T.);
#361=FACE_BOUND('',#313,.T.);
#362=FACE_BOUND('',#314,.T.);
#363=FACE_BOUND('',#315,.T.);
#364=FACE_BOUND('',#316,.T.);
#365=FACE_BOUND('',#317,.T.);
#366=FACE_BOUND('',#318,.T.);
#367=FACE_BOUND('',#319,.T.);
#368=FACE_BOUND('',#320,.T.);
#369=FACE_BOUND('',#321,.T.);
#370=FACE_BOUND('',#322,.T.);
#371=FACE_BOUND('',#323,.T.);
#372=FACE_BOUND('',#324,.T.);
#373=FACE_BOUND('',#325,.T.);
#374=FACE_BOUND('',#326,.T.);
#375=FACE_BOUND('',#327,.T.);
#376=FACE_BOUND('',#328,.T.);
#377=FACE_BOUND('',#329,.T.);
#378=FACE_BOUND('',#330,.T.);
#379=FACE_BOUND('',#331,.T.);
#380=FACE_BOUND('',#332,.T.);
#381=FACE_BOUND('',#333,.T.);
#382=FACE_BOUND('',#334,.T.);
#383=FACE_BOUND('',#335,.T.);
#384=FACE_BOUND('',#336,.T.);
#385=FACE_BOUND('',#337,.T.);
#386=FACE_BOUND('',#338,.T.);
#387=FACE_BOUND('',#339,.T.);
#388=FACE_BOUND('',#340,.T.);
#389=FACE_BOUND('',#341,.T.);
#390=FACE_BOUND('',#342,.T.);
#391=FACE_BOUND('',#343,.T.);
#392=FACE_BOUND('',#344,.T.);
#393=FACE_BOUND('',#345,.T.);
#394=FACE_BOUND('',#346,.T.);
#395=FACE_BOUND('',#347,.T.);
#396=FACE_BOUND('',#348,.T.);
#397=FACE_BOUND('',#349,.T.);
#398=CYLINDRICAL_SURFACE('',#447,0.001);
#399=CYLINDRICAL_SURFACE('',#456,0.002);
#400=CYLINDRICAL_SURFACE('',#459,0.002);
#401=CYLINDRICAL_SURFACE('',#464,0.0045);
#402=CYLINDRICAL_SURFACE('',#466,0.0045);
#403=CYLINDRICAL_SURFACE('',#468,0.004);
#404=CYLINDRICAL_SURFACE('',#489,0.001);
#405=CYLINDRICAL_SURFACE('',#490,0.001);
#406=CYLINDRICAL_SURFACE('',#491,0.001);
#407=CYLINDRICAL_SURFACE('',#492,0.001);
#408=CYLINDRICAL_SURFACE('',#495,0.003);
#409=ADVANCED_FACE('',(#350,#351),#398,.F.);
#410=ADVANCED_FACE('',(#352,#353),#69,.T.);
#411=ADVANCED_FACE('',(#354,#355),#68,.F.);
#412=ADVANCED_FACE('',(#356,#357),#399,.F.);
#413=ADVANCED_FACE('',(#358,#359),#400,.F.);
#414=ADVANCED_FACE('',(#360),#70,.F.);
#415=ADVANCED_FACE('',(#361,#362),#71,.T.);
#416=ADVANCED_FACE('',(#363),#401,.F.);
#417=ADVANCED_FACE('',(#364,#365),#402,.F.);
#418=ADVANCED_FACE('',(#366,#367),#403,.F.);
#419=ADVANCED_FACE('',(#368,#369,#370,#371),#72,.F.);
#420=ADVANCED_FACE('',(#372,#373,#374,#375),#73,.F.);
#421=ADVANCED_FACE('',(#376,#377),#74,.F.);
#422=ADVANCED_FACE('',(#378),#75,.T.);
#423=ADVANCED_FACE('',(#379,#380),#76,.T.);
#424=ADVANCED_FACE('',(#381,#382),#77,.T.);
#425=ADVANCED_FACE('',(#383,#384),#78,.T.);
#426=ADVANCED_FACE('',(#385,#386),#79,.T.);
#427=ADVANCED_FACE('',(#387),#80,.F.);
#428=ADVANCED_FACE('',(#388,#389),#404,.F.);
#429=ADVANCED_FACE('',(#390,#391),#405,.F.);
#430=ADVANCED_FACE('',(#392),#406,.T.);
#431=ADVANCED_FACE('',(#393),#407,.T.);
#432=ADVANCED_FACE('',(#394,#395),#81,.T.);
#433=ADVANCED_FACE('',(#396,#397),#408,.F.);
#434=CLOSED_SHELL('',(#409,#410,#411,#412,#413,#414,#415,#416,#417,#418,
#419,#420,#421,#422,#423,#424,#425,#426,#427,#428,#429,#430,#431,#432,#433));
#435=STYLED_ITEM('',(#436),#443);
#436=PRESENTATION_STYLE_ASSIGNMENT((#437));
#437=SURFACE_STYLE_USAGE(.BOTH.,#438);
#438=SURFACE_SIDE_STYLE('',(#439));
#439=SURFACE_STYLE_FILL_AREA(#440);
#440=FILL_AREA_STYLE('',(#441));
#441=FILL_AREA_STYLE_COLOUR('',#442);
#442=COLOUR_RGB('',0.96078431372549,0.835294117647059,0.470588235294118);
#443=MANIFOLD_SOLID_BREP('left-side-armour',#434);
#444=SHAPE_DEFINITION_REPRESENTATION(#748,#445);
#445=SHAPE_REPRESENTATION('left-side-armour',(#446),#743);
#446=AXIS2_PLACEMENT_3D('',#624,#496,#497);
#447=AXIS2_PLACEMENT_3D('',#625,#498,#499);
#448=AXIS2_PLACEMENT_3D('',#626,#500,#501);
#449=AXIS2_PLACEMENT_3D('',#628,#502,#503);
#450=AXIS2_PLACEMENT_3D('',#630,#504,#505);
#451=AXIS2_PLACEMENT_3D('',#631,#506,#507);
#452=AXIS2_PLACEMENT_3D('',#633,#508,#509);
#453=AXIS2_PLACEMENT_3D('',#635,#510,#511);
#454=AXIS2_PLACEMENT_3D('',#636,#512,#513);
#455=AXIS2_PLACEMENT_3D('',#638,#514,#515);
#456=AXIS2_PLACEMENT_3D('',#640,#516,#517);
#457=AXIS2_PLACEMENT_3D('',#641,#518,#519);
#458=AXIS2_PLACEMENT_3D('',#643,#520,#521);
#459=AXIS2_PLACEMENT_3D('',#645,#522,#523);
#460=AXIS2_PLACEMENT_3D('',#646,#524,#525);
#461=AXIS2_PLACEMENT_3D('',#648,#526,#527);
#462=AXIS2_PLACEMENT_3D('',#657,#532,#533);
#463=AXIS2_PLACEMENT_3D('',#661,#535,#536);
#464=AXIS2_PLACEMENT_3D('',#662,#537,#538);
#465=AXIS2_PLACEMENT_3D('',#663,#539,#540);
#466=AXIS2_PLACEMENT_3D('',#664,#541,#542);
#467=AXIS2_PLACEMENT_3D('',#665,#543,#544);
#468=AXIS2_PLACEMENT_3D('',#667,#545,#546);
#469=AXIS2_PLACEMENT_3D('',#668,#547,#548);
#470=AXIS2_PLACEMENT_3D('',#670,#549,#550);
#471=AXIS2_PLACEMENT_3D('',#674,#552,#553);
#472=AXIS2_PLACEMENT_3D('',#685,#559,#560);
#473=AXIS2_PLACEMENT_3D('',#688,#562,#563);
#474=AXIS2_PLACEMENT_3D('',#692,#565,#566);
#475=AXIS2_PLACEMENT_3D('',#698,#569,#570);
#476=AXIS2_PLACEMENT_3D('',#702,#572,#573);
#477=AXIS2_PLACEMENT_3D('',#710,#578,#579);
#478=AXIS2_PLACEMENT_3D('',#711,#580,#581);
#479=AXIS2_PLACEMENT_3D('',#714,#583,#584);
#480=AXIS2_PLACEMENT_3D('',#716,#586,#587);
#481=AXIS2_PLACEMENT_3D('',#718,#589,#590);
#482=AXIS2_PLACEMENT_3D('',#719,#591,#592);
#483=AXIS2_PLACEMENT_3D('',#723,#595,#596);
#484=AXIS2_PLACEMENT_3D('',#724,#597,#598);
#485=AXIS2_PLACEMENT_3D('',#727,#600,#601);
#486=AXIS2_PLACEMENT_3D('',#728,#602,#603);
#487=AXIS2_PLACEMENT_3D('',#731,#605,#606);
#488=AXIS2_PLACEMENT_3D('',#733,#608,#609);
#489=AXIS2_PLACEMENT_3D('',#734,#610,#611);
#490=AXIS2_PLACEMENT_3D('',#735,#612,#613);
#491=AXIS2_PLACEMENT_3D('',#736,#614,#615);
#492=AXIS2_PLACEMENT_3D('',#737,#616,#617);
#493=AXIS2_PLACEMENT_3D('',#738,#618,#619);
#494=AXIS2_PLACEMENT_3D('',#739,#620,#621);
#495=AXIS2_PLACEMENT_3D('',#741,#622,#623);
#496=DIRECTION('',(0.,0.,1.));
#497=DIRECTION('',(1.,0.,0.));
#498=DIRECTION('',(0.962650940153899,0.,0.270745576918284));
#499=DIRECTION('',(0.270745576918284,0.,-0.962650940153899));
#500=DIRECTION('',(-0.863834695563111,-0.503775365357802,-9.59049168484228E-17));
#501=DIRECTION('',(0.439868343963317,-0.754251920844778,0.487462695886497));
#502=DIRECTION('',(0.962650940153899,0.,0.270745576918284));
#503=DIRECTION('',(0.270745576918284,0.,-0.962650940153899));
#504=DIRECTION('',(0.270745576918284,0.,-0.962650940153899));
#505=DIRECTION('',(0.,-1.,0.));
#506=DIRECTION('',(0.270745576918284,0.,-0.962650940153899));
#507=DIRECTION('',(0.962650940153899,0.,0.270745576918284));
#508=DIRECTION('',(0.270745576918284,0.,-0.962650940153899));
#509=DIRECTION('',(0.962650940153899,0.,0.270745576918284));
#510=DIRECTION('',(-0.270745576918284,0.,0.962650940153899));
#511=DIRECTION('',(-0.962650940153899,0.,-0.270745576918284));
#512=DIRECTION('',(0.270745576918284,0.,-0.962650940153899));
#513=DIRECTION('',(0.962650940153899,0.,0.270745576918284));
#514=DIRECTION('',(0.270745576918284,0.,-0.962650940153899));
#515=DIRECTION('',(0.962650940153899,0.,0.270745576918284));
#516=DIRECTION('',(-0.270745576918284,0.,0.962650940153899));
#517=DIRECTION('',(-0.962650940153899,0.,-0.270745576918284));
#518=DIRECTION('',(0.270745576918284,0.,-0.962650940153899));
#519=DIRECTION('',(0.962650940153899,0.,0.270745576918284));
#520=DIRECTION('',(0.270745576918284,0.,-0.962650940153899));
#521=DIRECTION('',(0.962650940153899,0.,0.270745576918284));
#522=DIRECTION('',(-0.270745576918284,0.,0.962650940153899));
#523=DIRECTION('',(-0.962650940153899,0.,-0.270745576918284));
#524=DIRECTION('',(0.270745576918284,0.,-0.962650940153899));
#525=DIRECTION('',(0.962650940153899,0.,0.270745576918284));
#526=DIRECTION('',(0.48132547007695,-0.866025403784438,0.135372788459142));
#527=DIRECTION('',(-0.83368016915025,-0.5,-0.234472547573507));
#528=DIRECTION('',(-0.270745576918284,0.,0.962650940153899));
#529=DIRECTION('',(-0.874071462679911,-0.485797363237597,-2.77555756156289E-17));
#530=DIRECTION('',(-0.270745576918284,0.,0.962650940153899));
#531=DIRECTION('',(0.83368016915025,0.5,0.234472547573507));
#532=DIRECTION('',(0.270745576918284,0.,-0.962650940153899));
#533=DIRECTION('',(0.,-1.,0.));
#534=DIRECTION('',(0.,1.,0.));
#535=DIRECTION('',(0.270745576918284,0.,-0.962650940153899));
#536=DIRECTION('',(0.962650940153899,0.,0.270745576918284));
#537=DIRECTION('',(-0.270745576918284,0.,0.962650940153899));
#538=DIRECTION('',(-0.962650940153899,0.,-0.270745576918284));
#539=DIRECTION('',(-1.11022302462516E-16,0.,1.));
#540=DIRECTION('',(-1.,0.,-5.55111512312578E-17));
#541=DIRECTION('',(-0.270745576918284,0.,0.962650940153899));
#542=DIRECTION('',(-0.962650940153899,0.,-0.270745576918284));
#543=DIRECTION('',(-1.11022302462516E-16,0.,1.));
#544=DIRECTION('',(-1.,0.,-5.55111512312578E-17));
#545=DIRECTION('',(-0.270745576918284,0.,0.962650940153899));
#546=DIRECTION('',(-0.962650940153899,0.,-0.270745576918284));
#547=DIRECTION('',(-1.11022302462516E-16,0.,1.));
#548=DIRECTION('',(-1.,0.,-5.55111512312578E-17));
#549=DIRECTION('',(0.270745576918284,0.,-0.962650940153899));
#550=DIRECTION('',(0.,-1.,0.));
#551=DIRECTION('',(-0.498793564567413,0.855292292212233,-0.140285690034585));
#552=DIRECTION('',(0.270745576918284,0.,-0.962650940153899));
#553=DIRECTION('',(-0.962650940153899,-2.59561242359898E-32,-0.270745576918284));
#554=DIRECTION('',(-0.498793564567412,-0.855292292212233,-0.140285690034585));
#555=DIRECTION('',(-0.498793564567412,0.855292292212233,-0.140285690034584));
#556=DIRECTION('',(0.,-1.,0.));
#557=DIRECTION('',(0.,-1.,0.));
#558=DIRECTION('',(0.498793564567412,-0.855292292212233,0.140285690034585));
#559=DIRECTION('',(0.270745576918284,0.,-0.962650940153899));
#560=DIRECTION('',(0.962650940153899,0.,0.270745576918284));
#561=DIRECTION('',(-0.498793564567412,-0.855292292212233,-0.140285690034585));
#562=DIRECTION('',(-1.11022302462516E-16,0.,1.));
#563=DIRECTION('',(-1.,0.,-5.55111512312578E-17));
#564=DIRECTION('',(-0.503775365357802,-0.863834695563111,-5.59303009859183E-17));
#565=DIRECTION('',(-1.11022302462516E-16,0.,1.));
#566=DIRECTION('',(1.,0.,1.11022302462516E-16));
#567=DIRECTION('',(-0.503775365357802,0.863834695563111,-5.59303009859183E-17));
#568=DIRECTION('',(-0.503775365357802,-0.863834695563111,-5.59303009859183E-17));
#569=DIRECTION('',(-1.11022302462516E-16,0.,1.));
#570=DIRECTION('',(1.,0.,1.11022302462516E-16));
#571=DIRECTION('',(0.503775365357802,-0.863834695563111,5.59303009859183E-17));
#572=DIRECTION('',(-1.11022302462516E-16,0.,1.));
#573=DIRECTION('',(1.,0.,1.11022302462516E-16));
#574=DIRECTION('',(0.503775365357802,-0.863834695563111,5.59303009859183E-17));
#575=DIRECTION('',(0.,1.,0.));
#576=DIRECTION('',(0.,-1.,0.));
#577=DIRECTION('',(-0.503775365357802,0.863834695563111,-5.59303009859182E-17));
#578=DIRECTION('',(-0.962650940153899,0.,-0.270745576918284));
#579=DIRECTION('',(0.270745576918284,0.,-0.962650940153899));
#580=DIRECTION('',(0.962650940153899,0.,0.270745576918284));
#581=DIRECTION('',(0.270745576918284,0.,-0.962650940153899));
#582=DIRECTION('',(-0.245571697718519,0.421087189499485,0.873143814110292));
#583=DIRECTION('',(-0.962650940153899,0.,-0.270745576918284));
#584=DIRECTION('',(0.270745576918284,0.,-0.962650940153899));
#585=DIRECTION('',(0.245571697718519,-0.421087189499485,-0.873143814110292));
#586=DIRECTION('',(-0.863834695563111,-0.503775365357802,-9.59049168484228E-17));
#587=DIRECTION('',(0.503775365357802,-0.863834695563111,0.));
#588=DIRECTION('',(1.11022302462516E-16,0.,-1.));
#589=DIRECTION('',(0.863834695563111,-0.503775365357802,9.59049168484228E-17));
#590=DIRECTION('',(0.503775365357802,0.863834695563111,0.));
#591=DIRECTION('',(0.863834695563111,-0.503775365357802,9.59049168484228E-17));
#592=DIRECTION('',(0.439868343963317,0.754251920844778,0.487462695886497));
#593=DIRECTION('',(1.11022302462516E-16,0.,-1.));
#594=DIRECTION('',(1.11022302462516E-16,0.,-1.));
#595=DIRECTION('',(-0.863834695563111,-0.503775365357802,-9.59049168484228E-17));
#596=DIRECTION('',(0.503775365357802,-0.863834695563111,0.));
#597=DIRECTION('',(-0.863834695563111,-0.503775365357802,-9.59049168484228E-17));
#598=DIRECTION('',(0.439868343963317,-0.754251920844778,0.487462695886497));
#599=DIRECTION('',(1.11022302462516E-16,-1.68105605080271E-32,-1.));
#600=DIRECTION('',(0.863834695563111,-0.503775365357802,9.59049168484228E-17));
#601=DIRECTION('',(0.503775365357802,0.863834695563111,0.));
#602=DIRECTION('',(0.863834695563111,-0.503775365357802,9.59049168484228E-17));
#603=DIRECTION('',(0.439868343963317,0.754251920844778,0.487462695886497));
#604=DIRECTION('',(1.11022302462516E-16,-6.20951079287815E-33,-1.));
#605=DIRECTION('',(0.863834695563111,0.503775365357802,9.59049168484228E-17));
#606=DIRECTION('',(-0.503775365357802,0.863834695563111,0.));
#607=DIRECTION('',(1.11022302462516E-16,0.,-1.));
#608=DIRECTION('',(0.863834695563111,0.503775365357802,9.59049168484228E-17));
#609=DIRECTION('',(0.439868343963317,-0.754251920844778,0.487462695886497));
#610=DIRECTION('',(0.962650940153899,0.,0.270745576918284));
#611=DIRECTION('',(0.270745576918284,0.,-0.962650940153899));
#612=DIRECTION('',(0.962650940153899,0.,0.270745576918284));
#613=DIRECTION('',(0.270745576918284,0.,-0.962650940153899));
#614=DIRECTION('',(1.11022302462516E-16,-7.0275058308357E-33,-1.));
#615=DIRECTION('',(-1.,0.,-1.11022302462516E-16));
#616=DIRECTION('',(-1.11022302462516E-16,0.,1.));
#617=DIRECTION('',(1.,0.,1.11022302462516E-16));
#618=DIRECTION('',(0.962650940153899,0.,0.270745576918284));
#619=DIRECTION('',(0.,1.,0.));
#620=DIRECTION('',(0.962650940153899,0.,0.270745576918284));
#621=DIRECTION('',(0.270745576918284,0.,-0.962650940153899));
#622=DIRECTION('',(0.962650940153899,0.,0.270745576918284));
#623=DIRECTION('',(0.270745576918284,0.,-0.962650940153899));
#624=CARTESIAN_POINT('',(0.,0.,0.));
#625=CARTESIAN_POINT('',(-0.18890037383748,-0.008025,-0.0494392182290369));
#626=CARTESIAN_POINT('',(0.00944790961824629,-0.008025,0.00634623649288608));
#627=CARTESIAN_POINT('',(0.00997687009773745,-0.00893202016451644,0.00693243121430408));
#628=CARTESIAN_POINT('',(0.0123402825053877,-0.008025,0.00715971636739458));
#629=CARTESIAN_POINT('',(0.0126110280823059,-0.008025,0.00619706542724068));
#630=CARTESIAN_POINT('',(-0.00113683065676663,0.0839351036403481,0.00336927829053869));
#631=CARTESIAN_POINT('',(0.00752702780461844,0.0863466463722282,0.00580598848280325));
#632=CARTESIAN_POINT('',(0.00945232968492624,0.0863466463722282,0.00634747963663982));
#633=CARTESIAN_POINT('',(0.00752702780461844,0.0863466463722282,0.00580598848280325));
#634=CARTESIAN_POINT('',(0.011858957035311,0.0863466463722282,0.00702434357893553));
#635=CARTESIAN_POINT('',(-0.00221981296443975,0.0513366432122209,0.0072198820511543));
#636=CARTESIAN_POINT('',(-0.00113683065676662,0.0513366432122209,0.00336927829053871));
#637=CARTESIAN_POINT('',(0.00271377310384898,0.0513366432122209,0.00445226059821185));
#638=CARTESIAN_POINT('',(-0.00221981296443975,0.0513366432122209,0.0072198820511543));
#639=CARTESIAN_POINT('',(0.00548139455679144,0.0513366432122209,0.00938584666650057));
#640=CARTESIAN_POINT('',(-0.00763418301165159,0.0815235609084681,-0.00677056472483734));
#641=CARTESIAN_POINT('',(-0.0108836714258248,0.0815235609084681,0.00478317185888974));
#642=CARTESIAN_POINT('',(-0.00895836954551702,0.0815235609084681,0.00532466301272631));
#643=CARTESIAN_POINT('',(-0.00980068911815169,0.0815235609084681,0.000932568098274147));
#644=CARTESIAN_POINT('',(-0.00787538723784389,0.0815235609084681,0.00147405925211071));
#645=CARTESIAN_POINT('',(0.00969353391111855,0.0863466463722282,-0.00189714434030823));
#646=CARTESIAN_POINT('',(0.00644404549694531,0.0863466463722282,0.00965659224341885));
#647=CARTESIAN_POINT('',(0.00836934737725311,0.0863466463722282,0.0101980833972554));
#648=CARTESIAN_POINT('',(0.0010296754497332,0.0948026170998293,-0.00433385453257286));
#649=CARTESIAN_POINT('',(0.0164320904921956,0.104040221406863,-1.92530188031226E-6));
#650=CARTESIAN_POINT('',(0.0164315490010418,0.104040221406863,-1.38777878078145E-17));
#651=CARTESIAN_POINT('',(0.0131826020780224,0.104040221406863,0.0115518112818468));
#652=CARTESIAN_POINT('',(0.000742016978799577,0.0953201869334025,-1.38777878078145E-17));
#653=CARTESIAN_POINT('',(-0.0168099912761476,0.0855650127927953,0.));
#654=CARTESIAN_POINT('',(-0.0143727395927292,0.0855650127927953,-0.00866578376326539));
#655=CARTESIAN_POINT('',(-0.0176222280069024,0.0855650127927953,0.00288795282046168));
#656=CARTESIAN_POINT('',(-0.00221981296444004,0.0948026170998293,0.00721988205115422));
#657=CARTESIAN_POINT('',(-0.00113683065676663,0.0839351036403481,0.00336927829053869));
#658=CARTESIAN_POINT('',(-0.0131164868009043,-0.189801894770595,-1.38777878078145E-17));
#659=CARTESIAN_POINT('',(-0.0131164868009043,0.078627735901819,-1.38777878078145E-17));
#660=CARTESIAN_POINT('',(-0.0131164868009043,0.0844193859151171,-1.38777878078145E-17));
#661=CARTESIAN_POINT('',(-0.00980068911815169,0.0815235609084681,0.000932568098274147));
#662=CARTESIAN_POINT('',(-0.0030320496951946,0.0815235609084681,-0.0231337054055734));
#663=CARTESIAN_POINT('',(-0.00953840434051209,0.0815235609084681,-1.38777878078145E-17));
#664=CARTESIAN_POINT('',(0.0142956672275755,0.0863466463722282,-0.0182602850210443));
#665=CARTESIAN_POINT('',(0.00915996206540686,0.0863466463722282,-1.38777878078145E-17));
#666=CARTESIAN_POINT('',(0.00448537046392711,0.0863466463722282,-1.41372797691486E-17));
#667=CARTESIAN_POINT('',(0.00102967544973348,0.0513366432122209,-0.00433385453257278));
#668=CARTESIAN_POINT('',(-0.000189221137552609,0.0513366432122209,-1.38777878078145E-17));
#669=CARTESIAN_POINT('',(-0.00434441367220128,0.0513366432122209,-1.41084473290003E-17));
#670=CARTESIAN_POINT('',(-0.00221981296443638,0.00204615984622857,0.00721988205115524));
#671=CARTESIAN_POINT('',(-0.00651336985194674,-0.000655843149427961,0.00601231917654296));
#672=CARTESIAN_POINT('',(-0.000178278457400503,-0.0115187636542557,0.00779406363125908));
#673=CARTESIAN_POINT('',(-0.00514629293327411,-0.003,0.00639680955991964));
#674=CARTESIAN_POINT('',(0.000685556238162606,-0.0110149882888978,0.0080370171393862));
#675=CARTESIAN_POINT('',(0.00154939093372572,-0.0115187636542557,0.00827997064751333));
#676=CARTESIAN_POINT('',(0.00632444378359994,-0.0033308755427772,0.00962295426154046));
#677=CARTESIAN_POINT('',(0.00651740540959933,-0.003,0.00967722471885279));
#678=CARTESIAN_POINT('',(0.00201891597164471,0.00471365874821894,0.00841202456442805));
#679=CARTESIAN_POINT('',(0.0131826020780224,-0.0144289592760181,0.0115518112818468));
#680=CARTESIAN_POINT('',(0.0131826020780224,0.00665261594097664,0.0115518112818468));
#681=CARTESIAN_POINT('',(-0.0176222280069024,-0.00258498836605689,0.00288795282046168));
#682=CARTESIAN_POINT('',(-0.0176222280069025,-0.00160723981900441,0.00288795282046165));
#683=CARTESIAN_POINT('',(-0.0150456556755382,-0.00602534504707486,0.00361261378865786));
#684=CARTESIAN_POINT('',(-0.0118419768002739,-0.0115187636542557,0.00451364847232593));
#685=CARTESIAN_POINT('',(-0.0109781421047108,-0.0110149882888978,0.00475660198045308));
#686=CARTESIAN_POINT('',(-0.0101143074091477,-0.0115187636542557,0.00499955548858018));
#687=CARTESIAN_POINT('',(-0.00220784203999151,0.0020386263548697,0.00722324887365537));
#688=CARTESIAN_POINT('',(-0.000189221137552897,-0.189801894770595,-1.38777878078145E-17));
#689=CARTESIAN_POINT('',(0.00360148082388097,-0.008,-1.34569353481069E-17));
#690=CARTESIAN_POINT('',(0.00651740540959933,-0.003,-1.31332026867934E-17));
#691=CARTESIAN_POINT('',(0.00154939093372572,-0.0115187636542557,-1.3684763092572E-17));
#692=CARTESIAN_POINT('',(0.000685556238162607,-0.0110149882888978,-5.55111512312578E-17));
#693=CARTESIAN_POINT('',(-0.000178278457400504,-0.0115187636542557,-1.38765729262688E-17));
#694=CARTESIAN_POINT('',(-0.00223036834755575,-0.008,-1.41044006707339E-17));
#695=CARTESIAN_POINT('',(-0.00514629293327411,-0.003,-1.44281333320474E-17));
#696=CARTESIAN_POINT('',(-0.00806221751899247,-0.008,-1.47518659933609E-17));
#697=CARTESIAN_POINT('',(-0.0101143074091477,-0.0115187636542557,-1.4979693737826E-17));
#698=CARTESIAN_POINT('',(-0.0109781421047108,-0.0110149882888978,0.));
#699=CARTESIAN_POINT('',(-0.0118419768002739,-0.0115187636542557,-1.51715035715228E-17));
#700=CARTESIAN_POINT('',(-0.0218099912761476,0.00557360993574566,-1.62781754896141E-17));
#701=CARTESIAN_POINT('',(-0.0132969990527626,-0.00902380500612208,-1.53330434921283E-17));
#702=CARTESIAN_POINT('',(-0.0131164868009042,-0.008025,-1.38777878078145E-17));
#703=CARTESIAN_POINT('',(-0.0144248561503501,-0.00708984364252657,-1.54582607839512E-17));
#704=CARTESIAN_POINT('',(-0.0218099912761476,0.00557360993574566,-1.62781754896141E-17));
#705=CARTESIAN_POINT('',(-0.0168099912761476,-0.003,-1.56677876305463E-17));
#706=CARTESIAN_POINT('',(-0.0168099912761476,-0.189801894770595,-1.38777878078145E-17));
#707=CARTESIAN_POINT('',(0.0164315490010418,0.00665261594097664,0.));
#708=CARTESIAN_POINT('',(0.0164315490010418,-0.02,-6.01625581916373E-18));
#709=CARTESIAN_POINT('',(0.0114744772053205,-0.0115,-1.25828571625604E-17));
#710=CARTESIAN_POINT('',(0.0164320904921956,0.00665261594097664,-1.92530188031226E-6));
#711=CARTESIAN_POINT('',(0.0142655843856955,-0.008025,0.00770120752123117));
#712=CARTESIAN_POINT('',(0.0150778211164504,-0.008025,0.00481325470076947));
#713=CARTESIAN_POINT('',(0.0136759248624013,-0.0152748707011544,0.00979777471516595));
#714=CARTESIAN_POINT('',(-0.0143727395927292,-0.00258498836605689,-0.00866578376326539));
#715=CARTESIAN_POINT('',(-0.0148478146120748,-0.00636458746855655,-0.00697662813892548));
#716=CARTESIAN_POINT('',(0.0114744772053205,-0.0115,0.211534903626713));
#717=CARTESIAN_POINT('',(0.00651740540959931,-0.003,0.211534903626713));
#718=CARTESIAN_POINT('',(-0.0080622175189925,-0.008,0.211534903626713));
#719=CARTESIAN_POINT('',(-0.00807679714192108,-0.008025,0.001417412716589));
#720=CARTESIAN_POINT('',(-0.00754783666242992,-0.00711797983548356,0.002003607438007));
#721=CARTESIAN_POINT('',(-0.0101143074091477,-0.0115187636542557,-2.76596706987805E-17));
#722=CARTESIAN_POINT('',(-0.00514629293327413,-0.003,0.211534903626713));
#723=CARTESIAN_POINT('',(-0.00223036834755578,-0.008,0.211534903626713));
#724=CARTESIAN_POINT('',(-0.00221578872462713,-0.008025,0.00306582133395292));
#725=CARTESIAN_POINT('',(-0.00168682824513598,-0.00893202016451644,0.00365201605537092));
#726=CARTESIAN_POINT('',(-0.000178278457400527,-0.0115187636542557,0.211534903626713));
#727=CARTESIAN_POINT('',(0.00360148082388095,-0.008,0.211534903626713));
#728=CARTESIAN_POINT('',(0.00358690120095239,-0.008025,0.00469782787552216));
#729=CARTESIAN_POINT('',(0.00411586168044355,-0.00711797983548356,0.00528402259694016));
#730=CARTESIAN_POINT('',(0.00154939093372569,-0.0115187636542557,0.211534903626713));
#731=CARTESIAN_POINT('',(-0.0218099912761476,0.00557360993574566,0.211534903626713));
#732=CARTESIAN_POINT('',(-0.0118419768002739,-0.0115187636542557,0.00475660198045305));
#733=CARTESIAN_POINT('',(-0.0138794870675006,-0.008025,-0.000214593824980229));
#734=CARTESIAN_POINT('',(-0.18890037383748,-0.008025,-0.0494392182290369));
#735=CARTESIAN_POINT('',(-0.18890037383748,-0.008025,-0.0494392182290369));
#736=CARTESIAN_POINT('',(0.000685556238162583,-0.0110149882888978,0.211534903626713));
#737=CARTESIAN_POINT('',(-0.0109781421047109,-0.0110149882888978,0.211534903626713));
#738=CARTESIAN_POINT('',(0.0128817736592243,0.0420201107034317,0.00523441448708681));
#739=CARTESIAN_POINT('',(0.0123402825053877,-0.008025,0.0071597163673946));
#740=CARTESIAN_POINT('',(0.0131525192361426,-0.008025,0.0042717635469329));
#741=CARTESIAN_POINT('',(0.0123402825053877,-0.008025,0.0071597163673946));
#742=MECHANICAL_DESIGN_GEOMETRIC_PRESENTATION_REPRESENTATION('',(#435),
#743);
#743=(
GEOMETRIC_REPRESENTATION_CONTEXT(3)
GLOBAL_UNCERTAINTY_ASSIGNED_CONTEXT((#744))
GLOBAL_UNIT_ASSIGNED_CONTEXT((#747,#746,#745))
REPRESENTATION_CONTEXT('left-side-armour','TOP_LEVEL_ASSEMBLY_PART')
);
#744=UNCERTAINTY_MEASURE_WITH_UNIT(LENGTH_MEASURE(1.E-8),#747,
'DISTANCE_ACCURACY_VALUE','Maximum Tolerance applied to model');
#745=(
NAMED_UNIT(*)
SI_UNIT($,.STERADIAN.)
SOLID_ANGLE_UNIT()
);
#746=(
NAMED_UNIT(*)
PLANE_ANGLE_UNIT()
SI_UNIT($,.RADIAN.)
);
#747=(
LENGTH_UNIT()
NAMED_UNIT(*)
SI_UNIT($,.METRE.)
);
#748=PRODUCT_DEFINITION_SHAPE('','',#749);
#749=PRODUCT_DEFINITION('','',#751,#750);
#750=PRODUCT_DEFINITION_CONTEXT('',#757,'design');
#751=PRODUCT_DEFINITION_FORMATION_WITH_SPECIFIED_SOURCE('','',#753,
 .NOT_KNOWN.);
#752=PRODUCT_RELATED_PRODUCT_CATEGORY('','',(#753));
#753=PRODUCT('left-side-armour','left-side-armour','left-side-armour',(#755));
#754=PRODUCT_CATEGORY('','');
#755=PRODUCT_CONTEXT('',#757,'mechanical');
#756=APPLICATION_PROTOCOL_DEFINITION('international standard',
'ap242_managed_model_based_3d_engineering',2020,#757);
#757=APPLICATION_CONTEXT('managed model based 3d engineering');
ENDSEC;
END-ISO-10303-21;
