ISO-10303-21;
HEADER;
/*Generated by software containing ST-Developer
 * from STEP Tools, Inc. (www.steptools.com) 
 */
/*OPTION: using custom renumber hook */
/*description */
/*implementation_level */
FILE_DESCRIPTION(('STEP AP242 Edition 2','STEP AP242 Edition 2''CAx-IF Rec.Pracs.---Representation and Presentation of Product Manufa
cturing Information (PMI)---4.0---2014-10-13','STEP AP242 Edition 2''CAx-IF Rec.Pracs.---Representation and Presentation of Product Manufa
cturing Information (PMI)---4.0---2014-10-13''CAx-IF Rec.Pracs.---3D Tessellated Geometry---0.4---2014-09-14','STEP AP242 Edition 2''CAx-IF Rec.Pracs.---Representation and Presentation of Product Manufa
cturing Information (PMI)---4.0---2014-10-13''CAx-IF Rec.Pracs.---3D Tessellated Geometry---0.4---2014-09-14''2;1','STEP AP242 Edition 2''CAx-IF Rec.Pracs.---Representation and Presentation of Product Manufa
cturing Information (PMI)---4.0---2014-10-13''CAx-IF Rec.Pracs.---3D Tessellated Geometry---0.4---2014-09-14''2;1''CAx-IF Rec.Pracs.---User Defined Attributes---1.5---2016-08-15'),'2;1');
/*name */
/*time_stamp */
/*author */
/*organization */
/*preprocessor_version */
/*originating_system */
/*authorisation */
FILE_NAME('/vol/tmp/translate-10660889724194324160/Main - left-side-armour.step','2026-02-26T03:51:01',(''),(''),'ST-DEVELOPER v20','ONSHAPE BY PTC INC, 1.211','  ');
FILE_SCHEMA(('AP242_MANAGED_MODEL_BASED_3D_ENGINEERING_MIM_LF { 1 0 10303 442 3 1 4 }'));
ENDSEC;
DATA;
#10=SHAPE_REPRESENTATION_RELATIONSHIP('','',#913,#11);
#11=ADVANCED_BREP_SHAPE_REPRESENTATION('',(#911),#1579);
#12=TOROIDAL_SURFACE('',#1001,0.00535,0.0016);
#13=TOROIDAL_SURFACE('',#1003,0.00535,0.0016);
#14=TOROIDAL_SURFACE('',#1009,0.00535,0.0016);
#15=TOROIDAL_SURFACE('',#1011,0.00535,0.0016);
#16=CONICAL_SURFACE('',#963,0.0185,0.785398163397448);
#17=CONICAL_SURFACE('',#990,0.008,0.785398163397448);
#18=CONICAL_SURFACE('',#991,0.008,0.785398163397448);
#19=ELLIPSE('',#927,0.00346410161513772,0.003);
#20=ELLIPSE('',#928,0.00346410161513774,0.003);
#21=ELLIPSE('',#938,0.00346410161513773,0.003);
#22=ELLIPSE('',#939,0.00346410161513774,0.003);
#23=ELLIPSE('',#953,0.00415519253464867,0.004);
#24=ELLIPSE('',#956,0.00415519253464867,0.004);
#25=ELLIPSE('',#959,0.0261629509039022,0.0185);
#26=ELLIPSE('',#964,0.0146643486270527,0.0135468238677373);
#27=ELLIPSE('',#966,0.00467459160147975,0.0045);
#28=ELLIPSE('',#967,0.00467459160147975,0.0045);
#29=B_SPLINE_CURVE_WITH_KNOTS('',3,(#1311,#1312,#1313,#1314,#1315,#1316,#1317,#1318,#1319),.UNSPECIFIED.,.F.,.F.,(4,1,1,1,1,1,4),(0.,0.00231765758893113,0.00463531517786226,0.0069529727667934,0.00927063035572453,0.0139059455335868,0.0185412607114491),.UNSPECIFIED.);
#30=B_SPLINE_CURVE_WITH_KNOTS('',3,(#1328,#1329,#1330,#1331,#1332,#1333,#1334,#1335,#1336),.UNSPECIFIED.,.F.,.F.,(4,1,1,1,1,1,4),(0.,0.00231765758893113,0.00463531517786225,0.00695297276679338,0.0092706303557245,0.0139059455335868,0.018541260711449),.UNSPECIFIED.);
#31=B_SPLINE_CURVE_WITH_KNOTS('',3,(#1367,#1368,#1369,#1370,#1371,#1372,#1373,#1374,#1375),.UNSPECIFIED.,.F.,.F.,(4,1,1,1,1,1,4),(1.55158384577955E-17,0.00231765758893112,0.00463531517786222,0.00695297276679332,0.00927063035572442,0.0139059455335866,0.0185412607114488),.UNSPECIFIED.);
#32=B_SPLINE_CURVE_WITH_KNOTS('',3,(#1384,#1385,#1386,#1387,#1388,#1389,#1390,#1391,#1392),.UNSPECIFIED.,.F.,.F.,(4,1,1,1,1,1,4),(0.,0.00231765758893109,0.00463531517786218,0.00695297276679327,0.00927063035572437,0.0139059455335865,0.0185412607114487),.UNSPECIFIED.);
#33=B_SPLINE_CURVE_WITH_KNOTS('',3,(#1442,#1443,#1444,#1445),.UNSPECIFIED.,.F.,.F.,(4,4),(7.71790771750538E-07,0.00239457465621945),.UNSPECIFIED.);
#34=CYLINDRICAL_SURFACE('',#918,0.00695);
#35=CYLINDRICAL_SURFACE('',#922,0.00695);
#36=CYLINDRICAL_SURFACE('',#929,0.0104174735871491);
#37=CYLINDRICAL_SURFACE('',#931,0.0104174735871491);
#38=CYLINDRICAL_SURFACE('',#933,0.0104174735871491);
#39=CYLINDRICAL_SURFACE('',#935,0.0104174735871491);
#40=CYLINDRICAL_SURFACE('',#940,0.002);
#41=CYLINDRICAL_SURFACE('',#943,0.002);
#42=CYLINDRICAL_SURFACE('',#951,0.004);
#43=CYLINDRICAL_SURFACE('',#954,0.004);
#44=CYLINDRICAL_SURFACE('',#957,0.0185);
#45=CYLINDRICAL_SURFACE('',#968,0.0045);
#46=CYLINDRICAL_SURFACE('',#971,0.0045);
#47=CYLINDRICAL_SURFACE('',#978,0.0013);
#48=CYLINDRICAL_SURFACE('',#980,0.00695);
#49=CYLINDRICAL_SURFACE('',#983,0.00695);
#50=CYLINDRICAL_SURFACE('',#987,0.003);
#51=CYLINDRICAL_SURFACE('',#989,0.003);
#52=CYLINDRICAL_SURFACE('',#998,0.0016);
#53=CYLINDRICAL_SURFACE('',#1005,0.0016);
#54=CYLINDRICAL_SURFACE('',#1006,0.0016);
#55=CYLINDRICAL_SURFACE('',#1013,0.0016);
#56=LINE('',#1288,#126);
#57=LINE('',#1291,#127);
#58=LINE('',#1293,#128);
#59=LINE('',#1295,#129);
#60=LINE('',#1297,#130);
#61=LINE('',#1301,#131);
#62=LINE('',#1303,#132);
#63=LINE('',#1307,#133);
#64=LINE('',#1321,#134);
#65=LINE('',#1323,#135);
#66=LINE('',#1325,#136);
#67=LINE('',#1340,#137);
#68=LINE('',#1343,#138);
#69=LINE('',#1345,#139);
#70=LINE('',#1347,#140);
#71=LINE('',#1349,#141);
#72=LINE('',#1354,#142);
#73=LINE('',#1358,#143);
#74=LINE('',#1359,#144);
#75=LINE('',#1361,#145);
#76=LINE('',#1363,#146);
#77=LINE('',#1365,#147);
#78=LINE('',#1378,#148);
#79=LINE('',#1382,#149);
#80=LINE('',#1395,#150);
#81=LINE('',#1399,#151);
#82=LINE('',#1401,#152);
#83=LINE('',#1405,#153);
#84=LINE('',#1412,#154);
#85=LINE('',#1414,#155);
#86=LINE('',#1416,#156);
#87=LINE('',#1418,#157);
#88=LINE('',#1420,#158);
#89=LINE('',#1421,#159);
#90=LINE('',#1425,#160);
#91=LINE('',#1437,#161);
#92=LINE('',#1440,#162);
#93=LINE('',#1447,#163);
#94=LINE('',#1448,#164);
#95=LINE('',#1449,#165);
#96=LINE('',#1450,#166);
#97=LINE('',#1451,#167);
#98=LINE('',#1455,#168);
#99=LINE('',#1458,#169);
#100=LINE('',#1459,#170);
#101=LINE('',#1463,#171);
#102=LINE('',#1465,#172);
#103=LINE('',#1467,#173);
#104=LINE('',#1468,#174);
#105=LINE('',#1469,#175);
#106=LINE('',#1470,#176);
#107=LINE('',#1488,#177);
#108=LINE('',#1490,#178);
#109=LINE('',#1492,#179);
#110=LINE('',#1494,#180);
#111=LINE('',#1496,#181);
#112=LINE('',#1503,#182);
#113=LINE('',#1514,#183);
#114=LINE('',#1520,#184);
#115=LINE('',#1524,#185);
#116=LINE('',#1528,#186);
#117=LINE('',#1530,#187);
#118=LINE('',#1534,#188);
#119=LINE('',#1536,#189);
#120=LINE('',#1538,#190);
#121=LINE('',#1540,#191);
#122=LINE('',#1548,#192);
#123=LINE('',#1552,#193);
#124=LINE('',#1557,#194);
#125=LINE('',#1561,#195);
#126=VECTOR('',#1020,1.);
#127=VECTOR('',#1021,1.);
#128=VECTOR('',#1022,1.);
#129=VECTOR('',#1023,1.);
#130=VECTOR('',#1024,1.);
#131=VECTOR('',#1027,1.);
#132=VECTOR('',#1028,1.);
#133=VECTOR('',#1033,1.);
#134=VECTOR('',#1038,1.);
#135=VECTOR('',#1039,1.);
#136=VECTOR('',#1040,1.);
#137=VECTOR('',#1049,1.);
#138=VECTOR('',#1050,1.);
#139=VECTOR('',#1051,1.);
#140=VECTOR('',#1052,1.);
#141=VECTOR('',#1055,1.);
#142=VECTOR('',#1058,1.);
#143=VECTOR('',#1061,1.);
#144=VECTOR('',#1062,1.);
#145=VECTOR('',#1063,1.);
#146=VECTOR('',#1064,1.);
#147=VECTOR('',#1065,1.);
#148=VECTOR('',#1068,1.);
#149=VECTOR('',#1071,1.);
#150=VECTOR('',#1074,1.);
#151=VECTOR('',#1077,1.);
#152=VECTOR('',#1080,1.);
#153=VECTOR('',#1085,1.);
#154=VECTOR('',#1092,1.);
#155=VECTOR('',#1093,1.);
#156=VECTOR('',#1094,1.);
#157=VECTOR('',#1095,1.);
#158=VECTOR('',#1096,1.);
#159=VECTOR('',#1097,1.);
#160=VECTOR('',#1100,1.);
#161=VECTOR('',#1115,1.);
#162=VECTOR('',#1116,1.);
#163=VECTOR('',#1117,1.);
#164=VECTOR('',#1118,1.);
#165=VECTOR('',#1119,1.);
#166=VECTOR('',#1120,1.);
#167=VECTOR('',#1121,1.);
#168=VECTOR('',#1126,1.);
#169=VECTOR('',#1127,1.);
#170=VECTOR('',#1128,1.);
#171=VECTOR('',#1133,1.);
#172=VECTOR('',#1134,1.);
#173=VECTOR('',#1135,1.);
#174=VECTOR('',#1136,1.);
#175=VECTOR('',#1137,1.);
#176=VECTOR('',#1138,1.);
#177=VECTOR('',#1161,1.);
#178=VECTOR('',#1162,1.);
#179=VECTOR('',#1163,1.);
#180=VECTOR('',#1166,1.);
#181=VECTOR('',#1167,1.);
#182=VECTOR('',#1176,1.);
#183=VECTOR('',#1193,1.);
#184=VECTOR('',#1200,1.);
#185=VECTOR('',#1207,1.);
#186=VECTOR('',#1212,1.);
#187=VECTOR('',#1213,1.);
#188=VECTOR('',#1220,1.);
#189=VECTOR('',#1223,1.);
#190=VECTOR('',#1226,1.);
#191=VECTOR('',#1229,1.);
#192=VECTOR('',#1240,1.);
#193=VECTOR('',#1243,1.);
#194=VECTOR('',#1248,1.);
#195=VECTOR('',#1251,1.);
#196=ORIENTED_EDGE('',*,*,#442,.T.);
#197=ORIENTED_EDGE('',*,*,#443,.T.);
#198=ORIENTED_EDGE('',*,*,#444,.T.);
#199=ORIENTED_EDGE('',*,*,#445,.F.);
#200=ORIENTED_EDGE('',*,*,#446,.F.);
#201=ORIENTED_EDGE('',*,*,#447,.T.);
#202=ORIENTED_EDGE('',*,*,#448,.F.);
#203=ORIENTED_EDGE('',*,*,#449,.F.);
#204=ORIENTED_EDGE('',*,*,#450,.F.);
#205=ORIENTED_EDGE('',*,*,#445,.T.);
#206=ORIENTED_EDGE('',*,*,#451,.T.);
#207=ORIENTED_EDGE('',*,*,#452,.F.);
#208=ORIENTED_EDGE('',*,*,#453,.F.);
#209=ORIENTED_EDGE('',*,*,#454,.F.);
#210=ORIENTED_EDGE('',*,*,#452,.T.);
#211=ORIENTED_EDGE('',*,*,#455,.T.);
#212=ORIENTED_EDGE('',*,*,#456,.F.);
#213=ORIENTED_EDGE('',*,*,#457,.T.);
#214=ORIENTED_EDGE('',*,*,#456,.T.);
#215=ORIENTED_EDGE('',*,*,#458,.T.);
#216=ORIENTED_EDGE('',*,*,#443,.F.);
#217=ORIENTED_EDGE('',*,*,#459,.F.);
#218=ORIENTED_EDGE('',*,*,#460,.F.);
#219=ORIENTED_EDGE('',*,*,#461,.F.);
#220=ORIENTED_EDGE('',*,*,#462,.T.);
#221=ORIENTED_EDGE('',*,*,#463,.T.);
#222=ORIENTED_EDGE('',*,*,#464,.F.);
#223=ORIENTED_EDGE('',*,*,#465,.F.);
#224=ORIENTED_EDGE('',*,*,#466,.T.);
#225=ORIENTED_EDGE('',*,*,#467,.F.);
#226=ORIENTED_EDGE('',*,*,#468,.T.);
#227=ORIENTED_EDGE('',*,*,#469,.F.);
#228=ORIENTED_EDGE('',*,*,#464,.T.);
#229=ORIENTED_EDGE('',*,*,#470,.T.);
#230=ORIENTED_EDGE('',*,*,#471,.F.);
#231=ORIENTED_EDGE('',*,*,#472,.F.);
#232=ORIENTED_EDGE('',*,*,#473,.T.);
#233=ORIENTED_EDGE('',*,*,#474,.F.);
#234=ORIENTED_EDGE('',*,*,#475,.F.);
#235=ORIENTED_EDGE('',*,*,#476,.F.);
#236=ORIENTED_EDGE('',*,*,#477,.T.);
#237=ORIENTED_EDGE('',*,*,#478,.F.);
#238=ORIENTED_EDGE('',*,*,#479,.T.);
#239=ORIENTED_EDGE('',*,*,#480,.T.);
#240=ORIENTED_EDGE('',*,*,#481,.F.);
#241=ORIENTED_EDGE('',*,*,#446,.T.);
#242=ORIENTED_EDGE('',*,*,#454,.T.);
#243=ORIENTED_EDGE('',*,*,#482,.F.);
#244=ORIENTED_EDGE('',*,*,#483,.T.);
#245=ORIENTED_EDGE('',*,*,#484,.F.);
#246=ORIENTED_EDGE('',*,*,#459,.T.);
#247=ORIENTED_EDGE('',*,*,#450,.T.);
#248=ORIENTED_EDGE('',*,*,#485,.F.);
#249=ORIENTED_EDGE('',*,*,#486,.F.);
#250=ORIENTED_EDGE('',*,*,#487,.T.);
#251=ORIENTED_EDGE('',*,*,#488,.F.);
#252=ORIENTED_EDGE('',*,*,#489,.T.);
#253=ORIENTED_EDGE('',*,*,#490,.T.);
#254=ORIENTED_EDGE('',*,*,#491,.F.);
#255=ORIENTED_EDGE('',*,*,#462,.F.);
#256=ORIENTED_EDGE('',*,*,#492,.T.);
#257=ORIENTED_EDGE('',*,*,#493,.F.);
#258=ORIENTED_EDGE('',*,*,#494,.T.);
#259=ORIENTED_EDGE('',*,*,#495,.F.);
#260=ORIENTED_EDGE('',*,*,#496,.T.);
#261=ORIENTED_EDGE('',*,*,#497,.F.);
#262=ORIENTED_EDGE('',*,*,#498,.T.);
#263=ORIENTED_EDGE('',*,*,#499,.F.);
#264=ORIENTED_EDGE('',*,*,#500,.F.);
#265=ORIENTED_EDGE('',*,*,#501,.F.);
#266=ORIENTED_EDGE('',*,*,#502,.T.);
#267=ORIENTED_EDGE('',*,*,#447,.F.);
#268=ORIENTED_EDGE('',*,*,#483,.F.);
#269=ORIENTED_EDGE('',*,*,#503,.F.);
#270=ORIENTED_EDGE('',*,*,#489,.F.);
#271=ORIENTED_EDGE('',*,*,#504,.T.);
#272=ORIENTED_EDGE('',*,*,#472,.T.);
#273=ORIENTED_EDGE('',*,*,#505,.T.);
#274=ORIENTED_EDGE('',*,*,#476,.T.);
#275=ORIENTED_EDGE('',*,*,#506,.F.);
#276=ORIENTED_EDGE('',*,*,#507,.F.);
#277=ORIENTED_EDGE('',*,*,#508,.F.);
#278=ORIENTED_EDGE('',*,*,#509,.T.);
#279=ORIENTED_EDGE('',*,*,#499,.T.);
#280=ORIENTED_EDGE('',*,*,#510,.T.);
#281=ORIENTED_EDGE('',*,*,#511,.T.);
#282=ORIENTED_EDGE('',*,*,#512,.F.);
#283=ORIENTED_EDGE('',*,*,#513,.T.);
#284=ORIENTED_EDGE('',*,*,#514,.F.);
#285=ORIENTED_EDGE('',*,*,#508,.T.);
#286=ORIENTED_EDGE('',*,*,#515,.T.);
#287=ORIENTED_EDGE('',*,*,#480,.F.);
#288=ORIENTED_EDGE('',*,*,#516,.F.);
#289=ORIENTED_EDGE('',*,*,#470,.F.);
#290=ORIENTED_EDGE('',*,*,#463,.F.);
#291=ORIENTED_EDGE('',*,*,#491,.T.);
#292=ORIENTED_EDGE('',*,*,#517,.T.);
#293=ORIENTED_EDGE('',*,*,#485,.T.);
#294=ORIENTED_EDGE('',*,*,#449,.T.);
#295=ORIENTED_EDGE('',*,*,#518,.T.);
#296=ORIENTED_EDGE('',*,*,#519,.F.);
#297=ORIENTED_EDGE('',*,*,#520,.T.);
#298=ORIENTED_EDGE('',*,*,#521,.F.);
#299=ORIENTED_EDGE('',*,*,#448,.T.);
#300=ORIENTED_EDGE('',*,*,#502,.F.);
#301=ORIENTED_EDGE('',*,*,#522,.F.);
#302=ORIENTED_EDGE('',*,*,#523,.T.);
#303=ORIENTED_EDGE('',*,*,#512,.T.);
#304=ORIENTED_EDGE('',*,*,#524,.T.);
#305=ORIENTED_EDGE('',*,*,#525,.F.);
#306=ORIENTED_EDGE('',*,*,#526,.T.);
#307=ORIENTED_EDGE('',*,*,#527,.T.);
#308=ORIENTED_EDGE('',*,*,#481,.T.);
#309=ORIENTED_EDGE('',*,*,#515,.F.);
#310=ORIENTED_EDGE('',*,*,#510,.F.);
#311=ORIENTED_EDGE('',*,*,#506,.T.);
#312=ORIENTED_EDGE('',*,*,#475,.T.);
#313=ORIENTED_EDGE('',*,*,#495,.T.);
#314=ORIENTED_EDGE('',*,*,#497,.T.);
#315=ORIENTED_EDGE('',*,*,#528,.T.);
#316=ORIENTED_EDGE('',*,*,#529,.T.);
#317=ORIENTED_EDGE('',*,*,#513,.F.);
#318=ORIENTED_EDGE('',*,*,#523,.F.);
#319=ORIENTED_EDGE('',*,*,#501,.T.);
#320=ORIENTED_EDGE('',*,*,#530,.T.);
#321=ORIENTED_EDGE('',*,*,#528,.F.);
#322=ORIENTED_EDGE('',*,*,#522,.T.);
#323=ORIENTED_EDGE('',*,*,#531,.F.);
#324=ORIENTED_EDGE('',*,*,#532,.F.);
#325=ORIENTED_EDGE('',*,*,#533,.F.);
#326=ORIENTED_EDGE('',*,*,#519,.T.);
#327=ORIENTED_EDGE('',*,*,#521,.T.);
#328=ORIENTED_EDGE('',*,*,#514,.T.);
#329=ORIENTED_EDGE('',*,*,#529,.F.);
#330=ORIENTED_EDGE('',*,*,#530,.F.);
#331=ORIENTED_EDGE('',*,*,#500,.T.);
#332=ORIENTED_EDGE('',*,*,#509,.F.);
#333=ORIENTED_EDGE('',*,*,#534,.F.);
#334=ORIENTED_EDGE('',*,*,#533,.T.);
#335=ORIENTED_EDGE('',*,*,#498,.F.);
#336=ORIENTED_EDGE('',*,*,#534,.T.);
#337=ORIENTED_EDGE('',*,*,#531,.T.);
#338=ORIENTED_EDGE('',*,*,#535,.F.);
#339=ORIENTED_EDGE('',*,*,#496,.F.);
#340=ORIENTED_EDGE('',*,*,#532,.T.);
#341=ORIENTED_EDGE('',*,*,#535,.T.);
#342=ORIENTED_EDGE('',*,*,#488,.T.);
#343=ORIENTED_EDGE('',*,*,#536,.T.);
#344=ORIENTED_EDGE('',*,*,#473,.F.);
#345=ORIENTED_EDGE('',*,*,#504,.F.);
#346=ORIENTED_EDGE('',*,*,#537,.F.);
#347=ORIENTED_EDGE('',*,*,#477,.F.);
#348=ORIENTED_EDGE('',*,*,#505,.F.);
#349=ORIENTED_EDGE('',*,*,#471,.T.);
#350=ORIENTED_EDGE('',*,*,#516,.T.);
#351=ORIENTED_EDGE('',*,*,#479,.F.);
#352=ORIENTED_EDGE('',*,*,#538,.F.);
#353=ORIENTED_EDGE('',*,*,#539,.T.);
#354=ORIENTED_EDGE('',*,*,#511,.F.);
#355=ORIENTED_EDGE('',*,*,#507,.T.);
#356=ORIENTED_EDGE('',*,*,#482,.T.);
#357=ORIENTED_EDGE('',*,*,#453,.T.);
#358=ORIENTED_EDGE('',*,*,#457,.F.);
#359=ORIENTED_EDGE('',*,*,#460,.T.);
#360=ORIENTED_EDGE('',*,*,#484,.T.);
#361=ORIENTED_EDGE('',*,*,#517,.F.);
#362=ORIENTED_EDGE('',*,*,#490,.F.);
#363=ORIENTED_EDGE('',*,*,#503,.T.);
#364=ORIENTED_EDGE('',*,*,#540,.F.);
#365=ORIENTED_EDGE('',*,*,#541,.T.);
#366=ORIENTED_EDGE('',*,*,#525,.T.);
#367=ORIENTED_EDGE('',*,*,#474,.T.);
#368=ORIENTED_EDGE('',*,*,#537,.T.);
#369=ORIENTED_EDGE('',*,*,#542,.F.);
#370=ORIENTED_EDGE('',*,*,#543,.T.);
#371=ORIENTED_EDGE('',*,*,#540,.T.);
#372=ORIENTED_EDGE('',*,*,#539,.F.);
#373=ORIENTED_EDGE('',*,*,#527,.F.);
#374=ORIENTED_EDGE('',*,*,#544,.T.);
#375=ORIENTED_EDGE('',*,*,#542,.T.);
#376=ORIENTED_EDGE('',*,*,#538,.T.);
#377=ORIENTED_EDGE('',*,*,#478,.T.);
#378=ORIENTED_EDGE('',*,*,#465,.T.);
#379=ORIENTED_EDGE('',*,*,#536,.F.);
#380=ORIENTED_EDGE('',*,*,#487,.F.);
#381=ORIENTED_EDGE('',*,*,#545,.T.);
#382=ORIENTED_EDGE('',*,*,#469,.T.);
#383=ORIENTED_EDGE('',*,*,#546,.F.);
#384=ORIENTED_EDGE('',*,*,#492,.F.);
#385=ORIENTED_EDGE('',*,*,#461,.T.);
#386=ORIENTED_EDGE('',*,*,#547,.F.);
#387=ORIENTED_EDGE('',*,*,#493,.T.);
#388=ORIENTED_EDGE('',*,*,#546,.T.);
#389=ORIENTED_EDGE('',*,*,#468,.F.);
#390=ORIENTED_EDGE('',*,*,#467,.T.);
#391=ORIENTED_EDGE('',*,*,#548,.F.);
#392=ORIENTED_EDGE('',*,*,#494,.F.);
#393=ORIENTED_EDGE('',*,*,#547,.T.);
#394=ORIENTED_EDGE('',*,*,#545,.F.);
#395=ORIENTED_EDGE('',*,*,#486,.T.);
#396=ORIENTED_EDGE('',*,*,#548,.T.);
#397=ORIENTED_EDGE('',*,*,#466,.F.);
#398=ORIENTED_EDGE('',*,*,#520,.F.);
#399=ORIENTED_EDGE('',*,*,#442,.F.);
#400=ORIENTED_EDGE('',*,*,#518,.F.);
#401=ORIENTED_EDGE('',*,*,#524,.F.);
#402=ORIENTED_EDGE('',*,*,#549,.T.);
#403=ORIENTED_EDGE('',*,*,#550,.T.);
#404=ORIENTED_EDGE('',*,*,#551,.T.);
#405=ORIENTED_EDGE('',*,*,#552,.T.);
#406=ORIENTED_EDGE('',*,*,#553,.T.);
#407=ORIENTED_EDGE('',*,*,#554,.T.);
#408=ORIENTED_EDGE('',*,*,#555,.T.);
#409=ORIENTED_EDGE('',*,*,#556,.T.);
#410=ORIENTED_EDGE('',*,*,#557,.F.);
#411=ORIENTED_EDGE('',*,*,#444,.F.);
#412=ORIENTED_EDGE('',*,*,#558,.F.);
#413=ORIENTED_EDGE('',*,*,#556,.F.);
#414=ORIENTED_EDGE('',*,*,#558,.T.);
#415=ORIENTED_EDGE('',*,*,#458,.F.);
#416=ORIENTED_EDGE('',*,*,#559,.F.);
#417=ORIENTED_EDGE('',*,*,#553,.F.);
#418=ORIENTED_EDGE('',*,*,#557,.T.);
#419=ORIENTED_EDGE('',*,*,#555,.F.);
#420=ORIENTED_EDGE('',*,*,#560,.F.);
#421=ORIENTED_EDGE('',*,*,#451,.F.);
#422=ORIENTED_EDGE('',*,*,#559,.T.);
#423=ORIENTED_EDGE('',*,*,#455,.F.);
#424=ORIENTED_EDGE('',*,*,#560,.T.);
#425=ORIENTED_EDGE('',*,*,#554,.F.);
#426=ORIENTED_EDGE('',*,*,#561,.F.);
#427=ORIENTED_EDGE('',*,*,#552,.F.);
#428=ORIENTED_EDGE('',*,*,#562,.F.);
#429=ORIENTED_EDGE('',*,*,#526,.F.);
#430=ORIENTED_EDGE('',*,*,#562,.T.);
#431=ORIENTED_EDGE('',*,*,#551,.F.);
#432=ORIENTED_EDGE('',*,*,#563,.F.);
#433=ORIENTED_EDGE('',*,*,#544,.F.);
#434=ORIENTED_EDGE('',*,*,#561,.T.);
#435=ORIENTED_EDGE('',*,*,#541,.F.);
#436=ORIENTED_EDGE('',*,*,#564,.F.);
#437=ORIENTED_EDGE('',*,*,#549,.F.);
#438=ORIENTED_EDGE('',*,*,#563,.T.);
#439=ORIENTED_EDGE('',*,*,#550,.F.);
#440=ORIENTED_EDGE('',*,*,#564,.T.);
#441=ORIENTED_EDGE('',*,*,#543,.F.);
#442=EDGE_CURVE('',#565,#565,#649,.T.);
#443=EDGE_CURVE('',#566,#567,#56,.T.);
#444=EDGE_CURVE('',#567,#568,#57,.F.);
#445=EDGE_CURVE('',#569,#568,#58,.T.);
#446=EDGE_CURVE('',#570,#569,#59,.T.);
#447=EDGE_CURVE('',#570,#571,#60,.T.);
#448=EDGE_CURVE('',#572,#571,#650,.T.);
#449=EDGE_CURVE('',#573,#572,#61,.T.);
#450=EDGE_CURVE('',#566,#573,#62,.T.);
#451=EDGE_CURVE('',#568,#574,#651,.T.);
#452=EDGE_CURVE('',#575,#574,#63,.T.);
#453=EDGE_CURVE('',#576,#575,#652,.F.);
#454=EDGE_CURVE('',#569,#576,#29,.F.);
#455=EDGE_CURVE('',#574,#577,#64,.F.);
#456=EDGE_CURVE('',#578,#577,#65,.T.);
#457=EDGE_CURVE('',#578,#575,#66,.T.);
#458=EDGE_CURVE('',#577,#567,#653,.T.);
#459=EDGE_CURVE('',#579,#566,#30,.T.);
#460=EDGE_CURVE('',#578,#579,#654,.F.);
#461=EDGE_CURVE('',#580,#581,#67,.T.);
#462=EDGE_CURVE('',#580,#582,#68,.T.);
#463=EDGE_CURVE('',#582,#583,#69,.T.);
#464=EDGE_CURVE('',#581,#583,#70,.T.);
#465=EDGE_CURVE('',#584,#585,#71,.T.);
#466=EDGE_CURVE('',#584,#586,#19,.T.);
#467=EDGE_CURVE('',#587,#586,#72,.T.);
#468=EDGE_CURVE('',#587,#588,#20,.T.);
#469=EDGE_CURVE('',#581,#588,#73,.T.);
#470=EDGE_CURVE('',#583,#589,#74,.T.);
#471=EDGE_CURVE('',#590,#589,#75,.T.);
#472=EDGE_CURVE('',#591,#590,#76,.T.);
#473=EDGE_CURVE('',#591,#585,#77,.T.);
#474=EDGE_CURVE('',#592,#593,#31,.F.);
#475=EDGE_CURVE('',#594,#592,#78,.T.);
#476=EDGE_CURVE('',#595,#594,#655,.F.);
#477=EDGE_CURVE('',#595,#593,#79,.T.);
#478=EDGE_CURVE('',#596,#597,#32,.T.);
#479=EDGE_CURVE('',#596,#598,#80,.T.);
#480=EDGE_CURVE('',#598,#599,#656,.T.);
#481=EDGE_CURVE('',#597,#599,#81,.T.);
#482=EDGE_CURVE('',#600,#576,#82,.T.);
#483=EDGE_CURVE('',#600,#570,#657,.T.);
#484=EDGE_CURVE('',#579,#601,#83,.T.);
#485=EDGE_CURVE('',#601,#573,#658,.T.);
#486=EDGE_CURVE('',#602,#603,#21,.T.);
#487=EDGE_CURVE('',#602,#604,#84,.T.);
#488=EDGE_CURVE('',#605,#604,#85,.T.);
#489=EDGE_CURVE('',#605,#606,#86,.T.);
#490=EDGE_CURVE('',#606,#607,#87,.T.);
#491=EDGE_CURVE('',#582,#607,#88,.T.);
#492=EDGE_CURVE('',#580,#608,#89,.T.);
#493=EDGE_CURVE('',#609,#608,#22,.T.);
#494=EDGE_CURVE('',#609,#603,#90,.T.);
#495=EDGE_CURVE('',#610,#610,#659,.T.);
#496=EDGE_CURVE('',#611,#611,#660,.T.);
#497=EDGE_CURVE('',#612,#612,#661,.T.);
#498=EDGE_CURVE('',#613,#613,#662,.T.);
#499=EDGE_CURVE('',#614,#615,#91,.T.);
#500=EDGE_CURVE('',#616,#614,#92,.T.);
#501=EDGE_CURVE('',#617,#616,#33,.T.);
#502=EDGE_CURVE('',#617,#571,#93,.T.);
#503=EDGE_CURVE('',#606,#600,#94,.T.);
#504=EDGE_CURVE('',#605,#591,#95,.T.);
#505=EDGE_CURVE('',#590,#595,#96,.T.);
#506=EDGE_CURVE('',#615,#594,#97,.T.);
#507=EDGE_CURVE('',#618,#618,#663,.T.);
#508=EDGE_CURVE('',#619,#620,#98,.T.);
#509=EDGE_CURVE('',#619,#614,#99,.T.);
#510=EDGE_CURVE('',#615,#620,#100,.T.);
#511=EDGE_CURVE('',#621,#621,#664,.T.);
#512=EDGE_CURVE('',#622,#572,#101,.T.);
#513=EDGE_CURVE('',#622,#623,#102,.T.);
#514=EDGE_CURVE('',#619,#623,#103,.T.);
#515=EDGE_CURVE('',#620,#599,#104,.T.);
#516=EDGE_CURVE('',#589,#598,#105,.T.);
#517=EDGE_CURVE('',#607,#601,#106,.T.);
#518=EDGE_CURVE('',#624,#624,#665,.F.);
#519=EDGE_CURVE('',#625,#625,#23,.T.);
#520=EDGE_CURVE('',#626,#626,#666,.F.);
#521=EDGE_CURVE('',#627,#627,#24,.T.);
#522=EDGE_CURVE('',#628,#617,#667,.T.);
#523=EDGE_CURVE('',#628,#622,#25,.T.);
#524=EDGE_CURVE('',#629,#629,#668,.T.);
#525=EDGE_CURVE('',#630,#592,#107,.T.);
#526=EDGE_CURVE('',#630,#631,#108,.T.);
#527=EDGE_CURVE('',#631,#597,#109,.T.);
#528=EDGE_CURVE('',#628,#632,#110,.T.);
#529=EDGE_CURVE('',#632,#623,#111,.T.);
#530=EDGE_CURVE('',#616,#632,#26,.T.);
#531=EDGE_CURVE('',#633,#634,#27,.F.);
#532=EDGE_CURVE('',#634,#633,#112,.T.);
#533=EDGE_CURVE('',#635,#635,#28,.F.);
#534=EDGE_CURVE('',#636,#636,#669,.T.);
#535=EDGE_CURVE('',#633,#634,#670,.T.);
#536=EDGE_CURVE('',#604,#585,#113,.T.);
#537=EDGE_CURVE('',#593,#637,#671,.F.);
#538=EDGE_CURVE('',#638,#596,#672,.F.);
#539=EDGE_CURVE('',#638,#637,#114,.T.);
#540=EDGE_CURVE('',#639,#637,#115,.T.);
#541=EDGE_CURVE('',#639,#630,#673,.F.);
#542=EDGE_CURVE('',#640,#638,#116,.T.);
#543=EDGE_CURVE('',#640,#639,#117,.T.);
#544=EDGE_CURVE('',#631,#640,#674,.F.);
#545=EDGE_CURVE('',#602,#584,#118,.T.);
#546=EDGE_CURVE('',#608,#588,#119,.T.);
#547=EDGE_CURVE('',#609,#587,#120,.T.);
#548=EDGE_CURVE('',#603,#586,#121,.T.);
#549=EDGE_CURVE('',#641,#642,#675,.T.);
#550=EDGE_CURVE('',#642,#643,#122,.F.);
#551=EDGE_CURVE('',#643,#644,#676,.T.);
#552=EDGE_CURVE('',#644,#641,#123,.F.);
#553=EDGE_CURVE('',#645,#646,#677,.F.);
#554=EDGE_CURVE('',#646,#647,#124,.T.);
#555=EDGE_CURVE('',#647,#648,#678,.F.);
#556=EDGE_CURVE('',#648,#645,#125,.T.);
#557=EDGE_CURVE('',#568,#648,#679,.T.);
#558=EDGE_CURVE('',#645,#567,#680,.T.);
#559=EDGE_CURVE('',#646,#577,#681,.T.);
#560=EDGE_CURVE('',#574,#647,#682,.T.);
#561=EDGE_CURVE('',#641,#630,#683,.T.);
#562=EDGE_CURVE('',#631,#644,#684,.T.);
#563=EDGE_CURVE('',#640,#643,#685,.T.);
#564=EDGE_CURVE('',#642,#639,#686,.T.);
#565=VERTEX_POINT('',#1287);
#566=VERTEX_POINT('',#1289);
#567=VERTEX_POINT('',#1290);
#568=VERTEX_POINT('',#1292);
#569=VERTEX_POINT('',#1294);
#570=VERTEX_POINT('',#1296);
#571=VERTEX_POINT('',#1298);
#572=VERTEX_POINT('',#1300);
#573=VERTEX_POINT('',#1302);
#574=VERTEX_POINT('',#1306);
#575=VERTEX_POINT('',#1308);
#576=VERTEX_POINT('',#1310);
#577=VERTEX_POINT('',#1322);
#578=VERTEX_POINT('',#1324);
#579=VERTEX_POINT('',#1337);
#580=VERTEX_POINT('',#1341);
#581=VERTEX_POINT('',#1342);
#582=VERTEX_POINT('',#1344);
#583=VERTEX_POINT('',#1346);
#584=VERTEX_POINT('',#1350);
#585=VERTEX_POINT('',#1351);
#586=VERTEX_POINT('',#1353);
#587=VERTEX_POINT('',#1355);
#588=VERTEX_POINT('',#1357);
#589=VERTEX_POINT('',#1360);
#590=VERTEX_POINT('',#1362);
#591=VERTEX_POINT('',#1364);
#592=VERTEX_POINT('',#1376);
#593=VERTEX_POINT('',#1377);
#594=VERTEX_POINT('',#1379);
#595=VERTEX_POINT('',#1381);
#596=VERTEX_POINT('',#1393);
#597=VERTEX_POINT('',#1394);
#598=VERTEX_POINT('',#1396);
#599=VERTEX_POINT('',#1398);
#600=VERTEX_POINT('',#1402);
#601=VERTEX_POINT('',#1406);
#602=VERTEX_POINT('',#1410);
#603=VERTEX_POINT('',#1411);
#604=VERTEX_POINT('',#1413);
#605=VERTEX_POINT('',#1415);
#606=VERTEX_POINT('',#1417);
#607=VERTEX_POINT('',#1419);
#608=VERTEX_POINT('',#1422);
#609=VERTEX_POINT('',#1424);
#610=VERTEX_POINT('',#1428);
#611=VERTEX_POINT('',#1430);
#612=VERTEX_POINT('',#1433);
#613=VERTEX_POINT('',#1435);
#614=VERTEX_POINT('',#1438);
#615=VERTEX_POINT('',#1439);
#616=VERTEX_POINT('',#1441);
#617=VERTEX_POINT('',#1446);
#618=VERTEX_POINT('',#1453);
#619=VERTEX_POINT('',#1456);
#620=VERTEX_POINT('',#1457);
#621=VERTEX_POINT('',#1462);
#622=VERTEX_POINT('',#1464);
#623=VERTEX_POINT('',#1466);
#624=VERTEX_POINT('',#1473);
#625=VERTEX_POINT('',#1475);
#626=VERTEX_POINT('',#1478);
#627=VERTEX_POINT('',#1480);
#628=VERTEX_POINT('',#1483);
#629=VERTEX_POINT('',#1487);
#630=VERTEX_POINT('',#1489);
#631=VERTEX_POINT('',#1491);
#632=VERTEX_POINT('',#1495);
#633=VERTEX_POINT('',#1501);
#634=VERTEX_POINT('',#1502);
#635=VERTEX_POINT('',#1505);
#636=VERTEX_POINT('',#1508);
#637=VERTEX_POINT('',#1517);
#638=VERTEX_POINT('',#1519);
#639=VERTEX_POINT('',#1525);
#640=VERTEX_POINT('',#1529);
#641=VERTEX_POINT('',#1546);
#642=VERTEX_POINT('',#1547);
#643=VERTEX_POINT('',#1549);
#644=VERTEX_POINT('',#1551);
#645=VERTEX_POINT('',#1555);
#646=VERTEX_POINT('',#1556);
#647=VERTEX_POINT('',#1558);
#648=VERTEX_POINT('',#1560);
#649=CIRCLE('',#916,0.008);
#650=CIRCLE('',#917,0.0185);
#651=CIRCLE('',#919,0.00695);
#652=CIRCLE('',#920,0.00695);
#653=CIRCLE('',#923,0.00695);
#654=CIRCLE('',#924,0.00695);
#655=CIRCLE('',#930,0.0104174735871491);
#656=CIRCLE('',#932,0.0104174735871491);
#657=CIRCLE('',#934,0.0104174735871491);
#658=CIRCLE('',#936,0.0104174735871491);
#659=CIRCLE('',#941,0.002);
#660=CIRCLE('',#942,0.002);
#661=CIRCLE('',#944,0.002);
#662=CIRCLE('',#945,0.002);
#663=CIRCLE('',#947,0.0013);
#664=CIRCLE('',#950,0.0013);
#665=CIRCLE('',#952,0.004);
#666=CIRCLE('',#955,0.004);
#667=CIRCLE('',#958,0.0185);
#668=CIRCLE('',#961,0.008);
#669=CIRCLE('',#969,0.0045);
#670=CIRCLE('',#972,0.0045);
#671=CIRCLE('',#976,0.00695);
#672=CIRCLE('',#977,0.00695);
#673=CIRCLE('',#981,0.00695);
#674=CIRCLE('',#984,0.00695);
#675=CIRCLE('',#993,0.00535);
#676=CIRCLE('',#994,0.00535);
#677=CIRCLE('',#996,0.00535);
#678=CIRCLE('',#997,0.00535);
#679=CIRCLE('',#999,0.0016);
#680=CIRCLE('',#1000,0.0016);
#681=CIRCLE('',#1002,0.0016);
#682=CIRCLE('',#1004,0.0016);
#683=CIRCLE('',#1007,0.0016);
#684=CIRCLE('',#1008,0.0016);
#685=CIRCLE('',#1010,0.0016);
#686=CIRCLE('',#1012,0.0016);
#687=EDGE_LOOP('',(#196));
#688=EDGE_LOOP('',(#197,#198,#199,#200,#201,#202,#203,#204));
#689=EDGE_LOOP('',(#205,#206,#207,#208,#209));
#690=EDGE_LOOP('',(#210,#211,#212,#213));
#691=EDGE_LOOP('',(#214,#215,#216,#217,#218));
#692=EDGE_LOOP('',(#219,#220,#221,#222));
#693=EDGE_LOOP('',(#223,#224,#225,#226,#227,#228,#229,#230,#231,#232));
#694=EDGE_LOOP('',(#233,#234,#235,#236));
#695=EDGE_LOOP('',(#237,#238,#239,#240));
#696=EDGE_LOOP('',(#241,#242,#243,#244));
#697=EDGE_LOOP('',(#245,#246,#247,#248));
#698=EDGE_LOOP('',(#249,#250,#251,#252,#253,#254,#255,#256,#257,#258));
#699=EDGE_LOOP('',(#259));
#700=EDGE_LOOP('',(#260));
#701=EDGE_LOOP('',(#261));
#702=EDGE_LOOP('',(#262));
#703=EDGE_LOOP('',(#263,#264,#265,#266,#267,#268,#269,#270,#271,#272,#273,#274,#275));
#704=EDGE_LOOP('',(#276));
#705=EDGE_LOOP('',(#277,#278,#279,#280));
#706=EDGE_LOOP('',(#281));
#707=EDGE_LOOP('',(#282,#283,#284,#285,#286,#287,#288,#289,#290,#291,#292,#293,#294));
#708=EDGE_LOOP('',(#295));
#709=EDGE_LOOP('',(#296));
#710=EDGE_LOOP('',(#297));
#711=EDGE_LOOP('',(#298));
#712=EDGE_LOOP('',(#299,#300,#301,#302,#303));
#713=EDGE_LOOP('',(#304));
#714=EDGE_LOOP('',(#305,#306,#307,#308,#309,#310,#311,#312));
#715=EDGE_LOOP('',(#313));
#716=EDGE_LOOP('',(#314));
#717=EDGE_LOOP('',(#315,#316,#317,#318));
#718=EDGE_LOOP('',(#319,#320,#321,#322));
#719=EDGE_LOOP('',(#323,#324));
#720=EDGE_LOOP('',(#325));
#721=EDGE_LOOP('',(#326));
#722=EDGE_LOOP('',(#327));
#723=EDGE_LOOP('',(#328,#329,#330,#331,#332));
#724=EDGE_LOOP('',(#333));
#725=EDGE_LOOP('',(#334));
#726=EDGE_LOOP('',(#335));
#727=EDGE_LOOP('',(#336));
#728=EDGE_LOOP('',(#337,#338));
#729=EDGE_LOOP('',(#339));
#730=EDGE_LOOP('',(#340,#341));
#731=EDGE_LOOP('',(#342,#343,#344,#345));
#732=EDGE_LOOP('',(#346,#347,#348,#349,#350,#351,#352,#353));
#733=EDGE_LOOP('',(#354));
#734=EDGE_LOOP('',(#355));
#735=EDGE_LOOP('',(#356,#357,#358,#359,#360,#361,#362,#363));
#736=EDGE_LOOP('',(#364,#365,#366,#367,#368));
#737=EDGE_LOOP('',(#369,#370,#371,#372));
#738=EDGE_LOOP('',(#373,#374,#375,#376,#377));
#739=EDGE_LOOP('',(#378,#379,#380,#381));
#740=EDGE_LOOP('',(#382,#383,#384,#385));
#741=EDGE_LOOP('',(#386,#387,#388,#389));
#742=EDGE_LOOP('',(#390,#391,#392,#393));
#743=EDGE_LOOP('',(#394,#395,#396,#397));
#744=EDGE_LOOP('',(#398));
#745=EDGE_LOOP('',(#399));
#746=EDGE_LOOP('',(#400));
#747=EDGE_LOOP('',(#401));
#748=EDGE_LOOP('',(#402,#403,#404,#405));
#749=EDGE_LOOP('',(#406,#407,#408,#409));
#750=EDGE_LOOP('',(#410,#411,#412,#413));
#751=EDGE_LOOP('',(#414,#415,#416,#417));
#752=EDGE_LOOP('',(#418,#419,#420,#421));
#753=EDGE_LOOP('',(#422,#423,#424,#425));
#754=EDGE_LOOP('',(#426,#427,#428,#429));
#755=EDGE_LOOP('',(#430,#431,#432,#433));
#756=EDGE_LOOP('',(#434,#435,#436,#437));
#757=EDGE_LOOP('',(#438,#439,#440,#441));
#758=FACE_BOUND('',#687,.T.);
#759=FACE_BOUND('',#688,.T.);
#760=FACE_BOUND('',#689,.T.);
#761=FACE_BOUND('',#690,.T.);
#762=FACE_BOUND('',#691,.T.);
#763=FACE_BOUND('',#692,.T.);
#764=FACE_BOUND('',#693,.T.);
#765=FACE_BOUND('',#694,.T.);
#766=FACE_BOUND('',#695,.T.);
#767=FACE_BOUND('',#696,.T.);
#768=FACE_BOUND('',#697,.T.);
#769=FACE_BOUND('',#698,.T.);
#770=FACE_BOUND('',#699,.T.);
#771=FACE_BOUND('',#700,.T.);
#772=FACE_BOUND('',#701,.T.);
#773=FACE_BOUND('',#702,.T.);
#774=FACE_BOUND('',#703,.T.);
#775=FACE_BOUND('',#704,.T.);
#776=FACE_BOUND('',#705,.T.);
#777=FACE_BOUND('',#706,.T.);
#778=FACE_BOUND('',#707,.T.);
#779=FACE_BOUND('',#708,.T.);
#780=FACE_BOUND('',#709,.T.);
#781=FACE_BOUND('',#710,.T.);
#782=FACE_BOUND('',#711,.T.);
#783=FACE_BOUND('',#712,.T.);
#784=FACE_BOUND('',#713,.T.);
#785=FACE_BOUND('',#714,.T.);
#786=FACE_BOUND('',#715,.T.);
#787=FACE_BOUND('',#716,.T.);
#788=FACE_BOUND('',#717,.T.);
#789=FACE_BOUND('',#718,.T.);
#790=FACE_BOUND('',#719,.T.);
#791=FACE_BOUND('',#720,.T.);
#792=FACE_BOUND('',#721,.T.);
#793=FACE_BOUND('',#722,.T.);
#794=FACE_BOUND('',#723,.T.);
#795=FACE_BOUND('',#724,.T.);
#796=FACE_BOUND('',#725,.T.);
#797=FACE_BOUND('',#726,.T.);
#798=FACE_BOUND('',#727,.T.);
#799=FACE_BOUND('',#728,.T.);
#800=FACE_BOUND('',#729,.T.);
#801=FACE_BOUND('',#730,.T.);
#802=FACE_BOUND('',#731,.T.);
#803=FACE_BOUND('',#732,.T.);
#804=FACE_BOUND('',#733,.T.);
#805=FACE_BOUND('',#734,.T.);
#806=FACE_BOUND('',#735,.T.);
#807=FACE_BOUND('',#736,.T.);
#808=FACE_BOUND('',#737,.T.);
#809=FACE_BOUND('',#738,.T.);
#810=FACE_BOUND('',#739,.T.);
#811=FACE_BOUND('',#740,.T.);
#812=FACE_BOUND('',#741,.T.);
#813=FACE_BOUND('',#742,.T.);
#814=FACE_BOUND('',#743,.T.);
#815=FACE_BOUND('',#744,.T.);
#816=FACE_BOUND('',#745,.T.);
#817=FACE_BOUND('',#746,.T.);
#818=FACE_BOUND('',#747,.T.);
#819=FACE_BOUND('',#748,.T.);
#820=FACE_BOUND('',#749,.T.);
#821=FACE_BOUND('',#750,.T.);
#822=FACE_BOUND('',#751,.T.);
#823=FACE_BOUND('',#752,.T.);
#824=FACE_BOUND('',#753,.T.);
#825=FACE_BOUND('',#754,.T.);
#826=FACE_BOUND('',#755,.T.);
#827=FACE_BOUND('',#756,.T.);
#828=FACE_BOUND('',#757,.T.);
#829=PLANE('',#915);
#830=PLANE('',#921);
#831=PLANE('',#925);
#832=PLANE('',#926);
#833=PLANE('',#937);
#834=PLANE('',#946);
#835=PLANE('',#948);
#836=PLANE('',#949);
#837=PLANE('',#960);
#838=PLANE('',#962);
#839=PLANE('',#965);
#840=PLANE('',#970);
#841=PLANE('',#973);
#842=PLANE('',#974);
#843=PLANE('',#975);
#844=PLANE('',#979);
#845=PLANE('',#982);
#846=PLANE('',#985);
#847=PLANE('',#986);
#848=PLANE('',#988);
#849=PLANE('',#992);
#850=PLANE('',#995);
#851=ADVANCED_FACE('',(#758,#759),#829,.F.);
#852=ADVANCED_FACE('',(#760),#34,.F.);
#853=ADVANCED_FACE('',(#761),#830,.F.);
#854=ADVANCED_FACE('',(#762),#35,.F.);
#855=ADVANCED_FACE('',(#763),#831,.F.);
#856=ADVANCED_FACE('',(#764),#832,.F.);
#857=ADVANCED_FACE('',(#765),#36,.F.);
#858=ADVANCED_FACE('',(#766),#37,.F.);
#859=ADVANCED_FACE('',(#767),#38,.F.);
#860=ADVANCED_FACE('',(#768),#39,.F.);
#861=ADVANCED_FACE('',(#769),#833,.T.);
#862=ADVANCED_FACE('',(#770,#771),#40,.F.);
#863=ADVANCED_FACE('',(#772,#773),#41,.F.);
#864=ADVANCED_FACE('',(#774,#775),#834,.T.);
#865=ADVANCED_FACE('',(#776),#835,.F.);
#866=ADVANCED_FACE('',(#777,#778),#836,.F.);
#867=ADVANCED_FACE('',(#779,#780),#42,.F.);
#868=ADVANCED_FACE('',(#781,#782),#43,.F.);
#869=ADVANCED_FACE('',(#783),#44,.T.);
#870=ADVANCED_FACE('',(#784,#785,#786,#787),#837,.F.);
#871=ADVANCED_FACE('',(#788),#838,.F.);
#872=ADVANCED_FACE('',(#789),#16,.T.);
#873=ADVANCED_FACE('',(#790,#791,#792,#793,#794),#839,.F.);
#874=ADVANCED_FACE('',(#795,#796),#45,.F.);
#875=ADVANCED_FACE('',(#797,#798),#840,.T.);
#876=ADVANCED_FACE('',(#799),#46,.F.);
#877=ADVANCED_FACE('',(#800,#801),#841,.T.);
#878=ADVANCED_FACE('',(#802),#842,.F.);
#879=ADVANCED_FACE('',(#803),#843,.F.);
#880=ADVANCED_FACE('',(#804,#805),#47,.F.);
#881=ADVANCED_FACE('',(#806),#844,.T.);
#882=ADVANCED_FACE('',(#807),#48,.F.);
#883=ADVANCED_FACE('',(#808),#845,.F.);
#884=ADVANCED_FACE('',(#809),#49,.F.);
#885=ADVANCED_FACE('',(#810),#846,.T.);
#886=ADVANCED_FACE('',(#811),#847,.T.);
#887=ADVANCED_FACE('',(#812),#50,.F.);
#888=ADVANCED_FACE('',(#813),#848,.T.);
#889=ADVANCED_FACE('',(#814),#51,.F.);
#890=ADVANCED_FACE('',(#815,#816),#17,.F.);
#891=ADVANCED_FACE('',(#817,#818),#18,.F.);
#892=ADVANCED_FACE('',(#819),#849,.T.);
#893=ADVANCED_FACE('',(#820),#850,.F.);
#894=ADVANCED_FACE('',(#821),#52,.F.);
#895=ADVANCED_FACE('',(#822),#12,.F.);
#896=ADVANCED_FACE('',(#823),#13,.F.);
#897=ADVANCED_FACE('',(#824),#53,.F.);
#898=ADVANCED_FACE('',(#825),#54,.F.);
#899=ADVANCED_FACE('',(#826),#14,.F.);
#900=ADVANCED_FACE('',(#827),#15,.F.);
#901=ADVANCED_FACE('',(#828),#55,.F.);
#902=CLOSED_SHELL('',(#851,#852,#853,#854,#855,#856,#857,#858,#859,#860,#861,#862,#863,#864,#865,#866,#867,#868,#869,#870,#871,#872,#873,#874,#875,#876,#877,#878,#879,#880,#881,#882,#883,#884,#885,#886,#887,#888,#889,#890,#891,#892,#893,#894,#895,#896,#897,#898,#899,#900,#901));
#903=STYLED_ITEM('',(#904),#911);
#904=PRESENTATION_STYLE_ASSIGNMENT((#905));
#905=SURFACE_STYLE_USAGE(.BOTH.,#906);
#906=SURFACE_SIDE_STYLE('',(#907));
#907=SURFACE_STYLE_FILL_AREA(#908);
#908=FILL_AREA_STYLE('',(#909));
#909=FILL_AREA_STYLE_COLOUR('',#910);
#910=COLOUR_RGB('',0.96078431372549,0.835294117647059,0.470588235294118);
#911=MANIFOLD_SOLID_BREP('left-side-armour',#902);
#912=SHAPE_DEFINITION_REPRESENTATION(#1584,#913);
#913=SHAPE_REPRESENTATION('left-side-armour',(#914),#1579);
#914=AXIS2_PLACEMENT_3D('',#1284,#1014,#1015);
#915=AXIS2_PLACEMENT_3D('',#1285,#1016,#1017);
#916=AXIS2_PLACEMENT_3D('',#1286,#1018,#1019);
#917=AXIS2_PLACEMENT_3D('',#1299,#1025,#1026);
#918=AXIS2_PLACEMENT_3D('',#1304,#1029,#1030);
#919=AXIS2_PLACEMENT_3D('',#1305,#1031,#1032);
#920=AXIS2_PLACEMENT_3D('',#1309,#1034,#1035);
#921=AXIS2_PLACEMENT_3D('',#1320,#1036,#1037);
#922=AXIS2_PLACEMENT_3D('',#1326,#1041,#1042);
#923=AXIS2_PLACEMENT_3D('',#1327,#1043,#1044);
#924=AXIS2_PLACEMENT_3D('',#1338,#1045,#1046);
#925=AXIS2_PLACEMENT_3D('',#1339,#1047,#1048);
#926=AXIS2_PLACEMENT_3D('',#1348,#1053,#1054);
#927=AXIS2_PLACEMENT_3D('',#1352,#1056,#1057);
#928=AXIS2_PLACEMENT_3D('',#1356,#1059,#1060);
#929=AXIS2_PLACEMENT_3D('',#1366,#1066,#1067);
#930=AXIS2_PLACEMENT_3D('',#1380,#1069,#1070);
#931=AXIS2_PLACEMENT_3D('',#1383,#1072,#1073);
#932=AXIS2_PLACEMENT_3D('',#1397,#1075,#1076);
#933=AXIS2_PLACEMENT_3D('',#1400,#1078,#1079);
#934=AXIS2_PLACEMENT_3D('',#1403,#1081,#1082);
#935=AXIS2_PLACEMENT_3D('',#1404,#1083,#1084);
#936=AXIS2_PLACEMENT_3D('',#1407,#1086,#1087);
#937=AXIS2_PLACEMENT_3D('',#1408,#1088,#1089);
#938=AXIS2_PLACEMENT_3D('',#1409,#1090,#1091);
#939=AXIS2_PLACEMENT_3D('',#1423,#1098,#1099);
#940=AXIS2_PLACEMENT_3D('',#1426,#1101,#1102);
#941=AXIS2_PLACEMENT_3D('',#1427,#1103,#1104);
#942=AXIS2_PLACEMENT_3D('',#1429,#1105,#1106);
#943=AXIS2_PLACEMENT_3D('',#1431,#1107,#1108);
#944=AXIS2_PLACEMENT_3D('',#1432,#1109,#1110);
#945=AXIS2_PLACEMENT_3D('',#1434,#1111,#1112);
#946=AXIS2_PLACEMENT_3D('',#1436,#1113,#1114);
#947=AXIS2_PLACEMENT_3D('',#1452,#1122,#1123);
#948=AXIS2_PLACEMENT_3D('',#1454,#1124,#1125);
#949=AXIS2_PLACEMENT_3D('',#1460,#1129,#1130);
#950=AXIS2_PLACEMENT_3D('',#1461,#1131,#1132);
#951=AXIS2_PLACEMENT_3D('',#1471,#1139,#1140);
#952=AXIS2_PLACEMENT_3D('',#1472,#1141,#1142);
#953=AXIS2_PLACEMENT_3D('',#1474,#1143,#1144);
#954=AXIS2_PLACEMENT_3D('',#1476,#1145,#1146);
#955=AXIS2_PLACEMENT_3D('',#1477,#1147,#1148);
#956=AXIS2_PLACEMENT_3D('',#1479,#1149,#1150);
#957=AXIS2_PLACEMENT_3D('',#1481,#1151,#1152);
#958=AXIS2_PLACEMENT_3D('',#1482,#1153,#1154);
#959=AXIS2_PLACEMENT_3D('',#1484,#1155,#1156);
#960=AXIS2_PLACEMENT_3D('',#1485,#1157,#1158);
#961=AXIS2_PLACEMENT_3D('',#1486,#1159,#1160);
#962=AXIS2_PLACEMENT_3D('',#1493,#1164,#1165);
#963=AXIS2_PLACEMENT_3D('',#1497,#1168,#1169);
#964=AXIS2_PLACEMENT_3D('',#1498,#1170,#1171);
#965=AXIS2_PLACEMENT_3D('',#1499,#1172,#1173);
#966=AXIS2_PLACEMENT_3D('',#1500,#1174,#1175);
#967=AXIS2_PLACEMENT_3D('',#1504,#1177,#1178);
#968=AXIS2_PLACEMENT_3D('',#1506,#1179,#1180);
#969=AXIS2_PLACEMENT_3D('',#1507,#1181,#1182);
#970=AXIS2_PLACEMENT_3D('',#1509,#1183,#1184);
#971=AXIS2_PLACEMENT_3D('',#1510,#1185,#1186);
#972=AXIS2_PLACEMENT_3D('',#1511,#1187,#1188);
#973=AXIS2_PLACEMENT_3D('',#1512,#1189,#1190);
#974=AXIS2_PLACEMENT_3D('',#1513,#1191,#1192);
#975=AXIS2_PLACEMENT_3D('',#1515,#1194,#1195);
#976=AXIS2_PLACEMENT_3D('',#1516,#1196,#1197);
#977=AXIS2_PLACEMENT_3D('',#1518,#1198,#1199);
#978=AXIS2_PLACEMENT_3D('',#1521,#1201,#1202);
#979=AXIS2_PLACEMENT_3D('',#1522,#1203,#1204);
#980=AXIS2_PLACEMENT_3D('',#1523,#1205,#1206);
#981=AXIS2_PLACEMENT_3D('',#1526,#1208,#1209);
#982=AXIS2_PLACEMENT_3D('',#1527,#1210,#1211);
#983=AXIS2_PLACEMENT_3D('',#1531,#1214,#1215);
#984=AXIS2_PLACEMENT_3D('',#1532,#1216,#1217);
#985=AXIS2_PLACEMENT_3D('',#1533,#1218,#1219);
#986=AXIS2_PLACEMENT_3D('',#1535,#1221,#1222);
#987=AXIS2_PLACEMENT_3D('',#1537,#1224,#1225);
#988=AXIS2_PLACEMENT_3D('',#1539,#1227,#1228);
#989=AXIS2_PLACEMENT_3D('',#1541,#1230,#1231);
#990=AXIS2_PLACEMENT_3D('',#1542,#1232,#1233);
#991=AXIS2_PLACEMENT_3D('',#1543,#1234,#1235);
#992=AXIS2_PLACEMENT_3D('',#1544,#1236,#1237);
#993=AXIS2_PLACEMENT_3D('',#1545,#1238,#1239);
#994=AXIS2_PLACEMENT_3D('',#1550,#1241,#1242);
#995=AXIS2_PLACEMENT_3D('',#1553,#1244,#1245);
#996=AXIS2_PLACEMENT_3D('',#1554,#1246,#1247);
#997=AXIS2_PLACEMENT_3D('',#1559,#1249,#1250);
#998=AXIS2_PLACEMENT_3D('',#1562,#1252,#1253);
#999=AXIS2_PLACEMENT_3D('',#1563,#1254,#1255);
#1000=AXIS2_PLACEMENT_3D('',#1564,#1256,#1257);
#1001=AXIS2_PLACEMENT_3D('',#1565,#1258,#1259);
#1002=AXIS2_PLACEMENT_3D('',#1566,#1260,#1261);
#1003=AXIS2_PLACEMENT_3D('',#1567,#1262,#1263);
#1004=AXIS2_PLACEMENT_3D('',#1568,#1264,#1265);
#1005=AXIS2_PLACEMENT_3D('',#1569,#1266,#1267);
#1006=AXIS2_PLACEMENT_3D('',#1570,#1268,#1269);
#1007=AXIS2_PLACEMENT_3D('',#1571,#1270,#1271);
#1008=AXIS2_PLACEMENT_3D('',#1572,#1272,#1273);
#1009=AXIS2_PLACEMENT_3D('',#1573,#1274,#1275);
#1010=AXIS2_PLACEMENT_3D('',#1574,#1276,#1277);
#1011=AXIS2_PLACEMENT_3D('',#1575,#1278,#1279);
#1012=AXIS2_PLACEMENT_3D('',#1576,#1280,#1281);
#1013=AXIS2_PLACEMENT_3D('',#1577,#1282,#1283);
#1014=DIRECTION('',(0.,0.,1.));
#1015=DIRECTION('',(1.,0.,0.));
#1016=DIRECTION('',(1.,0.,0.));
#1017=DIRECTION('',(0.,1.,0.));
#1018=DIRECTION('',(1.,0.,0.));
#1019=DIRECTION('',(0.,0.,-1.));
#1020=DIRECTION('',(0.,-1.,0.));
#1021=DIRECTION('',(0.,0.,-1.));
#1022=DIRECTION('',(0.,-1.,0.));
#1023=DIRECTION('',(-1.44560289664734E-15,4.7191872699637E-16,-1.));
#1024=DIRECTION('',(0.,1.,0.));
#1025=DIRECTION('',(1.,0.,0.));
#1026=DIRECTION('',(0.,0.,-1.));
#1027=DIRECTION('',(0.,1.,0.));
#1028=DIRECTION('',(-1.44560289664734E-15,4.7191872699637E-16,-1.));
#1029=DIRECTION('',(0.,-1.,0.));
#1030=DIRECTION('',(0.,0.,-1.));
#1031=DIRECTION('',(0.,-1.,0.));
#1032=DIRECTION('',(0.,0.,-1.));
#1033=DIRECTION('',(0.,-1.,0.));
#1034=DIRECTION('',(6.44087818912519E-31,1.,4.7191872699637E-16));
#1035=DIRECTION('',(0.,-4.7191872699637E-16,1.));
#1036=DIRECTION('',(-1.,0.,0.));
#1037=DIRECTION('',(0.,0.,1.));
#1038=DIRECTION('',(0.,0.,1.));
#1039=DIRECTION('',(0.,-1.,0.));
#1040=DIRECTION('',(0.,-4.7191872699637E-16,1.));
#1041=DIRECTION('',(0.,-1.,0.));
#1042=DIRECTION('',(0.,0.,-1.));
#1043=DIRECTION('',(0.,-1.,0.));
#1044=DIRECTION('',(0.,0.,-1.));
#1045=DIRECTION('',(6.44087818912519E-31,1.,4.7191872699637E-16));
#1046=DIRECTION('',(0.,-4.7191872699637E-16,1.));
#1047=DIRECTION('',(1.,6.20500095888573E-31,-1.44560289664734E-15));
#1048=DIRECTION('',(-1.44560289664734E-15,0.,-1.));
#1049=DIRECTION('',(0.,-1.,0.));
#1050=DIRECTION('',(-1.44560289664734E-15,4.7191872699637E-16,-1.));
#1051=DIRECTION('',(-6.1706982839505E-32,-1.,-4.7191872699637E-16));
#1052=DIRECTION('',(-1.44560289664734E-15,4.7191872699637E-16,-1.));
#1053=DIRECTION('',(0.5,0.866025403784439,-3.14107842223201E-16));
#1054=DIRECTION('',(-0.866025403784439,0.5,0.));
#1055=DIRECTION('',(-0.774596669241483,0.447213595499958,0.447213595499959));
#1056=DIRECTION('',(0.5,0.866025403784439,-3.14107842223201E-16));
#1057=DIRECTION('',(0.866025403784439,-0.5,-5.44050741786413E-16));
#1058=DIRECTION('',(0.,3.62700494524274E-16,1.));
#1059=DIRECTION('',(0.5,0.866025403784439,-3.14107842223201E-16));
#1060=DIRECTION('',(0.866025403784439,-0.5,-5.44050741786413E-16));
#1061=DIRECTION('',(0.774596669241484,-0.447213595499957,0.447213595499959));
#1062=DIRECTION('',(0.866025403784439,-0.5,-1.48788819577915E-15));
#1063=DIRECTION('',(-1.44560289664734E-15,4.7191872699637E-16,-1.));
#1064=DIRECTION('',(0.866025403784439,-0.5,-1.48788819577915E-15));
#1065=DIRECTION('',(-1.44560289664734E-15,4.7191872699637E-16,-1.));
#1066=DIRECTION('',(-1.44560289664734E-15,4.7191872699637E-16,-1.));
#1067=DIRECTION('',(-1.,0.,1.44560289664734E-15));
#1068=DIRECTION('',(-1.44560289664734E-15,4.7191872699637E-16,-1.));
#1069=DIRECTION('',(1.44560289664734E-15,-4.7191872699637E-16,1.));
#1070=DIRECTION('',(1.,0.,-1.44560289664734E-15));
#1071=DIRECTION('',(-1.44560289664734E-15,4.7191872699637E-16,-1.));
#1072=DIRECTION('',(-1.44560289664734E-15,4.7191872699637E-16,-1.));
#1073=DIRECTION('',(-1.,0.,1.44560289664734E-15));
#1074=DIRECTION('',(-1.44560289664734E-15,4.7191872699637E-16,-1.));
#1075=DIRECTION('',(-1.44560289664734E-15,4.7191872699637E-16,-1.));
#1076=DIRECTION('',(1.,0.,-1.44560289664734E-15));
#1077=DIRECTION('',(-1.44560289664734E-15,4.7191872699637E-16,-1.));
#1078=DIRECTION('',(-1.44560289664734E-15,4.7191872699637E-16,-1.));
#1079=DIRECTION('',(-1.,0.,1.44560289664734E-15));
#1080=DIRECTION('',(-1.44560289664734E-15,4.7191872699637E-16,-1.));
#1081=DIRECTION('',(1.44560289664734E-15,-4.7191872699637E-16,1.));
#1082=DIRECTION('',(1.,0.,-1.44560289664734E-15));
#1083=DIRECTION('',(-1.44560289664734E-15,4.7191872699637E-16,-1.));
#1084=DIRECTION('',(-1.,0.,1.44560289664734E-15));
#1085=DIRECTION('',(-1.44560289664734E-15,4.7191872699637E-16,-1.));
#1086=DIRECTION('',(1.44560289664734E-15,-4.7191872699637E-16,1.));
#1087=DIRECTION('',(1.,0.,-1.44560289664734E-15));
#1088=DIRECTION('',(-0.5,0.866025403784439,1.13149505442414E-15));
#1089=DIRECTION('',(-0.866025403784439,-0.5,0.));
#1090=DIRECTION('',(-0.5,0.866025403784439,1.13149505442414E-15));
#1091=DIRECTION('',(-0.866025403784439,-0.5,1.95980692277553E-15));
#1092=DIRECTION('',(-0.774596669241483,-0.447213595499959,0.447213595499958));
#1093=DIRECTION('',(-1.44560289664734E-15,4.7191872699637E-16,-1.));
#1094=DIRECTION('',(0.866025403784439,0.5,-1.01596946878278E-15));
#1095=DIRECTION('',(-1.44560289664734E-15,4.7191872699637E-16,-1.));
#1096=DIRECTION('',(0.866025403784439,0.5,-1.01596946878278E-15));
#1097=DIRECTION('',(0.774596669241483,0.447213595499958,0.447213595499958));
#1098=DIRECTION('',(-0.5,0.866025403784439,1.13149505442414E-15));
#1099=DIRECTION('',(-0.866025403784439,-0.5,1.95980692277553E-15));
#1100=DIRECTION('',(0.,-1.30653794851701E-15,1.));
#1101=DIRECTION('',(-1.,0.,0.));
#1102=DIRECTION('',(0.,0.,1.));
#1103=DIRECTION('',(1.,0.,0.));
#1104=DIRECTION('',(0.,0.,-1.));
#1105=DIRECTION('',(1.,0.,0.));
#1106=DIRECTION('',(0.,0.,-1.));
#1107=DIRECTION('',(-1.,0.,0.));
#1108=DIRECTION('',(0.,0.,1.));
#1109=DIRECTION('',(1.,0.,0.));
#1110=DIRECTION('',(0.,0.,-1.));
#1111=DIRECTION('',(1.,0.,0.));
#1112=DIRECTION('',(0.,0.,-1.));
#1113=DIRECTION('',(0.,0.,1.));
#1114=DIRECTION('',(1.,0.,0.));
#1115=DIRECTION('',(-1.,0.,0.));
#1116=DIRECTION('',(0.,-1.,0.));
#1117=DIRECTION('',(-1.,0.,0.));
#1118=DIRECTION('',(1.,3.81192598155587E-32,-1.44560289664734E-15));
#1119=DIRECTION('',(-6.1706982839505E-32,-1.,-4.7191872699637E-16));
#1120=DIRECTION('',(1.,3.81192598155587E-32,-1.44560289664734E-15));
#1121=DIRECTION('',(0.,1.,0.));
#1122=DIRECTION('',(1.44560289664734E-15,-4.7191872699637E-16,1.));
#1123=DIRECTION('',(1.,0.,-1.44560289664734E-15));
#1124=DIRECTION('',(0.,0.866025403784438,-0.5));
#1125=DIRECTION('',(0.,0.5,0.866025403784439));
#1126=DIRECTION('',(-1.,0.,0.));
#1127=DIRECTION('',(-0.236650982431081,0.485797363237597,0.84142571531051));
#1128=DIRECTION('',(0.,-0.5,-0.866025403784439));
#1129=DIRECTION('',(0.,0.,1.));
#1130=DIRECTION('',(1.,0.,0.));
#1131=DIRECTION('',(1.44560289664734E-15,-4.7191872699637E-16,1.));
#1132=DIRECTION('',(1.,0.,-1.44560289664734E-15));
#1133=DIRECTION('',(-1.,0.,0.));
#1134=DIRECTION('',(0.694746590606866,-0.719254596676404,0.));
#1135=DIRECTION('',(0.,1.,0.));
#1136=DIRECTION('',(0.,1.,0.));
#1137=DIRECTION('',(1.,3.81192598155588E-32,-1.44560289664734E-15));
#1138=DIRECTION('',(1.,3.81192598155588E-32,-1.44560289664734E-15));
#1139=DIRECTION('',(-1.,0.,0.));
#1140=DIRECTION('',(0.,0.,1.));
#1141=DIRECTION('',(1.,0.,0.));
#1142=DIRECTION('',(0.,0.,-1.));
#1143=DIRECTION('',(-0.962650940153899,0.,-0.270745576918284));
#1144=DIRECTION('',(-0.270745576918284,0.,0.962650940153899));
#1145=DIRECTION('',(-1.,0.,0.));
#1146=DIRECTION('',(0.,0.,1.));
#1147=DIRECTION('',(1.,0.,0.));
#1148=DIRECTION('',(0.,0.,-1.));
#1149=DIRECTION('',(-0.962650940153899,0.,-0.270745576918284));
#1150=DIRECTION('',(-0.270745576918284,0.,0.962650940153899));
#1151=DIRECTION('',(-1.,0.,0.));
#1152=DIRECTION('',(0.,0.,1.));
#1153=DIRECTION('',(1.,0.,0.));
#1154=DIRECTION('',(0.,0.965925826289069,-0.25881904510252));
#1155=DIRECTION('',(-0.707106781186548,-0.683012701892219,0.183012701892219));
#1156=DIRECTION('',(-0.707106781186547,0.683012701892219,-0.183012701892219));
#1157=DIRECTION('',(1.,0.,0.));
#1158=DIRECTION('',(0.,1.,0.));
#1159=DIRECTION('',(1.,0.,0.));
#1160=DIRECTION('',(0.,0.,-1.));
#1161=DIRECTION('',(0.,-1.,0.));
#1162=DIRECTION('',(0.,0.,-1.));
#1163=DIRECTION('',(0.,-1.,0.));
#1164=DIRECTION('',(-0.707106781186548,-0.683012701892219,0.183012701892219));
#1165=DIRECTION('',(0.694746590606866,-0.719254596676404,0.));
#1166=DIRECTION('',(0.707106781186548,-0.68301270189222,0.183012701892219));
#1167=DIRECTION('',(0.238405899562025,-0.473947214004772,-0.847665420664979));
#1168=DIRECTION('',(-1.,0.,0.));
#1169=DIRECTION('',(0.,0.,1.));
#1170=DIRECTION('',(-0.962650940153899,0.,-0.270745576918284));
#1171=DIRECTION('',(-0.270745576918284,0.,0.962650940153899));
#1172=DIRECTION('',(-0.962650940153899,0.,-0.270745576918284));
#1173=DIRECTION('',(-0.270745576918284,0.,0.962650940153899));
#1174=DIRECTION('',(-0.962650940153899,0.,-0.270745576918284));
#1175=DIRECTION('',(-0.270745576918284,0.,0.962650940153899));
#1176=DIRECTION('',(0.,-1.,0.));
#1177=DIRECTION('',(-0.962650940153899,0.,-0.270745576918284));
#1178=DIRECTION('',(-0.270745576918284,0.,0.962650940153899));
#1179=DIRECTION('',(-1.,0.,0.));
#1180=DIRECTION('',(0.,0.,1.));
#1181=DIRECTION('',(1.,0.,0.));
#1182=DIRECTION('',(0.,0.,-1.));
#1183=DIRECTION('',(1.,0.,0.));
#1184=DIRECTION('',(0.,1.,0.));
#1185=DIRECTION('',(-1.,0.,0.));
#1186=DIRECTION('',(0.,0.,1.));
#1187=DIRECTION('',(1.,0.,0.));
#1188=DIRECTION('',(0.,0.,-1.));
#1189=DIRECTION('',(1.,0.,0.));
#1190=DIRECTION('',(0.,1.,0.));
#1191=DIRECTION('',(1.,6.20500095888573E-31,-1.44560289664734E-15));
#1192=DIRECTION('',(-1.44560289664734E-15,0.,-1.));
#1193=DIRECTION('',(0.,-1.,0.));
#1194=DIRECTION('',(6.44087818912519E-31,1.,4.7191872699637E-16));
#1195=DIRECTION('',(0.,-4.7191872699637E-16,1.));
#1196=DIRECTION('',(6.44087818912519E-31,1.,4.7191872699637E-16));
#1197=DIRECTION('',(0.,-4.7191872699637E-16,1.));
#1198=DIRECTION('',(6.44087818912519E-31,1.,4.7191872699637E-16));
#1199=DIRECTION('',(0.,-4.7191872699637E-16,1.));
#1200=DIRECTION('',(0.,-4.7191872699637E-16,1.));
#1201=DIRECTION('',(-1.44560289664734E-15,4.7191872699637E-16,-1.));
#1202=DIRECTION('',(-1.,0.,1.44560289664734E-15));
#1203=DIRECTION('',(6.44087818912519E-31,1.,4.7191872699637E-16));
#1204=DIRECTION('',(0.,-4.7191872699637E-16,1.));
#1205=DIRECTION('',(0.,-1.,0.));
#1206=DIRECTION('',(0.,0.,-1.));
#1207=DIRECTION('',(0.,-1.,0.));
#1208=DIRECTION('',(0.,-1.,0.));
#1209=DIRECTION('',(0.,0.,-1.));
#1210=DIRECTION('',(-1.,0.,0.));
#1211=DIRECTION('',(0.,0.,1.));
#1212=DIRECTION('',(0.,-1.,0.));
#1213=DIRECTION('',(0.,0.,1.));
#1214=DIRECTION('',(0.,-1.,0.));
#1215=DIRECTION('',(0.,0.,-1.));
#1216=DIRECTION('',(0.,-1.,0.));
#1217=DIRECTION('',(0.,0.,-1.));
#1218=DIRECTION('',(-0.5,0.,-0.866025403784439));
#1219=DIRECTION('',(-0.866025403784439,0.,0.5));
#1220=DIRECTION('',(0.,-1.,0.));
#1221=DIRECTION('',(-0.5,0.,0.866025403784439));
#1222=DIRECTION('',(0.866025403784439,0.,0.5));
#1223=DIRECTION('',(0.,-1.,0.));
#1224=DIRECTION('',(0.,-1.,0.));
#1225=DIRECTION('',(0.,0.,-1.));
#1226=DIRECTION('',(0.,-1.,0.));
#1227=DIRECTION('',(-1.,0.,0.));
#1228=DIRECTION('',(0.,0.,1.));
#1229=DIRECTION('',(0.,-1.,0.));
#1230=DIRECTION('',(0.,-1.,0.));
#1231=DIRECTION('',(0.,0.,-1.));
#1232=DIRECTION('',(-1.,0.,0.));
#1233=DIRECTION('',(0.,0.,1.));
#1234=DIRECTION('',(-1.,0.,0.));
#1235=DIRECTION('',(0.,0.,1.));
#1236=DIRECTION('',(0.,-1.,0.));
#1237=DIRECTION('',(0.,0.,-1.));
#1238=DIRECTION('',(0.,-1.,0.));
#1239=DIRECTION('',(0.,0.,-1.));
#1240=DIRECTION('',(0.,0.,1.));
#1241=DIRECTION('',(0.,-1.,0.));
#1242=DIRECTION('',(0.,0.,-1.));
#1243=DIRECTION('',(0.,0.,-1.));
#1244=DIRECTION('',(0.,-1.,0.));
#1245=DIRECTION('',(0.,0.,-1.));
#1246=DIRECTION('',(0.,-1.,0.));
#1247=DIRECTION('',(0.,0.,-1.));
#1248=DIRECTION('',(0.,0.,1.));
#1249=DIRECTION('',(0.,-1.,0.));
#1250=DIRECTION('',(0.,0.,-1.));
#1251=DIRECTION('',(0.,0.,-1.));
#1252=DIRECTION('',(0.,0.,1.));
#1253=DIRECTION('',(1.,0.,0.));
#1254=DIRECTION('',(0.,0.,-1.));
#1255=DIRECTION('',(-1.,0.,0.));
#1256=DIRECTION('',(0.,0.,1.));
#1257=DIRECTION('',(1.,0.,0.));
#1258=DIRECTION('',(0.,-1.,0.));
#1259=DIRECTION('',(0.,0.,-1.));
#1260=DIRECTION('',(0.,0.,-1.));
#1261=DIRECTION('',(-1.,0.,0.));
#1262=DIRECTION('',(0.,-1.,0.));
#1263=DIRECTION('',(0.,0.,-1.));
#1264=DIRECTION('',(0.,0.,1.));
#1265=DIRECTION('',(1.,0.,0.));
#1266=DIRECTION('',(0.,0.,-1.));
#1267=DIRECTION('',(-1.,0.,0.));
#1268=DIRECTION('',(0.,0.,-1.));
#1269=DIRECTION('',(-1.,0.,0.));
#1270=DIRECTION('',(0.,0.,-1.));
#1271=DIRECTION('',(-1.,0.,0.));
#1272=DIRECTION('',(0.,0.,1.));
#1273=DIRECTION('',(1.,0.,0.));
#1274=DIRECTION('',(0.,-1.,0.));
#1275=DIRECTION('',(0.,0.,-1.));
#1276=DIRECTION('',(0.,0.,-1.));
#1277=DIRECTION('',(-1.,0.,0.));
#1278=DIRECTION('',(0.,-1.,0.));
#1279=DIRECTION('',(0.,0.,-1.));
#1280=DIRECTION('',(0.,0.,1.));
#1281=DIRECTION('',(1.,0.,0.));
#1282=DIRECTION('',(0.,0.,1.));
#1283=DIRECTION('',(1.,0.,0.));
#1284=CARTESIAN_POINT('',(0.,0.,0.));
#1285=CARTESIAN_POINT('',(0.085,0.0872904833659923,0.0214999999999962));
#1286=CARTESIAN_POINT('',(0.085,0.170784544926627,0.0214999999999997));
#1287=CARTESIAN_POINT('',(0.085,0.170784544926627,0.0134999999999997));
#1288=CARTESIAN_POINT('',(0.085,0.279138537982816,0.01745));
#1289=CARTESIAN_POINT('',(0.085,0.150205265403936,0.01745));
#1290=CARTESIAN_POINT('',(0.085,0.134187791816787,0.01745));
#1291=CARTESIAN_POINT('',(0.085,0.134187791816787,0.02555));
#1292=CARTESIAN_POINT('',(0.085,0.134187791816787,0.02555));
#1293=CARTESIAN_POINT('',(0.085,0.279138537982816,0.02555));
#1294=CARTESIAN_POINT('',(0.085,0.150205265403936,0.02555));
#1295=CARTESIAN_POINT('',(0.085,0.150205265403936,0.037502));
#1296=CARTESIAN_POINT('',(0.085,0.150205265403936,0.0375));
#1297=CARTESIAN_POINT('',(0.085,0.0919216315782778,0.0375));
#1298=CARTESIAN_POINT('',(0.085,0.18007163273713,0.0375));
#1299=CARTESIAN_POINT('',(0.085,0.170784544926627,0.0214999999999998));
#1300=CARTESIAN_POINT('',(0.085,0.180071632737131,0.0055));
#1301=CARTESIAN_POINT('',(0.085,0.0826840272712442,0.0055));
#1302=CARTESIAN_POINT('',(0.085,0.150205265403936,0.00550000000000008));
#1303=CARTESIAN_POINT('',(0.085,0.150205265403936,0.037502));
#1304=CARTESIAN_POINT('',(0.07805,0.279138537982816,0.02555));
#1305=CARTESIAN_POINT('',(0.07805,0.134187791816787,0.02555));
#1306=CARTESIAN_POINT('',(0.0711,0.134187791816787,0.02555));
#1307=CARTESIAN_POINT('',(0.0711,0.279138537982816,0.02555));
#1308=CARTESIAN_POINT('',(0.0711,0.139787791816787,0.02555));
#1309=CARTESIAN_POINT('',(0.07805,0.139787791816787,0.02555));
#1310=CARTESIAN_POINT('',(0.0745825264128509,0.139787791816787,0.0315732156629514));
#1311=CARTESIAN_POINT('',(0.0745825264128509,0.139787791816787,0.0315732156629514));
#1312=CARTESIAN_POINT('',(0.0752615693538723,0.139787791816787,0.0319641303494393));
#1313=CARTESIAN_POINT('',(0.0767356519612341,0.139924303300023,0.0325036347132795));
#1314=CARTESIAN_POINT('',(0.0789901664795205,0.140668804524569,0.0325469384088041));
#1315=CARTESIAN_POINT('',(0.0809431084218966,0.141857671215689,0.0319653587041182));
#1316=CARTESIAN_POINT('',(0.0829999291057181,0.143803319691229,0.030667649813748));
#1317=CARTESIAN_POINT('',(0.0845973734153365,0.146633054925868,0.0284677373086957));
#1318=CARTESIAN_POINT('',(0.085,0.149008604797731,0.0265274220492307));
#1319=CARTESIAN_POINT('',(0.085,0.150205265403936,0.02555));
#1320=CARTESIAN_POINT('',(0.0711,0.279138537982816,0.0215));
#1321=CARTESIAN_POINT('',(0.0711,0.134187791816787,0.01745));
#1322=CARTESIAN_POINT('',(0.0711,0.134187791816787,0.01745));
#1323=CARTESIAN_POINT('',(0.0711,0.279138537982816,0.01745));
#1324=CARTESIAN_POINT('',(0.0711,0.139787791816787,0.01745));
#1325=CARTESIAN_POINT('',(0.0711,0.139787791816787,0.037502));
#1326=CARTESIAN_POINT('',(0.07805,0.279138537982816,0.01745));
#1327=CARTESIAN_POINT('',(0.07805,0.134187791816787,0.01745));
#1328=CARTESIAN_POINT('',(0.0745825264128509,0.139787791816787,0.0114267843370486));
#1329=CARTESIAN_POINT('',(0.0752615693538723,0.139787791816787,0.0110358696505607));
#1330=CARTESIAN_POINT('',(0.0767356519612341,0.139924303300023,0.0104963652867207));
#1331=CARTESIAN_POINT('',(0.0789901664795205,0.14066880452457,0.0104530615911949));
#1332=CARTESIAN_POINT('',(0.0809431084218966,0.141857671215686,0.0110346412958852));
#1333=CARTESIAN_POINT('',(0.082999929105718,0.143803319691244,0.0123323501862338));
#1334=CARTESIAN_POINT('',(0.0845973734153365,0.146633054925748,0.0145322626914513));
#1335=CARTESIAN_POINT('',(0.085,0.149008604797984,0.0164725779504602));
#1336=CARTESIAN_POINT('',(0.085,0.150205265403936,0.01745));
#1337=CARTESIAN_POINT('',(0.0745825264128509,0.139787791816787,0.0114267843370486));
#1338=CARTESIAN_POINT('',(0.07805,0.139787791816787,0.01745));
#1339=CARTESIAN_POINT('',(0.0601,0.131787791816787,0.037502));
#1340=CARTESIAN_POINT('',(0.0601,0.279138537982816,0.0105));
#1341=CARTESIAN_POINT('',(0.0601,0.135829243701114,0.0105));
#1342=CARTESIAN_POINT('',(0.0601,0.127746339932459,0.0105));
#1343=CARTESIAN_POINT('',(0.0601,0.135829243701114,0.037502));
#1344=CARTESIAN_POINT('',(0.0601,0.135829243701114,0.00550000000000011));
#1345=CARTESIAN_POINT('',(0.0601,0.131787791816787,0.0055000000000001));
#1346=CARTESIAN_POINT('',(0.0601,0.127746339932459,0.0055000000000001));
#1347=CARTESIAN_POINT('',(0.0601,0.127746339932459,0.037502));
#1348=CARTESIAN_POINT('',(0.0635282032302755,0.125767065874623,0.037502));
#1349=CARTESIAN_POINT('',(0.0611098189563284,0.12716332068619,0.031916980753731));
#1350=CARTESIAN_POINT('',(0.0626,0.126302964259485,0.0310566243270259));
#1351=CARTESIAN_POINT('',(0.0601,0.127746339932459,0.0325));
#1352=CARTESIAN_POINT('',(0.0611,0.12716898966327,0.0284585481156726));
#1353=CARTESIAN_POINT('',(0.0641,0.125436938855701,0.0284585481156726));
#1354=CARTESIAN_POINT('',(0.0641,0.125436938855701,0.037502));
#1355=CARTESIAN_POINT('',(0.0641,0.125436938855701,0.0145414518843274));
#1356=CARTESIAN_POINT('',(0.0611,0.12716898966327,0.0145414518843274));
#1357=CARTESIAN_POINT('',(0.0626,0.126302964259485,0.0119433756729741));
#1358=CARTESIAN_POINT('',(0.0721963297654154,0.12076252068619,0.0174838192462691));
#1359=CARTESIAN_POINT('',(0.0635282032302754,0.125767065874623,0.0055000000000001));
#1360=CARTESIAN_POINT('',(0.0669564064605509,0.123787791816787,0.00550000000000009));
#1361=CARTESIAN_POINT('',(0.0669564064605509,0.123787791816787,0.037502));
#1362=CARTESIAN_POINT('',(0.0669564064605509,0.123787791816787,0.0375));
#1363=CARTESIAN_POINT('',(0.0635282032302755,0.125767065874623,0.0375));
#1364=CARTESIAN_POINT('',(0.0601,0.127746339932459,0.0375));
#1365=CARTESIAN_POINT('',(0.0601,0.127746339932459,0.037502));
#1366=CARTESIAN_POINT('',(0.0745825264128509,0.113370318229638,0.037502));
#1367=CARTESIAN_POINT('',(0.0745825264128509,0.123787791816787,0.0315732156629514));
#1368=CARTESIAN_POINT('',(0.0752615693538723,0.123787791816787,0.0319641303494393));
#1369=CARTESIAN_POINT('',(0.0767356519612341,0.123651280333551,0.0325036347132795));
#1370=CARTESIAN_POINT('',(0.0789901664795206,0.122906779109005,0.0325469384088041));
#1371=CARTESIAN_POINT('',(0.0809431084218966,0.121717912417885,0.0319653587041181));
#1372=CARTESIAN_POINT('',(0.0829999291057182,0.119772263942344,0.0306676498137482));
#1373=CARTESIAN_POINT('',(0.0845973734153365,0.116942528707707,0.0284677373086934));
#1374=CARTESIAN_POINT('',(0.085,0.114566978835838,0.0265274220492357));
#1375=CARTESIAN_POINT('',(0.085,0.113370318229638,0.02555));
#1376=CARTESIAN_POINT('',(0.085,0.113370318229638,0.02555));
#1377=CARTESIAN_POINT('',(0.0745825264128509,0.123787791816787,0.0315732156629515));
#1378=CARTESIAN_POINT('',(0.085,0.113370318229638,0.037502));
#1379=CARTESIAN_POINT('',(0.085,0.113370318229638,0.0375));
#1380=CARTESIAN_POINT('',(0.0745825264128509,0.113370318229638,0.0375));
#1381=CARTESIAN_POINT('',(0.0745825264128509,0.123787791816787,0.0375));
#1382=CARTESIAN_POINT('',(0.0745825264128509,0.123787791816787,0.037502));
#1383=CARTESIAN_POINT('',(0.0745825264128509,0.113370318229638,0.037502));
#1384=CARTESIAN_POINT('',(0.0745825264128509,0.123787791816787,0.0114267843370486));
#1385=CARTESIAN_POINT('',(0.0752615693538723,0.123787791816787,0.0110358696505607));
#1386=CARTESIAN_POINT('',(0.0767356519612342,0.123651280333551,0.0104963652867207));
#1387=CARTESIAN_POINT('',(0.0789901664795205,0.122906779109004,0.010453061591195));
#1388=CARTESIAN_POINT('',(0.0809431084218966,0.121717912417887,0.0110346412958852));
#1389=CARTESIAN_POINT('',(0.082999929105718,0.11977226394233,0.012332350186234));
#1390=CARTESIAN_POINT('',(0.0845973734153365,0.116942528707824,0.0145322626914496));
#1391=CARTESIAN_POINT('',(0.085,0.114566978835593,0.0164725779504638));
#1392=CARTESIAN_POINT('',(0.085,0.113370318229638,0.01745));
#1393=CARTESIAN_POINT('',(0.0745825264128509,0.123787791816787,0.0114267843370486));
#1394=CARTESIAN_POINT('',(0.085,0.113370318229638,0.01745));
#1395=CARTESIAN_POINT('',(0.0745825264128509,0.123787791816787,0.037502));
#1396=CARTESIAN_POINT('',(0.0745825264128509,0.123787791816787,0.00550000000000008));
#1397=CARTESIAN_POINT('',(0.0745825264128509,0.113370318229638,0.00550000000000007));
#1398=CARTESIAN_POINT('',(0.085,0.113370318229638,0.0055));
#1399=CARTESIAN_POINT('',(0.085,0.113370318229638,0.037502));
#1400=CARTESIAN_POINT('',(0.0745825264128509,0.150205265403936,0.037502));
#1401=CARTESIAN_POINT('',(0.0745825264128509,0.139787791816787,0.037502));
#1402=CARTESIAN_POINT('',(0.0745825264128509,0.139787791816787,0.0375));
#1403=CARTESIAN_POINT('',(0.0745825264128509,0.150205265403936,0.0375));
#1404=CARTESIAN_POINT('',(0.0745825264128509,0.150205265403936,0.037502));
#1405=CARTESIAN_POINT('',(0.0745825264128509,0.139787791816787,0.037502));
#1406=CARTESIAN_POINT('',(0.0745825264128509,0.139787791816787,0.00550000000000009));
#1407=CARTESIAN_POINT('',(0.0745825264128509,0.150205265403936,0.00550000000000009));
#1408=CARTESIAN_POINT('',(0.0635282032302755,0.13780851775895,0.037502));
#1409=CARTESIAN_POINT('',(0.0611,0.136406593970304,0.0284585481156726));
#1410=CARTESIAN_POINT('',(0.0626,0.137272619374088,0.0310566243270259));
#1411=CARTESIAN_POINT('',(0.0641,0.138138644777873,0.0284585481156726));
#1412=CARTESIAN_POINT('',(0.0611098189563284,0.136412262947383,0.031916980753731));
#1413=CARTESIAN_POINT('',(0.0601,0.135829243701114,0.0325));
#1414=CARTESIAN_POINT('',(0.0601,0.135829243701114,0.037502));
#1415=CARTESIAN_POINT('',(0.0601,0.135829243701114,0.0375));
#1416=CARTESIAN_POINT('',(0.0635282032302755,0.13780851775895,0.0375));
#1417=CARTESIAN_POINT('',(0.0669564064605509,0.139787791816787,0.0375));
#1418=CARTESIAN_POINT('',(0.0669564064605509,0.139787791816787,0.037502));
#1419=CARTESIAN_POINT('',(0.0669564064605509,0.139787791816787,0.0055000000000001));
#1420=CARTESIAN_POINT('',(0.0635282032302754,0.13780851775895,0.0055000000000001));
#1421=CARTESIAN_POINT('',(0.0721963297654154,0.142813062947383,0.0174838192462691));
#1422=CARTESIAN_POINT('',(0.0626,0.137272619374088,0.0119433756729741));
#1423=CARTESIAN_POINT('',(0.0611,0.136406593970304,0.0145414518843274));
#1424=CARTESIAN_POINT('',(0.0641,0.138138644777873,0.0145414518843274));
#1425=CARTESIAN_POINT('',(0.0641,0.138138644777873,0.037502));
#1426=CARTESIAN_POINT('',(0.097002,0.00781308230375283,0.0305));
#1427=CARTESIAN_POINT('',(0.085,0.00781308230375283,0.0305));
#1428=CARTESIAN_POINT('',(0.085,0.00781308230375283,0.0285));
#1429=CARTESIAN_POINT('',(0.089,0.00781308230375283,0.0305));
#1430=CARTESIAN_POINT('',(0.089,0.00781308230375283,0.0285));
#1431=CARTESIAN_POINT('',(0.097002,0.00298999683999264,0.0124999999999997));
#1432=CARTESIAN_POINT('',(0.085,0.00298999683999264,0.0124999999999997));
#1433=CARTESIAN_POINT('',(0.085,0.00298999683999264,0.0104999999999997));
#1434=CARTESIAN_POINT('',(0.089,0.00298999683999264,0.0124999999999997));
#1435=CARTESIAN_POINT('',(0.089,0.00298999683999264,0.0104999999999997));
#1436=CARTESIAN_POINT('',(0.097002,0.0919216315782778,0.0375));
#1437=CARTESIAN_POINT('',(0.097002,0.0037716304194256,0.0375));
#1438=CARTESIAN_POINT('',(0.088,0.00377163041942559,0.0375));
#1439=CARTESIAN_POINT('',(0.085,0.0037716304194256,0.0375));
#1440=CARTESIAN_POINT('',(0.088,0.279138537982816,0.0375));
#1441=CARTESIAN_POINT('',(0.088,0.177873268366006,0.0375));
#1442=CARTESIAN_POINT('',(0.0869999999999999,0.18007163273713,0.0375));
#1443=CARTESIAN_POINT('',(0.0873633080532849,0.179347918358316,0.0375));
#1444=CARTESIAN_POINT('',(0.0876991824889957,0.178615899459967,0.0375));
#1445=CARTESIAN_POINT('',(0.0879999999999999,0.177873268366005,0.0375));
#1446=CARTESIAN_POINT('',(0.087,0.18007163273713,0.0375));
#1447=CARTESIAN_POINT('',(0.097002,0.18007163273713,0.0375));
#1448=CARTESIAN_POINT('',(0.0707694664367009,0.139787791816787,0.0375));
#1449=CARTESIAN_POINT('',(0.0601,0.131787791816787,0.0375));
#1450=CARTESIAN_POINT('',(0.0707694664367009,0.123787791816787,0.0375));
#1451=CARTESIAN_POINT('',(0.085,0.0919216315782778,0.0375));
#1452=CARTESIAN_POINT('',(0.0671,0.131787791816787,0.0375));
#1453=CARTESIAN_POINT('',(0.0684,0.131787791816787,0.0375));
#1454=CARTESIAN_POINT('',(0.097002,-0.00546597388760839,0.0215));
#1455=CARTESIAN_POINT('',(0.097002,-0.0147035781946424,0.0055));
#1456=CARTESIAN_POINT('',(0.097,-0.0147035781946425,0.0055));
#1457=CARTESIAN_POINT('',(0.085,-0.0147035781946424,0.0055));
#1458=CARTESIAN_POINT('',(0.0927521286010601,-0.00598354372118167,0.0206035427517861));
#1459=CARTESIAN_POINT('',(0.085,-0.00546597388760839,0.0215));
#1460=CARTESIAN_POINT('',(0.097002,0.0826840272712442,0.0055));
#1461=CARTESIAN_POINT('',(0.0671,0.131787791816787,0.00550000000000009));
#1462=CARTESIAN_POINT('',(0.0684,0.131787791816787,0.00550000000000009));
#1463=CARTESIAN_POINT('',(0.097002,0.180071632737131,0.0055));
#1464=CARTESIAN_POINT('',(0.0923882573111798,0.180071632737131,0.0055));
#1465=CARTESIAN_POINT('',(0.143279740701632,0.12738489219726,0.0055));
#1466=CARTESIAN_POINT('',(0.097,0.175297205381215,0.0055));
#1467=CARTESIAN_POINT('',(0.097,0.0826840272712442,0.0055));
#1468=CARTESIAN_POINT('',(0.085,0.0826840272712442,0.0055));
#1469=CARTESIAN_POINT('',(0.0707694664367009,0.123787791816787,0.00550000000000009));
#1470=CARTESIAN_POINT('',(0.0707694664367009,0.139787791816787,0.00550000000000009));
#1471=CARTESIAN_POINT('',(0.097002,0.038,0.0214999999999997));
#1472=CARTESIAN_POINT('',(0.089,0.038,0.0214999999999997));
#1473=CARTESIAN_POINT('',(0.089,0.038,0.0174999999999997));
#1474=CARTESIAN_POINT('',(0.0925,0.038,0.0214999999999997));
#1475=CARTESIAN_POINT('',(0.091375,0.038,0.0254999999999997));
#1476=CARTESIAN_POINT('',(0.097002,0.170784544926627,0.0214999999999997));
#1477=CARTESIAN_POINT('',(0.089,0.170784544926627,0.0214999999999997));
#1478=CARTESIAN_POINT('',(0.089,0.170784544926627,0.0174999999999997));
#1479=CARTESIAN_POINT('',(0.0925,0.170784544926627,0.0214999999999997));
#1480=CARTESIAN_POINT('',(0.091375,0.170784544926627,0.0254999999999997));
#1481=CARTESIAN_POINT('',(0.097002,0.170784544926627,0.0214999999999998));
#1482=CARTESIAN_POINT('',(0.087,0.170784544926627,0.0214999999999997));
#1483=CARTESIAN_POINT('',(0.087,0.188654172712975,0.0167118476656031));
#1484=CARTESIAN_POINT('',(0.1055,0.170784544926627,0.0214999999999998));
#1485=CARTESIAN_POINT('',(0.085,0.0872904833659923,0.0214999999999962));
#1486=CARTESIAN_POINT('',(0.085,0.038,0.0214999999999997));
#1487=CARTESIAN_POINT('',(0.085,0.038,0.0134999999999997));
#1488=CARTESIAN_POINT('',(0.085,0.279138537982816,0.02555));
#1489=CARTESIAN_POINT('',(0.085,0.129387791816787,0.02555));
#1490=CARTESIAN_POINT('',(0.085,0.129387791816787,0.0214999999999962));
#1491=CARTESIAN_POINT('',(0.085,0.129387791816787,0.01745));
#1492=CARTESIAN_POINT('',(0.085,0.279138537982816,0.01745));
#1493=CARTESIAN_POINT('',(0.092,0.157942639071278,-0.0785866397377912));
#1494=CARTESIAN_POINT('',(0.092,0.183824543581529,0.0180059428911157));
#1495=CARTESIAN_POINT('',(0.0933820967887508,0.182489540598844,0.0183636558622194));
#1496=CARTESIAN_POINT('',(0.115669674636434,0.138182183074431,-0.0608810653739876));
#1497=CARTESIAN_POINT('',(0.087,0.170784544926627,0.0214999999999997));
#1498=CARTESIAN_POINT('',(0.0913833510074232,0.170784544926627,0.025470307529162));
#1499=CARTESIAN_POINT('',(0.0925,0.279138537982816,0.0215));
#1500=CARTESIAN_POINT('',(0.08996875,0.00781308230375283,0.0305));
#1501=CARTESIAN_POINT('',(0.089,0.00491725729710379,0.0339444444444444));
#1502=CARTESIAN_POINT('',(0.089,0.0107089073104019,0.0339444444444444));
#1503=CARTESIAN_POINT('',(0.089,0.279138537982816,0.0339444444444444));
#1504=CARTESIAN_POINT('',(0.09503125,0.00298999683999264,0.0124999999999997));
#1505=CARTESIAN_POINT('',(0.093765625,0.00298999683999264,0.0169999999999997));
#1506=CARTESIAN_POINT('',(0.114,0.00298999683999264,0.0124999999999997));
#1507=CARTESIAN_POINT('',(0.089,0.00298999683999264,0.0124999999999997));
#1508=CARTESIAN_POINT('',(0.089,0.00298999683999264,0.00799999999999972));
#1509=CARTESIAN_POINT('',(0.089,0.00540153957187274,0.0214999999999997));
#1510=CARTESIAN_POINT('',(0.114,0.00781308230375283,0.0305));
#1511=CARTESIAN_POINT('',(0.089,0.00781308230375283,0.0305));
#1512=CARTESIAN_POINT('',(0.089,0.00540153957187274,0.0214999999999997));
#1513=CARTESIAN_POINT('',(0.0601,0.131787791816787,0.037502));
#1514=CARTESIAN_POINT('',(0.0601,0.279138537982816,0.0325));
#1515=CARTESIAN_POINT('',(0.0707694664367009,0.123787791816787,0.037502));
#1516=CARTESIAN_POINT('',(0.07805,0.123787791816787,0.02555));
#1517=CARTESIAN_POINT('',(0.0711,0.123787791816787,0.02555));
#1518=CARTESIAN_POINT('',(0.07805,0.123787791816787,0.01745));
#1519=CARTESIAN_POINT('',(0.0711,0.123787791816787,0.01745));
#1520=CARTESIAN_POINT('',(0.0711,0.123787791816787,0.037502));
#1521=CARTESIAN_POINT('',(0.0671,0.131787791816787,0.037502));
#1522=CARTESIAN_POINT('',(0.0707694664367009,0.139787791816787,0.037502));
#1523=CARTESIAN_POINT('',(0.07805,0.279138537982816,0.02555));
#1524=CARTESIAN_POINT('',(0.0711,0.279138537982816,0.02555));
#1525=CARTESIAN_POINT('',(0.0711,0.129387791816787,0.02555));
#1526=CARTESIAN_POINT('',(0.07805,0.129387791816787,0.02555));
#1527=CARTESIAN_POINT('',(0.0711,0.279138537982816,0.0215));
#1528=CARTESIAN_POINT('',(0.0711,0.279138537982816,0.01745));
#1529=CARTESIAN_POINT('',(0.0711,0.129387791816787,0.01745));
#1530=CARTESIAN_POINT('',(0.0711,0.129387791816787,0.0215));
#1531=CARTESIAN_POINT('',(0.07805,0.279138537982816,0.01745));
#1532=CARTESIAN_POINT('',(0.07805,0.129387791816787,0.01745));
#1533=CARTESIAN_POINT('',(0.06135,0.279138537982816,0.0317783121635129));
#1534=CARTESIAN_POINT('',(0.0626,0.279138537982816,0.0310566243270259));
#1535=CARTESIAN_POINT('',(0.06135,0.279138537982816,0.011221687836487));
#1536=CARTESIAN_POINT('',(0.0626,0.279138537982816,0.0119433756729741));
#1537=CARTESIAN_POINT('',(0.0611,0.279138537982816,0.0145414518843274));
#1538=CARTESIAN_POINT('',(0.0641,0.279138537982816,0.0145414518843274));
#1539=CARTESIAN_POINT('',(0.0641,0.279138537982816,0.0215));
#1540=CARTESIAN_POINT('',(0.0641,0.279138537982816,0.0284585481156726));
#1541=CARTESIAN_POINT('',(0.0611,0.279138537982816,0.0284585481156726));
#1542=CARTESIAN_POINT('',(0.085,0.170784544926627,0.0214999999999997));
#1543=CARTESIAN_POINT('',(0.085,0.038,0.0214999999999997));
#1544=CARTESIAN_POINT('',(0.0782,0.130987791816787,0.005498));
#1545=CARTESIAN_POINT('',(0.07805,0.130987791816787,0.02555));
#1546=CARTESIAN_POINT('',(0.0834,0.130987791816787,0.02555));
#1547=CARTESIAN_POINT('',(0.0727,0.130987791816787,0.02555));
#1548=CARTESIAN_POINT('',(0.0727,0.130987791816787,0.005498));
#1549=CARTESIAN_POINT('',(0.0727,0.130987791816787,0.01745));
#1550=CARTESIAN_POINT('',(0.07805,0.130987791816787,0.01745));
#1551=CARTESIAN_POINT('',(0.0834,0.130987791816787,0.01745));
#1552=CARTESIAN_POINT('',(0.0834,0.130987791816787,0.005498));
#1553=CARTESIAN_POINT('',(0.0782,0.132587791816787,0.005498));
#1554=CARTESIAN_POINT('',(0.07805,0.132587791816787,0.01745));
#1555=CARTESIAN_POINT('',(0.0834,0.132587791816787,0.01745));
#1556=CARTESIAN_POINT('',(0.0727,0.132587791816787,0.01745));
#1557=CARTESIAN_POINT('',(0.0727,0.132587791816787,0.02555));
#1558=CARTESIAN_POINT('',(0.0727,0.132587791816787,0.02555));
#1559=CARTESIAN_POINT('',(0.07805,0.132587791816787,0.02555));
#1560=CARTESIAN_POINT('',(0.0834,0.132587791816787,0.02555));
#1561=CARTESIAN_POINT('',(0.0834,0.132587791816787,0.01745));
#1562=CARTESIAN_POINT('',(0.0834,0.134187791816787,0.005498));
#1563=CARTESIAN_POINT('',(0.0834,0.134187791816787,0.02555));
#1564=CARTESIAN_POINT('',(0.0834,0.134187791816787,0.01745));
#1565=CARTESIAN_POINT('',(0.07805,0.134187791816787,0.01745));
#1566=CARTESIAN_POINT('',(0.0727,0.134187791816787,0.01745));
#1567=CARTESIAN_POINT('',(0.07805,0.134187791816787,0.02555));
#1568=CARTESIAN_POINT('',(0.0727,0.134187791816787,0.02555));
#1569=CARTESIAN_POINT('',(0.0727,0.134187791816787,0.005498));
#1570=CARTESIAN_POINT('',(0.0834,0.129387791816787,0.0214999999999962));
#1571=CARTESIAN_POINT('',(0.0834,0.129387791816787,0.02555));
#1572=CARTESIAN_POINT('',(0.0834,0.129387791816787,0.01745));
#1573=CARTESIAN_POINT('',(0.07805,0.129387791816787,0.01745));
#1574=CARTESIAN_POINT('',(0.0727,0.129387791816787,0.01745));
#1575=CARTESIAN_POINT('',(0.07805,0.129387791816787,0.02555));
#1576=CARTESIAN_POINT('',(0.0727,0.129387791816787,0.02555));
#1577=CARTESIAN_POINT('',(0.0727,0.129387791816787,0.0215));
#1578=MECHANICAL_DESIGN_GEOMETRIC_PRESENTATION_REPRESENTATION('',(#903),#1579);
#1579=(
GEOMETRIC_REPRESENTATION_CONTEXT(3)
GLOBAL_UNCERTAINTY_ASSIGNED_CONTEXT((#1580))
GLOBAL_UNIT_ASSIGNED_CONTEXT((#1583,#1582,#1581))
REPRESENTATION_CONTEXT('left-side-armour','TOP_LEVEL_ASSEMBLY_PART')
);
#1580=UNCERTAINTY_MEASURE_WITH_UNIT(LENGTH_MEASURE(2.E-05),#1583,'DISTANCE_ACCURACY_VALUE','Maximum Tolerance applied to model');
#1581=(
NAMED_UNIT(*)
SI_UNIT($,.STERADIAN.)
SOLID_ANGLE_UNIT()
);
#1582=(
NAMED_UNIT(*)
PLANE_ANGLE_UNIT()
SI_UNIT($,.RADIAN.)
);
#1583=(
LENGTH_UNIT()
NAMED_UNIT(*)
SI_UNIT($,.METRE.)
);
#1584=PRODUCT_DEFINITION_SHAPE('','',#1585);
#1585=PRODUCT_DEFINITION('','',#1587,#1586);
#1586=PRODUCT_DEFINITION_CONTEXT('',#1593,'design');
#1587=PRODUCT_DEFINITION_FORMATION_WITH_SPECIFIED_SOURCE('','',#1589,.NOT_KNOWN.);
#1588=PRODUCT_RELATED_PRODUCT_CATEGORY('','',(#1589));
#1589=PRODUCT('left-side-armour','left-side-armour','left-side-armour',(#1591));
#1590=PRODUCT_CATEGORY('','');
#1591=PRODUCT_CONTEXT('',#1593,'mechanical');
#1592=APPLICATION_PROTOCOL_DEFINITION('international standard','ap242_managed_model_based_3d_engineering',2020,#1593);
#1593=APPLICATION_CONTEXT('managed model based 3d engineering');
ENDSEC;
END-ISO-10303-21;
